<?xml version="1.0" standalone="no"?>
<!DOCTYPE svg PUBLIC "-//W3C//DTD SVG 20010904//EN"
 "http://www.w3.org/TR/2001/REC-SVG-20010904/DTD/svg10.dtd">
<svg version="1.0" xmlns="http://www.w3.org/2000/svg"
 width="1024.000000pt" height="1024.000000pt" viewBox="0 0 1024.000000 1024.000000"
 preserveAspectRatio="xMidYMid meet">
<metadata>
Created by potrace 1.16, written by Peter Selinger 2001-2019
</metadata>
<g transform="translate(0.000000,1024.000000) scale(0.100000,-0.100000)"
fill="#000000" stroke="none">
<path d="M4740 10109 c-483 -40 -1038 -168 -1445 -334 -49 -21 -110 -45 -135
-55 -78 -31 -280 -130 -405 -198 -545 -297 -1004 -667 -1415 -1143 -106 -123
-149 -177 -232 -288 -37 -50 -186 -271 -241 -358 -97 -151 -286 -518 -347
-673 -227 -571 -324 -977 -380 -1585 -5 -60 -10 -199 -10 -307 l0 -198 38 0
c20 0 168 7 327 15 160 7 376 16 480 20 174 5 286 12 291 18 1 1 7 106 13 232
24 516 132 977 336 1429 435 967 1265 1725 2260 2064 330 113 625 172 999 202
242 19 464 10 771 -30 626 -82 1265 -345 1763 -724 51 -39 107 -81 125 -94 72
-52 297 -264 410 -386 631 -688 997 -1583 1020 -2496 l4 -155 94 -6 c52 -4
304 -12 562 -19 350 -10 470 -11 479 -2 15 15 -4 398 -32 648 -125 1126 -634
2173 -1449 2984 -439 437 -942 781 -1503 1029 -145 64 -148 65 -328 131 -402
145 -878 247 -1320 280 -158 12 -578 11 -730 -1z m354 -496 c3 -126 8 -258 11
-294 5 -63 4 -67 -18 -73 -64 -17 -61 -21 -127 184 -33 105 -63 190 -66 190
-2 0 -2 -17 0 -37 3 -21 8 -107 11 -190 l5 -153 -39 0 -39 0 -6 63 c-3 34 -8
167 -12 295 l-7 232 45 0 44 0 61 -187 61 -188 -5 193 -6 192 40 0 41 0 6
-227z m315 202 c45 -39 56 -82 54 -230 -3 -230 -29 -322 -101 -352 -37 -15
-89 -11 -124 10 -58 35 -79 159 -59 360 18 188 48 237 147 237 42 0 59 -5 83
-25z m-709 -7 c0 -7 14 -125 30 -263 39 -324 39 -311 -6 -320 -20 -3 -38 -5
-39 -3 -2 2 -9 44 -14 93 -6 50 -13 109 -16 131 l-6 41 -47 -4 c-26 -3 -50 -8
-54 -12 -4 -3 0 -61 9 -129 9 -67 13 -125 11 -128 -3 -3 -22 -7 -41 -11 -32
-5 -37 -3 -41 18 -8 33 -67 561 -64 565 2 1 21 4 43 6 l40 3 7 -70 c4 -38 10
-90 13 -113 l6 -44 52 7 c29 4 53 8 54 9 0 0 -4 50 -11 109 -12 107 -12 109 8
117 32 13 66 12 66 -2z m955 -7 c4 -8 -35 -366 -50 -453 -5 -29 -3 -30 99 -43
l48 -7 -7 -46 c-4 -26 -8 -48 -10 -50 -1 -2 -53 3 -114 9 -131 14 -120 -10
-92 214 10 83 25 203 32 268 l12 117 38 0 c21 0 40 -4 44 -9z m-1360 -75 c34
-36 64 -121 49 -136 -5 -4 -22 -10 -38 -12 -25 -3 -31 1 -39 27 -21 64 -69 87
-87 41 -10 -26 -2 -90 26 -226 25 -119 43 -168 65 -175 36 -12 51 13 48 79
l-3 60 35 8 c19 3 38 2 44 -3 5 -5 10 -46 10 -90 0 -80 0 -81 -37 -115 -32
-29 -45 -34 -84 -34 -42 0 -51 5 -84 39 -40 42 -63 110 -94 280 -39 207 -7
290 113 291 37 0 49 -5 76 -34z m1783 14 c69 -42 77 -127 31 -337 -42 -196
-80 -253 -165 -253 -130 0 -161 90 -114 334 28 144 53 208 96 245 42 38 101
42 152 11z m-2089 -94 c6 -22 9 -41 7 -43 -2 -2 -32 -12 -67 -22 -35 -10 -64
-22 -64 -27 1 -30 29 -114 38 -114 7 0 37 7 67 15 30 8 55 13 56 12 8 -9 22
-83 16 -87 -4 -4 -32 -14 -63 -23 l-57 -17 18 -71 c10 -39 21 -73 23 -76 3 -2
35 4 72 15 l66 20 10 -26 c27 -68 23 -74 -81 -103 -52 -15 -102 -28 -110 -28
-12 -1 -33 63 -89 272 -41 149 -76 277 -78 283 -5 13 208 76 219 65 3 -3 11
-24 17 -45z m2470 -4 c34 -25 53 -84 45 -137 -9 -62 -16 -70 -55 -59 -32 9
-33 11 -30 57 3 54 -10 77 -44 77 -33 0 -54 -30 -85 -122 -45 -132 -66 -243
-52 -273 14 -30 51 -34 75 -7 13 14 47 92 47 107 0 2 -12 6 -26 9 -24 6 -25
10 -19 44 11 60 12 61 93 37 30 -9 52 -22 52 -30 0 -17 -77 -285 -84 -292 -3
-3 -17 -3 -31 1 -22 6 -24 10 -19 33 l7 27 -28 -22 c-33 -26 -53 -27 -101 -7
-71 30 -78 101 -28 298 48 188 92 267 160 286 36 10 90 -2 123 -27z m-2759
-67 c15 -46 9 -62 -29 -70 -17 -4 -33 -10 -36 -15 -3 -4 29 -106 70 -225 41
-120 75 -224 75 -231 0 -11 -67 -41 -74 -32 -2 1 -38 104 -81 228 -43 124 -79
226 -80 228 -1 1 -21 -5 -45 -13 -24 -8 -44 -14 -45 -13 -14 25 -31 89 -24 94
19 11 225 83 241 83 10 1 21 -12 28 -34z m2977 -6 c20 -8 22 -13 17 -81 -3
-40 -6 -90 -8 -110 -2 -21 -2 -38 0 -38 1 0 31 37 65 83 34 45 64 84 66 86 5
7 83 -22 83 -31 0 -4 -49 -68 -110 -142 -103 -127 -111 -140 -151 -247 -23
-63 -43 -116 -45 -117 -7 -9 -74 21 -74 34 0 7 18 61 40 119 37 98 40 112 40
209 0 56 3 138 6 180 8 83 4 80 71 55z m-3439 -156 c5 -16 13 -36 17 -46 6
-14 -5 -23 -59 -47 -36 -17 -66 -32 -66 -35 0 -13 55 -115 62 -115 5 0 31 11
58 25 27 14 53 25 58 25 8 0 42 -63 42 -79 0 -5 -27 -20 -60 -34 -33 -15 -60
-30 -60 -34 0 -4 23 -55 50 -112 28 -57 50 -107 50 -112 0 -10 -67 -45 -74
-38 -3 4 -172 365 -222 477 l-24 53 102 49 c57 28 106 50 110 50 3 0 11 -12
16 -27z m4045 -123 c31 -35 33 -56 11 -108 -19 -45 -57 -87 -95 -102 -24 -10
-29 -19 -35 -66 -3 -30 -4 -58 -1 -61 4 -3 16 11 28 31 11 20 23 36 25 36 13
0 54 -25 54 -33 0 -17 -57 -100 -90 -132 -27 -26 -30 -35 -30 -87 0 -32 -2
-58 -5 -58 -20 0 -75 37 -75 51 0 14 -9 17 -43 17 -53 -1 -82 14 -107 55 -28
45 -25 94 11 165 31 63 61 91 123 117 31 13 36 20 36 48 0 47 43 133 77 151
38 22 82 12 116 -24z m-4390 -44 c59 -25 125 -112 205 -271 54 -108 66 -154
52 -205 -14 -52 -67 -90 -128 -90 -36 0 -49 6 -88 42 -25 23 -71 85 -102 137
-123 210 -139 295 -67 358 32 28 46 34 88 42 4 0 22 -5 40 -13z m4866 -214
c56 -42 61 -119 11 -200 l-20 -32 -34 22 -34 22 19 39 c23 43 18 73 -13 83
-16 5 -28 0 -45 -20 -28 -33 -28 -42 -2 -151 12 -53 18 -99 14 -118 -10 -46
-49 -110 -90 -146 -100 -87 -253 19 -205 143 5 14 21 43 35 66 27 42 31 43 79
8 17 -14 17 -16 -10 -64 -31 -56 -28 -80 11 -90 30 -8 53 9 71 52 11 26 10 45
-7 125 -23 111 -19 152 22 209 58 80 134 100 198 52z m-5270 -59 l24 -37 -25
-20 c-13 -12 -39 -32 -57 -46 l-32 -25 37 -52 37 -53 46 33 c25 18 51 36 57
40 7 4 22 -10 38 -33 l26 -39 -55 -39 -54 -39 42 -61 c23 -34 46 -62 51 -62 4
0 29 15 55 33 25 19 51 37 57 40 10 6 71 -70 62 -78 -7 -6 -164 -121 -175
-128 -7 -5 -70 75 -174 220 -89 126 -166 233 -171 240 -7 8 16 31 79 77 48 36
93 65 98 66 6 0 21 -17 34 -37z m5542 -146 c73 -48 80 -108 24 -203 l-26 -44
-34 26 -35 26 21 29 c28 40 23 83 -11 87 -18 2 -36 -8 -66 -40 -61 -62 -183
-227 -190 -254 -16 -65 36 -73 92 -15 l37 40 28 -22 c16 -11 29 -26 29 -32 0
-22 -97 -106 -133 -116 -71 -19 -147 39 -147 113 0 55 21 98 92 191 103 137
156 194 201 216 54 27 76 26 118 -2z m-5789 -24 c36 -34 35 -47 -2 -73 -16
-12 -30 -25 -30 -30 0 -5 68 -91 150 -191 83 -100 150 -185 150 -189 0 -3 -14
-17 -31 -29 -37 -28 -15 -48 -203 182 -144 176 -148 178 -186 133 -19 -24 -32
-20 -62 18 l-27 33 27 26 c35 33 176 147 181 147 3 0 18 -12 33 -27z m6003
-168 l29 -24 -20 -23 c-12 -13 -92 -104 -179 -203 -87 -99 -166 -189 -177
-200 -18 -19 -18 -19 -48 11 l-30 30 191 217 c105 119 194 217 198 217 3 -1
19 -12 36 -25z m-6100 -234 c174 -183 194 -235 124 -316 -38 -42 -79 -59 -126
-51 -33 6 -63 33 -215 188 -98 100 -178 187 -178 193 0 6 12 22 26 36 l26 24
167 -173 c149 -155 170 -173 195 -170 36 4 51 27 42 62 -4 15 -57 79 -118 144
-62 64 -132 138 -157 164 l-45 48 29 30 29 30 37 -37 c20 -21 94 -98 164 -172z
m6279 60 l78 -79 -22 -30 c-13 -17 -29 -33 -35 -36 -7 -2 -34 18 -61 45 l-48
49 -43 -42 c-24 -23 -43 -47 -43 -53 0 -7 18 -28 40 -49 22 -20 40 -40 40 -45
0 -4 -14 -20 -30 -36 l-30 -29 -43 42 c-24 23 -47 42 -52 42 -13 0 -105 -92
-105 -104 0 -6 23 -33 50 -61 l50 -51 -35 -34 -35 -34 -80 79 c-44 44 -80 84
-80 89 0 9 389 412 400 415 3 0 41 -34 84 -78z m-6694 -136 l34 -35 -27 -28
c-15 -15 -27 -32 -27 -38 0 -5 79 -81 175 -167 96 -87 175 -162 175 -166 0 -4
-12 -19 -27 -34 l-28 -26 -180 164 -180 164 -33 -36 -33 -37 -36 36 -36 37 89
99 c49 55 91 101 95 101 3 1 20 -15 39 -34z m6875 -49 l26 -34 -99 -154 c-54
-84 -102 -160 -107 -168 -9 -15 29 17 195 164 l85 75 22 -21 c13 -12 23 -27
23 -34 0 -7 -97 -98 -217 -203 -209 -185 -217 -191 -236 -174 -43 40 -42 46
46 180 45 71 94 146 107 168 l24 40 -59 -52 c-33 -28 -98 -86 -145 -127 l-85
-76 -22 26 c-13 14 -23 29 -23 34 0 8 428 390 436 390 2 0 15 -15 29 -34z
m-7026 -264 c173 -143 324 -267 334 -273 11 -7 -28 -69 -43 -69 -10 0 -445
351 -449 363 -4 9 36 67 45 67 3 0 54 -40 113 -88z m-161 -59 l33 -28 -27 -38
c-15 -20 -25 -39 -23 -40 2 -2 90 -66 194 -142 105 -76 192 -140 194 -141 2
-2 -8 -19 -23 -38 l-26 -35 -188 137 c-103 76 -192 141 -199 145 -7 4 -20 -7
-33 -28 -26 -42 -36 -43 -78 -7 l-31 27 76 108 c43 59 82 107 88 107 6 0 25
-12 43 -27z m7452 2 c34 -18 70 -73 70 -109 0 -36 -21 -74 -63 -115 -39 -37
-55 -37 -76 2 -13 24 -12 29 18 62 17 20 31 40 31 45 0 13 -30 40 -45 40 -28
0 -253 -166 -299 -221 -21 -24 -24 -34 -16 -50 14 -26 45 -24 96 6 l43 25 20
-26 c25 -32 26 -37 4 -56 -64 -56 -161 -73 -207 -37 -63 50 -69 114 -17 186
35 48 211 184 297 229 72 37 101 41 144 19z m225 -327 c62 -99 62 -105 9 -139
l-31 -19 -37 60 c-21 33 -40 60 -43 60 -9 0 -103 -61 -103 -67 0 -3 14 -28 30
-55 17 -26 30 -52 30 -57 0 -9 -61 -51 -73 -51 -3 0 -17 19 -31 43 -14 23 -29
48 -34 55 -7 10 -24 4 -75 -28 -41 -26 -64 -47 -60 -54 4 -6 22 -35 40 -63
l33 -53 -40 -26 c-35 -23 -43 -25 -54 -13 -22 24 -118 180 -114 185 8 8 483
312 489 313 3 1 32 -40 64 -91z m-7817 -1 c23 -11 42 -23 42 -25 0 -3 -9 -20
-20 -38 l-21 -33 -35 21 c-29 17 -39 19 -60 9 -36 -16 -30 -61 11 -80 27 -13
39 -12 115 7 106 27 148 28 205 1 67 -32 115 -90 115 -140 0 -77 -53 -139
-120 -139 -37 0 -142 46 -147 65 -2 6 6 25 17 43 l20 33 28 -20 c60 -42 112
-36 112 14 0 31 -44 65 -84 65 -17 0 -70 -10 -117 -22 -110 -28 -151 -18 -221
52 -41 40 -48 53 -48 87 0 52 35 104 80 120 40 13 68 9 128 -20z m140 -464
c45 -25 82 -47 82 -49 0 -5 -30 -66 -35 -72 -2 -2 -329 63 -370 75 -43 12 5
-17 145 -87 80 -40 151 -77 157 -82 10 -8 9 -17 -4 -42 -8 -17 -17 -33 -19
-35 -1 -1 -45 19 -96 47 -51 27 -165 87 -253 132 -88 46 -162 84 -164 86 -2 2
4 22 14 44 14 32 22 39 39 35 48 -11 361 -75 366 -75 3 0 -69 39 -160 86 -91
47 -167 88 -169 90 -3 2 3 20 12 40 l17 35 178 -92 c97 -50 214 -112 260 -136z
m7979 -94 c37 -85 41 -136 14 -171 -31 -39 -116 -79 -180 -85 -51 -5 -60 -3
-88 21 -17 15 -37 42 -43 62 -14 41 -10 42 -146 -22 l-95 -44 -16 35 c-11 23
-13 39 -7 45 14 14 507 238 519 236 5 -1 24 -36 42 -77z m-8335 -133 c128 -57
245 -109 260 -116 27 -13 27 -13 12 -48 -8 -20 -16 -37 -18 -39 -3 -3 -524
225 -535 234 -8 6 28 73 38 73 6 0 115 -47 243 -104z m8451 -143 c11 -29 12
-40 3 -45 -6 -4 -124 -50 -261 -103 -138 -53 -256 -99 -263 -102 -12 -5 -48
64 -38 74 5 5 525 210 537 212 4 1 14 -16 22 -36z m-8583 -178 c124 -20 244
-38 268 -42 45 -6 48 -12 31 -63 -13 -35 -10 -35 -126 -14 -28 5 -34 3 -42
-17 -24 -65 -25 -63 44 -97 36 -17 65 -36 65 -40 0 -16 -22 -72 -28 -72 -7 0
-484 257 -506 273 -15 11 -15 16 -3 47 8 19 17 43 20 53 5 12 13 16 29 12 13
-3 124 -21 248 -40z m8648 -2 c6 -18 8 -34 4 -36 -4 -3 -106 -37 -227 -77
-121 -40 -222 -74 -224 -76 -2 -1 6 -31 18 -65 12 -35 21 -66 21 -70 0 -7 -91
-41 -96 -36 -9 8 -67 218 -62 223 12 11 543 181 549 175 4 -3 11 -21 17 -38z
m-8474 -349 c20 -3 36 -10 36 -15 0 -33 -55 -219 -64 -219 -16 0 -547 138
-553 144 -10 9 10 76 23 76 7 0 98 -22 202 -49 104 -27 205 -53 224 -56 l35
-7 18 72 c12 50 21 70 31 66 7 -3 29 -8 48 -12z m8584 -35 c7 -29 10 -54 8
-56 -7 -8 -525 -233 -534 -233 -5 0 -14 18 -20 41 l-10 40 46 21 c26 11 57 24
70 29 16 6 22 15 18 27 -3 9 -8 29 -12 44 -6 27 -7 28 -82 25 l-76 -2 -7 35
c-4 19 -6 37 -3 39 5 5 442 38 530 40 l61 1 11 -51z m-8981 -198 c23 -11 44
-29 48 -41 7 -21 7 -21 27 -4 21 20 61 21 208 7 l86 -8 -9 -44 -9 -44 -66 7
c-37 3 -87 9 -112 12 -56 7 -78 -8 -86 -57 l-6 -36 108 -17 c152 -24 144 -20
137 -64 -3 -20 -7 -39 -9 -41 -2 -2 -43 4 -91 12 -48 9 -167 30 -263 47 -96
17 -186 33 -199 36 -22 5 -23 8 -17 57 14 102 27 146 53 171 23 23 34 26 92
26 43 0 81 -7 108 -19z m9042 -96 c0 -28 -5 -33 -77 -65 -163 -73 -263 -122
-259 -126 2 -2 82 9 177 26 135 23 176 27 182 17 12 -19 9 -64 -4 -69 -25 -9
-557 -92 -562 -87 -2 2 -6 22 -8 44 l-3 39 173 81 c94 45 174 84 177 86 2 3
-80 -10 -183 -27 -103 -18 -188 -31 -190 -30 -1 2 -3 20 -5 41 l-2 38 260 43
c143 24 271 44 285 46 28 3 38 -12 39 -57z m-9136 -255 c255 -30 398 -48 401
-52 2 -2 1 -20 -2 -40 -5 -47 15 -47 -327 -5 -184 23 -260 36 -259 45 1 6 2
26 3 42 0 17 3 30 6 30 3 0 83 -9 178 -20z m9185 -106 l3 -40 -219 -23 c-121
-13 -252 -24 -293 -25 l-74 -1 -3 38 c-3 30 0 37 15 38 10 0 131 13 268 29
138 15 261 27 275 26 22 -1 25 -6 28 -42z m-9147 -93 l30 -22 26 20 c20 16 40
21 92 21 88 0 134 -14 165 -51 23 -27 26 -39 26 -112 0 -45 -4 -87 -8 -93 -5
-9 -79 -8 -292 5 l-285 16 -3 65 c-6 137 37 185 157 177 44 -3 72 -11 92 -26z"/>
<path d="M5292 9737 c-27 -32 -44 -335 -22 -392 8 -22 15 -26 42 -23 28 3 35
9 45 41 19 58 27 326 11 357 -15 29 -59 38 -76 17z"/>
<path d="M5960 9626 c-34 -75 -75 -306 -64 -352 7 -29 47 -42 70 -23 23 19 32
48 60 183 37 183 32 236 -24 236 -18 0 -28 -10 -42 -44z"/>
<path d="M2822 9148 c-22 -22 -13 -55 43 -165 93 -182 148 -239 189 -197 23
22 16 48 -40 159 -90 177 -152 243 -192 203z"/>
<path d="M9232 7004 l-72 -35 15 -30 c9 -16 23 -33 31 -36 25 -9 83 7 111 31
26 22 26 25 15 65 -7 22 -16 41 -20 40 -4 0 -40 -16 -80 -35z"/>
<path d="M564 5949 c-4 -6 -10 -27 -14 -45 -9 -38 -14 -35 90 -53 30 -5 58 -7
62 -4 5 2 8 22 8 43 0 29 -6 43 -22 54 -26 18 -113 22 -124 5z"/>
<path d="M4707 8594 c-3 -3 -3 -72 0 -153 l6 -146 -109 -18 c-118 -20 -364
-77 -434 -102 -24 -8 -44 -14 -45 -13 -2 2 -19 46 -40 98 -21 52 -46 112 -56
132 l-19 37 -48 -21 c-26 -11 -73 -31 -104 -44 -139 -58 -179 -74 -273 -113
-55 -23 -117 -49 -137 -58 -21 -8 -38 -19 -38 -23 0 -9 21 -60 64 -155 60
-132 65 -111 -43 -179 -97 -60 -297 -204 -360 -258 l-34 -30 -104 104 -104
103 -229 -233 c-265 -270 -251 -226 -114 -352 45 -41 84 -81 88 -88 4 -8 -20
-50 -57 -100 -72 -100 -158 -236 -213 -337 -20 -38 -39 -72 -40 -74 -2 -2 -56
20 -121 49 -65 28 -125 54 -133 56 -12 4 -36 -42 -99 -193 -47 -109 -101 -236
-122 -283 -21 -47 -40 -96 -43 -110 -7 -27 -5 -28 217 -110 51 -19 58 -25 54
-44 -26 -106 -78 -375 -83 -431 -4 -38 -10 -76 -14 -84 -5 -10 -36 -13 -138
-12 -71 1 -132 -2 -135 -6 -3 -4 -7 -154 -8 -333 l-4 -325 146 -3 146 -3 7
-57 c11 -96 63 -351 91 -441 14 -47 22 -88 18 -91 -5 -4 -59 -26 -122 -51 -62
-24 -115 -49 -118 -55 -2 -6 5 -34 16 -63 12 -28 30 -75 41 -104 11 -28 29
-72 40 -97 10 -25 45 -110 76 -190 31 -80 59 -148 63 -152 3 -4 38 7 76 24 39
17 98 43 131 58 l62 28 10 -24 c30 -64 194 -313 262 -394 75 -91 78 -78 -34
-185 l-99 -96 159 -162 c88 -89 192 -196 232 -237 l72 -75 101 103 c61 61 105
99 112 95 7 -4 46 -32 87 -62 135 -100 356 -241 378 -241 5 0 14 -6 20 -13 10
-12 -4 -51 -78 -214 l-20 -43 77 -35 c42 -19 78 -35 81 -35 2 0 41 -16 86 -36
172 -75 193 -84 275 -119 46 -20 87 -32 92 -28 4 4 28 62 54 128 26 66 48 121
50 123 2 2 59 -11 127 -28 98 -25 415 -80 459 -80 5 0 9 -57 9 -135 l0 -135
331 0 331 0 -7 138 -7 138 133 18 c113 15 395 78 450 101 16 6 41 -40 83 -156
30 -83 30 -83 116 -48 41 17 107 44 145 59 167 66 332 133 357 146 l26 13 -28
68 c-15 38 -39 93 -53 124 l-25 55 56 34 c108 63 227 144 326 219 54 42 104
80 111 85 9 7 36 -15 95 -77 45 -48 87 -87 94 -87 6 0 115 104 241 230 l230
231 -95 92 -96 92 39 50 c67 88 173 247 232 350 31 55 60 103 64 108 4 4 54
-13 111 -38 56 -25 106 -45 110 -45 8 0 37 64 104 225 24 61 59 144 76 185 63
148 80 194 73 200 -9 7 -56 27 -158 66 -38 15 -71 27 -72 28 -1 1 4 24 13 51
32 107 93 461 94 542 0 9 34 13 123 15 l122 3 3 334 2 334 -129 -5 -130 -6 -6
42 c-20 121 -67 345 -95 444 -18 63 -28 117 -24 121 5 4 53 25 108 46 54 22
100 44 102 50 4 10 -3 29 -81 220 -20 50 -45 110 -55 135 -14 36 -48 120 -97
238 -8 19 -21 16 -142 -40 -71 -33 -116 -48 -118 -41 -9 27 -208 316 -272 396
-39 48 -71 91 -71 95 0 4 40 47 89 97 l90 90 -229 233 c-126 127 -231 232
-235 232 -4 0 -50 -45 -102 -100 l-95 -100 -47 35 c-90 68 -243 167 -352 227
-82 45 -109 65 -106 77 3 9 26 65 51 126 25 60 43 112 38 116 -4 4 -29 16 -57
27 -67 26 -428 177 -488 204 -29 13 -51 18 -56 12 -5 -5 -25 -53 -45 -106 -31
-84 -56 -146 -62 -156 -1 -2 -37 6 -80 17 -95 24 -341 67 -441 77 l-73 7 0
143 0 144 -323 0 c-178 0 -326 -3 -330 -6z m701 -545 c387 -41 713 -138 1052
-309 1227 -623 1860 -2014 1529 -3360 -204 -826 -762 -1532 -1516 -1918 -387
-197 -732 -292 -1179 -324 -423 -30 -902 51 -1302 218 -643 269 -1169 750
-1490 1362 -503 959 -444 2116 155 3020 115 174 222 303 387 467 475 473 1062
756 1746 840 130 16 488 19 618 4z"/>
<path d="M4845 7913 c-264 -28 -566 -106 -814 -208 -136 -56 -420 -210 -436
-236 -3 -4 7 -48 24 -96 39 -116 129 -393 241 -743 50 -157 102 -316 115 -355
13 -38 49 -149 80 -245 66 -205 182 -564 355 -1095 32 -99 100 -308 150 -465
50 -157 102 -316 115 -355 13 -38 49 -149 80 -245 31 -96 83 -256 115 -355 32
-99 102 -315 155 -480 53 -165 101 -311 107 -325 12 -30 -8 -92 208 635 44
149 98 329 120 400 21 72 76 254 121 405 45 151 121 408 170 570 88 295 181
609 350 1180 50 168 101 339 114 380 13 41 38 125 55 185 36 122 80 270 115
385 13 41 51 170 85 285 34 116 73 244 86 285 13 41 24 78 24 82 0 17 -242
146 -381 203 -211 87 -391 139 -624 181 -135 24 -178 27 -420 29 -148 2 -288
1 -310 -2z m316 -433 c32 -52 89 -145 126 -207 38 -62 70 -112 73 -113 3 0 27
41 53 90 27 50 51 90 55 90 4 0 29 -53 56 -118 65 -156 148 -351 207 -491 27
-63 49 -120 49 -126 0 -7 -45 -43 -100 -81 -55 -38 -99 -71 -99 -74 0 -3 101
-72 225 -154 123 -82 221 -153 217 -157 -37 -35 -468 -317 -477 -312 -6 3 -29
19 -51 34 -22 15 -87 57 -145 94 -58 37 -111 72 -117 78 -7 5 -13 6 -13 2 0
-4 46 -55 103 -112 l102 -104 -41 -77 c-23 -42 -80 -150 -128 -240 l-86 -163
0 -869 0 -870 -85 0 -85 0 0 878 1 877 -123 242 -123 242 85 87 c47 48 78 84
70 82 -8 -3 -82 -47 -164 -97 -129 -78 -152 -89 -168 -78 -10 6 -71 48 -135
92 -230 156 -313 217 -308 225 3 5 101 72 218 151 116 78 218 147 225 154 10
9 -3 22 -68 65 -44 29 -83 56 -85 60 -7 11 250 781 261 782 5 0 30 -37 56 -83
26 -45 52 -87 57 -92 9 -9 37 29 191 256 51 76 98 136 103 134 5 -1 36 -45 68
-97z"/>
<path d="M7267 6453 c-64 -313 -222 -594 -404 -720 l-55 -37 9 -46 c4 -25 8
-90 8 -145 -1 -86 -4 -109 -28 -162 -15 -34 -27 -66 -27 -71 0 -9 153 24 226
48 39 13 40 16 14 50 -25 32 -25 35 4 48 23 10 27 8 46 -23 12 -19 23 -35 25
-35 21 0 62 32 89 69 18 25 50 66 69 91 l36 46 -18 59 c-29 92 -51 239 -51
334 0 94 13 156 84 406 25 88 46 163 46 167 0 5 -12 8 -28 8 -27 0 -28 -3 -45
-87z"/>
<path d="M3530 6022 c-131 -72 -87 -262 61 -262 80 0 139 60 139 142 0 97
-115 167 -200 120z"/>
<path d="M6990 5263 c-19 -8 -82 -25 -139 -37 l-104 -22 -28 -94 c-16 -52 -26
-96 -24 -98 2 -2 43 9 92 26 60 20 87 34 84 43 -8 32 -5 42 17 50 19 7 25 4
34 -16 6 -14 17 -25 24 -25 7 0 16 -12 22 -27 8 -26 12 -18 45 82 21 61 37
116 37 123 0 15 -16 14 -60 -5z"/>
<path d="M3110 5192 c-109 -48 -119 -189 -17 -253 24 -15 44 -19 80 -16 137
12 174 202 50 262 -32 15 -86 19 -113 7z"/>
<path d="M6785 4979 l-120 -40 -28 -94 c-15 -51 -30 -101 -33 -110 -6 -14 2
-16 65 -14 76 2 88 8 72 37 -7 14 -5 21 12 31 19 12 23 10 49 -21 22 -28 33
-34 55 -30 26 4 31 12 65 116 l36 111 -26 27 -27 27 -120 -40z"/>
<path d="M2623 4694 c-96 -48 -97 -200 -2 -250 48 -24 122 -15 159 21 36 34
49 69 44 120 -8 96 -113 152 -201 109z"/>
<path d="M6638 4663 l-57 -4 -36 -117 c-19 -64 -40 -125 -46 -135 -7 -13 -3
-29 17 -63 26 -44 29 -46 63 -40 20 3 67 11 105 16 39 6 70 11 71 13 1 1 20
61 43 134 l43 132 -23 36 c-25 38 -22 38 -180 28z"/>
<path d="M3574 4611 c-41 -25 -68 -83 -61 -133 18 -134 179 -171 254 -59 43
64 20 162 -47 196 -40 21 -109 19 -146 -4z"/>
<path d="M6444 4213 c-15 -48 -33 -98 -41 -109 -13 -20 -10 -30 32 -113 25
-50 49 -91 54 -91 24 0 161 74 161 87 0 8 18 73 41 145 22 71 38 132 35 135
-9 10 -141 -21 -140 -32 1 -5 -7 -16 -18 -23 -24 -17 -41 -5 -69 50 -11 21
-21 38 -24 38 -2 0 -16 -39 -31 -87z"/>
<path d="M3285 4160 c-40 -16 -77 -67 -82 -113 -10 -84 42 -147 126 -154 76
-7 138 45 147 124 12 99 -99 182 -191 143z"/>
<path d="M6273 3967 l-71 -72 -57 -165 c-31 -91 -68 -196 -81 -234 -14 -38
-23 -70 -22 -71 2 -1 38 -14 81 -29 43 -15 84 -29 91 -32 8 -3 20 11 31 36 36
81 108 115 140 66 14 -21 14 -29 -1 -85 -10 -33 -15 -62 -13 -64 11 -8 151
-59 154 -56 2 2 25 85 51 184 48 185 62 269 63 388 1 66 0 68 -21 61 -49 -15
-101 -47 -105 -65 -3 -10 -9 -19 -13 -19 -5 0 -15 -3 -23 -6 -19 -7 -60 33
-53 52 5 14 -41 127 -67 164 -12 18 -18 15 -84 -53z"/>
<path d="M2923 3880 c-87 -53 -83 -188 6 -238 150 -84 285 113 156 227 -29 25
-44 31 -83 31 -29 0 -59 -8 -79 -20z"/>
<path d="M6004 3312 c-42 -103 -117 -235 -189 -330 -84 -112 -283 -319 -372
-386 -29 -22 -51 -41 -49 -43 2 -2 27 5 57 16 33 13 66 19 88 16 33 -5 38 -2
65 36 l28 42 17 -21 16 -22 50 50 49 50 21 -20 21 -20 40 43 c58 61 93 109
162 223 75 124 178 331 170 339 -3 4 -40 19 -83 35 l-77 29 -14 -37z"/>
<path d="M3593 3238 c-96 -32 -127 -156 -57 -229 38 -39 91 -55 136 -40 71 23
116 105 97 175 -9 34 -69 96 -92 96 -7 0 -21 2 -32 4 -11 3 -34 0 -52 -6z"/>
<path d="M6321 3195 c-44 -99 -129 -216 -276 -379 -80 -89 -80 -89 -35 -64 25
14 55 29 68 33 19 5 22 3 22 -19 0 -34 10 -33 45 4 35 37 48 38 64 4 10 -23
14 -24 28 -13 45 38 273 384 273 415 0 8 -143 64 -162 64 -4 0 -16 -20 -27
-45z"/>
<path d="M7135 1814 c-55 -35 -111 -70 -125 -78 -14 -7 -63 -33 -110 -58 -406
-215 -881 -361 -1350 -415 -217 -25 -645 -25 -865 1 -398 45 -792 155 -1151
320 -154 70 -244 117 -401 210 -34 20 -64 36 -67 36 -3 0 -144 -207 -313 -461
l-307 -461 25 -19 c96 -72 502 -286 704 -371 244 -102 519 -197 656 -227 26
-6 58 -15 71 -20 49 -19 426 -90 583 -110 641 -83 1276 -42 1910 124 469 123
959 336 1362 592 94 59 102 67 92 85 -10 19 -53 84 -334 513 -50 77 -131 200
-178 273 -48 72 -90 132 -94 131 -5 -1 -53 -30 -108 -65z m109 -380 c8 -22 2
-30 -50 -60 -24 -14 -44 -29 -44 -33 0 -5 47 -98 104 -207 77 -147 102 -202
94 -211 -6 -7 -14 -13 -19 -13 -4 0 -29 41 -56 90 -26 50 -52 90 -58 89 -5 0
-44 -15 -85 -33 -79 -34 -77 -30 -63 -98 4 -22 -2 -35 -30 -63 -19 -19 -42
-35 -51 -35 -32 0 -76 30 -82 56 -8 33 17 88 51 110 l25 17 -41 76 c-22 42
-44 79 -48 84 -4 4 -52 -12 -107 -36 -54 -24 -116 -50 -136 -56 -21 -7 -40
-16 -43 -21 -2 -4 5 -40 17 -79 17 -58 25 -70 37 -65 60 26 88 27 127 8 56
-29 77 -74 70 -148 -6 -62 -51 -176 -70 -176 -33 1 -34 17 -6 75 41 83 42 164
4 194 -15 12 -39 21 -54 21 -35 0 -99 -55 -141 -122 -18 -29 -34 -55 -35 -56
-1 -2 -12 -1 -24 3 -16 5 -20 13 -17 27 6 22 -24 58 -48 58 -55 0 -95 -54 -95
-128 0 -43 5 -55 31 -81 19 -19 53 -38 90 -49 42 -12 59 -22 59 -34 0 -27 -12
-28 -83 -4 -74 25 -113 55 -133 103 -31 72 -3 176 58 213 44 27 107 26 137 -1
22 -21 23 -21 36 -3 7 11 20 28 28 38 13 17 11 29 -10 100 -14 45 -27 83 -29
85 -2 2 -64 -14 -137 -37 -72 -23 -161 -49 -197 -58 -36 -10 -69 -20 -73 -24
-4 -4 14 -103 42 -221 27 -118 47 -217 44 -221 -9 -16 -43 -8 -43 10 -1 44 -9
45 -166 27 -137 -16 -152 -17 -187 -2 -46 20 -71 70 -61 122 12 68 75 100 226
117 57 6 107 15 112 19 10 9 -12 126 -25 135 -4 2 -38 -2 -75 -11 -65 -15
-250 -45 -278 -45 -7 0 -16 9 -19 20 -4 15 0 21 16 24 12 2 83 14 157 26 257
42 567 131 822 236 125 51 373 175 458 228 65 40 66 41 74 20z m-3951 -124
c250 -124 487 -209 815 -290 32 -8 42 -15 42 -31 0 -18 -5 -20 -46 -17 l-46 3
-56 -227 c-46 -188 -59 -228 -74 -228 -9 0 -19 4 -22 8 -3 5 8 59 24 120 l28
112 -99 31 c-82 26 -104 30 -124 21 -15 -7 -25 -20 -25 -32 0 -28 24 -25 40 5
15 28 33 28 38 1 5 -25 -24 -65 -54 -72 -58 -15 -88 74 -42 123 29 31 87 30
188 -4 44 -15 82 -24 85 -21 6 5 45 161 45 178 0 4 -22 13 -49 20 -27 6 -105
29 -172 50 -68 22 -124 38 -125 37 -1 -1 -35 -98 -75 -216 -41 -117 -80 -216
-87 -218 -36 -15 -29 22 43 232 41 120 74 219 73 221 -6 5 -111 45 -113 42 -1
-2 -35 -99 -76 -217 -41 -118 -79 -216 -85 -218 -5 -1 -15 1 -22 5 -10 7 0 44
43 167 30 87 54 159 52 161 -13 11 -220 94 -236 94 -30 0 -27 -34 9 -95 40
-67 40 -116 2 -155 -16 -16 -45 -32 -65 -35 -21 -4 -37 -10 -37 -14 0 -3 9
-35 20 -69 25 -81 26 -102 1 -102 -15 0 -23 13 -36 58 -31 110 -38 125 -73
136 -47 16 -99 61 -122 106 -33 65 -24 108 29 130 60 24 127 -40 150 -144 12
-54 14 -56 45 -56 19 0 42 9 55 21 27 25 23 54 -16 113 -14 22 -28 59 -31 82
-4 35 -1 44 19 58 40 28 55 24 296 -80 9 -5 26 38 28 69 0 4 -52 31 -115 60
-103 48 -244 124 -277 149 -9 7 -10 15 -2 30 10 19 11 19 42 -2 18 -12 103
-57 190 -100z m1187 -370 c309 -44 671 -61 915 -41 82 7 154 13 159 14 6 1 12
-8 14 -19 2 -17 -4 -23 -29 -28 -17 -3 -44 -6 -60 -6 -36 0 -35 8 -13 -269 14
-172 15 -204 3 -212 -24 -14 -32 7 -40 106 -4 52 -11 100 -14 105 -3 6 -44 10
-91 10 -83 0 -84 0 -84 -25 0 -14 -7 -41 -15 -60 -24 -60 -86 -66 -130 -13
-14 16 -25 41 -25 54 0 34 40 71 84 79 36 7 36 7 36 60 0 29 -3 72 -6 97 l-6
45 -145 7 c-80 4 -147 5 -150 3 -2 -3 12 -27 33 -54 64 -83 79 -145 50 -201
-16 -32 -45 -49 -101 -60 l-39 -8 84 -87 c73 -77 82 -90 69 -102 -13 -13 -21
-9 -66 30 -88 77 -225 278 -208 305 14 22 36 7 60 -40 25 -49 26 -50 73 -50
63 0 92 21 92 66 0 43 -19 82 -77 155 l-44 56 -77 7 c-42 4 -91 9 -108 12
l-31 6 -2 -114 c-2 -62 -6 -169 -10 -238 -6 -121 -7 -125 -29 -128 -23 -4 -24
-1 -20 52 2 46 0 56 -13 56 -43 0 -126 35 -157 66 l-35 35 8 126 c8 144 10
153 37 153 20 0 20 -4 14 -107 -4 -60 -9 -115 -12 -124 -11 -39 71 -99 134
-99 l29 0 7 155 c4 85 5 159 2 164 -3 4 -34 11 -68 15 -35 4 -91 12 -125 17
-58 10 -63 13 -63 36 0 22 3 24 28 19 15 -3 88 -15 162 -26z"/>
<path d="M7015 1277 c-44 -23 -81 -42 -83 -43 -2 -1 85 -163 92 -171 2 -2 167
67 174 73 5 3 -92 184 -98 184 -3 0 -41 -19 -85 -43z"/>
<path d="M6031 739 c-34 -4 -67 -9 -72 -11 -5 -2 19 -32 54 -66 l64 -64 47 7
c29 5 46 12 43 19 -3 6 -10 37 -17 69 -15 64 -7 61 -119 46z"/>
<path d="M5842 690 c-27 -25 -29 -71 -4 -93 19 -18 103 -23 150 -10 22 5 21 9
-34 64 -32 33 -66 59 -74 59 -9 0 -26 -9 -38 -20z"/>
<path d="M5261 843 l-34 -4 7 -92 c4 -50 8 -92 9 -93 1 -1 41 -5 89 -9 l86 -7
-4 38 c-2 22 -6 69 -10 107 l-6 67 -51 -2 c-29 0 -67 -3 -86 -5z"/>
</g>
</svg>
