<svg xmlns="http://www.w3.org/2000/svg" width="249" height="249" viewBox="0 0 249 249">
<g>
<path d="M 125.90,7.12 L 126.10,7.20 L 126.68,7.48 L 127.01,7.64 L 127.85,8.07 L 128.30,8.30 L 129.38,8.87 L 130.51,9.47 L 133.42,11.05 L 134.98,11.91 L 138.65,13.95 L 140.56,15.02 L 144.87,17.45 L 147.10,18.71 L 151.93,21.47 L 154.40,22.89 L 159.65,25.91 L 167.85,30.66 L 173.44,33.91 L 184.44,40.31 L 187.13,41.88 L 192.29,44.88 L 194.83,46.35 L 199.57,49.11 L 201.88,50.46 L 206.06,52.89 L 208.07,54.06 L 211.56,56.09 L 213.21,57.05 L 215.86,58.59 L 216.47,58.94 L 217.49,59.54 L 218.75,60.27 L 229.00,66.22 L 229.00,187.72 L 177.75,217.52 L 174.23,219.57 L 167.44,223.52 L 164.11,225.45 L 157.81,229.12 L 154.73,230.90 L 149.05,234.20 L 146.30,235.80 L 141.39,238.65 L 140.21,239.33 L 138.03,240.60 L 136.97,241.22 L 135.03,242.34 L 134.09,242.89 L 132.41,243.86 L 131.60,244.33 L 130.20,245.15 L 129.53,245.53 L 128.41,246.18 L 127.90,246.48 L 127.09,246.94 L 126.73,247.15 L 126.26,247.42 L 125.93,247.61 L 125.85,247.65 L 125.20,247.42 L 124.81,247.26 L 123.64,246.69 L 123.01,246.37 L 121.47,245.54 L 120.68,245.10 L 118.93,244.09 L 118.49,243.83 L 116.95,242.92 L 116.07,242.41 L 113.75,241.05 L 112.50,240.33 L 109.52,238.58 L 107.95,237.67 L 104.40,235.61 L 102.57,234.54 L 98.58,232.22 L 96.54,231.03 L 92.21,228.52 L 78.50,220.56 L 73.83,217.85 L 64.41,212.37 L 62.09,211.03 L 57.60,208.41 L 55.38,207.12 L 51.18,204.68 L 49.13,203.48 L 45.36,201.28 L 43.53,200.21 L 40.30,198.33 L 38.77,197.43 L 36.20,195.93 L 33.25,194.19 L 22.00,187.55 L 22.00,66.31 L 72.92,36.66 L 76.42,34.62 L 83.18,30.70 L 86.51,28.77 L 92.82,25.14 L 95.91,23.37 L 101.62,20.10 L 104.39,18.53 L 109.37,15.71 L 110.56,15.04 L 112.78,13.79 L 113.87,13.19 L 115.85,12.08 L 116.81,11.55 L 118.55,10.59 L 119.38,10.13 L 120.85,9.34 L 121.54,8.96 L 122.72,8.34 L 123.27,8.05 L 124.14,7.61 L 124.54,7.41 L 125.08,7.15 L 125.52,7.00 L 125.57,7.00 M 124.96,33.00 L 124.64,33.12 L 124.23,33.32 L 123.93,33.47 L 123.27,33.82 L 122.84,34.05 L 121.94,34.54 L 121.40,34.83 L 119.02,36.15 L 117.53,36.98 L 114.34,38.78 L 112.48,39.83 L 108.60,42.04 L 106.43,43.27 L 101.97,45.83 L 99.55,47.22 L 94.61,50.07 L 92.00,51.58 L 86.70,54.65 L 83.96,56.25 L 44.00,79.50 L 44.00,174.77 L 57.25,182.56 L 62.66,185.74 L 65.99,187.70 L 67.52,188.60 L 70.49,190.34 L 71.85,191.14 L 74.50,192.70 L 75.72,193.41 L 78.08,194.80 L 79.17,195.44 L 81.28,196.68 L 82.25,197.25 L 85.92,199.40 L 87.51,200.32 L 90.52,202.07 L 91.87,202.86 L 94.48,204.37 L 95.73,205.09 L 98.20,206.52 L 99.47,207.25 L 102.07,208.74 L 103.50,209.56 L 108.51,212.44 L 111.78,214.35 L 113.27,215.22 L 116.11,216.89 L 117.24,217.57 L 118.32,218.22 L 118.77,218.49 L 119.59,218.99 L 119.90,219.18 L 122.30,220.57 L 123.25,220.97 L 124.14,221.32 L 124.47,221.40 L 125.03,221.48 L 125.15,221.41 L 125.26,220.80 L 125.34,219.87 L 125.37,219.16 L 125.44,217.58 L 125.47,216.57 L 125.53,214.39 L 125.56,213.09 L 125.62,210.35 L 125.64,208.78 L 125.69,205.53 L 125.72,203.73 L 125.76,200.01 L 125.78,197.99 L 125.82,193.85 L 125.84,191.63 L 125.88,187.12 L 125.89,184.73 L 125.92,179.89 L 125.93,177.36 L 125.98,166.96 L 125.99,161.45 L 126.02,150.23 L 126.02,144.45 L 126.02,132.78 L 126.02,126.91 L 126.00,115.16 L 125.99,109.38 L 125.95,97.91 L 125.92,92.40 L 125.87,81.58 L 125.83,76.54 L 125.80,71.56 L 125.78,69.19 L 125.73,64.53 L 125.71,62.33 L 125.67,58.02 L 125.64,56.01 L 125.59,52.11 L 125.56,50.32 L 125.51,46.86 L 125.48,45.31 L 125.42,42.35 L 125.39,41.06 L 125.32,38.63 L 125.29,37.64 L 125.22,35.79 L 125.19,35.11 L 125.11,33.89 L 125.07,33.54 L 125.00,33.00 M 207.29,89.30 L 206.83,89.66 L 206.34,89.98 L 205.80,90.31 L 205.44,90.51 L 203.78,91.47 L 202.66,92.08 L 200.26,93.40 L 198.88,94.14 L 196.01,95.67 L 194.50,96.46 L 190.15,98.76 L 187.53,100.16 L 186.44,100.75 L 184.43,101.84 L 183.76,102.22 L 183.14,102.57 L 182.93,102.70 L 182.57,102.91 L 182.50,102.96 L 182.08,103.22 L 181.61,103.50 L 181.28,103.68 L 179.75,104.54 L 178.71,105.11 L 176.46,106.33 L 175.16,107.04 L 172.44,108.49 L 171.00,109.25 L 166.37,111.72 L 163.11,113.46 L 161.53,114.32 L 158.42,116.00 L 157.05,116.74 L 154.46,118.15 L 153.50,118.68 L 146.50,122.54 L 146.24,167.27 L 146.21,173.35 L 146.20,176.26 L 146.19,181.97 L 146.19,184.64 L 146.19,189.85 L 146.20,192.24 L 146.21,196.83 L 146.23,198.86 L 146.26,202.72 L 146.28,204.33 L 146.33,207.34 L 146.36,208.47 L 146.39,209.54 L 146.41,209.98 L 146.44,210.79 L 146.46,211.09 L 146.49,211.61 L 146.51,211.77 L 146.55,212.00 L 146.57,212.00 L 147.42,211.64 L 148.60,211.05 L 149.45,210.61 L 151.34,209.63 L 152.51,209.02 L 154.99,207.70 L 156.41,206.94 L 159.37,205.35 L 160.99,204.48 L 164.32,202.68 L 166.09,201.72 L 173.38,197.76 L 177.14,195.69 L 184.68,191.56 L 188.24,189.59 L 191.73,187.66 L 193.37,186.74 L 196.57,184.96 L 198.02,184.15 L 200.80,182.59 L 201.99,181.91 L 204.25,180.63 L 205.14,180.11 L 206.76,179.17 L 207.28,178.85 L 208.15,178.31 L 208.26,178.21 L 208.81,177.52 L 209.10,176.83 L 209.22,176.27 L 209.44,174.98 L 209.53,174.03 L 209.61,173.02 L 209.64,172.42 L 209.71,171.15 L 209.73,170.41 L 209.78,168.85 L 209.80,167.95 L 209.84,166.07 L 209.86,165.00 L 209.88,162.75 L 209.89,161.49 L 209.90,158.85 L 209.91,157.38 L 209.91,154.32 L 209.91,152.62 L 209.91,149.10 L 209.91,147.15 L 209.90,143.14 L 209.89,140.93 L 209.88,136.39 L 209.87,133.91 L 209.82,125.30 L 209.78,119.80 L 209.75,117.21 L 209.68,112.15 L 209.65,109.83 L 209.57,105.34 L 209.53,103.34 L 209.44,99.53 L 209.39,97.92 L 209.30,94.92 L 209.25,93.75 L 209.15,91.67 L 209.09,91.02 L 209.04,90.43 L 209.01,90.24 L 208.96,89.93 L 208.93,89.89 L 208.02,89.17 M 52.21,151.10 L 53.09,151.59 L 54.05,152.14 L 54.70,152.51 L 56.11,153.32 L 56.97,153.81 L 58.77,154.85 L 59.79,155.44 L 61.92,156.67 L 63.08,157.34 L 65.47,158.73 L 66.74,159.47 L 72.01,162.53 L 74.80,164.16 L 82.72,168.76 L 85.11,170.14 L 86.21,170.77 L 88.33,171.99 L 89.28,172.52 L 91.07,173.54 L 91.83,173.97 L 93.24,174.77 L 93.79,175.07 L 94.76,175.60 L 95.06,175.76 L 95.54,176.00 L 95.57,176.00 L 96.05,176.19 L 96.62,176.48 L 97.00,176.70 L 98.75,177.72 L 99.77,178.37 L 101.87,179.66 L 103.74,180.79 L 104.83,181.44 L 109.48,184.20 L 111.75,185.51 L 120.00,190.29 L 120.00,198.64 L 119.98,201.43 L 119.93,202.50 L 119.81,204.42 L 119.71,205.08 L 119.49,206.21 L 119.33,206.51 L 118.98,206.95 L 118.75,206.94 L 118.29,206.81 L 117.80,206.61 L 117.48,206.46 L 115.95,205.73 L 114.93,205.20 L 112.74,204.04 L 111.48,203.35 L 108.88,201.90 L 107.50,201.10 L 105.14,199.74 L 103.31,198.68 L 102.28,198.08 L 97.89,195.54 L 95.44,194.13 L 90.43,191.23 L 87.89,189.76 L 82.84,186.84 L 80.50,185.49 L 73.39,181.38 L 68.71,178.68 L 66.58,177.46 L 64.50,176.26 L 63.54,175.71 L 61.69,174.64 L 60.87,174.17 L 59.30,173.27 L 58.65,172.90 L 57.45,172.21 L 57.00,171.95 L 50.50,168.25 L 50.21,159.07 L 49.92,149.89 M 51.15,120.36 L 52.23,120.95 L 53.04,121.40 L 54.83,122.39 L 55.96,123.03 L 58.38,124.39 L 59.80,125.19 L 62.76,126.87 L 64.42,127.81 L 67.84,129.76 L 69.69,130.82 L 73.48,132.98 L 75.49,134.13 L 79.57,136.47 L 81.69,137.68 L 93.95,144.71 L 97.75,146.89 L 99.53,147.91 L 102.98,149.89 L 104.55,150.78 L 107.56,152.50 L 108.87,153.25 L 111.35,154.66 L 112.36,155.24 L 114.21,156.29 L 114.86,156.66 L 115.98,157.29 L 116.24,157.43 L 119.98,159.50 L 119.99,167.69 L 119.97,169.91 L 119.94,170.91 L 119.84,172.83 L 119.78,173.61 L 119.63,175.05 L 119.54,175.52 L 119.35,176.28 L 119.24,176.35 L 118.80,176.27 L 118.22,176.05 L 117.81,175.87 L 116.90,175.44 L 116.34,175.17 L 115.14,174.57 L 114.45,174.21 L 111.45,172.61 L 109.68,171.63 L 105.99,169.55 L 103.99,168.39 L 98.00,164.93 L 94.12,162.71 L 92.38,161.72 L 90.68,160.76 L 89.91,160.32 L 88.42,159.48 L 87.77,159.12 L 86.54,158.44 L 86.04,158.16 L 85.12,157.66 L 84.80,157.49 L 82.20,156.07 L 79.91,154.78 L 78.60,154.02 L 72.99,150.78 L 70.30,149.17 L 61.84,144.18 L 59.19,142.65 L 58.06,142.00 L 55.97,140.81 L 55.25,140.41 L 50.00,137.50 L 50.00,128.75 L 50.04,125.35 L 50.09,123.36 L 50.13,122.57 L 50.22,121.13 L 50.27,120.69 L 50.38,120.00 L 50.44,120.00 M 50.66,90.00 L 51.35,90.27 L 52.26,90.70 L 52.91,91.04 L 54.33,91.78 L 55.21,92.25 L 57.09,93.27 L 58.18,93.86 L 60.45,95.11 L 61.71,95.81 L 64.30,97.26 L 65.69,98.04 L 71.51,101.34 L 74.66,103.15 L 84.41,108.76 L 91.00,112.55 L 94.09,114.32 L 97.13,116.06 L 98.56,116.88 L 101.33,118.47 L 102.58,119.18 L 104.99,120.56 L 106.02,121.15 L 107.98,122.27 L 108.75,122.71 L 120.00,129.11 L 120.00,138.06 L 119.99,140.46 L 119.98,141.53 L 119.95,143.56 L 119.93,144.36 L 119.88,145.83 L 119.85,146.28 L 119.78,146.97 L 119.75,146.97 L 119.49,146.86 L 119.06,146.64 L 118.63,146.40 L 117.59,145.82 L 116.75,145.34 L 115.85,144.83 L 115.30,144.51 L 114.13,143.85 L 113.44,143.45 L 111.97,142.61 L 111.12,142.12 L 109.31,141.09 L 108.28,140.49 L 106.11,139.24 L 104.87,138.53 L 102.29,137.05 L 100.84,136.22 L 97.83,134.49 L 96.15,133.52 L 92.66,131.51 L 90.72,130.40 L 86.73,128.10 L 84.53,126.83 L 79.99,124.22 L 77.50,122.79 L 50.50,107.25 L 50.00,98.63 L 49.84,94.68 L 49.83,92.70 L 49.89,92.01 L 50.03,90.81 L 50.16,90.48 L 50.45,90.00 Z" fill="rgba(6,28,62,1)"/>
<path d="M 119.90,219.18 L 119.59,218.99 L 118.77,218.49 L 118.32,218.22 L 117.24,217.57 L 116.11,216.89 L 113.27,215.22 L 111.78,214.35 L 108.51,212.44 L 103.50,209.56 L 102.07,208.74 L 99.47,207.25 L 98.20,206.52 L 95.73,205.09 L 94.48,204.37 L 91.87,202.86 L 90.52,202.07 L 87.51,200.32 L 85.92,199.40 L 82.25,197.25 L 81.28,196.68 L 79.17,195.44 L 78.08,194.80 L 75.72,193.41 L 74.50,192.70 L 71.85,191.14 L 70.49,190.34 L 67.52,188.60 L 65.99,187.70 L 62.66,185.74 L 57.25,182.56 L 44.00,174.77 L 44.00,127.13 L 44.00,79.50 L 83.96,56.25 L 86.70,54.65 L 92.00,51.58 L 94.61,50.07 L 99.55,47.22 L 101.97,45.83 L 106.43,43.27 L 108.60,42.04 L 112.48,39.83 L 114.34,38.78 L 117.53,36.98 L 119.02,36.15 L 121.40,34.83 L 121.94,34.54 L 122.84,34.05 L 123.27,33.82 L 123.93,33.47 L 124.23,33.32 L 124.64,33.12 L 124.96,33.00 L 125.00,33.00 L 125.07,33.54 L 125.11,33.89 L 125.19,35.11 L 125.22,35.79 L 125.29,37.64 L 125.32,38.63 L 125.39,41.06 L 125.42,42.35 L 125.48,45.31 L 125.51,46.86 L 125.56,50.32 L 125.59,52.11 L 125.64,56.01 L 125.67,58.02 L 125.71,62.33 L 125.73,64.53 L 125.78,69.19 L 125.80,71.56 L 125.83,76.54 L 125.87,81.58 L 125.92,92.40 L 125.95,97.91 L 125.99,109.38 L 126.00,115.16 L 126.02,126.91 L 126.02,132.78 L 126.02,144.45 L 126.02,150.23 L 125.99,161.45 L 125.98,166.96 L 125.93,177.36 L 125.92,179.89 L 125.89,184.73 L 125.88,187.12 L 125.84,191.63 L 125.82,193.85 L 125.78,197.99 L 125.76,200.01 L 125.72,203.73 L 125.69,205.53 L 125.64,208.78 L 125.62,210.35 L 125.56,213.09 L 125.53,214.39 L 125.47,216.57 L 125.44,217.58 L 125.37,219.16 L 125.34,219.87 L 125.26,220.80 L 125.15,221.41 L 125.03,221.48 L 124.47,221.40 L 124.14,221.32 L 123.25,220.97 L 122.30,220.57 M 120.00,198.64 L 120.00,190.29 L 111.75,185.51 L 109.48,184.20 L 104.83,181.44 L 103.74,180.79 L 101.87,179.66 L 99.77,178.37 L 98.75,177.72 L 97.00,176.70 L 96.62,176.48 L 96.05,176.19 L 95.57,176.00 L 95.54,176.00 L 95.06,175.76 L 94.76,175.60 L 93.79,175.07 L 93.24,174.77 L 91.83,173.97 L 91.07,173.54 L 89.28,172.52 L 88.33,171.99 L 86.21,170.77 L 85.11,170.14 L 82.72,168.76 L 74.80,164.16 L 72.01,162.53 L 66.74,159.47 L 65.47,158.73 L 63.08,157.34 L 61.92,156.67 L 59.79,155.44 L 58.77,154.85 L 56.97,153.81 L 56.11,153.32 L 54.70,152.51 L 54.05,152.14 L 53.09,151.59 L 52.21,151.10 L 49.92,149.89 L 50.21,159.07 L 50.50,168.25 L 57.00,171.95 L 57.45,172.21 L 58.65,172.90 L 59.30,173.27 L 60.87,174.17 L 61.69,174.64 L 63.54,175.71 L 64.50,176.26 L 66.58,177.46 L 68.71,178.68 L 73.39,181.38 L 80.50,185.49 L 82.84,186.84 L 87.89,189.76 L 90.43,191.23 L 95.44,194.13 L 97.89,195.54 L 102.28,198.08 L 103.31,198.68 L 105.14,199.74 L 107.50,201.10 L 108.88,201.90 L 111.48,203.35 L 112.74,204.04 L 114.93,205.20 L 115.95,205.73 L 117.48,206.46 L 117.80,206.61 L 118.29,206.81 L 118.75,206.94 L 118.98,206.95 L 119.33,206.51 L 119.49,206.21 L 119.71,205.08 L 119.81,204.42 L 119.93,202.50 L 119.98,201.43 M 119.99,167.69 L 119.98,159.50 L 116.24,157.43 L 115.98,157.29 L 114.86,156.66 L 114.21,156.29 L 112.36,155.24 L 111.35,154.66 L 108.87,153.25 L 107.56,152.50 L 104.55,150.78 L 102.98,149.89 L 99.53,147.91 L 97.75,146.89 L 93.95,144.71 L 81.69,137.68 L 79.57,136.47 L 75.49,134.13 L 73.48,132.98 L 69.69,130.82 L 67.84,129.76 L 64.42,127.81 L 62.76,126.87 L 59.80,125.19 L 58.38,124.39 L 55.96,123.03 L 54.83,122.39 L 53.04,121.40 L 52.23,120.95 L 51.15,120.36 L 50.44,120.00 L 50.38,120.00 L 50.27,120.69 L 50.22,121.13 L 50.13,122.57 L 50.09,123.36 L 50.04,125.35 L 50.00,128.75 L 50.00,137.50 L 55.25,140.41 L 55.97,140.81 L 58.06,142.00 L 59.19,142.65 L 61.84,144.18 L 70.30,149.17 L 72.99,150.78 L 78.60,154.02 L 79.91,154.78 L 82.20,156.07 L 84.80,157.49 L 85.12,157.66 L 86.04,158.16 L 86.54,158.44 L 87.77,159.12 L 88.42,159.48 L 89.91,160.32 L 90.68,160.76 L 92.38,161.72 L 94.12,162.71 L 98.00,164.93 L 103.99,168.39 L 105.99,169.55 L 109.68,171.63 L 111.45,172.61 L 114.45,174.21 L 115.14,174.57 L 116.34,175.17 L 116.90,175.44 L 117.81,175.87 L 118.22,176.05 L 118.80,176.27 L 119.24,176.35 L 119.35,176.28 L 119.54,175.52 L 119.63,175.05 L 119.78,173.61 L 119.84,172.83 L 119.94,170.91 L 119.97,169.91 M 120.00,138.06 L 120.00,129.11 L 108.75,122.71 L 107.98,122.27 L 106.02,121.15 L 104.99,120.56 L 102.58,119.18 L 101.33,118.47 L 98.56,116.88 L 97.13,116.06 L 94.09,114.32 L 91.00,112.55 L 84.41,108.76 L 74.66,103.15 L 71.51,101.34 L 65.69,98.04 L 64.30,97.26 L 61.71,95.81 L 60.45,95.11 L 58.18,93.86 L 57.09,93.27 L 55.21,92.25 L 54.33,91.78 L 52.91,91.04 L 52.26,90.70 L 51.35,90.27 L 50.66,90.00 L 50.45,90.00 L 50.16,90.48 L 50.03,90.81 L 49.89,92.01 L 49.83,92.70 L 49.84,94.68 L 50.00,98.63 L 50.50,107.25 L 77.50,122.79 L 79.99,124.22 L 84.53,126.83 L 86.73,128.10 L 90.72,130.40 L 92.66,131.51 L 96.15,133.52 L 97.83,134.49 L 100.84,136.22 L 102.29,137.05 L 104.87,138.53 L 106.11,139.24 L 108.28,140.49 L 109.31,141.09 L 111.12,142.12 L 111.97,142.61 L 113.44,143.45 L 114.13,143.85 L 115.30,144.51 L 115.85,144.83 L 116.75,145.34 L 117.59,145.82 L 118.63,146.40 L 119.06,146.64 L 119.49,146.86 L 119.75,146.97 L 119.78,146.97 L 119.85,146.28 L 119.88,145.83 L 119.93,144.36 L 119.95,143.56 L 119.98,141.53 L 119.99,140.46 M 146.24,167.27 L 146.50,122.54 L 153.50,118.68 L 154.46,118.15 L 157.05,116.74 L 158.42,116.00 L 161.53,114.32 L 163.11,113.46 L 166.37,111.72 L 171.00,109.25 L 172.44,108.49 L 175.16,107.04 L 176.46,106.33 L 178.71,105.11 L 179.75,104.54 L 181.28,103.68 L 181.61,103.50 L 182.08,103.22 L 182.50,102.96 L 182.57,102.91 L 182.93,102.70 L 183.14,102.57 L 183.76,102.22 L 184.43,101.84 L 186.44,100.75 L 187.53,100.16 L 190.15,98.76 L 194.50,96.46 L 196.01,95.67 L 198.88,94.14 L 200.26,93.40 L 202.66,92.08 L 203.78,91.47 L 205.44,90.51 L 205.80,90.31 L 206.34,89.98 L 206.83,89.66 L 207.29,89.30 L 208.02,89.17 L 208.93,89.89 L 208.96,89.93 L 209.01,90.24 L 209.04,90.43 L 209.09,91.02 L 209.15,91.67 L 209.25,93.75 L 209.30,94.92 L 209.39,97.92 L 209.44,99.53 L 209.53,103.34 L 209.57,105.34 L 209.65,109.83 L 209.68,112.15 L 209.75,117.21 L 209.78,119.80 L 209.82,125.30 L 209.87,133.91 L 209.88,136.39 L 209.89,140.93 L 209.90,143.14 L 209.91,147.15 L 209.91,149.10 L 209.91,152.62 L 209.91,154.32 L 209.91,157.38 L 209.90,158.85 L 209.89,161.49 L 209.88,162.75 L 209.86,165.00 L 209.84,166.07 L 209.80,167.95 L 209.78,168.85 L 209.73,170.41 L 209.71,171.15 L 209.64,172.42 L 209.61,173.02 L 209.53,174.03 L 209.44,174.98 L 209.22,176.27 L 209.10,176.83 L 208.81,177.52 L 208.26,178.21 L 208.15,178.31 L 207.28,178.85 L 206.76,179.17 L 205.14,180.11 L 204.25,180.63 L 201.99,181.91 L 200.80,182.59 L 198.02,184.15 L 196.57,184.96 L 193.37,186.74 L 191.73,187.66 L 188.24,189.59 L 184.68,191.56 L 177.14,195.69 L 173.38,197.76 L 166.09,201.72 L 164.32,202.68 L 160.99,204.48 L 159.37,205.35 L 156.41,206.94 L 154.99,207.70 L 152.51,209.02 L 151.34,209.63 L 149.45,210.61 L 148.60,211.05 L 147.42,211.64 L 146.57,212.00 L 146.55,212.00 L 146.51,211.77 L 146.49,211.61 L 146.46,211.09 L 146.44,210.79 L 146.41,209.98 L 146.39,209.54 L 146.36,208.47 L 146.33,207.34 L 146.28,204.33 L 146.26,202.72 L 146.23,198.86 L 146.21,196.83 L 146.20,192.24 L 146.19,189.85 L 146.19,184.64 L 146.19,181.97 L 146.20,176.26 L 146.21,173.35 Z" fill="rgba(249,251,252,1)"/>
</g>
</svg>