<?xml version="1.0" standalone="no"?>
<!DOCTYPE svg PUBLIC "-//W3C//DTD SVG 20010904//EN"
 "http://www.w3.org/TR/2001/REC-SVG-20010904/DTD/svg10.dtd">
<svg version="1.0" xmlns="http://www.w3.org/2000/svg"
 width="1600.000000pt" height="471.000000pt" viewBox="0 0 1600.000000 471.000000"
 preserveAspectRatio="xMidYMid meet">
<metadata>
Created by potrace 1.16, written by Peter Selinger 2001-2019
</metadata>
<g transform="translate(0.000000,471.000000) scale(0.100000,-0.100000)"
fill="#000000" stroke="none">
<path d="M2030 4306 c-30 -18 -116 -68 -190 -111 -74 -44 -184 -108 -245 -143
-133 -78 -154 -90 -570 -333 -181 -105 -373 -217 -425 -247 -52 -30 -112 -66
-132 -79 l-38 -23 0 -969 0 -969 238 -137 c130 -76 284 -166 342 -200 58 -34
166 -97 240 -140 74 -43 155 -90 180 -105 25 -15 122 -71 215 -125 94 -54 230
-134 304 -178 115 -67 137 -77 156 -69 20 9 600 346 830 481 44 26 245 144
448 261 l367 215 0 967 0 968 -37 23 c-21 13 -58 35 -83 49 -25 14 -83 48
-130 75 -47 28 -101 60 -120 71 -19 10 -75 43 -125 72 -49 29 -148 86 -219
127 -70 40 -181 104 -245 142 -64 38 -183 108 -266 156 -82 48 -188 110 -235
137 -47 28 -112 65 -145 84 l-60 33 -55 -33z m60 -1902 c0 -1414 -1 -1526 -16
-1520 -10 4 -69 37 -133 75 -64 37 -246 144 -406 236 -159 92 -337 196 -395
230 -58 34 -162 95 -232 136 l-128 74 3 769 2 768 649 379 c357 208 651 379
653 379 2 0 3 -687 3 -1526z m1338 -100 l-3 -716 -500 -273 c-275 -150 -503
-271 -507 -268 -5 2 -8 323 -8 713 l0 710 38 23 c20 13 201 113 402 222 201
109 408 222 460 251 52 29 101 53 108 54 10 0 12 -146 10 -716z"/>
<path d="M870 2871 l0 -139 128 -75 c70 -41 251 -146 402 -233 151 -86 344
-197 429 -246 84 -48 158 -88 162 -88 11 0 12 260 1 276 -4 6 -151 93 -327
194 -176 100 -372 213 -435 250 -162 95 -349 200 -355 200 -3 0 -5 -63 -5
-139z"/>
<path d="M870 2385 l0 -143 173 -99 c94 -55 312 -180 482 -278 171 -98 344
-198 385 -222 41 -23 78 -43 83 -43 4 0 7 63 7 139 l0 140 -147 84 c-200 114
-586 337 -703 405 -52 31 -137 79 -187 108 l-93 53 0 -144z"/>
<path d="M870 1897 l0 -145 63 -35 c34 -19 161 -92 282 -162 444 -257 758
-437 771 -442 12 -4 14 18 12 136 l-3 142 -355 206 c-195 113 -431 249 -525
302 -93 54 -187 108 -207 120 l-38 23 0 -145z"/>
<path d="M8320 3370 c-230 -23 -412 -101 -531 -228 -97 -103 -139 -210 -139
-354 0 -145 34 -241 118 -330 109 -117 281 -183 592 -229 192 -28 239 -38 292
-65 69 -35 81 -93 31 -146 -41 -43 -110 -61 -217 -56 -73 4 -101 9 -142 31
-60 30 -107 83 -130 144 -9 24 -23 43 -31 43 -8 0 -58 -9 -111 -19 -132 -26
-308 -59 -358 -67 -67 -10 -69 -13 -55 -86 39 -202 190 -359 411 -426 139 -42
250 -55 428 -49 265 8 441 53 594 154 83 55 138 117 183 208 72 144 75 339 9
481 -51 108 -137 180 -288 239 -101 40 -139 48 -333 75 -235 33 -275 40 -320
60 -161 71 -19 234 163 187 70 -18 109 -51 141 -119 16 -32 33 -58 39 -58 18
0 386 78 483 102 l43 11 -6 41 c-4 23 -23 73 -41 113 -115 238 -457 381 -825
343z"/>
<path d="M4148 3314 c-5 -4 -8 -394 -8 -866 l0 -860 498 5 c533 5 545 6 717
61 197 64 354 195 439 367 71 144 90 232 90 424 0 120 -4 178 -17 234 -83 344
-282 529 -662 613 -81 18 -140 20 -570 25 -264 3 -483 2 -487 -3z m932 -505
c107 -50 160 -133 181 -283 19 -138 -13 -278 -84 -361 -14 -17 -49 -44 -79
-60 -51 -29 -58 -30 -205 -33 l-153 -4 0 387 0 387 143 -4 c127 -3 148 -6 197
-29z"/>
<path d="M9467 3313 c-4 -3 -7 -393 -7 -865 l0 -858 310 0 310 0 2 322 3 323
225 0 225 0 3 -322 2 -323 310 0 310 0 0 865 0 865 -307 -2 -308 -3 -5 -298
-5 -298 -225 0 -225 0 -3 301 -2 300 -303 0 c-167 0 -307 -3 -310 -7z"/>
<path d="M6525 2873 c-60 -8 -150 -35 -209 -62 -154 -71 -256 -206 -281 -373
l-7 -46 89 -7 c48 -3 131 -10 183 -15 52 -5 136 -12 185 -15 l91 -7 12 50 c26
100 121 148 179 90 18 -18 24 -36 25 -68 1 -59 -30 -86 -109 -95 -32 -3 -101
-11 -153 -17 -208 -22 -360 -80 -448 -169 -78 -79 -97 -125 -97 -239 0 -112
15 -150 85 -221 76 -76 173 -111 310 -111 167 0 316 74 399 198 l30 46 7 -28
c10 -40 47 -97 80 -123 50 -39 149 -81 214 -90 78 -10 216 1 296 24 78 23 154
62 154 80 0 12 -60 244 -65 253 -1 1 -18 -5 -38 -13 -48 -20 -73 -19 -96 4
-17 17 -19 42 -24 267 -6 265 -12 306 -61 403 -74 148 -226 248 -427 280 -61
10 -261 13 -324 4z m265 -814 c0 -28 -27 -90 -51 -115 -66 -71 -209 -41 -209
44 0 50 81 88 200 95 55 3 60 1 60 -24z"/>
</g>
</svg>
