<?xml version="1.0" encoding="UTF-8"?>
<svg version="1.1" xmlns="http://www.w3.org/2000/svg" width="279" height="181">
<path d="M0 0 C92.07 0 184.14 0 279 0 C279 59.73 279 119.46 279 181 C186.93 181 94.86 181 0 181 C0 121.27 0 61.54 0 0 Z " fill="#FDFDFD" transform="translate(0,0)"/>
<path d="M0 0 C0 1.32 0 2.64 0 4 C0.39928711 3.51394287 0.79857422 3.02788574 1.20996094 2.52709961 C4.56374852 -0.33404897 9.02868658 0.53082575 13.25 0.5625 C14.64412109 0.5325293 14.64412109 0.5325293 16.06640625 0.50195312 C23.22436529 0.50701533 27.80663203 1.80663203 33 7 C34.32 7 35.64 7 37 7 C37.33 4.69 37.66 2.38 38 0 C44.88776989 -1.11874081 51.48122497 -0.95923544 58.4375 -0.625 C60.08782227 -0.55925781 60.08782227 -0.55925781 61.77148438 -0.4921875 C69.86787431 -0.13212569 69.86787431 -0.13212569 71 1 C72.56599951 1.03846051 74.13370292 1.01174747 75.69921875 0.95703125 C77.14264648 0.92512695 77.14264648 0.92512695 78.61523438 0.89257812 C80.6442355 0.83969253 82.6729638 0.77481862 84.70117188 0.69726562 C90.81453835 0.58744467 94.37538309 0.85088268 99 5 C100.96752105 8.9350421 100.46422595 13.7105522 100 18 C98.19881522 21.00197464 97.09667268 22.45166366 94 24 C95.2065625 25.11375 95.2065625 25.11375 96.4375 26.25 C99.7444064 29.79887516 100.06679963 32.40250722 100.31640625 37.109375 C100.37924805 38.24052734 100.37924805 38.24052734 100.44335938 39.39453125 C100.48267578 40.17183594 100.52199219 40.94914062 100.5625 41.75 C100.60568359 42.54277344 100.64886719 43.33554688 100.69335938 44.15234375 C100.79902991 46.10137815 100.89997966 48.05066748 101 50 C98.69 50 96.38 50 94 50 C93.0672582 45.900639 92.71174738 41.87956712 92.4375 37.6875 C92.35371094 36.43324219 92.26992187 35.17898437 92.18359375 33.88671875 C92.12300781 32.93410156 92.06242188 31.98148438 92 31 C91.34 31 90.68 31 90 31 C88.68 31 87.36 31 86 31 C86 30.34 86 29.68 86 29 C83.69 28.67 81.38 28.34 79 28 C79.1395053 31.39612414 79.28772322 34.79181458 79.4375 38.1875 C79.47681641 39.14720703 79.51613281 40.10691406 79.55664062 41.09570312 C79.61948242 42.49272461 79.61948242 42.49272461 79.68359375 43.91796875 C79.72025146 44.77156982 79.75690918 45.6251709 79.79467773 46.50463867 C80.00531094 49.06454594 80.44841536 51.49333243 81 54 C82.32 54.33 83.64 54.66 85 55 C85 55.99 85 56.98 85 58 C85.66 58 86.32 58 87 58 C87.33 57.34 87.66 56.68 88 56 C88.99 56 89.98 56 91 56 C91.99 60.95 91.99 60.95 93 66 C92.34 66 91.68 66 91 66 C91 65.34 91 64.68 91 64 C89.68 64 88.36 64 87 64 C87 64.66 87 65.32 87 66 C82.71 66 78.42 66 74 66 C74 67.65 74 69.3 74 71 C73.05125 70.649375 72.1025 70.29875 71.125 69.9375 C68.12939828 68.64973223 68.12939828 68.64973223 66 70 C66 69.34 66 68.68 66 68 C64.515 68.495 64.515 68.495 63 69 C61.515 68.01 61.515 68.01 60 67 C59.8125 63.875 59.8125 63.875 60 61 C59.34 61 58.68 61 58 61 C58.12375 61.721875 58.2475 62.44375 58.375 63.1875 C57.93998169 66.45013736 57.44438849 66.8041996 55 68.8125 C54.01 69.534375 53.02 70.25625 52 71 C52 70.34 52 69.68 52 69 C48.535 69.495 48.535 69.495 45 70 C45.99 68.515 45.99 68.515 47 67 C49.625 66.8125 49.625 66.8125 52 67 C50.87465895 65.64381501 50.87465895 65.64381501 47.9375 65.9375 C46.968125 65.958125 45.99875 65.97875 45 66 C44.67 66.66 44.34 67.32 44 68 C44 67.34 44 66.68 44 66 C42.05396726 65.40929986 42.05396726 65.40929986 40 65 C39.67 65.33 39.34 65.66 39 66 C37.33382885 66.04063832 35.66611905 66.042721 34 66 C34 66.66 34 67.32 34 68 C30.535 68.495 30.535 68.495 27 69 C27 68.01 27 67.02 27 66 C22.71 66 18.42 66 14 66 C14 64.68 14 63.36 14 62 C13.34 62 12.68 62 12 62 C12 63.32 12 64.64 12 66 C11.34 66 10.68 66 10 66 C9.91909029 64.37581255 9.86085005 62.75048255 9.8125 61.125 C9.76029297 59.76761719 9.76029297 59.76761719 9.70703125 58.3828125 C9.80371094 57.59648438 9.90039062 56.81015625 10 56 C10.99 55.34 11.98 54.68 13 54 C13 53.01 13 52.02 13 51 C10.03 51 7.06 51 4 51 C3.34 49.68 2.68 48.36 2 47 C2 49.64 2 52.28 2 55 C3.98 55.66 5.96 56.32 8 57 C8 59.64 8 62.28 8 65 C3.59085217 66.10228696 -0.48382401 66.07654536 -5 66 C-5 66.66 -5 67.32 -5 68 C-6.98 68 -8.96 68 -11 68 C-11 67.34 -11 66.68 -11 66 C-12.98 66 -14.96 66 -17 66 C-17.33 65.34 -17.66 64.68 -18 64 C-18.99 63.67 -19.98 63.34 -21 63 C-21 63.99 -21 64.98 -21 66 C-21.66 66 -22.32 66 -23 66 C-23.33 64.35 -23.66 62.7 -24 61 C-24.33 62.65 -24.66 64.3 -25 66 C-25.66 66 -26.32 66 -27 66 C-27 63.36 -27 60.72 -27 58 C-27.99 58.495 -27.99 58.495 -29 59 C-29.40729228 61.32156597 -29.74438677 63.6568787 -30 66 C-34.94261817 67.15327757 -39.95661339 67.53972977 -45 68 C-45.33 68.99 -45.66 69.98 -46 71 C-46 70.01 -46 69.02 -46 68 C-46.969375 68.020625 -47.93875 68.04125 -48.9375 68.0625 C-52 68 -52 68 -53 67 C-53.07226502 65.14712498 -53.0838122 63.29166122 -53.0625 61.4375 C-53.05347656 60.42558594 -53.04445313 59.41367188 -53.03515625 58.37109375 C-53.02355469 57.58863281 -53.01195312 56.80617187 -53 56 C-51.35 56 -49.7 56 -48 56 C-47.34 57.32 -46.68 58.64 -46 60 C-45.67 58.68 -45.34 57.36 -45 56 C-44.01 56 -43.02 56 -42 56 C-41.67 54.35 -41.34 52.7 -41 51 C-44.63 50.67 -48.26 50.34 -52 50 C-53.68497523 45.78756192 -54.25926835 44.15878387 -54.1875 39.9375 C-54.18105469 39.10089844 -54.17460938 38.26429687 -54.16796875 37.40234375 C-54 35 -54 35 -53.42578125 32.75390625 C-53.28527344 32.17511719 -53.14476562 31.59632812 -53 31 C-53.33 30.67 -53.66 30.34 -54 30 C-54.45459858 27.34536879 -54.70243238 24.67810862 -55 22 C-55.66 22.99 -56.32 23.98 -57 25 C-57.91264277 21.75504791 -57.98006593 19.16861686 -57.5 15.875 C-56.72662962 12.09505786 -56.72662962 12.09505786 -58 9 C-56.68 8.34 -55.36 7.68 -54 7 C-54 4.69 -54 2.38 -54 0 C-51.69 0 -49.38 0 -47 0 C-47.66 1.32 -48.32 2.64 -49 4 C-46.03824877 3.38722388 -44.61941217 2.74627478 -42 1 C-39.95703125 0.8046875 -39.95703125 0.8046875 -37.8125 0.875 C-35.9253125 0.936875 -35.9253125 0.936875 -34 1 C-36.5187609 3.01771706 -39.04012814 5.03177319 -41.5703125 7.03515625 C-42.41335937 7.70417969 -43.25640625 8.37320313 -44.125 9.0625 C-44.97320312 9.73410156 -45.82140625 10.40570313 -46.6953125 11.09765625 C-48.58251033 12.65539412 -50.31396416 14.23131534 -52 16 C-51.67 16.99 -51.34 17.98 -51 19 C-50.5359375 18.45472656 -50.071875 17.90945312 -49.59375 17.34765625 C-39.94502731 6.81686749 -27.77694561 0.01639502 -13.5625 -0.625 C-12.59505859 -0.6765625 -11.62761719 -0.728125 -10.63085938 -0.78125 C-9.70208984 -0.82507812 -8.77332031 -0.86890625 -7.81640625 -0.9140625 C-6.96506104 -0.9548291 -6.11371582 -0.9955957 -5.23657227 -1.03759766 C-3 -1 -3 -1 0 0 Z " fill="#F3F5F7" transform="translate(67,57)"/>
<path d="M0 0 C0 1.32 0 2.64 0 4 C1.32 3.01 2.64 2.02 4 1 C4 17.17 4 33.34 4 50 C3.34 49.01 2.68 48.02 2 47 C2 49.64 2 52.28 2 55 C3.98 55.66 5.96 56.32 8 57 C8 59.64 8 62.28 8 65 C3.59085217 66.10228696 -0.48382401 66.07654536 -5 66 C-5 66.66 -5 67.32 -5 68 C-6.98 68 -8.96 68 -11 68 C-11 67.34 -11 66.68 -11 66 C-12.98 66 -14.96 66 -17 66 C-17.33 65.34 -17.66 64.68 -18 64 C-18.99 63.67 -19.98 63.34 -21 63 C-21 63.99 -21 64.98 -21 66 C-21.66 66 -22.32 66 -23 66 C-23.33 64.35 -23.66 62.7 -24 61 C-24.33 62.65 -24.66 64.3 -25 66 C-25.66 66 -26.32 66 -27 66 C-27 63.36 -27 60.72 -27 58 C-27.99 58.495 -27.99 58.495 -29 59 C-29.40729228 61.32156597 -29.74438677 63.6568787 -30 66 C-34.94261817 67.15327757 -39.95661339 67.53972977 -45 68 C-45.33 68.99 -45.66 69.98 -46 71 C-46 70.01 -46 69.02 -46 68 C-46.969375 68.020625 -47.93875 68.04125 -48.9375 68.0625 C-52 68 -52 68 -53 67 C-53.07226502 65.14712498 -53.0838122 63.29166122 -53.0625 61.4375 C-53.05347656 60.42558594 -53.04445313 59.41367188 -53.03515625 58.37109375 C-53.02355469 57.58863281 -53.01195312 56.80617187 -53 56 C-51.35 56 -49.7 56 -48 56 C-47.34 57.32 -46.68 58.64 -46 60 C-45.67 58.68 -45.34 57.36 -45 56 C-44.01 56 -43.02 56 -42 56 C-41.67 54.35 -41.34 52.7 -41 51 C-44.63 50.67 -48.26 50.34 -52 50 C-53.68497523 45.78756192 -54.25926835 44.15878387 -54.1875 39.9375 C-54.18105469 39.10089844 -54.17460938 38.26429687 -54.16796875 37.40234375 C-54 35 -54 35 -53.42578125 32.75390625 C-53.28527344 32.17511719 -53.14476562 31.59632812 -53 31 C-53.33 30.67 -53.66 30.34 -54 30 C-54.45459858 27.34536879 -54.70243238 24.67810862 -55 22 C-55.66 22.99 -56.32 23.98 -57 25 C-57.91264277 21.75504791 -57.98006593 19.16861686 -57.5 15.875 C-56.72662962 12.09505786 -56.72662962 12.09505786 -58 9 C-56.68 8.34 -55.36 7.68 -54 7 C-54 4.69 -54 2.38 -54 0 C-51.69 0 -49.38 0 -47 0 C-47.66 1.32 -48.32 2.64 -49 4 C-46.03824877 3.38722388 -44.61941217 2.74627478 -42 1 C-39.95703125 0.8046875 -39.95703125 0.8046875 -37.8125 0.875 C-35.9253125 0.936875 -35.9253125 0.936875 -34 1 C-36.5187609 3.01771706 -39.04012814 5.03177319 -41.5703125 7.03515625 C-42.41335937 7.70417969 -43.25640625 8.37320313 -44.125 9.0625 C-44.97320312 9.73410156 -45.82140625 10.40570313 -46.6953125 11.09765625 C-48.58251033 12.65539412 -50.31396416 14.23131534 -52 16 C-51.67 16.99 -51.34 17.98 -51 19 C-50.5359375 18.45472656 -50.071875 17.90945312 -49.59375 17.34765625 C-39.94502731 6.81686749 -27.77694561 0.01639502 -13.5625 -0.625 C-12.59505859 -0.6765625 -11.62761719 -0.728125 -10.63085938 -0.78125 C-9.70208984 -0.82507812 -8.77332031 -0.86890625 -7.81640625 -0.9140625 C-6.96506104 -0.9548291 -6.11371582 -0.9955957 -5.23657227 -1.03759766 C-3 -1 -3 -1 0 0 Z " fill="#F5F9F8" transform="translate(67,57)"/>
<path d="M0 0 C0.99 1.98 0.99 1.98 2 4 C1.34 4 0.68 4 0 4 C0 4.66 0 5.32 0 6 C0.76570313 5.3503125 0.76570313 5.3503125 1.546875 4.6875 C7.11222569 0.42467819 11.3092276 -0.83056192 18.3203125 -0.46484375 C21.84601176 0.14675714 23.67763989 1.29057987 26 4 C28.4294516 7.6441774 28.16179575 9.71241272 28 14 C26.02 14 24.04 14 22 14 C21.54625 12.865625 21.0925 11.73125 20.625 10.5625 C19.42904194 6.95278308 19.42904194 6.95278308 17 6 C12.94857881 5.74139865 11.45662331 5.69558446 8 8 C7.37417306 12.09129125 7.37417306 12.09129125 8 16 C11.98453689 19.72792987 16.71509019 22.33315378 21.37890625 25.12109375 C24.76229223 27.54644197 27.13640834 30.27281669 29 34 C29.40104417 39.21357417 28.87196113 42.58948826 26 47 C23.8125 48.375 23.8125 48.375 22 49 C22.33 49.99 22.66 50.98 23 52 C21.02 52.99 21.02 52.99 19 54 C22.13498292 55.85776765 24.37471432 56.20140476 28 56 C26.515 56.495 26.515 56.495 25 57 C25 57.99 25 58.98 25 60 C26.485 60.495 26.485 60.495 28 61 C27.01 61 26.02 61 25 61 C25 61.99 25 62.98 25 64 C25.99 64 26.98 64 28 64 C28 64.66 28 65.32 28 66 C26.02090602 66.02686553 24.04171029 66.04633375 22.0625 66.0625 C20.96035156 66.07410156 19.85820312 66.08570312 18.72265625 66.09765625 C16 66 16 66 15 65 C15 62.33333333 15 59.66666667 15 57 C14.67 56.67 14.34 56.34 14 56 C14 59.3 14 62.6 14 66 C12.02 65.505 12.02 65.505 10 65 C9.67 64.01 9.34 63.02 9 62 C8.67 63.32 8.34 64.64 8 66 C5.03 66 2.06 66 -1 66 C-1.495 67.485 -1.495 67.485 -2 69 C-3 68 -3 68 -3.09765625 65.27734375 C-3.08605469 64.17519531 -3.07445312 63.07304688 -3.0625 61.9375 C-3.05347656 60.83277344 -3.04445312 59.72804687 -3.03515625 58.58984375 C-3.02355469 57.73519531 -3.01195312 56.88054687 -3 56 C-4.98 56 -6.96 56 -9 56 C-9.495 56.99 -9.495 56.99 -10 58 C-10 57.34 -10 56.68 -10 56 C-10.89203125 55.95101562 -11.7840625 55.90203125 -12.703125 55.8515625 C-13.87359375 55.77679688 -15.0440625 55.70203125 -16.25 55.625 C-17.41015625 55.55539063 -18.5703125 55.48578125 -19.765625 55.4140625 C-22.70694334 55.03751692 -24.49949011 54.5225877 -27 53 C-26.34 52.01 -25.68 51.02 -25 50 C-25.47593186 46.85840458 -25.47593186 46.85840458 -26.5625 43.25 C-26.94774035 41.82913104 -27.32900062 40.40717912 -27.70703125 38.984375 C-27.91537598 38.20126953 -28.1237207 37.41816406 -28.33837891 36.61132812 C-29.60703601 31.60411175 -30.66797919 26.55021195 -31.75 21.5 C-31.97244385 20.46649414 -32.1948877 19.43298828 -32.42407227 18.36816406 C-32.95154253 15.91256357 -33.47691998 13.45653877 -34 11 C-36.20957913 14.76574186 -37.01352786 18.83159095 -37.9453125 23.046875 C-38.12005096 23.81807678 -38.29478943 24.58927856 -38.474823 25.3838501 C-39.02975037 27.83816555 -39.57746535 30.29402588 -40.125 32.75 C-40.50082692 34.41807588 -40.87712368 36.08604597 -41.25390625 37.75390625 C-42.17471984 41.83473172 -43.08907004 45.91695742 -44 50 C-46.64 50 -49.28 50 -52 50 C-54.00881999 44.36573823 -55.43274794 38.61084839 -56.875 32.8125 C-57.13748535 31.76126953 -57.3999707 30.71003906 -57.67041016 29.62695312 C-60.01565064 20.13123938 -62.07762335 10.58926707 -64 1 C-61.69 1 -59.38 1 -57 1 C-56.76289307 2.14065918 -56.52578613 3.28131836 -56.28149414 4.45654297 C-55.40278454 8.68011183 -54.52043114 12.90291248 -53.63696289 17.12548828 C-53.2547793 18.95470699 -52.87359014 20.78413376 -52.4934082 22.61376953 C-51.94742674 25.24046 -51.39789762 27.86638655 -50.84765625 30.4921875 C-50.6778273 31.31306854 -50.50799835 32.13394958 -50.33302307 32.97970581 C-49.51523718 37.10327927 -49.51523718 37.10327927 -48 41 C-47.59890015 39.28901123 -47.59890015 39.28901123 -47.18969727 37.54345703 C-46.19888827 33.31988102 -45.20480365 29.09708172 -44.2097168 24.87451172 C-43.7791315 23.04529574 -43.34944017 21.21586909 -42.9206543 19.38623047 C-42.30491118 16.75953438 -41.68597888 14.13360757 -41.06640625 11.5078125 C-40.87470352 10.68693146 -40.68300079 9.86605042 -40.48548889 9.02029419 C-39.11387171 3.22774341 -39.11387171 3.22774341 -38 1 C-35.36 1 -32.72 1 -30 1 C-27.91228498 8.89258116 -26.0903361 16.84534728 -24.3125 24.8125 C-24.08602783 25.80258057 -23.85955566 26.79266113 -23.6262207 27.81274414 C-22.48378705 32.99588651 -21.72609262 37.69211914 -22 43 C-21.34 43 -20.68 43 -20 43 C-19.96841797 42.45794922 -19.93683594 41.91589844 -19.90429688 41.35742188 C-19.32644453 33.91833328 -17.72573756 26.77691335 -15.98876953 19.53808594 C-15.49460625 17.47750898 -15.01026053 15.4148013 -14.52734375 13.3515625 C-12.15629186 3.31258372 -12.15629186 3.31258372 -11 1 C-9.02 1 -7.04 1 -5 1 C-5 4.63 -5 8.26 -5 12 C-3.68 11.34 -2.36 10.68 -1 10 C-0.67 9.01 -0.34 8.02 0 7 C-0.66 7 -1.32 7 -2 7 C-1.125 2.25 -1.125 2.25 0 0 Z " fill="#F6F7F9" transform="translate(236,57)"/>
<path d="M0 0 C1.2684375 0.0309375 1.2684375 0.0309375 2.5625 0.0625 C3.2225 0.0625 3.8825 0.0625 4.5625 0.0625 C7.89583333 0.0625 11.22916667 0.0625 14.5625 0.0625 C14.5625 0.3925 14.5625 0.7225 14.5625 1.0625 C12.5825 1.0625 10.6025 1.0625 8.5625 1.0625 C10.68123245 9.64395824 12.85378143 18.20753199 15.125 26.75 C17.09171718 34.15631787 18.9099169 41.57885131 20.5625 49.0625 C23.2025 49.3925 25.8425 49.7225 28.5625 50.0625 C28.64371094 48.92941406 28.72492188 47.79632813 28.80859375 46.62890625 C29.66172644 38.950712 31.76106921 31.48211087 33.625 24 C34.00638052 22.45130012 34.38724431 20.90247289 34.76757812 19.35351562 C35.69326439 15.58834829 36.62593842 11.82497623 37.5625 8.0625 C39.97535485 11.68178227 40.63295146 15.19462422 41.5078125 19.37890625 C41.68255096 20.19117172 41.85728943 21.00343719 42.037323 21.84031677 C42.40501621 23.55525366 42.76961832 25.27085581 43.13134766 26.98706055 C43.68640112 29.61978779 44.25054919 32.25043521 44.81640625 34.88085938 C45.17240649 36.54676151 45.52789287 38.21277356 45.8828125 39.87890625 C46.05152863 40.66850235 46.22024475 41.45809845 46.39407349 42.2716217 C47.5625 47.82779101 47.5625 47.82779101 47.5625 50.0625 C50.2025 50.0625 52.8425 50.0625 55.5625 50.0625 C55.5625 50.3925 55.5625 50.7225 55.5625 51.0625 C53.51171875 51.29036458 51.4609375 51.51822917 49.41015625 51.74609375 C47.55109771 51.88136614 47.55109771 51.88136614 46.5625 53.0625 C49.26976366 53.5689814 51.97807124 54.067851 54.6875 54.5625 C55.44804687 54.70558594 56.20859375 54.84867188 56.9921875 54.99609375 C61.24292914 55.76562456 65.22109197 56.22894376 69.5625 56.0625 C69.58948189 57.68740954 69.60888757 59.31244633 69.625 60.9375 C69.63660156 61.84242187 69.64820313 62.74734375 69.66015625 63.6796875 C69.5625 66.0625 69.5625 66.0625 68.5625 68.0625 C66.5825 68.0625 64.6025 68.0625 62.5625 68.0625 C62.2325 68.7225 61.9025 69.3825 61.5625 70.0625 C61.2325 69.4025 60.9025 68.7425 60.5625 68.0625 C60.8925 67.4025 61.2225 66.7425 61.5625 66.0625 C56.1717003 66.29254734 56.1717003 66.29254734 51.5625 68.625 C51.2325 69.099375 50.9025 69.57375 50.5625 70.0625 C49.5725 69.7325 48.5825 69.4025 47.5625 69.0625 C46.5725 69.3925 45.5825 69.7225 44.5625 70.0625 C44.5625 69.0725 44.5625 68.0825 44.5625 67.0625 C43.5725 67.5575 43.5725 67.5575 42.5625 68.0625 C42.8925 69.0525 43.2225 70.0425 43.5625 71.0625 C40.5625 70.0625 40.5625 70.0625 39.375 68 C39.106875 67.360625 38.83875 66.72125 38.5625 66.0625 C38.0675 67.5475 38.0675 67.5475 37.5625 69.0625 C35.5 69.75 35.5 69.75 33.5625 70.0625 C33.5625 69.4025 33.5625 68.7425 33.5625 68.0625 C30.01731116 69.46009905 30.01731116 69.46009905 26.5625 71.0625 C26.5625 69.0825 26.5625 67.1025 26.5625 65.0625 C25.9025 65.0625 25.2425 65.0625 24.5625 65.0625 C23.9025 64.4025 23.2425 63.7425 22.5625 63.0625 C21.9025 64.3825 21.2425 65.7025 20.5625 67.0625 C19.0775 66.5675 19.0775 66.5675 17.5625 66.0625 C17.5625 64.4125 17.5625 62.7625 17.5625 61.0625 C16.9025 61.0625 16.2425 61.0625 15.5625 61.0625 C15.5625 62.7125 15.5625 64.3625 15.5625 66.0625 C14.9025 66.0625 14.2425 66.0625 13.5625 66.0625 C12.9025 67.3825 12.2425 68.7025 11.5625 70.0625 C9.2525 69.7325 6.9425 69.4025 4.5625 69.0625 C4.5625 68.4025 4.5625 67.7425 4.5625 67.0625 C3.9025 67.0625 3.2425 67.0625 2.5625 67.0625 C2.5625 65.4125 2.5625 63.7625 2.5625 62.0625 C1.5725 62.0625 0.5825 62.0625 -0.4375 62.0625 C-0.4375 63.3825 -0.4375 64.7025 -0.4375 66.0625 C-1.0975 66.0625 -1.7575 66.0625 -2.4375 66.0625 C-2.42009766 64.90621094 -2.42009766 64.90621094 -2.40234375 63.7265625 C-2.39332031 62.72367188 -2.38429687 61.72078125 -2.375 60.6875 C-2.36339844 59.68976563 -2.35179687 58.69203125 -2.33984375 57.6640625 C-2.25743398 55.07817547 -2.25743398 55.07817547 -3.4375 53.0625 C-0.4675 52.5675 -0.4675 52.5675 2.5625 52.0625 C1.2425 51.4025 -0.0775 50.7425 -1.4375 50.0625 C0.5425 50.0625 2.5225 50.0625 4.5625 50.0625 C4.40652344 49.53398438 4.25054687 49.00546875 4.08984375 48.4609375 C3.21343822 44.47491531 3.16523817 40.41863619 2.94140625 36.3515625 C2.55246103 32.97535762 1.88470898 30.19188043 0.5625 27.0625 C-1.94745496 25.62326801 -1.94745496 25.62326801 -4.4375 25.0625 C-3.261875 24.1653125 -3.261875 24.1653125 -2.0625 23.25 C0.81744202 20.85004832 2.4021322 19.28390595 2.8984375 15.50390625 C3.14540589 9.6214349 3.14540589 9.6214349 0.6875 4.5 C-0.01375 4.025625 -0.715 3.55125 -1.4375 3.0625 C-2.0975 2.4025 -2.7575 1.7425 -3.4375 1.0625 C-2.4375 0.0625 -2.4375 0.0625 0 0 Z " fill="#F3F7F8" transform="translate(163.4375,56.9375)"/>
<path d="M0 0 C0 1.32 0 2.64 0 4 C-1.18335938 4.35191406 -2.36671875 4.70382813 -3.5859375 5.06640625 C-12.70831449 7.87551917 -20.69488094 10.61649151 -28 17 C-28.72574219 17.61746094 -29.45148437 18.23492187 -30.19921875 18.87109375 C-35.31825394 23.57379336 -38.28722712 28.63541748 -41 35 C-40.34 35 -39.68 35 -39 35 C-37.58183509 33.18295929 -37.58183509 33.18295929 -36.1875 30.875 C-32.00961132 24.22174028 -27.88931742 19.43636155 -21.25 15.3125 C-20.32682983 14.73060913 -20.32682983 14.73060913 -19.38500977 14.13696289 C-13.38269237 10.45356199 -7.24251889 7.29911108 0 8 C0 9.32 0 10.64 0 12 C-0.75023437 12.21914062 -1.50046875 12.43828125 -2.2734375 12.6640625 C-14.24434521 16.11496776 -14.24434521 16.11496776 -23.2734375 24.0625 C-24.11704115 25.96723457 -24.11704115 25.96723457 -24 28 C-23.55011719 27.55269531 -23.10023437 27.10539062 -22.63671875 26.64453125 C-17.01265022 21.35858307 -10.14894084 16.23436558 -2.16796875 15.87109375 C-1.45253906 15.91363281 -0.73710938 15.95617187 0 16 C0.495 18.475 0.495 18.475 1 21 C0.34 21 -0.32 21 -1 21 C-0.505 24.465 -0.505 24.465 0 28 C-2.31 28.66 -4.62 29.32 -7 30 C-7 30.66 -7 31.32 -7 32 C-4.69 32 -2.38 32 0 32 C1.125 37.75 1.125 37.75 0 40 C-0.66 40 -1.32 40 -2 40 C-2.185625 40.928125 -2.185625 40.928125 -2.375 41.875 C-3.08597407 44.29231184 -4.25438735 45.25438735 -6 47 C-6.68753301 48.65816784 -7.35561283 50.32459336 -8 52 C-7.01 52 -6.02 52 -5 52 C-5 52.66 -5 53.32 -5 54 C-7.64 54 -10.28 54 -13 54 C-13.33 53.34 -13.66 52.68 -14 52 C-14.99 51.67 -15.98 51.34 -17 51 C-17 51.99 -17 52.98 -17 54 C-17.66 54 -18.32 54 -19 54 C-19.495 51.525 -19.495 51.525 -20 49 C-20.33 50.65 -20.66 52.3 -21 54 C-21.66 54 -22.32 54 -23 54 C-23 51.36 -23 48.72 -23 46 C-23.99 46.495 -23.99 46.495 -25 47 C-25.40729228 49.32156597 -25.74438677 51.6568787 -26 54 C-30.94261817 55.15327757 -35.95661339 55.53972977 -41 56 C-41.33 56.99 -41.66 57.98 -42 59 C-42 58.01 -42 57.02 -42 56 C-42.969375 56.020625 -43.93875 56.04125 -44.9375 56.0625 C-48 56 -48 56 -49 55 C-49.07226502 53.14712498 -49.0838122 51.29166122 -49.0625 49.4375 C-49.05347656 48.42558594 -49.04445313 47.41367188 -49.03515625 46.37109375 C-49.02355469 45.58863281 -49.01195312 44.80617187 -49 44 C-47.35 44 -45.7 44 -44 44 C-43.34 45.32 -42.68 46.64 -42 48 C-41.67 46.68 -41.34 45.36 -41 44 C-40.01 44 -39.02 44 -38 44 C-37.67 42.35 -37.34 40.7 -37 39 C-40.63 38.67 -44.26 38.34 -48 38 C-44.66152799 25.31380634 -35.42479738 14.60510338 -24.29882812 7.98828125 C-16.52637004 3.68065388 -9.02858128 0 0 0 Z " fill="#EBF0F4" transform="translate(63,69)"/>
<path d="M0 0 C20 0 20 0 27 4 C30.89166618 10.04399584 30.44910445 16.42639536 30.375 23.4375 C30.38660156 24.53126953 30.39820312 25.62503906 30.41015625 26.75195312 C30.38541888 33.60008144 30.13675319 39.94789313 25.77099609 45.58764648 C18.54237648 51.35240585 8.41268482 49 0 49 C0 32.83 0 16.66 0 0 Z " fill="#083B77" transform="translate(71,58)"/>
<path d="M0 0 C2.31 0 4.62 0 7 0 C7.23710693 1.14065918 7.47421387 2.28131836 7.71850586 3.45654297 C8.59721546 7.68011183 9.47956886 11.90291248 10.36303711 16.12548828 C10.7452207 17.95470699 11.12640986 19.78413376 11.5065918 21.61376953 C12.05257326 24.24046 12.60210238 26.86638655 13.15234375 29.4921875 C13.3221727 30.31306854 13.49200165 31.13394958 13.66697693 31.97970581 C14.48476282 36.10327927 14.48476282 36.10327927 16 40 C16.40109985 38.28901123 16.40109985 38.28901123 16.81030273 36.54345703 C17.80111173 32.31988102 18.79519635 28.09708172 19.7902832 23.87451172 C20.2208685 22.04529574 20.65055983 20.21586909 21.0793457 18.38623047 C21.69508882 15.75953438 22.31402112 13.13360757 22.93359375 10.5078125 C23.12529648 9.68693146 23.31699921 8.86605042 23.51451111 8.02029419 C24.88612829 2.22774341 24.88612829 2.22774341 26 0 C28.64 0 31.28 0 34 0 C36.08771502 7.89258116 37.9096639 15.84534728 39.6875 23.8125 C39.91397217 24.80258057 40.14044434 25.79266113 40.3737793 26.81274414 C41.51621295 31.99588651 42.27390738 36.69211914 42 42 C42.66 42 43.32 42 44 42 C44.03158203 41.45794922 44.06316406 40.91589844 44.09570312 40.35742188 C44.67355547 32.91833328 46.27426244 25.77691335 48.01123047 18.53808594 C48.50539375 16.47750898 48.98973947 14.4148013 49.47265625 12.3515625 C51.84370814 2.31258372 51.84370814 2.31258372 53 0 C54.98 0 56.96 0 59 0 C58.37988999 6.12088686 57.12687554 11.82437395 55.49609375 17.75 C55.2533522 18.64871826 55.01061066 19.54743652 54.76051331 20.47338867 C53.99122728 23.31699095 53.21449284 26.15849503 52.4375 29 C51.91161409 30.9386678 51.38621851 32.87746868 50.86132812 34.81640625 C49.57988366 39.5458286 48.29175949 44.27338509 47 49 C44.36 49 41.72 49 39 49 C35.64217161 36.07517452 32.78083777 23.05963813 30 10 C27.79042087 13.76574186 26.98647214 17.83159095 26.0546875 22.046875 C25.87994904 22.81807678 25.70521057 23.58927856 25.525177 24.3838501 C24.97024963 26.83816555 24.42253465 29.29402588 23.875 31.75 C23.49917308 33.41807588 23.12287632 35.08604597 22.74609375 36.75390625 C21.82528016 40.83473172 20.91092996 44.91695742 20 49 C17.36 49 14.72 49 12 49 C9.99118001 43.36573823 8.56725206 37.61084839 7.125 31.8125 C6.86251465 30.76126953 6.6000293 29.71003906 6.32958984 28.62695312 C3.98434936 19.13123938 1.92237665 9.58926707 0 0 Z " fill="#114479" transform="translate(172,58)"/>
<path d="M0 0 C1.2684375 0.0309375 1.2684375 0.0309375 2.5625 0.0625 C3.2225 0.0625 3.8825 0.0625 4.5625 0.0625 C7.89583333 0.0625 11.22916667 0.0625 14.5625 0.0625 C14.5625 0.3925 14.5625 0.7225 14.5625 1.0625 C12.5825 1.0625 10.6025 1.0625 8.5625 1.0625 C10.68123245 9.64395824 12.85378143 18.20753199 15.125 26.75 C17.09171718 34.15631787 18.9099169 41.57885131 20.5625 49.0625 C22.2640625 49.248125 22.2640625 49.248125 24 49.4375 C25.175625 49.64375 26.35125 49.85 27.5625 50.0625 C27.8925 50.7225 28.2225 51.3825 28.5625 52.0625 C27.5725 53.0525 26.5825 54.0425 25.5625 55.0625 C26.8825 55.3925 28.2025 55.7225 29.5625 56.0625 C28.2425 56.0625 26.9225 56.0625 25.5625 56.0625 C25.5625 59.0325 25.5625 62.0025 25.5625 65.0625 C24.5725 64.4025 23.5825 63.7425 22.5625 63.0625 C21.9025 64.3825 21.2425 65.7025 20.5625 67.0625 C19.0775 66.5675 19.0775 66.5675 17.5625 66.0625 C17.5625 64.4125 17.5625 62.7625 17.5625 61.0625 C16.9025 61.0625 16.2425 61.0625 15.5625 61.0625 C15.5625 62.7125 15.5625 64.3625 15.5625 66.0625 C14.9025 66.0625 14.2425 66.0625 13.5625 66.0625 C12.9025 67.3825 12.2425 68.7025 11.5625 70.0625 C9.2525 69.7325 6.9425 69.4025 4.5625 69.0625 C4.5625 68.4025 4.5625 67.7425 4.5625 67.0625 C3.9025 67.0625 3.2425 67.0625 2.5625 67.0625 C2.5625 65.4125 2.5625 63.7625 2.5625 62.0625 C1.5725 62.0625 0.5825 62.0625 -0.4375 62.0625 C-0.4375 63.3825 -0.4375 64.7025 -0.4375 66.0625 C-1.0975 66.0625 -1.7575 66.0625 -2.4375 66.0625 C-2.42009766 64.90621094 -2.42009766 64.90621094 -2.40234375 63.7265625 C-2.39332031 62.72367188 -2.38429687 61.72078125 -2.375 60.6875 C-2.36339844 59.68976563 -2.35179687 58.69203125 -2.33984375 57.6640625 C-2.25743398 55.07817547 -2.25743398 55.07817547 -3.4375 53.0625 C-0.4675 52.5675 -0.4675 52.5675 2.5625 52.0625 C1.2425 51.4025 -0.0775 50.7425 -1.4375 50.0625 C0.5425 50.0625 2.5225 50.0625 4.5625 50.0625 C4.40652344 49.53398438 4.25054687 49.00546875 4.08984375 48.4609375 C3.21343822 44.47491531 3.16523817 40.41863619 2.94140625 36.3515625 C2.55246103 32.97535762 1.88470898 30.19188043 0.5625 27.0625 C-1.94745496 25.62326801 -1.94745496 25.62326801 -4.4375 25.0625 C-3.261875 24.1653125 -3.261875 24.1653125 -2.0625 23.25 C0.81744202 20.85004832 2.4021322 19.28390595 2.8984375 15.50390625 C3.14540589 9.6214349 3.14540589 9.6214349 0.6875 4.5 C-0.01375 4.025625 -0.715 3.55125 -1.4375 3.0625 C-2.0975 2.4025 -2.7575 1.7425 -3.4375 1.0625 C-2.4375 0.0625 -2.4375 0.0625 0 0 Z " fill="#F5F7F8" transform="translate(163.4375,56.9375)"/>
<path d="M0 0 C21 0 21 0 27 4 C28.96752105 7.9350421 28.46422595 12.7105522 28 17 C26.19881522 20.00197464 25.09667268 21.45166366 22 23 C22.804375 23.7425 23.60875 24.485 24.4375 25.25 C27.7444064 28.79887516 28.06679963 31.40250722 28.31640625 36.109375 C28.35830078 36.86347656 28.40019531 37.61757812 28.44335938 38.39453125 C28.48267578 39.17183594 28.52199219 39.94914062 28.5625 40.75 C28.60568359 41.54277344 28.64886719 42.33554688 28.69335938 43.15234375 C28.79902991 45.10137815 28.89997966 47.05066748 29 49 C26.69 49 24.38 49 22 49 C20.77421211 43.75801278 20.73860989 38.54223987 20.57421875 33.1796875 C20.28272019 29.50304373 20.28272019 29.50304373 16 27 C12.7 26.67 9.4 26.34 6 26 C6 33.59 6 41.18 6 49 C4.02 49 2.04 49 0 49 C0 32.83 0 16.66 0 0 Z " fill="#0B4681" transform="translate(139,58)"/>
<path d="M0 0 C12 0 12 0 15.1875 2.375 C18.85389627 7.68495322 18.22041165 12.43288764 18.25 18.75 C18.270625 19.83539063 18.29125 20.92078125 18.3125 22.0390625 C18.36328561 32.42471958 18.36328561 32.42471958 15 37 C11 39 11 39 0 39 C0 26.13 0 13.26 0 0 Z " fill="#F7F8F9" transform="translate(77,63)"/>
<path d="M0 0 C3.52121839 2.04230667 4.75217677 3.62826516 7 7 C7.07905064 9.33199388 7.08798769 11.66832622 7 14 C5.02 14 3.04 14 1 14 C0.54625 12.865625 0.0925 11.73125 -0.375 10.5625 C-1.57095806 6.95278308 -1.57095806 6.95278308 -4 6 C-8.05142119 5.74139865 -9.54337669 5.69558446 -13 8 C-13.62582694 12.09129125 -13.62582694 12.09129125 -13 16 C-9.01546311 19.72792987 -4.28490981 22.33315378 0.37890625 25.12109375 C3.76229223 27.54644197 6.13640834 30.27281669 8 34 C8.40282133 39.23667727 7.83087029 42.55148954 5 47 C0.42849314 51.27657093 -4.58718264 51.2894155 -10.59375 51.21875 C-14.71153991 50.84440546 -16.86597433 49.09352476 -19.75 46.3125 C-21.58044993 42.92616763 -21.68117792 39.82586493 -22 36 C-20.02 36 -18.04 36 -16 36 C-15.34 38.64 -14.68 41.28 -14 44 C-12.41986783 44.25028811 -10.83557694 44.47440946 -9.25 44.6875 C-7.92742187 44.87892578 -7.92742187 44.87892578 -6.578125 45.07421875 C-3.37207589 44.9819234 -2.21798595 44.28381659 0 42 C0.52261132 38.75980982 0.7758631 37.06135132 0 34 C-3.67385794 29.94933611 -8.09538031 27.81884813 -12.87890625 25.26171875 C-16.36895652 23.18568516 -19.16075717 20.67848567 -21 17 C-21.04256846 12.18976409 -20.69554222 8.15124229 -18.1875 4 C-12.80797333 -0.91842438 -7.01808076 -0.79685459 0 0 Z " fill="#14497E" transform="translate(257,57)"/>
<path d="M0 0 C7.92 0 15.84 0 24 0 C24 1.65 24 3.3 24 5 C18.06 5 12.12 5 6 5 C6 10.28 6 15.56 6 21 C11.94 21 17.88 21 24 21 C24 22.98 24 24.96 24 27 C18.06 27 12.12 27 6 27 C6 34.26 6 41.52 6 49 C4.02 49 2.04 49 0 49 C0 32.83 0 16.66 0 0 Z " fill="#0F427D" transform="translate(108,58)"/>
<path d="M0 0 C2.31 0 4.62 0 7 0 C6.34 1.32 5.68 2.64 5 4 C7.96175123 3.38722388 9.38058783 2.74627478 12 1 C14.04296875 0.8046875 14.04296875 0.8046875 16.1875 0.875 C18.0746875 0.936875 18.0746875 0.936875 20 1 C17.4812391 3.01771706 14.95987186 5.03177319 12.4296875 7.03515625 C11.58664063 7.70417969 10.74359375 8.37320313 9.875 9.0625 C9.02679688 9.73410156 8.17859375 10.40570313 7.3046875 11.09765625 C5.41748967 12.65539412 3.68603584 14.23131534 2 16 C2.33 16.99 2.66 17.98 3 19 C3.4640625 18.45472656 3.928125 17.90945312 4.40625 17.34765625 C10.56340533 10.62762664 22.47529109 0.43336508 31.97119141 -0.11352539 C33.1494751 -0.10567017 33.1494751 -0.10567017 34.3515625 -0.09765625 C35.62773438 -0.09282227 35.62773438 -0.09282227 36.9296875 -0.08789062 C37.81914063 -0.07951172 38.70859375 -0.07113281 39.625 -0.0625 C40.5221875 -0.05798828 41.419375 -0.05347656 42.34375 -0.04882812 C44.56256648 -0.03702591 46.78125018 -0.02056155 49 0 C49 0.33 49 0.66 49 1 C47.42412109 1.36351562 47.42412109 1.36351562 45.81640625 1.734375 C28.27046951 5.87771755 15.51161768 12.64804979 3 26 C2.0043763 27.00435724 1.00643067 28.00647229 0 29 C-0.33 26.69 -0.66 24.38 -1 22 C-1.66 22.99 -2.32 23.98 -3 25 C-3.91264277 21.75504791 -3.98006593 19.16861686 -3.5 15.875 C-2.72662962 12.09505786 -2.72662962 12.09505786 -4 9 C-2.68 8.34 -1.36 7.68 0 7 C0 4.69 0 2.38 0 0 Z " fill="#184B7E" transform="translate(13,57)"/>
<path d="M0 0 C1.03253906 0.00676758 1.03253906 0.00676758 2.0859375 0.01367188 C3.76566335 0.02533664 5.44534375 0.04326729 7.125 0.0625 C7.125 1.0525 7.125 2.0425 7.125 3.0625 C7.785 3.0625 8.445 3.0625 9.125 3.0625 C9.455 2.4025 9.785 1.7425 10.125 1.0625 C11.115 1.0625 12.105 1.0625 13.125 1.0625 C13.785 4.3625 14.445 7.6625 15.125 11.0625 C14.465 11.0625 13.805 11.0625 13.125 11.0625 C13.125 10.4025 13.125 9.7425 13.125 9.0625 C11.805 9.0625 10.485 9.0625 9.125 9.0625 C9.125 9.7225 9.125 10.3825 9.125 11.0625 C4.835 11.0625 0.545 11.0625 -3.875 11.0625 C-3.875 12.7125 -3.875 14.3625 -3.875 16.0625 C-5.298125 15.5365625 -5.298125 15.5365625 -6.75 15 C-9.74560172 13.71223223 -9.74560172 13.71223223 -11.875 15.0625 C-11.875 14.4025 -11.875 13.7425 -11.875 13.0625 C-12.865 13.3925 -13.855 13.7225 -14.875 14.0625 C-15.865 13.4025 -16.855 12.7425 -17.875 12.0625 C-18.0625 8.9375 -18.0625 8.9375 -17.875 6.0625 C-18.535 6.0625 -19.195 6.0625 -19.875 6.0625 C-19.875 7.7125 -19.875 9.3625 -19.875 11.0625 C-20.535 11.0625 -21.195 11.0625 -21.875 11.0625 C-21.875 7.7625 -21.875 4.4625 -21.875 1.0625 C-19.20833333 1.0625 -16.54166667 1.0625 -13.875 1.0625 C-13.00617188 0.89878906 -12.13734375 0.73507813 -11.2421875 0.56640625 C-7.47169371 0.00214442 -3.79990068 -0.04786697 0 0 Z " fill="#D6E1E9" transform="translate(144.875,111.9375)"/>
<path d="M0 0 C0 1.65 0 3.3 0 5 C-0.84820312 5.13535156 -1.69640625 5.27070312 -2.5703125 5.41015625 C-16.70525848 8.00415183 -27.94063692 13.5873506 -38 24 C-38.58394531 24.598125 -39.16789062 25.19625 -39.76953125 25.8125 C-43.67228249 30.0808254 -46.37129776 34.87054121 -49 40 C-49.33 40 -49.66 40 -50 40 C-50.97495972 33.50026857 -49.99659527 30.29241297 -46.125 24.9375 C-35.82255426 12.26871126 -21.48881943 3.67617559 -5.5 0.25 C-3 0 -3 0 0 0 Z " fill="#12457D" transform="translate(63,61)"/>
<path d="M0 0 C0 1.32 0 2.64 0 4 C-1.18335938 4.35191406 -2.36671875 4.70382813 -3.5859375 5.06640625 C-12.70446173 7.87433276 -20.70257178 10.61135931 -28 17 C-29.07121094 17.92619141 -29.07121094 17.92619141 -30.1640625 18.87109375 C-35.88423572 24.19492538 -40.51313325 30.53939975 -43 38 C-44.65 38 -46.3 38 -48 38 C-44.66152799 25.31380634 -35.42479738 14.60510338 -24.29882812 7.98828125 C-16.52637004 3.68065388 -9.02858128 0 0 0 Z " fill="#134377" transform="translate(63,69)"/>
<path d="M0 0 C1.125 5.75 1.125 5.75 0 8 C-0.66 8 -1.32 8 -2 8 C-2.12375 8.61875 -2.2475 9.2375 -2.375 9.875 C-3.08597407 12.29231184 -4.25438735 13.25438735 -6 15 C-6.68753301 16.65816784 -7.35561283 18.32459336 -8 20 C-7.01 20 -6.02 20 -5 20 C-5 20.66 -5 21.32 -5 22 C-7.64 22 -10.28 22 -13 22 C-13.33 21.34 -13.66 20.68 -14 20 C-14.99 19.67 -15.98 19.34 -17 19 C-17 19.99 -17 20.98 -17 22 C-17.66 22 -18.32 22 -19 22 C-19.144375 21.2575 -19.28875 20.515 -19.4375 19.75 C-19.90187492 17.47972261 -20.41863569 15.24240521 -21 13 C-20.34 13 -19.68 13 -19 13 C-19 12.34 -19 11.68 -19 11 C-19.66 10.67 -20.32 10.34 -21 10 C-20.01 9.67 -19.02 9.34 -18 9 C-18 8.34 -18 7.68 -18 7 C-16.35 6.34 -14.7 5.68 -13 5 C-12.67 6.65 -12.34 8.3 -12 10 C-9.7226499 7.18490007 -9.7226499 7.18490007 -10 4 C-3.375 0 -3.375 0 0 0 Z " fill="#F7F8F5" transform="translate(63,101)"/>
<path d="M0 0 C11.34109091 -0.49309091 11.34109091 -0.49309091 14.359375 1.765625 C16.09023982 4.12289805 16.54492653 5.12470206 16.5 8 C16.5103125 8.66 16.520625 9.32 16.53125 10 C15.73922269 12.98174986 14.45326814 14.16411059 12 16 C7.93404512 16.52667809 4.11858117 16.17906875 0 16 C0 10.72 0 5.44 0 0 Z " fill="#F4F8F7" transform="translate(145,63)"/>
<path d="M0 0 C0 1.32 0 2.64 0 4 C-0.75023437 4.21914062 -1.50046875 4.43828125 -2.2734375 4.6640625 C-15.05632928 8.62450504 -25.85723786 14.64193504 -32.75 26.5 C-33.09546875 27.1703125 -33.4409375 27.840625 -33.796875 28.53125 C-34.19390625 29.0159375 -34.5909375 29.500625 -35 30 C-36.32 30 -37.64 30 -39 30 C-37.80621225 21.15005351 -31.05236966 14.47041387 -24.3125 9.125 C-17.23221908 4.12028367 -8.90385458 -0.50832319 0 0 Z " fill="#14467C" transform="translate(63,77)"/>
<path d="M0 0 C6.27 0 12.54 0 19 0 C19.125 9.75 19.125 9.75 18 12 C16.02 12 14.04 12 12 12 C11.67 12.66 11.34 13.32 11 14 C10.67 13.34 10.34 12.68 10 12 C10.33 11.34 10.66 10.68 11 10 C9.741875 10.103125 8.48375 10.20625 7.1875 10.3125 C6.12595703 10.39951172 6.12595703 10.39951172 5.04296875 10.48828125 C2.56228691 10.92360313 2.56228691 10.92360313 0 14 C0 9.38 0 4.76 0 0 Z " fill="#EEF6F4" transform="translate(214,113)"/>
<path d="M0 0 C0 1.32 0 2.64 0 4 C-1.19882813 4.31130859 -1.19882813 4.31130859 -2.421875 4.62890625 C-18.43623003 9.12119598 -30.24637083 16.8728559 -39 31 C-40.44441704 33.63393695 -41.73688402 36.27166948 -43 39 C-43.99 37.68 -44.98 36.36 -46 35 C-38.10613512 19.32345144 -26.51342826 8.18395492 -9.99609375 1.84765625 C-6.53038434 0.75295619 -3.64438901 0 0 0 Z " fill="#E9EFF2" transform="translate(59,66)"/>
<path d="M0 0 C2.31 0 4.62 0 7 0 C6.34 1.32 5.68 2.64 5 4 C7.96175123 3.38722388 9.38058783 2.74627478 12 1 C14.04296875 0.8046875 14.04296875 0.8046875 16.1875 0.875 C18.0746875 0.936875 18.0746875 0.936875 20 1 C17.4812391 3.01771706 14.95987186 5.03177319 12.4296875 7.03515625 C11.58664063 7.70417969 10.74359375 8.37320313 9.875 9.0625 C9.02679688 9.73410156 8.17859375 10.40570313 7.3046875 11.09765625 C4.49884581 13.39440487 4.49884581 13.39440487 2 16 C1.74930087 18.62570704 1.74930087 18.62570704 2 21 C1.01 21.33 0.02 21.66 -1 22 C-1.66 22.99 -2.32 23.98 -3 25 C-3.91264277 21.75504791 -3.98006593 19.16861686 -3.5 15.875 C-2.72662962 12.09505786 -2.72662962 12.09505786 -4 9 C-2.68 8.34 -1.36 7.68 0 7 C0 4.69 0 2.38 0 0 Z " fill="#F7F8F7" transform="translate(13,57)"/>
<path d="M0 0 C0.495 0.99 0.495 0.99 1 2 C0.23816406 2.17015625 -0.52367187 2.3403125 -1.30859375 2.515625 C-18.25121976 6.49217143 -32.90209065 14.56929976 -43 29 C-43.99 28.01 -44.98 27.02 -46 26 C-35.70636268 14.15755151 -17.85933578 -5.5562378 0 0 Z " fill="#E9EDF1" transform="translate(59,60)"/>
<path d="M0 0 C6.27 0 12.54 0 19 0 C18.01 0.495 18.01 0.495 17 1 C17.66 1.66 18.32 2.32 19 3 C19.66 2.67 20.32 2.34 21 2 C20.67 3.32 20.34 4.64 20 6 C19.01 5.67 18.02 5.34 17 5 C12.38 5 7.76 5 3 5 C3 16.55 3 28.1 3 40 C3.66 40.33 4.32 40.66 5 41 C4.01 41 3.02 41 2 41 C1.67 43.31 1.34 45.62 1 48 C5.29 48 9.58 48 14 48 C14 48.33 14 48.66 14 49 C9.38 49 4.76 49 0 49 C0 32.83 0 16.66 0 0 Z " fill="#0B3974" transform="translate(71,58)"/>
<path d="M0 0 C0.495 1.485 0.495 1.485 1 3 C-0.29550781 3.43119141 -0.29550781 3.43119141 -1.6171875 3.87109375 C-2.73351563 4.24363281 -3.84984375 4.61617188 -5 5 C-5.99257813 5.32097656 -6.98515625 5.64195313 -8.0078125 5.97265625 C-20.93669898 10.49290603 -29.80421789 17.3945464 -37 29 C-37.98639968 30.34342601 -38.98221064 31.680196 -40 33 C-40.66 32.01 -41.32 31.02 -42 30 C-34.67423213 16.00361424 -24.13346756 6.43701625 -9.0625 1.625 C-5.8532397 0.68402499 -3.34426519 0 0 0 Z " fill="#EBEFF2" transform="translate(63,73)"/>
<path d="M0 0 C5.2734375 1.7578125 5.2734375 1.7578125 7 3 C9.23485097 7.82257314 9.41258265 12.65307337 9.625 17.875 C9.66367188 18.65875 9.70234375 19.4425 9.7421875 20.25 C9.83566622 22.16631367 9.91888495 24.08312319 10 26 C7.69 26 5.38 26 3 26 C1.78565919 20.73116591 1.64392314 15.46694882 1.37890625 10.08203125 C1.30843389 6.89807358 1.30843389 6.89807358 -1 5 C-0.625 2.375 -0.625 2.375 0 0 Z " fill="#144880" transform="translate(158,81)"/>
<path d="M0 0 C2.66666667 1.33333333 5.33333333 2.66666667 8 4 C8.042721 5.66611905 8.04063832 7.33382885 8 9 C7.67 9.33 7.34 9.66 7 10 C6.92851801 11.35243917 6.91600546 12.70834367 6.9375 14.0625 C6.958125 15.361875 6.97875 16.66125 7 18 C8.65 18.33 10.3 18.66 12 19 C12 19.33 12 19.66 12 20 C7.05 20.495 7.05 20.495 2 21 C1.67 21.99 1.34 22.98 1 24 C1 23.01 1 22.02 1 21 C0.030625 21.020625 -0.93875 21.04125 -1.9375 21.0625 C-5 21 -5 21 -6 20 C-6.07226502 18.14712498 -6.0838122 16.29166122 -6.0625 14.4375 C-6.05347656 13.42558594 -6.04445313 12.41367188 -6.03515625 11.37109375 C-6.02355469 10.58863281 -6.01195312 9.80617188 -6 9 C-4.35 9 -2.7 9 -1 9 C-0.34 10.32 0.32 11.64 1 13 C1.33 11.68 1.66 10.36 2 9 C2.99 9 3.98 9 5 9 C5.33 7.35 5.66 5.7 6 4 C4.35 3.67 2.7 3.34 1 3 C0.67 2.01 0.34 1.02 0 0 Z " fill="#F5FAFA" transform="translate(20,104)"/>
<path d="M0 0 C1.65 0.99 3.3 1.98 5 3 C5 2.34 5 1.68 5 1 C8.3 1.66 11.6 2.32 15 3 C15 3.66 15 4.32 15 5 C14.34 5 13.68 5 13 5 C13 7.97 13 10.94 13 14 C12.34 14 11.68 14 11 14 C11 11.36 11 8.72 11 6 C10.01 6.495 10.01 6.495 9 7 C8.59270772 9.32156597 8.25561323 11.6568787 8 14 C6.35425434 14.02688151 4.70838587 14.04634123 3.0625 14.0625 C2.14597656 14.07410156 1.22945312 14.08570312 0.28515625 14.09765625 C-2 14 -2 14 -3 13 C-3.36015175 7.59772371 -3.35910997 4.47881329 0 0 Z " fill="#90A0B8" transform="translate(29,109)"/>
<path d="M0 0 C0.33 0 0.66 0 1 0 C1.33 14.85 1.66 29.7 2 45 C4.97 45.33 7.94 45.66 11 46 C11 46.99 11 47.98 11 49 C11.66 49.33 12.32 49.66 13 50 C10.525 50.495 10.525 50.495 8 51 C8 54.3 8 57.6 8 61 C6.39743892 61.50512244 4.79288208 62.00391627 3.1875 62.5 C2.29417969 62.7784375 1.40085937 63.056875 0.48046875 63.34375 C-2 64 -2 64 -5 64 C-4.67 62.35 -4.34 60.7 -4 59 C-3.67 59.66 -3.34 60.32 -3 61 C-2.13375 60.7525 -2.13375 60.7525 -1.25 60.5 C1 60 1 60 5 60 C5 57.36 5 54.72 5 52 C3.02 51.34 1.04 50.68 -1 50 C-0.67 33.5 -0.34 17 0 0 Z " fill="#FCFDF7" transform="translate(69,62)"/>
<path d="M0 0 C0 1.32 0 2.64 0 4 C-0.82242188 4.25652344 -1.64484375 4.51304688 -2.4921875 4.77734375 C-11.64944171 7.91788012 -18.91420225 12.24409515 -24.60546875 20.26171875 C-25.06566406 20.83535156 -25.52585937 21.40898438 -26 22 C-28.6875 22.25 -28.6875 22.25 -31 22 C-25.92448984 11.62830533 -18.46771794 5.65409169 -8.015625 0.99609375 C-5.11664377 0.03852871 -3.02210794 -0.21826335 0 0 Z " fill="#17467B" transform="translate(63,85)"/>
<path d="M0 0 C1.98 0 3.96 0 6 0 C6.66 2.64 7.32 5.28 8 8 C9.4577353 8.335939 10.91621106 8.66866624 12.375 9 C13.18710938 9.185625 13.99921875 9.37125 14.8359375 9.5625 C17.89488363 10.1809151 20.01633209 9.79564478 23 9 C22.67 10.65 22.34 12.3 22 14 C16.78045248 15.73984917 11.1549322 15.91699243 6.0625 13.75 C1.08310238 9.52505656 0.52965278 6.35583338 0 0 Z " fill="#0E427A" transform="translate(235,93)"/>
<path d="M0 0 C2.97 0.33 5.94 0.66 9 1 C9.33 1.99 9.66 2.98 10 4 C9.34 4 8.68 4 8 4 C8 3.34 8 2.68 8 2 C7.34 2 6.68 2 6 2 C6.680625 2.556875 7.36125 3.11375 8.0625 3.6875 C8.701875 4.450625 9.34125 5.21375 10 6 C9.75 8.75 9.75 8.75 9 11 C7.35 11 5.7 11 4 11 C4 11.66 4 12.32 4 13 C1.69 13.33 -0.62 13.66 -3 14 C-3 13.01 -3 12.02 -3 11 C-3.66 11 -4.32 11 -5 11 C-5 7.7 -5 4.4 -5 1 C-4.01 1 -3.02 1 -2 1 C-1.67 1.99 -1.34 2.98 -1 4 C-0.67 2.68 -0.34 1.36 0 0 Z " fill="#E2EAEE" transform="translate(97,112)"/>
<path d="M0 0 C2.67085649 0.91810692 3.75773089 1.55583997 5.125 4.0625 C5.41375 4.701875 5.7025 5.34125 6 6 C6.66 6.33 7.32 6.66 8 7 C10.23577029 12.8239471 10.24068486 18.25725868 10.125 24.4375 C10.11597656 25.35982422 10.10695313 26.28214844 10.09765625 27.23242188 C10.0742766 29.48855809 10.04150916 31.74413684 10 34 C8.515 34.495 8.515 34.495 7 35 C5.74274484 29.83809875 5.72744301 24.6114834 5.65820312 19.32617188 C5.45726655 14.06911033 4.19118147 11.32497449 1 7 C1 6.01 1 5.02 1 4 C0.01 3.67 -0.98 3.34 -2 3 C-2 2.34 -2 1.68 -2 1 C-1.34 0.67 -0.68 0.34 0 0 Z " fill="#0D497F" transform="translate(90,58)"/>
<path d="M0 0 C0.66 0.33 1.32 0.66 2 1 C2 1.33 2 1.66 2 2 C3.98 2.66 5.96 3.32 8 4 C8 6.64 8 9.28 8 12 C3.59085217 13.10228696 -0.48382401 13.07654536 -5 13 C-5 9.7 -5 6.4 -5 3 C-3.68 3 -2.36 3 -1 3 C-0.67 2.01 -0.34 1.02 0 0 Z " fill="#E0E5EA" transform="translate(67,110)"/>
<path d="M0 0 C1.23556641 0.01740234 1.23556641 0.01740234 2.49609375 0.03515625 C3.32238281 0.04417969 4.14867187 0.05320312 5 0.0625 C5.63808594 0.07410156 6.27617187 0.08570312 6.93359375 0.09765625 C6.93359375 1.41765625 6.93359375 2.73765625 6.93359375 4.09765625 C7.59359375 4.09765625 8.25359375 4.09765625 8.93359375 4.09765625 C8.93359375 2.77765625 8.93359375 1.45765625 8.93359375 0.09765625 C9.92359375 0.09765625 10.91359375 0.09765625 11.93359375 0.09765625 C11.93359375 3.39765625 11.93359375 6.69765625 11.93359375 10.09765625 C10.94359375 10.09765625 9.95359375 10.09765625 8.93359375 10.09765625 C8.93359375 8.44765625 8.93359375 6.79765625 8.93359375 5.09765625 C8.27359375 5.09765625 7.61359375 5.09765625 6.93359375 5.09765625 C6.93359375 6.74765625 6.93359375 8.39765625 6.93359375 10.09765625 C6.27359375 10.09765625 5.61359375 10.09765625 4.93359375 10.09765625 C4.27359375 10.75765625 3.61359375 11.41765625 2.93359375 12.09765625 C-1.94140625 10.34765625 -1.94140625 10.34765625 -3.06640625 8.09765625 C-3.19140625 4.53515625 -3.19140625 4.53515625 -3.06640625 1.09765625 C-2.06640625 0.09765625 -2.06640625 0.09765625 0 0 Z " fill="#8D9CB5" transform="translate(172.06640625,112.90234375)"/>
<path d="M0 0 C6.93 0 13.86 0 21 0 C21.66 0.66 22.32 1.32 23 2 C19.04 2 15.08 2 11 2 C12.32 2.33 13.64 2.66 15 3 C15.66 3.33 16.32 3.66 17 4 C16 5 16 5 12.9375 5.0625 C11.968125 5.041875 10.99875 5.02125 10 5 C9.67 4.34 9.34 3.68 9 3 C6.36 2.34 3.72 1.68 1 1 C1 16.51 1 32.02 1 48 C2.32 48 3.64 48 5 48 C5 40.41 5 32.82 5 25 C5.33 25 5.66 25 6 25 C6 32.92 6 40.84 6 49 C4.02 49 2.04 49 0 49 C0 32.83 0 16.66 0 0 Z " fill="#08326E" transform="translate(139,58)"/>
<path d="M0 0 C1.98 0 3.96 0 6 0 C8.09350689 3.4019487 8.17942163 6.05272412 8 10 C9.98 10 11.96 10 14 10 C14 9.34 14 8.68 14 8 C12.68 8 11.36 8 10 8 C10 7.34 10 6.68 10 6 C11.65 6 13.3 6 15 6 C15.33 6.99 15.66 7.98 16 9 C16.66 9.33 17.32 9.66 18 10 C18 11.65 18 13.3 18 15 C16.576875 14.4740625 16.576875 14.4740625 15.125 13.9375 C12.12939828 12.64973223 12.12939828 12.64973223 10 14 C10 13.34 10 12.68 10 12 C9.01 12.33 8.02 12.66 7 13 C6.01 12.34 5.02 11.68 4 11 C3.8125 7.875 3.8125 7.875 4 5 C3.34 5 2.68 5 2 5 C2 6.65 2 8.3 2 10 C1.34 10 0.68 10 0 10 C0 6.7 0 3.4 0 0 Z " fill="#F5F7F7" transform="translate(123,113)"/>
<path d="M0 0 C0 0.66 0 1.32 0 2 C-0.99 2 -1.98 2 -3 2 C-3 2.99 -3 3.98 -3 5 C-2.01 5.33 -1.02 5.66 0 6 C-0.99 6 -1.98 6 -3 6 C-3 6.99 -3 7.98 -3 9 C-2.01 9 -1.02 9 0 9 C0 9.66 0 10.32 0 11 C-2.97 11 -5.94 11 -9 11 C-9 9.68 -9 8.36 -9 7 C-9.66 7 -10.32 7 -11 7 C-11 8.32 -11 9.64 -11 11 C-11.66 11 -12.32 11 -13 11 C-13 7.7 -13 4.4 -13 1 C-8.31506124 -1.48887372 -5.0555786 -0.85687773 0 0 Z " fill="#D7DDE3" transform="translate(90,112)"/>
<path d="M0 0 C3.3 0 6.6 0 10 0 C10.66 1.65 11.32 3.3 12 5 C12.33 3.35 12.66 1.7 13 0 C13.33 0 13.66 0 14 0 C14 3.3 14 6.6 14 10 C13.01 9.67 12.02 9.34 11 9 C10.67 8.01 10.34 7.02 10 6 C9.67 7.32 9.34 8.64 9 10 C6.03 10 3.06 10 0 10 C0 6.7 0 3.4 0 0 Z " fill="#DFE6EB" transform="translate(235,113)"/>
<path d="M0 0 C0.33 0 0.66 0 1 0 C1 11.55 1 23.1 1 35 C1.99 35 2.98 35 4 35 C4.42925781 35.65484375 4.85851562 36.3096875 5.30078125 36.984375 C6.88075852 39.31684686 6.88075852 39.31684686 9.91796875 39.390625 C10.99691406 39.34421875 12.07585937 39.2978125 13.1875 39.25 C14.27417969 39.21390625 15.36085938 39.1778125 16.48046875 39.140625 C17.31191406 39.09421875 18.14335938 39.0478125 19 39 C19 39.66 19 40.32 19 41 C18.34 41.66 17.68 42.32 17 43 C11.39 42.67 5.78 42.34 0 42 C0 28.14 0 14.28 0 0 Z " fill="#094785" transform="translate(72,64)"/>
<path d="M0 0 C2.84614024 2.84614024 2.45579076 5.80369142 2.625 9.625 C2.66367187 10.33140625 2.70234375 11.0378125 2.7421875 11.765625 C2.83647724 13.50998524 2.91932891 15.25495691 3 17 C2.34 17 1.68 17 1 17 C0.67 16.34 0.34 15.68 0 15 C-0.99 14.67 -1.98 14.34 -3 14 C-3 14.99 -3 15.98 -3 17 C-3.66 17 -4.32 17 -5 17 C-5.144375 16.2575 -5.28875 15.515 -5.4375 14.75 C-5.90187492 12.47972261 -6.41863569 10.24240521 -7 8 C-6.34 8 -5.68 8 -5 8 C-5 7.34 -5 6.68 -5 6 C-5.66 5.67 -6.32 5.34 -7 5 C-6.01 4.67 -5.02 4.34 -4 4 C-4 3.34 -4 2.68 -4 2 C-2.68 1.34 -1.36 0.68 0 0 Z " fill="#E7EAEC" transform="translate(49,106)"/>
<path d="M0 0 C1.65322266 0.01740234 1.65322266 0.01740234 3.33984375 0.03515625 C4.99693359 0.04869141 4.99693359 0.04869141 6.6875 0.0625 C7.54214844 0.07410156 8.39679688 0.08570312 9.27734375 0.09765625 C8.28734375 0.42765625 7.29734375 0.75765625 6.27734375 1.09765625 C6.27734375 2.08765625 6.27734375 3.07765625 6.27734375 4.09765625 C7.26734375 4.42765625 8.25734375 4.75765625 9.27734375 5.09765625 C8.28734375 5.09765625 7.29734375 5.09765625 6.27734375 5.09765625 C6.27734375 6.08765625 6.27734375 7.07765625 6.27734375 8.09765625 C7.26734375 8.09765625 8.25734375 8.09765625 9.27734375 8.09765625 C9.27734375 8.75765625 9.27734375 9.41765625 9.27734375 10.09765625 C7.29824977 10.12452178 5.31905404 10.14399 3.33984375 10.16015625 C2.23769531 10.17175781 1.13554687 10.18335937 0 10.1953125 C-2.72265625 10.09765625 -2.72265625 10.09765625 -3.72265625 9.09765625 C-3.85546875 7.28515625 -3.85546875 7.28515625 -3.84765625 5.09765625 C-3.85023438 4.37578125 -3.8528125 3.65390625 -3.85546875 2.91015625 C-3.63578274 -0.08791162 -3.02830392 0.10861922 0 0 Z " fill="#D7E2E6" transform="translate(254.72265625,112.90234375)"/>
<path d="M0 0 C0 0.66 0 1.32 0 2 C-1.32 1.67 -2.64 1.34 -4 1 C-3.319375 1.556875 -2.63875 2.11375 -1.9375 2.6875 C-1.298125 3.450625 -0.65875 4.21375 0 5 C-0.25 7.75 -0.25 7.75 -1 10 C-2.65 9.67 -4.3 9.34 -6 9 C-6 8.01 -6 7.02 -6 6 C-7.65 6 -9.3 6 -11 6 C-11 6.66 -11 7.32 -11 8 C-9.68 8 -8.36 8 -7 8 C-7 8.66 -7 9.32 -7 10 C-8.98 10 -10.96 10 -13 10 C-13 6.7 -13 3.4 -13 0 C-8.37078475 -1.0161692 -4.65537393 -0.83796731 0 0 Z " fill="#D6DFE1" transform="translate(144,113)"/>
<path d="M0 0 C-1.35154614 4.55952636 -3.02718985 6.01247564 -7.125 8.3125 C-12.56902962 11.56887608 -16.75378416 15.31577909 -21 20 C-21.66 18.68 -22.32 17.36 -23 16 C-17.89149829 10.43477794 -12.28920898 6.16327918 -6 2 C-7.65 1.67 -9.3 1.34 -11 1 C-11 0.67 -11 0.34 -11 0 C-9.54263913 -0.19491452 -8.08405407 -0.38069358 -6.625 -0.5625 C-5.81289063 -0.66691406 -5.00078125 -0.77132812 -4.1640625 -0.87890625 C-2 -1 -2 -1 0 0 Z " fill="#F3F7F8" transform="translate(37,57)"/>
<path d="M0 0 C3.96 0 7.92 0 12 0 C10.68 0.33 9.36 0.66 8 1 C8 1.99 8 2.98 8 4 C8.99 4.33 9.98 4.66 11 5 C10.01 5 9.02 5 8 5 C8 5.99 8 6.98 8 8 C9.32 8 10.64 8 12 8 C12 8.66 12 9.32 12 10 C11.38511719 10.03738281 10.77023438 10.07476562 10.13671875 10.11328125 C8.92435547 10.21189453 8.92435547 10.21189453 7.6875 10.3125 C6.88699219 10.37050781 6.08648437 10.42851563 5.26171875 10.48828125 C2.58360838 10.8827572 2.58360838 10.8827572 0 14 C0 9.38 0 4.76 0 0 Z " fill="#F6F8F8" transform="translate(214,113)"/>
<path d="M0 0 C-0.21875 1.91015625 -0.21875 1.91015625 -1 4 C-2.96875 4.87109375 -2.96875 4.87109375 -5.5 5.4375 C-14.13290991 7.72811518 -20.4633039 12.01961846 -27 18 C-26.37677867 13.94906135 -24.52658584 11.17901014 -22 8 C-19.6294028 6.5099902 -17.51721897 5.32762115 -15 4.1875 C-14.38382813 3.88908203 -13.76765625 3.59066406 -13.1328125 3.28320312 C-8.45868223 1.0614867 -5.15697416 0 0 0 Z " fill="#ECEFF1" transform="translate(64,81)"/>
<path d="M0 0 C0 1.32 0 2.64 0 4 C-0.81984375 4.38671875 -1.6396875 4.7734375 -2.484375 5.171875 C-4.10085937 5.95304687 -4.10085937 5.95304687 -5.75 6.75 C-6.81734375 7.26046875 -7.8846875 7.7709375 -8.984375 8.296875 C-12.04079077 9.84539385 -12.04079077 9.84539385 -14.1875 12.1875 C-16 14 -16 14 -19.25 14.25 C-20.1575 14.1675 -21.065 14.085 -22 14 C-16.06787087 6.74282484 -10.08366951 0 0 0 Z " fill="#15437B" transform="translate(63,93)"/>
<path d="M0 0 C0.99 0.66 1.98 1.32 3 2 C2.50371094 2.43828125 2.00742187 2.8765625 1.49609375 3.328125 C-3.75839663 8.23364543 -7.22523174 13.34849031 -10.65234375 19.65625 C-11.09707031 20.4296875 -11.54179687 21.203125 -12 22 C-12.33 22 -12.66 22 -13 22 C-13.87716991 16.15220062 -13.41800205 12.99631615 -9.92749023 8.07519531 C-8.04511083 5.58907579 -6.18461257 3.22988951 -4 1 C-3.01 1 -2.02 1 -1 1 C-0.67 0.67 -0.34 0.34 0 0 Z " fill="#1C4A7A" transform="translate(26,79)"/>
<path d="M0 0 C-6.66666667 5.33333333 -13.33333333 10.66666667 -20 16 C-20.34375 12.80859375 -20.34375 12.80859375 -20 9 C-14.65825156 2.95492135 -8.20322735 -1.41978935 0 0 Z " fill="#17477C" transform="translate(33,58)"/>
<path d="M0 0 C0.33 0 0.66 0 1 0 C1 1.65 1 3.3 1 5 C2.32 4.34 3.64 3.68 5 3 C3.63016497 6.16115776 3.0109362 6.9927092 0 9 C-0.99 9 -1.98 9 -3 9 C-3.33 10.32 -3.66 11.64 -4 13 C-7.63 12.67 -11.26 12.34 -15 12 C-14.34 11.67 -13.68 11.34 -13 11 C-13 10.34 -13 9.68 -13 9 C-14.32 9.33 -15.64 9.66 -17 10 C-16.67 9.01 -16.34 8.02 -16 7 C-15.16855469 6.96261719 -14.33710938 6.92523438 -13.48046875 6.88671875 C-12.39378906 6.82097656 -11.30710938 6.75523438 -10.1875 6.6875 C-9.10855469 6.62949219 -8.02960938 6.57148437 -6.91796875 6.51171875 C-3.7800897 5.96143474 -2.82263873 5.54927212 -1 3 C-0.67 2.01 -0.34 1.02 0 0 Z " fill="#0A3D74" transform="translate(161,72)"/>
<path d="M0 0 C-1.03719136 2.64012347 -1.8832194 3.9132487 -4.1875 5.625 C-7.63798233 8.53874064 -9.83990645 11.83479329 -12.3515625 15.5625 C-13.83943363 17.76257485 -15.3880909 19.88986446 -17 22 C-17.66 21.01 -18.32 20.02 -19 19 C-8.88517745 0 -8.88517745 0 0 0 Z " fill="#EFF4F6" transform="translate(40,84)"/>
<path d="M0 0 C-1.32 0.99 -2.64 1.98 -4 3 C-3.67 3.66 -3.34 4.32 -3 5 C-4.98 5 -6.96 5 -9 5 C-9 8.3 -9 11.6 -9 15 C-12 11 -12 11 -13 7.8125 C-13.33 6.884375 -13.66 5.95625 -14 5 C-14.99 4.67 -15.98 4.34 -17 4 C-12.86112967 -0.79792612 -5.94241689 -1.91690867 0 0 Z " fill="#DDE3E8" transform="translate(259,108)"/>
<path d="M0 0 C5.28 0 10.56 0 16 0 C16 1.65 16 3.3 16 5 C10.72 5 5.44 5 0 5 C0 3.33333333 0 1.66666667 0 0 Z " fill="#084079" transform="translate(115,79)"/>
<path d="M0 0 C7.24177072 2.13961407 7.24177072 2.13961407 10 5 C11.23194695 9.26443176 10.92263587 12.69436594 10 17 C9.34 16.01 8.68 15.02 8 14 C6.42220618 11.97257582 4.83679001 9.95173475 3.2421875 7.9375 C2 6 2 6 2 3 C1.34 2.67 0.68 2.34 0 2 C0 1.34 0 0.68 0 0 Z " fill="#0C427A" transform="translate(250,79)"/>
<path d="M0 0 C2.5 0.125 2.5 0.125 3.5 1.125 C3.6328125 2.9375 3.6328125 2.9375 3.625 5.125 C3.62757813 5.846875 3.63015625 6.56875 3.6328125 7.3125 C3.5 9.125 3.5 9.125 2.5 10.125 C0.83382885 10.16563832 -0.83388095 10.167721 -2.5 10.125 C-3.99106457 7.14287087 -3.61941467 4.40890342 -3.5 1.125 C-2.5 0.125 -2.5 0.125 0 0 Z " fill="#264076" transform="translate(199.5,112.875)"/>
<path d="M0 0 C-0.33 1.65 -0.66 3.3 -1 5 C-1.99 5 -2.98 5 -4 5 C-4.33 7.31 -4.66 9.62 -5 12 C-5.33 12 -5.66 12 -6 12 C-6.33 10.02 -6.66 8.04 -7 6 C-8.65 5.67 -10.3 5.34 -12 5 C-10.68 4.67 -9.36 4.34 -8 4 C-8 3.34 -8 2.68 -8 2 C-8.66 1.67 -9.32 1.34 -10 1 C-10.33 0.34 -10.66 -0.32 -11 -1 C-6.70700357 -2.26264601 -4.12168689 -1.62950412 0 0 Z " fill="#F0F3F6" transform="translate(26,108)"/>
<path d="M0 0 C2.5 0.125 2.5 0.125 3.5 1.125 C3.64115161 3.79558851 3.54247107 6.44932238 3.5 9.125 C1.125 9.75 1.125 9.75 -1.5 10.125 C-3.5 8.125 -3.5 8.125 -3.6875 4.5625 C-3.44804011 0.17240201 -3.44804011 0.17240201 0 0 Z " fill="#284576" transform="translate(71.5,112.875)"/>
<path d="M0 0 C0.85078125 0.00322266 1.7015625 0.00644531 2.578125 0.00976562 C3.46757813 0.01814453 4.35703125 0.02652344 5.2734375 0.03515625 C6.170625 0.03966797 7.0678125 0.04417969 7.9921875 0.04882812 C10.21100398 0.06063034 12.42968768 0.0770947 14.6484375 0.09765625 C14.6484375 0.42765625 14.6484375 0.75765625 14.6484375 1.09765625 C12.10749895 1.74647073 9.56575477 2.39178524 7.0234375 3.03515625 C6.31058594 3.21755859 5.59773438 3.39996094 4.86328125 3.58789062 C0.80874437 4.61082424 -3.21103309 5.47722992 -7.3515625 6.09765625 C-6.9765625 3.66015625 -6.9765625 3.66015625 -6.3515625 1.09765625 C-4.00303722 -0.07660639 -2.61382185 -0.01742548 0 0 Z " fill="#39608C" transform="translate(47.3515625,56.90234375)"/>
<path d="M0 0 C0.99 0 1.98 0 3 0 C3 4.95 3 9.9 3 15 C2.67 15 2.34 15 2 15 C1.67 23.58 1.34 32.16 1 41 C0.67 41 0.34 41 0 41 C0 27.47 0 13.94 0 0 Z " fill="#0E3C73" transform="translate(142,63)"/>
<path d="M0 0 C0.99 0.66 1.98 1.32 3 2 C3 2.99 3 3.98 3 5 C0.23547967 6.38226016 -2.0461363 6.09525387 -5.125 6.0625 C-6.22070312 6.05347656 -7.31640625 6.04445313 -8.4453125 6.03515625 C-9.70988281 6.01775391 -9.70988281 6.01775391 -11 6 C-11 4.68 -11 3.36 -11 2 C-7.37 2 -3.74 2 0 2 C0 1.34 0 0.68 0 0 Z " fill="#F6F7F5" transform="translate(89,95)"/>
<path d="M0 0 C0.99 0 1.98 0 3 0 C3 6.6 3 13.2 3 20 C2.34 20 1.68 20 1 20 C-0.1482685 17.703463 -0.11561175 16.41686833 -0.09765625 13.8671875 C-0.09443359 13.06152344 -0.09121094 12.25585938 -0.08789062 11.42578125 C-0.07951172 10.58402344 -0.07113281 9.74226563 -0.0625 8.875 C-0.05798828 8.02550781 -0.05347656 7.17601563 -0.04882812 6.30078125 C-0.03702874 4.20049091 -0.01909306 2.1002367 0 0 Z " fill="#FEFDF9" transform="translate(115,86)"/>
<path d="M0 0 C0 1.32 0 2.64 0 4 C-5.445 5.485 -5.445 5.485 -11 7 C-12.32 5.68 -13.64 4.36 -15 3 C-13.25183142 2.49363393 -11.50137737 1.99515381 -9.75 1.5 C-8.77546875 1.2215625 -7.8009375 0.943125 -6.796875 0.65625 C-4 0 -4 0 0 0 Z " fill="#235185" transform="translate(63,69)"/>
<path d="M0 0 C0 1.65 0 3.3 0 5 C-3.96 5.66 -7.92 6.32 -12 7 C-12 6.34 -12 5.68 -12 5 C-12.66 4.67 -13.32 4.34 -14 4 C-13.67 3.34 -13.34 2.68 -13 2 C-10.8203125 1.3671875 -10.8203125 1.3671875 -8.125 0.875 C-7.24070312 0.70742188 -6.35640625 0.53984375 -5.4453125 0.3671875 C-3 0 -3 0 0 0 Z " fill="#1A4B7F" transform="translate(63,61)"/>
<path d="M0 0 C2.97 0 5.94 0 9 0 C8.01 0.495 8.01 0.495 7 1 C7 4.3 7 7.6 7 11 C5.39743892 11.50512244 3.79288208 12.00391627 2.1875 12.5 C1.29417969 12.7784375 0.40085937 13.056875 -0.51953125 13.34375 C-3 14 -3 14 -6 14 C-5.67 12.35 -5.34 10.7 -5 9 C-4.67 9.66 -4.34 10.32 -4 11 C-3.4225 10.835 -2.845 10.67 -2.25 10.5 C0 10 0 10 4 10 C4 7.36 4 4.72 4 2 C2.68 1.34 1.36 0.68 0 0 Z " fill="#F4F5F6" transform="translate(70,112)"/>
<path d="M0 0 C0.99 0 1.98 0 3 0 C3.33 0.99 3.66 1.98 4 3 C4.33 2.01 4.66 1.02 5 0 C5.66 0 6.32 0 7 0 C7 3.3 7 6.6 7 10 C6.01 10 5.02 10 4 10 C3.67 9.01 3.34 8.02 3 7 C2.67 7.99 2.34 8.98 2 10 C1.34 10 0.68 10 0 10 C0 6.7 0 3.4 0 0 Z " fill="#304A7E" transform="translate(205,113)"/>
<path d="M0 0 C2.66666667 1.33333333 5.33333333 2.66666667 8 4 C8.33846504 9.58467324 7.10190545 14.34714182 4 19 C3.34 19 2.68 19 2 19 C2 15.7 2 12.4 2 9 C2.99 9 3.98 9 5 9 C5.33 7.35 5.66 5.7 6 4 C4.35 3.67 2.7 3.34 1 3 C0.67 2.01 0.34 1.02 0 0 Z " fill="#939FBD" transform="translate(20,104)"/>
<path d="M0 0 C1.98 0 3.96 0 6 0 C6.33 3.3 6.66 6.6 7 10 C6.34 10 5.68 10 5 10 C5 8.68 5 7.36 5 6 C4.01 6 3.02 6 2 6 C2 7.32 2 8.64 2 10 C1.34 10 0.68 10 0 10 C0 6.7 0 3.4 0 0 Z " fill="#334D85" transform="translate(161,113)"/>
<path d="M0 0 C0.66 0 1.32 0 2 0 C2 1.32 2 2.64 2 4 C2.66 4 3.32 4 4 4 C4 2.68 4 1.36 4 0 C4.99 0 5.98 0 7 0 C7 3.3 7 6.6 7 10 C6.01 10 5.02 10 4 10 C4 8.35 4 6.7 4 5 C3.34 5 2.68 5 2 5 C2 6.65 2 8.3 2 10 C1.34 10 0.68 10 0 10 C0 6.7 0 3.4 0 0 Z " fill="#526F97" transform="translate(177,113)"/>
<path d="M0 0 C1.98 0 3.96 0 6 0 C6 3.3 6 6.6 6 10 C5.34 10 4.68 10 4 10 C4 8.68 4 7.36 4 6 C3.34 6 2.68 6 2 6 C2 7.32 2 8.64 2 10 C1.34 10 0.68 10 0 10 C0 6.7 0 3.4 0 0 Z " fill="#3A568A" transform="translate(227,113)"/>
<path d="M0 0 C1.65 0.33 3.3 0.66 5 1 C5 3.64 5 6.28 5 9 C4.34 8.34 3.68 7.68 3 7 C2.34 8.98 1.68 10.96 1 13 C0.01 12.67 -0.98 12.34 -2 12 C-1.85904936 10.3745692 -1.71207913 8.74965949 -1.5625 7.125 C-1.48128906 6.22007813 -1.40007812 5.31515625 -1.31640625 4.3828125 C-1 2 -1 2 0 0 Z " fill="#1C5084" transform="translate(238,62)"/>
<path d="M0 0 C1.65 0 3.3 0 5 0 C6.04005702 3.38018531 6.08004482 6.4780279 6 10 C5.34 10 4.68 10 4 10 C4 8.68 4 7.36 4 6 C3.34 6 2.68 6 2 6 C2 7.32 2 8.64 2 10 C1.34 10 0.68 10 0 10 C0 6.7 0 3.4 0 0 Z " fill="#284A81" transform="translate(77,113)"/>
<path d="M0 0 C1.62490954 -0.02698189 3.24994633 -0.04638757 4.875 -0.0625 C5.77992188 -0.07410156 6.68484375 -0.08570312 7.6171875 -0.09765625 C10 0 10 0 12 1 C12 1.99 12 2.98 12 4 C10.68 4 9.36 4 8 4 C8 3.34 8 2.68 8 2 C5.69 1.67 3.38 1.34 1 1 C1.13883419 4.43782031 1.28727054 7.87516029 1.4375 11.3125 C1.47681641 12.28896484 1.51613281 13.26542969 1.55664062 14.27148438 C1.59853516 15.20927734 1.64042969 16.14707031 1.68359375 17.11328125 C1.72025146 17.97735596 1.75690918 18.84143066 1.79467773 19.73168945 C1.92747354 22.1647826 1.92747354 22.1647826 3 25 C2.34 25 1.68 25 1 25 C-0.27861615 22.44276771 -0.11336609 20.63262898 -0.09765625 17.7734375 C-0.09443359 16.7421875 -0.09121094 15.7109375 -0.08789062 14.6484375 C-0.07951172 13.56820312 -0.07113281 12.48796875 -0.0625 11.375 C-0.05798828 10.28703125 -0.05347656 9.1990625 -0.04882812 8.078125 C-0.03701776 5.38536211 -0.02054778 2.69270812 0 0 Z " fill="#F0FCFC" transform="translate(145,84)"/>
<path d="M0 0 C1.32 0 2.64 0 4 0 C4 0.66 4 1.32 4 2 C3.01 2 2.02 2 1 2 C1 2.66 1 3.32 1 4 C1.639375 4.12375 2.27875 4.2475 2.9375 4.375 C3.618125 4.58125 4.29875 4.7875 5 5 C5.33 5.66 5.66 6.32 6 7 C5.13375 6.835 4.2675 6.67 3.375 6.5 C0.18774801 6.02781452 -2.78485027 5.92344882 -6 6 C-6.66 4.68 -7.32 3.36 -8 2 C-5.36 2 -2.72 2 0 2 C0 1.34 0 0.68 0 0 Z " fill="#F4F7F5" transform="translate(154,121)"/>
<path d="M0 0 C0.33 0 0.66 0 1 0 C1 3.3 1 6.6 1 10 C3.51083114 8.74458443 3.87125446 7.49936512 5 5 C5.33 7.64 5.66 10.28 6 13 C3.69 13 1.38 13 -1 13 C-1.02686553 11.02090602 -1.04633375 9.04171029 -1.0625 7.0625 C-1.07410156 5.96035156 -1.08570313 4.85820313 -1.09765625 3.72265625 C-1 1 -1 1 0 0 Z " fill="#0B3D71" transform="translate(162,94)"/>
<path d="M0 0 C0.66 0.99 1.32 1.98 2 3 C0.93283928 4.20205464 -0.15438337 5.38632333 -1.25 6.5625 C-2.15492187 7.55443359 -2.15492187 7.55443359 -3.078125 8.56640625 C-5 10 -5 10 -7.234375 9.71484375 C-7.81703125 9.47894531 -8.3996875 9.24304688 -9 9 C-7.55536047 5.62917442 -5.75336875 3.41962708 -3 1 C-2.01 0.67 -1.02 0.34 0 0 Z " fill="#154479" transform="translate(31,85)"/>
<path d="M0 0 C0.66 0 1.32 0 2 0 C2.66 0.66 3.32 1.32 4 2 C3.61765316 6.87492223 2.4234304 11.35012736 1 16 C-1 14 -1 14 -1.23046875 12.01171875 C-1.15434805 7.89428074 -1.03599448 4.0144786 0 0 Z " fill="#0B447D" transform="translate(221,79)"/>
<path d="M0 0 C0.99 0 1.98 0 3 0 C3.33 0.99 3.66 1.98 4 3 C4.33 2.01 4.66 1.02 5 0 C5.66 0 6.32 0 7 0 C7 3.3 7 6.6 7 10 C6.01 10 5.02 10 4 10 C3.34 8.02 2.68 6.04 2 4 C1.67 5.98 1.34 7.96 1 10 C0.67 10 0.34 10 0 10 C0 6.7 0 3.4 0 0 Z " fill="#1A3878" transform="translate(92,113)"/>
<path d="M0 0 C0.99 0 1.98 0 3 0 C3.66 3.3 4.32 6.6 5 10 C4.34 10 3.68 10 3 10 C3 9.34 3 8.68 3 8 C1.68 8 0.36 8 -1 8 C-1 8.66 -1 9.32 -1 10 C-1.66 9.67 -2.32 9.34 -3 9 C-2.01 6.03 -1.02 3.06 0 0 Z " fill="#224478" transform="translate(155,113)"/>
<path d="M0 0 C0.99 0 1.98 0 3 0 C3.66 1.65 4.32 3.3 5 5 C5.33 3.35 5.66 1.7 6 0 C6.33 0 6.66 0 7 0 C7 3.3 7 6.6 7 10 C6.01 9.67 5.02 9.34 4 9 C3.67 8.01 3.34 7.02 3 6 C2.67 7.32 2.34 8.64 2 10 C1.34 10 0.68 10 0 10 C0 6.7 0 3.4 0 0 Z " fill="#1A3A6F" transform="translate(242,113)"/>
<path d="M0 0 C1.98 0 3.96 0 6 0 C6 3.3 6 6.6 6 10 C5.34 8.68 4.68 7.36 4 6 C3.34 5.67 2.68 5.34 2 5 C2 6.65 2 8.3 2 10 C1.34 10 0.68 10 0 10 C0 6.7 0 3.4 0 0 Z " fill="#304F7B" transform="translate(123,113)"/>
<path d="M0 0 C2.31 0 4.62 0 7 0 C6.67 0.598125 6.34 1.19625 6 1.8125 C4.79212012 4.05386471 4.79212012 4.05386471 5 7 C3.625 8.6875 3.625 8.6875 2 10 C1.34 10 0.68 10 0 10 C0 6.7 0 3.4 0 0 Z " fill="#E2E9F0" transform="translate(13,57)"/>
<path d="M0 0 C-3.33333333 3.33333333 -6.66666667 6.66666667 -10 10 C-10.36658354 3.52369077 -10.36658354 3.52369077 -8.6875 1.125 C-5.49836354 -1.00109097 -3.53515605 -1.09711739 0 0 Z " fill="#235183" transform="translate(23,76)"/>
<path d="M0 0 C0.66 0.99 1.32 1.98 2 3 C1.34 3 0.68 3 0 3 C-0.12375 3.763125 -0.2475 4.52625 -0.375 5.3125 C-1 8 -1 8 -3 11 C-5.625 11.1875 -5.625 11.1875 -8 11 C-5.69281189 6.71522208 -3.67033927 3.27708863 0 0 Z " fill="#0E3E77" transform="translate(40,96)"/>
<path d="M0 0 C2.13586678 3.20380017 2.23132175 4.01939967 2.125 7.6875 C2.10695312 8.49574219 2.08890625 9.30398437 2.0703125 10.13671875 C2.03550781 11.05904297 2.03550781 11.05904297 2 12 C3.65 12.33 5.3 12.66 7 13 C7 13.99 7 14.98 7 16 C4.69 15.67 2.38 15.34 0 15 C0 14.34 0 13.68 0 13 C-0.66 12.67 -1.32 12.34 -2 12 C-1.34 12 -0.68 12 0 12 C-0.08378906 11.30132812 -0.16757813 10.60265625 -0.25390625 9.8828125 C-0.35574219 8.97273438 -0.45757812 8.06265625 -0.5625 7.125 C-0.66691406 6.22007813 -0.77132812 5.31515625 -0.87890625 4.3828125 C-1 2 -1 2 0 0 Z " fill="#F5F8F4" transform="translate(168,111)"/>
<path d="M0 0 C0.99 0 1.98 0 3 0 C3.33 0.99 3.66 1.98 4 3 C-0.18461538 7.92307692 -0.18461538 7.92307692 -4.3125 8.3125 C-5.6428125 8.1578125 -5.6428125 8.1578125 -7 8 C-6.02133662 6.85373678 -5.04205413 5.70800212 -4.0625 4.5625 C-3.51722656 3.92441406 -2.97195312 3.28632812 -2.41015625 2.62890625 C-1.63204305 1.73008851 -0.84063472 0.84063472 0 0 Z " fill="#174075" transform="translate(48,99)"/>
<path d="M0 0 C0.66 0 1.32 0 2 0 C1.38801624 3.43950364 0.07941153 5.51564485 -2.0625 8.25 C-2.61035156 8.95640625 -3.15820312 9.6628125 -3.72265625 10.390625 C-4.14417969 10.92171875 -4.56570312 11.4528125 -5 12 C-5.99 11.01 -6.98 10.02 -8 9 C-6.71520959 7.49410612 -5.42195918 5.99542625 -4.125 4.5 C-3.04605469 3.24703125 -3.04605469 3.24703125 -1.9453125 1.96875 C-1.30335937 1.3190625 -0.66140625 0.669375 0 0 Z " fill="#EEF3F6" transform="translate(21,77)"/>
<path d="M0 0 C0.99 0 1.98 0 3 0 C3 0.99 3 1.98 3 3 C3.66 3.33 4.32 3.66 5 4 C4.67 5.98 4.34 7.96 4 10 C2.68 9.34 1.36 8.68 0 8 C0 8.99 0 9.98 0 11 C-0.66 11 -1.32 11 -2 11 C-1.34 7.37 -0.68 3.74 0 0 Z " fill="#1D4F82" transform="translate(194,72)"/>
<path d="M0 0 C2.64 0 5.28 0 8 0 C9.38550197 2.77100394 9.1877467 4.9334706 9 8 C8.01 9.485 8.01 9.485 7 11 C6.01 10.34 5.02 9.68 4 9 C4.33 6.36 4.66 3.72 5 1 C3.35 1 1.7 1 0 1 C0 0.67 0 0.34 0 0 Z " fill="#0B3F73" transform="translate(198,58)"/>
<path d="M0 0 C1.32 0.33 2.64 0.66 4 1 C4.33 3.97 4.66 6.94 5 10 C3.35 9.01 1.7 8.02 0 7 C0 7.99 0 8.98 0 10 C-0.66 10 -1.32 10 -2 10 C-1.34 6.7 -0.68 3.4 0 0 Z " fill="#2B4E81" transform="translate(46,113)"/>
<path d="M0 0 C0.33 0 0.66 0 1 0 C1.66 7.26 2.32 14.52 3 22 C1.35 22.99 -0.3 23.98 -2 25 C-1.84660156 24.21367188 -1.69320312 23.42734375 -1.53515625 22.6171875 C-0.87005679 18.12169774 -0.64586315 13.66116824 -0.4375 9.125 C-0.39431641 8.24585937 -0.35113281 7.36671875 -0.30664062 6.4609375 C-0.20130661 4.30744203 -0.10022351 2.15373936 0 0 Z " fill="#D1DAE2" transform="translate(101,75)"/>
<path d="M0 0 C0.66 0 1.32 0 2 0 C2.33 0.99 2.66 1.98 3 3 C2.34 3.66 1.68 4.32 1 5 C0.75712511 7.44012949 0.75712511 7.44012949 0.875 10.125 C0.89304688 11.03507812 0.91109375 11.94515625 0.9296875 12.8828125 C0.95289063 13.58148438 0.97609375 14.28015625 1 15 C0.69964844 14.37351562 0.39929688 13.74703125 0.08984375 13.1015625 C-1.66945432 9.70908091 -3.83051871 8.11298753 -7 6 C-6.030625 5.38125 -5.06125 4.7625 -4.0625 4.125 C-0.97164638 2.34321154 -0.97164638 2.34321154 0 0 Z " fill="#E8F0F6" transform="translate(166,75)"/>
<path d="M0 0 C1.2065625 0.0309375 1.2065625 0.0309375 2.4375 0.0625 C2.1075 1.0525 1.7775 2.0425 1.4375 3.0625 C0.4475 2.4025 -0.5425 1.7425 -1.5625 1.0625 C-1.5625 3.3725 -1.5625 5.6825 -1.5625 8.0625 C-0.9025 8.0625 -0.2425 8.0625 0.4375 8.0625 C0.1075 7.0725 -0.2225 6.0825 -0.5625 5.0625 C0.4275 5.0625 1.4175 5.0625 2.4375 5.0625 C2.4375 6.7125 2.4375 8.3625 2.4375 10.0625 C0.77138095 10.105221 -0.89632885 10.10313832 -2.5625 10.0625 C-3.5625 9.0625 -3.5625 9.0625 -3.6953125 7.25 C-3.69273438 6.528125 -3.69015625 5.80625 -3.6875 5.0625 C-3.69007812 4.340625 -3.69265625 3.61875 -3.6953125 2.875 C-3.48140927 -0.04414996 -2.93781989 0.07165414 0 0 Z " fill="#25417A" transform="translate(29.5625,112.9375)"/>
<path d="M0 0 C0 1.32 0 2.64 0 4 C-3.63423209 6.32590854 -6.77088331 6.16265833 -11 6 C-5.30769231 0 -5.30769231 0 0 0 Z " fill="#103B74" transform="translate(63,101)"/>
<path d="M0 0 C1.65 0 3.3 0 5 0 C5 2.64 5 5.28 5 8 C3.35 8 1.7 8 0 8 C0 5.36 0 2.72 0 0 Z " fill="#FEFEFA" transform="translate(115,64)"/>
<path d="M0 0 C3.465 1.485 3.465 1.485 7 3 C7 3.99 7 4.98 7 6 C4.125 6.625 4.125 6.625 1 7 C0.34 6.34 -0.32 5.68 -1 5 C-0.625 2.375 -0.625 2.375 0 0 Z " fill="#15487D" transform="translate(158,81)"/>
<path d="M0 0 C1.65 0.33 3.3 0.66 5 1 C5 1.66 5 2.32 5 3 C4.34 3 3.68 3 3 3 C3 2.34 3 1.68 3 1 C2.34 1 1.68 1 1 1 C2.0209375 1.8353125 2.0209375 1.8353125 3.0625 2.6875 C3.701875 3.450625 4.34125 4.21375 5 5 C4.75 7.75 4.75 7.75 4 10 C2.35 9.67 0.7 9.34 -1 9 C-1 8.34 -1 7.68 -1 7 C0.32 7.33 1.64 7.66 3 8 C3 7.34 3 6.68 3 6 C1.68 5.34 0.36 4.68 -1 4 C-0.67 2.68 -0.34 1.36 0 0 Z " fill="#2A4478" transform="translate(102,113)"/>
<path d="M0 0 C0 1.98 0 3.96 0 6 C0.66 6 1.32 6 2 6 C2.66 4.35 3.32 2.7 4 1 C4.33 1.99 4.66 2.98 5 4 C2.84656811 7.23014784 1.72940389 8.75686537 -2 10 C-1.67 8.35 -1.34 6.7 -1 5 C-2.98 5.99 -4.96 6.98 -7 8 C-6.08283206 5.24849619 -3.42975032 0 0 0 Z " fill="#184775" transform="translate(259,97)"/>
<path d="M0 0 C1.98 0 3.96 0 6 0 C6.33 1.98 6.66 3.96 7 6 C5.35 6 3.7 6 2 6 C1.67 6.66 1.34 7.32 1 8 C0.67 5.36 0.34 2.72 0 0 Z " fill="#0B3E72" transform="translate(235,93)"/>
<path d="M0 0 C-0.6875 2.375 -0.6875 2.375 -2 5 C-4.625 6.3125 -4.625 6.3125 -7 7 C-7 6.34 -7 5.68 -7 5 C-7.66 4.67 -8.32 4.34 -9 4 C-8.01 3.34 -7.02 2.68 -6 2 C-7.65 1.67 -9.3 1.34 -11 1 C-11 0.67 -11 0.34 -11 0 C-9.54263913 -0.19491452 -8.08405407 -0.38069358 -6.625 -0.5625 C-5.81289063 -0.66691406 -5.00078125 -0.77132812 -4.1640625 -0.87890625 C-2 -1 -2 -1 0 0 Z " fill="#D0D9E3" transform="translate(37,57)"/>
<path d="M0 0 C1.65 0 3.3 0 5 0 C5.33 0.99 5.66 1.98 6 3 C5.34 3 4.68 3 4 3 C4 2.34 4 1.68 4 1 C3.34 1 2.68 1 2 1 C2 3.31 2 5.62 2 8 C2.66 8 3.32 8 4 8 C4 7.34 4 6.68 4 6 C4.66 6 5.32 6 6 6 C5.67 7.32 5.34 8.64 5 10 C3.35 9.67 1.7 9.34 0 9 C0 6.03 0 3.06 0 0 Z " fill="#374E82" transform="translate(113,113)"/>
<path d="M0 0 C1.65 0 3.3 0 5 0 C5 0.66 5 1.32 5 2 C3.68 1.67 2.36 1.34 1 1 C2.0209375 1.8353125 2.0209375 1.8353125 3.0625 2.6875 C3.701875 3.450625 4.34125 4.21375 5 5 C4.75 7.75 4.75 7.75 4 10 C2.35 9.67 0.7 9.34 -1 9 C-1 8.34 -1 7.68 -1 7 C-0.01 7.33 0.98 7.66 2 8 C2.33 7.34 2.66 6.68 3 6 C1.68 5.34 0.36 4.68 -1 4 C-0.67 2.68 -0.34 1.36 0 0 Z " fill="#1E3776" transform="translate(139,113)"/>
<path d="M0 0 C0.33 0 0.66 0 1 0 C1.33 1.98 1.66 3.96 2 6 C2.33 6 2.66 6 3 6 C3 7.65 3 9.3 3 11 C0.36 11 -2.28 11 -5 11 C-5 10.01 -5 9.02 -5 8 C-4.34 8 -3.68 8 -3 8 C-2.67 7.34 -2.34 6.68 -2 6 C-2 6.66 -2 7.32 -2 8 C-1.34 8 -0.68 8 0 8 C0 5.36 0 2.72 0 0 Z " fill="#0A3E78" transform="translate(189,96)"/>
<path d="M0 0 C0 3.3 0 6.6 0 10 C-0.66 10 -1.32 10 -2 10 C-2 9.34 -2 8.68 -2 8 C-2.99 8 -3.98 8 -5 8 C-5 5.69 -5 3.38 -5 1 C-1.125 0 -1.125 0 0 0 Z " fill="#D6DFE6" transform="translate(92,113)"/>
<path d="M0 0 C0.5775 0.61875 1.155 1.2375 1.75 1.875 C3.83069418 4.05293915 3.83069418 4.05293915 6.1875 5.0625 C8 6 8 6 9 9 C10.62332967 10.38576923 12.28724465 11.72641268 14 13 C10.88006165 12.37041603 8.56658224 11.31363524 5.875 9.625 C5.19179687 9.20476562 4.50859375 8.78453125 3.8046875 8.3515625 C2 7 2 7 0 4 C0 2.68 0 1.36 0 0 Z " fill="#174073" transform="translate(237,72)"/>
<path d="M0 0 C1.2065625 0.0309375 1.2065625 0.0309375 2.4375 0.0625 C2.4375 1.0525 2.4375 2.0425 2.4375 3.0625 C1.7775 3.0625 1.1175 3.0625 0.4375 3.0625 C0.4375 2.4025 0.4375 1.7425 0.4375 1.0625 C-0.2225 1.0625 -0.8825 1.0625 -1.5625 1.0625 C-1.5625 3.3725 -1.5625 5.6825 -1.5625 8.0625 C-0.2425 7.7325 1.0775 7.4025 2.4375 7.0625 C2.1075 8.0525 1.7775 9.0425 1.4375 10.0625 C-0.2125 9.7325 -1.8625 9.4025 -3.5625 9.0625 C-3.66015625 2.91015625 -3.66015625 2.91015625 -3.5625 1.0625 C-2.5625 0.0625 -2.5625 0.0625 0 0 Z " fill="#304979" transform="translate(254.5625,112.9375)"/>
<path d="M0 0 C1.98 0 3.96 0 6 0 C4.68 0.33 3.36 0.66 2 1 C2 1.99 2 2.98 2 4 C2.99 4.33 3.98 4.66 5 5 C4.01 5 3.02 5 2 5 C2 5.99 2 6.98 2 8 C3.32 8 4.64 8 6 8 C6 8.66 6 9.32 6 10 C4.02 10 2.04 10 0 10 C0 6.7 0 3.4 0 0 Z " fill="#2E4278" transform="translate(220,113)"/>
<path d="M0 0 C0.99 0.66 1.98 1.32 3 2 C2.67 2.66 2.34 3.32 2 4 C3.32 4.66 4.64 5.32 6 6 C5.34 7.32 4.68 8.64 4 10 C3.67 9.01 3.34 8.02 3 7 C2.175 6.690625 1.35 6.38125 0.5 6.0625 C-0.325 5.711875 -1.15 5.36125 -2 5 C-2.8125 2.875 -2.8125 2.875 -3 1 C-2.01 1.33 -1.02 1.66 0 2 C0 1.34 0 0.68 0 0 Z " fill="#144F84" transform="translate(248,77)"/>
<path d="M0 0 C1.65 0 3.3 0 5 0 C4.01 0.33 3.02 0.66 2 1 C2 1.99 2 2.98 2 4 C2.99 4.33 3.98 4.66 5 5 C4.01 5 3.02 5 2 5 C2 5.99 2 6.98 2 8 C3.32 8 4.64 8 6 8 C6 8.66 6 9.32 6 10 C4.02 10 2.04 10 0 10 C0 6.7 0 3.4 0 0 Z " fill="#2A4478" transform="translate(131,113)"/>
<path d="M0 0 C-0.66 0 -1.32 0 -2 0 C-1.67 0.99 -1.34 1.98 -1 3 C-6.95703125 4.85546875 -6.95703125 4.85546875 -9 5 C-10.76171875 3.55078125 -10.76171875 3.55078125 -12 2 C-10.75579353 1.4654744 -9.50429064 0.94791389 -8.25 0.4375 C-7.55390625 0.14746094 -6.8578125 -0.14257812 -6.140625 -0.44140625 C-3.69987216 -1.07831803 -2.3596345 -0.80248831 0 0 Z " fill="#E2E9EE" transform="translate(64,90)"/>
<path d="M0 0 C1.65 0.33 3.3 0.66 5 1 C5.33 3.31 5.66 5.62 6 8 C5.01 8 4.02 8 3 8 C3 7.34 3 6.68 3 6 C2.01 6 1.02 6 0 6 C-0.33 6.66 -0.66 7.32 -1 8 C-0.67 5.36 -0.34 2.72 0 0 Z " fill="#1C5083" transform="translate(176,66)"/>
<path d="M0 0 C-0.95421808 1.14926266 -1.91352045 2.29430541 -2.875 3.4375 C-3.40867187 4.07558594 -3.94234375 4.71367188 -4.4921875 5.37109375 C-6 7 -6 7 -8 8 C-8 5.69 -8 3.38 -8 1 C-5.29120665 -0.35439668 -2.99066732 -0.06501451 0 0 Z " fill="#194B82" transform="translate(21,66)"/>
<path d="M0 0 C0.33 0 0.66 0 1 0 C1 4.62 1 9.24 1 14 C-0.32 14.33 -1.64 14.66 -3 15 C-2.35812082 9.86496656 -1.31727753 5.0056546 0 0 Z " fill="#EAF0F4" transform="translate(230,62)"/>
<path d="M0 0 C1.65 0 3.3 0 5 0 C4.01 0.33 3.02 0.66 2 1 C2 1.99 2 2.98 2 4 C2.99 4.33 3.98 4.66 5 5 C4.01 5 3.02 5 2 5 C2 5.99 2 6.98 2 8 C2.99 8 3.98 8 5 8 C5 8.66 5 9.32 5 10 C3.35 10 1.7 10 0 10 C0 6.7 0 3.4 0 0 Z " fill="#132F70" transform="translate(259,113)"/>
<path d="M0 0 C1.65 0 3.3 0 5 0 C4.01 0.33 3.02 0.66 2 1 C2 1.99 2 2.98 2 4 C2.99 4.33 3.98 4.66 5 5 C4.01 5 3.02 5 2 5 C2 5.99 2 6.98 2 8 C2.99 8 3.98 8 5 8 C5 8.66 5 9.32 5 10 C3.35 10 1.7 10 0 10 C0 6.7 0 3.4 0 0 Z " fill="#213A75" transform="translate(85,113)"/>
<path d="M0 0 C1.65 0 3.3 0 5 0 C4.01 0.33 3.02 0.66 2 1 C2 1.99 2 2.98 2 4 C2.99 4.33 3.98 4.66 5 5 C4.01 5 3.02 5 2 5 C2 5.99 2 6.98 2 8 C2.99 8 3.98 8 5 8 C5 8.66 5 9.32 5 10 C3.35 10 1.7 10 0 10 C0 6.7 0 3.4 0 0 Z " fill="#19356C" transform="translate(146,113)"/>
<path d="M0 0 C1.65 0 3.3 0 5 0 C4.01 0.33 3.02 0.66 2 1 C2 1.99 2 2.98 2 4 C2.99 4.33 3.98 4.66 5 5 C4.01 5 3.02 5 2 5 C2 5.99 2 6.98 2 8 C2.99 8 3.98 8 5 8 C5 8.66 5 9.32 5 10 C3.35 10 1.7 10 0 10 C0 6.7 0 3.4 0 0 Z " fill="#132F6E" transform="translate(235,113)"/>
<path d="M0 0 C0.33 0.66 0.66 1.32 1 2 C1.99 2 2.98 2 4 2 C4 2.66 4 3.32 4 4 C0.535 5.485 0.535 5.485 -3 7 C-3.66 6.34 -4.32 5.68 -5 5 C-4 2 -4 2 -1.9375 0.8125 C-1.298125 0.544375 -0.65875 0.27625 0 0 Z " fill="#194A83" transform="translate(49,80)"/>
<path d="M0 0 C0.886875 0.12375 1.77375 0.2475 2.6875 0.375 C1.125 2.8125 1.125 2.8125 -1.3125 5.375 C-5.0625 6.1875 -5.0625 6.1875 -8.3125 6.375 C-4.12788462 0.46730769 -4.12788462 0.46730769 0 0 Z " fill="#0D3D74" transform="translate(25.3125,69.625)"/>
<path d="M0 0 C1.65 0 3.3 0 5 0 C5.33 0.99 5.66 1.98 6 3 C5.34 3 4.68 3 4 3 C4 2.34 4 1.68 4 1 C3.01 1.495 3.01 1.495 2 2 C1.34227572 5.02934491 1.34227572 5.02934491 1 8 C1.99 8 2.98 8 4 8 C4 7.34 4 6.68 4 6 C4.66 6 5.32 6 6 6 C5.67 7.32 5.34 8.64 5 10 C3.35 9.67 1.7 9.34 0 9 C0 6.03 0 3.06 0 0 Z " fill="#314873" transform="translate(189,113)"/>
<path d="M0 0 C1.65 0 3.3 0 5 0 C6 1 6 1 6.09765625 2.84765625 C6.06510417 4.8984375 6.03255208 6.94921875 6 9 C5.34 9 4.68 9 4 9 C3.87625 7.865625 3.7525 6.73125 3.625 5.5625 C3.41875 4.386875 3.2125 3.21125 3 2 C2.34 1.67 1.68 1.34 1 1 C1 3.97 1 6.94 1 10 C0.67 10 0.34 10 0 10 C0 6.7 0 3.4 0 0 Z " fill="#17366A" transform="translate(14,113)"/>
<path d="M0 0 C0 1.98 0 3.96 0 6 C-0.99 6.495 -0.99 6.495 -2 7 C-3.98 5.35 -5.96 3.7 -8 2 C-2 0 -2 0 0 0 Z " fill="#164E83" transform="translate(257,57)"/>
<path d="M0 0 C2.97 0.495 2.97 0.495 6 1 C5.34 3.31 4.68 5.62 4 8 C3.67 7.34 3.34 6.68 3 6 C2.01 6 1.02 6 0 6 C0 4.02 0 2.04 0 0 Z " fill="#DDE6EE" transform="translate(148,115)"/>
<path d="M0 0 C0.61488281 0.08378906 1.22976562 0.16757813 1.86328125 0.25390625 C3.07564453 0.40666016 3.07564453 0.40666016 4.3125 0.5625 C5.11300781 0.66691406 5.91351563 0.77132812 6.73828125 0.87890625 C9.16817116 1.14755178 9.16817116 1.14755178 12 0 C12 0.66 12 1.32 12 2 C8.73036051 4.17975966 7.78270322 4.36904422 4 4 C1.6875 3 1.6875 3 0 2 C0 1.34 0 0.68 0 0 Z " fill="#FBFBF7" transform="translate(33,108)"/>
<path d="M0 0 C0.99 0 1.98 0 3 0 C3.625 2.875 3.625 2.875 4 6 C3.34 6.66 2.68 7.32 2 8 C1.01 8 0.02 8 -1 8 C-0.67 5.36 -0.34 2.72 0 0 Z " fill="#0F4881" transform="translate(94,94)"/>
<path d="M0 0 C0.33 0 0.66 0 1 0 C1 6.6 1 13.2 1 20 C0.01 20.33 -0.98 20.66 -2 21 C-2 19.35 -2 17.7 -2 16 C-1.34 16 -0.68 16 0 16 C0 10.72 0 5.44 0 0 Z " fill="#044886" transform="translate(99,72)"/>
<path d="M0 0 C1.32 0.66 2.64 1.32 4 2 C1.31158141 4.25245881 -0.64641875 5.88213958 -4 7 C-4 6.34 -4 5.68 -4 5 C-4.66 4.67 -5.32 4.34 -6 4 C-4.02 2.68 -2.04 1.36 0 0 Z " fill="#E4EAEC" transform="translate(38,73)"/>
<path d="M0 0 C2.31 0 4.62 0 7 0 C5.02 0.99 5.02 0.99 3 2 C3.33 2.99 3.66 3.98 4 5 C2.3603125 5.4021875 2.3603125 5.4021875 0.6875 5.8125 C-2.61692663 6.87663739 -3.94960422 7.34654664 -6 10 C-5.61121002 7.18127263 -5.29189635 6.22804402 -3 4.4375 C-2.34 3.963125 -1.68 3.48875 -1 3 C-0.67 2.01 -0.34 1.02 0 0 Z " fill="#093871" transform="translate(248,57)"/>
<path d="M0 0 C0.33 0 0.66 0 1 0 C1.3690205 9.41002278 1.3690205 9.41002278 -1 14 C-1.66 14 -2.32 14 -3 14 C-3.125 11.125 -3.125 11.125 -3 8 C-2.34 7.34 -1.68 6.68 -1 6 C-0.60235737 4.01178687 -0.26224651 2.01055661 0 0 Z " fill="#275B8D" transform="translate(166,90)"/>
<path d="M0 0 C-1.49097658 3.7952131 -3.75700849 5.61042731 -7 8 C-7.6875 6.1875 -7.6875 6.1875 -8 4 C-5.87874759 1.13630924 -3.62654727 0 0 0 Z " fill="#E1E7EC" transform="translate(22,69)"/>
<path d="M0 0 C0 1.32 0 2.64 0 4 C-2.31 4.33 -4.62 4.66 -7 5 C-7 3.68 -7 2.36 -7 1 C-4 0 -4 0 0 0 Z " fill="#0F4278" transform="translate(63,69)"/>
<path d="M0 0 C0.99 0.495 0.99 0.495 2 1 C2.625 4.0625 2.625 4.0625 3 7 C4.65 7.33 6.3 7.66 8 8 C5.66682784 8.77772405 3.38564077 9.42415568 1 10 C-0.1577506 6.52674819 -0.06866652 3.63932552 0 0 Z " fill="#CFDAE0" transform="translate(93,116)"/>
<path d="M0 0 C2.13586678 3.20380017 2.23132175 4.01939967 2.125 7.6875 C2.10695312 8.49574219 2.08890625 9.30398437 2.0703125 10.13671875 C2.03550781 11.05904297 2.03550781 11.05904297 2 12 C0.68 11.34 -0.64 10.68 -2 10 C-2 8.35 -2 6.7 -2 5 C-1.67 5 -1.34 5 -1 5 C-0.67 3.35 -0.34 1.7 0 0 Z " fill="#CFD5D9" transform="translate(129,114)"/>
<path d="M0 0 C0.99 0.33 1.98 0.66 3 1 C3.33 3.64 3.66 6.28 4 9 C2.68 9 1.36 9 0 9 C0 6.03 0 3.06 0 0 Z " fill="#A9B7CC" transform="translate(15,114)"/>
<path d="M0 0 C1.98 0.66 3.96 1.32 6 2 C6 2.66 6 3.32 6 4 C4.35 4 2.7 4 1 4 C1 6.97 1 9.94 1 13 C0.67 13 0.34 13 0 13 C0 8.71 0 4.42 0 0 Z " fill="#094486" transform="translate(143,59)"/>
<path d="M0 0 C2.3125 0.5625 2.3125 0.5625 5 2 C6.85395348 5.51611868 8 8.00926247 8 12 C7.34 12 6.68 12 6 12 C5.34 9.69 4.68 7.38 4 5 C3.01 5.495 3.01 5.495 2 6 C1.34 4.02 0.68 2.04 0 0 Z " fill="#1A4472" transform="translate(93,60)"/>
<path d="M0 0 C1.98 0 3.96 0 6 0 C6 1.32 6 2.64 6 4 C5.01 4 4.02 4 3 4 C2.67 4.99 2.34 5.98 2 7 C0.5393715 4.35261084 0 3.10551666 0 0 Z " fill="#0C3D7A" transform="translate(225,58)"/>
<path d="M0 0 C0.66 0 1.32 0 2 0 C2 2.64 2 5.28 2 8 C2.99 8 3.98 8 5 8 C5 8.66 5 9.32 5 10 C3.35 10 1.7 10 0 10 C0 6.7 0 3.4 0 0 Z " fill="#153872" transform="translate(53,113)"/>
<path d="M0 0 C1.65 0 3.3 0 5 0 C4.01 0.33 3.02 0.66 2 1 C2 1.99 2 2.98 2 4 C2.99 4.33 3.98 4.66 5 5 C4.01 5 3.02 5 2 5 C2 6.65 2 8.3 2 10 C1.34 10 0.68 10 0 10 C0 6.7 0 3.4 0 0 Z " fill="#203A72" transform="translate(62,113)"/>
<path d="M0 0 C1.65 0 3.3 0 5 0 C4.01 0.33 3.02 0.66 2 1 C2 1.99 2 2.98 2 4 C2.99 4.33 3.98 4.66 5 5 C4.01 5 3.02 5 2 5 C2 6.65 2 8.3 2 10 C1.34 10 0.68 10 0 10 C0 6.7 0 3.4 0 0 Z " fill="#0A2867" transform="translate(214,113)"/>
<path d="M0 0 C2.97 0 5.94 0 9 0 C8.01 0.495 8.01 0.495 7 1 C7 3.64 7 6.28 7 9 C6.34 8.67 5.68 8.34 5 8 C4.87625 7.030625 4.7525 6.06125 4.625 5.0625 C4.315625 3.5465625 4.315625 3.5465625 4 2 C2.68 1.34 1.36 0.68 0 0 Z " fill="#DCE3E9" transform="translate(70,112)"/>
<path d="M0 0 C0.99 0 1.98 0 3 0 C2.67 1.65 2.34 3.3 2 5 C0.35 5.33 -1.3 5.66 -3 6 C-2.67 4.68 -2.34 3.36 -2 2 C-1.34 2 -0.68 2 0 2 C0 1.34 0 0.68 0 0 Z " fill="#0F3F76" transform="translate(27,101)"/>
<path d="M0 0 C0.33 0.99 0.66 1.98 1 3 C1.66 3 2.32 3 3 3 C2.34 4.32 1.68 5.64 1 7 C0.01 7 -0.98 7 -2 7 C-2.6875 5.1875 -2.6875 5.1875 -3 3 C-1.5625 1.25 -1.5625 1.25 0 0 Z " fill="#2D5988" transform="translate(35,89)"/>
<path d="M0 0 C0.66 0.33 1.32 0.66 2 1 C1.75 2.875 1.75 2.875 1 5 C-1.0625 6.25 -1.0625 6.25 -3 7 C-3 6.34 -3 5.68 -3 5 C-3.99 4.67 -4.98 4.34 -6 4 C-4.02 2.68 -2.04 1.36 0 0 Z " fill="#E0E8EE" transform="translate(43,79)"/>
<path d="M0 0 C0.66 0.66 1.32 1.32 2 2 C1.34 4.31 0.68 6.62 0 9 C-0.66 9 -1.32 9 -2 9 C-2.33 6.69 -2.66 4.38 -3 2 C-2.01 1.34 -1.02 0.68 0 0 Z " fill="#0A4981" transform="translate(164,68)"/>
<path d="M0 0 C0.99 0.66 1.98 1.32 3 2 C3.1875 5.625 3.1875 5.625 3 9 C2.01 8.34 1.02 7.68 0 7 C-0.99 7.495 -0.99 7.495 -2 8 C-2.33 6.02 -2.66 4.04 -3 2 C-2.01 2 -1.02 2 0 2 C0 1.34 0 0.68 0 0 Z " fill="#144C82" transform="translate(205,65)"/>
<path d="M0 0 C0.66 0 1.32 0 2 0 C2.66 1.32 3.32 2.64 4 4 C4.66 4 5.32 4 6 4 C6.66 3.34 7.32 2.68 8 2 C8 3.65 8 5.3 8 7 C6.02 7 4.04 7 2 7 C1.34 4.69 0.68 2.38 0 0 Z " fill="#0A336E" transform="translate(256,64)"/>
<path d="M0 0 C0.66 0 1.32 0 2 0 C2 1.32 2 2.64 2 4 C2.99 4.33 3.98 4.66 5 5 C4.01 5 3.02 5 2 5 C2 6.65 2 8.3 2 10 C1.34 10 0.68 10 0 10 C0 6.7 0 3.4 0 0 Z " fill="#082D6B" transform="translate(177,113)"/>
<path d="M0 0 C0.33 3.3 0.66 6.6 1 10 C0.34 10 -0.32 10 -1 10 C-1 8.02 -1 6.04 -1 4 C-1.99 4 -2.98 4 -4 4 C-4 3.01 -4 2.02 -4 1 C-1 0 -1 0 0 0 Z " fill="#687DA3" transform="translate(167,113)"/>
<path d="M0 0 C0.66 0.99 1.32 1.98 2 3 C0.6875 4.5 0.6875 4.5 -1 6 C-1.99 6 -2.98 6 -4 6 C-4.33 4.68 -4.66 3.36 -5 2 C-3.35 1.34 -1.7 0.68 0 0 Z " fill="#255788" transform="translate(31,85)"/>
<path d="M0 0 C2.31 0 4.62 0 7 0 C2.25 4.875 2.25 4.875 0 6 C0 4.02 0 2.04 0 0 Z " fill="#476689" transform="translate(13,57)"/>
<path d="M0 0 C0.99 0 1.98 0 3 0 C3.36923077 4.55384615 3.36923077 4.55384615 1.5 6.8125 C1.005 7.204375 0.51 7.59625 0 8 C-0.66 7.67 -1.32 7.34 -2 7 C-1.34 4.69 -0.68 2.38 0 0 Z " fill="#4C698E" transform="translate(154,115)"/>
<path d="M0 0 C0.33 0 0.66 0 1 0 C1.66 2.64 2.32 5.28 3 8 C1.02 8 -0.96 8 -3 8 C-2.67 6.68 -2.34 5.36 -2 4 C-1.34 4 -0.68 4 0 4 C0 2.68 0 1.36 0 0 Z " fill="#154C86" transform="translate(219,88)"/>
<path d="M0 0 C0.99 0.33 1.98 0.66 3 1 C2.67 2.65 2.34 4.3 2 6 C0.68 6 -0.64 6 -2 6 C-2 5.01 -2 4.02 -2 3 C-1.34 3 -0.68 3 0 3 C0 2.01 0 1.02 0 0 Z " fill="#09437A" transform="translate(194,80)"/>
<path d="M0 0 C0.66 0.99 1.32 1.98 2 3 C2.33 2.34 2.66 1.68 3 1 C3 1.99 3 2.98 3 4 C2.21625 4.12375 1.4325 4.2475 0.625 4.375 C-2.14057822 4.79117993 -2.14057822 4.79117993 -4 7 C-4 4 -4 4 -2 1.8125 C-1.34 1.214375 -0.68 0.61625 0 0 Z " fill="#083C70" transform="translate(28,75)"/>
<path d="M0 0 C2.125 0.9375 2.125 0.9375 4 2 C1.82575883 4.50037734 0.26954202 5.43628586 -3 6 C-2.625 3.5625 -2.625 3.5625 -2 1 C-1.34 0.67 -0.68 0.34 0 0 Z " fill="#0A3D73" transform="translate(39,68)"/>
<path d="M0 0 C2.13586678 3.20380017 2.23132175 4.01939967 2.125 7.6875 C2.10695312 8.49574219 2.08890625 9.30398437 2.0703125 10.13671875 C2.04710937 10.75160156 2.02390625 11.36648437 2 12 C1.34 12 0.68 12 0 12 C-0.19477739 10.37585622 -0.38059458 8.75063577 -0.5625 7.125 C-0.66691406 6.22007813 -0.77132812 5.31515625 -0.87890625 4.3828125 C-1 2 -1 2 0 0 Z " fill="#E5EBEE" transform="translate(168,111)"/>
<path d="M0 0 C0.8125 1.625 0.8125 1.625 1 4 C-0.46818136 6.24609835 -2.15852858 8.02378677 -4 10 C-4.33 9.01 -4.66 8.02 -5 7 C-3.6875 5 -3.6875 5 -2 3 C-1.34 2.01 -0.68 1.02 0 0 Z " fill="#D9E1EB" transform="translate(42,89)"/>
<path d="M0 0 C2.475 0.495 2.475 0.495 5 1 C4.67 3.64 4.34 6.28 4 9 C3.34 8.67 2.68 8.34 2 8 C2 6.35 2 4.7 2 3 C1.34 2.67 0.68 2.34 0 2 C0 1.34 0 0.68 0 0 Z " fill="#1E4E7B" transform="translate(191,85)"/>
<path d="M0 0 C1.62490954 -0.02698189 3.24994633 -0.04638757 4.875 -0.0625 C5.77992188 -0.07410156 6.68484375 -0.08570312 7.6171875 -0.09765625 C10 0 10 0 12 1 C12 1.99 12 2.98 12 4 C10.68 4 9.36 4 8 4 C8 3.34 8 2.68 8 2 C5.36 1.67 2.72 1.34 0 1 C0 0.67 0 0.34 0 0 Z " fill="#CDD7E4" transform="translate(145,84)"/>
<path d="M0 0 C0 1.32 0 2.64 0 4 C-2.31 4 -4.62 4 -7 4 C-3.375 0 -3.375 0 0 0 Z " fill="#EDF1F1" transform="translate(59,66)"/>
<path d="M0 0 C1.67542976 0.28604898 3.34385343 0.61781233 5 1 C4.34 2.65 3.68 4.3 3 6 C2.01 5.67 1.02 5.34 0 5 C-0.75 3 -0.75 3 -1 1 C-0.67 0.67 -0.34 0.34 0 0 Z " fill="#104D86" transform="translate(259,63)"/>
<path d="M0 0 C0.66 0.33 1.32 0.66 2 1 C2 2.98 2 4.96 2 7 C1.01 7 0.02 7 -1 7 C-1.04254356 5.00045254 -1.04080783 2.99958364 -1 1 C-0.67 0.67 -0.34 0.34 0 0 Z " fill="#D7E7EE" transform="translate(199,114)"/>
<path d="M0 0 C0.66 0 1.32 0 2 0 C2 2.31 2 4.62 2 7 C1.01 7 0.02 7 -1 7 C-1.04254356 5.00045254 -1.04080783 2.99958364 -1 1 C-0.67 0.67 -0.34 0.34 0 0 Z " fill="#D2DEE6" transform="translate(71,114)"/>
<path d="M0 0 C0.99 0 1.98 0 3 0 C3.33 1.98 3.66 3.96 4 6 C3.34 5.34 2.68 4.68 2 4 C1.67 5.98 1.34 7.96 1 10 C0.67 10 0.34 10 0 10 C0 6.7 0 3.4 0 0 Z " fill="#162E6A" transform="translate(92,113)"/>
<path d="M0 0 C2.475 0.495 2.475 0.495 5 1 C4.67 2.32 4.34 3.64 4 5 C2.68 5.33 1.36 5.66 0 6 C0 4.02 0 2.04 0 0 Z " fill="#CDD6DB" transform="translate(222,114)"/>
<path d="M0 0 C1.32 0 2.64 0 4 0 C4 1.32 4 2.64 4 4 C2.68 4.33 1.36 4.66 0 5 C-0.33 4.01 -0.66 3.02 -1 2 C-0.67 1.34 -0.34 0.68 0 0 Z " fill="#134576" transform="translate(59,93)"/>
<path d="M0 0 C0.99 0 1.98 0 3 0 C2.1875 2.4375 2.1875 2.4375 1 5 C0.01 5.33 -0.98 5.66 -2 6 C-1.125 1.125 -1.125 1.125 0 0 Z " fill="#F5F7F8" transform="translate(20,90)"/>
<path d="M0 0 C0.66 0.33 1.32 0.66 2 1 C1.67 3.64 1.34 6.28 1 9 C0.34 9 -0.32 9 -1 9 C-1.33 6.36 -1.66 3.72 -2 1 C-1.34 0.67 -0.68 0.34 0 0 Z " fill="#DAE4E8" transform="translate(215,91)"/>
<path d="M0 0 C0.99 0 1.98 0 3 0 C3 1.32 3 2.64 3 4 C0.69 4.33 -1.62 4.66 -4 5 C-4 4.34 -4 3.68 -4 3 C-2.68 3 -1.36 3 0 3 C0 2.01 0 1.02 0 0 Z " fill="#0B3A70" transform="translate(60,77)"/>
<path d="M0 0 C0 3.14213983 -0.33280556 5.93090555 -1 9 C-1.99 9.495 -1.99 9.495 -3 10 C-3.36923077 3.47692308 -3.36923077 3.47692308 -1.5 1.0625 C-1.005 0.711875 -0.51 0.36125 0 0 Z " fill="#33537D" transform="translate(16,76)"/>
<path d="M0 0 C0.33 0.66 0.66 1.32 1 2 C2.32 2 3.64 2 5 2 C5.33 3.32 5.66 4.64 6 6 C4.02 6 2.04 6 0 6 C0 4.02 0 2.04 0 0 Z " fill="#EBF3F8" transform="translate(114,73)"/>
<path d="M0 0 C0.66 1.32 1.32 2.64 2 4 C1.34 4 0.68 4 0 4 C0 4.66 0 5.32 0 6 C0.66 6.33 1.32 6.66 2 7 C1.34 8.32 0.68 9.64 0 11 C0 9.68 0 8.36 0 7 C-0.66 7 -1.32 7 -2 7 C-1.125 2.25 -1.125 2.25 0 0 Z " fill="#EAF0F0" transform="translate(236,57)"/>
<path d="M0 0 C0 3.3 0 6.6 0 10 C-0.33 10 -0.66 10 -1 10 C-1 8.02 -1 6.04 -1 4 C-1.99 4 -2.98 4 -4 4 C-4 3.01 -4 2.02 -4 1 C-1 0 -1 0 0 0 Z " fill="#5F75A3" transform="translate(129,113)"/>
<path d="M0 0 C0.33 0 0.66 0 1 0 C0.67 2.97 0.34 5.94 0 9 C-0.99 8.67 -1.98 8.34 -3 8 C-1.125 2.25 -1.125 2.25 0 0 Z " fill="#0A4180" transform="translate(20,98)"/>
<path d="M0 0 C0.99 0.66 1.98 1.32 3 2 C1.35 3.32 -0.3 4.64 -2 6 C-2.99 4.68 -3.98 3.36 -5 2 C-4.360625 1.855625 -3.72125 1.71125 -3.0625 1.5625 C-1.02454854 1.18992819 -1.02454854 1.18992819 0 0 Z " fill="#2F568A" transform="translate(26,79)"/>
<path d="M0 0 C0.99 1.32 1.98 2.64 3 4 C2.34 4 1.68 4 1 4 C0.34 5.32 -0.32 6.64 -1 8 C-1.66 6.35 -2.32 4.7 -3 3 C-2.34 3 -1.68 3 -1 3 C-0.67 2.01 -0.34 1.02 0 0 Z " fill="#134E88" transform="translate(208,77)"/>
<path d="M0 0 C0.33 0.66 0.66 1.32 1 2 C1.99 2.33 2.98 2.66 4 3 C-0.75 6 -0.75 6 -3 6 C-2.625 3.5625 -2.625 3.5625 -2 1 C-1.34 0.67 -0.68 0.34 0 0 Z " fill="#DFE6EA" transform="translate(35,66)"/>
<path d="M0 0 C1.32 0.33 2.64 0.66 4 1 C4 1.66 4 2.32 4 3 C4.66 3 5.32 3 6 3 C6 3.66 6 4.32 6 5 C4.35 4.67 2.7 4.34 1 4 C0.67 2.68 0.34 1.36 0 0 Z " fill="#17508A" transform="translate(174,59)"/>
<path d="M0 0 C2.05078125 0.03255208 4.1015625 0.06510417 6.15234375 0.09765625 C4.50234375 1.41765625 2.85234375 2.73765625 1.15234375 4.09765625 C0.82234375 3.43765625 0.49234375 2.77765625 0.15234375 2.09765625 C-0.83765625 1.76765625 -1.82765625 1.43765625 -2.84765625 1.09765625 C-1.84765625 0.09765625 -1.84765625 0.09765625 0 0 Z " fill="#113F71" transform="translate(26.84765625,57.90234375)"/>
<path d="M0 0 C0.66 0 1.32 0 2 0 C2 2.31 2 4.62 2 7 C0.68 6.01 -0.64 5.02 -2 4 C-1.34 2.68 -0.68 1.36 0 0 Z " fill="#F6F5F5" transform="translate(11,56)"/>
<path d="M0 0 C0 1.98 0 3.96 0 6 C-1.32 5.67 -2.64 5.34 -4 5 C-4 3.68 -4 2.36 -4 1 C-1 0 -1 0 0 0 Z " fill="#D9E4E6" transform="translate(220,113)"/>
<path d="M0 0 C1.65 0.33 3.3 0.66 5 1 C5 1.66 5 2.32 5 3 C4.34 3 3.68 3 3 3 C3 2.34 3 1.68 3 1 C2.34 1 1.68 1 1 1 C1.66 2.32 2.32 3.64 3 5 C1.68 4.67 0.36 4.34 -1 4 C-0.67 2.68 -0.34 1.36 0 0 Z " fill="#1B3871" transform="translate(102,113)"/>
<path d="M0 0 C0.99 0.33 1.98 0.66 3 1 C2.67 1.99 2.34 2.98 2 4 C1.34 4 0.68 4 0 4 C-0.33 4.66 -0.66 5.32 -1 6 C-1.66 4.68 -2.32 3.36 -3 2 C-2.01 1.34 -1.02 0.68 0 0 Z " fill="#EAF2F3" transform="translate(61,105)"/>
<path d="M0 0 C1.4606285 2.64738916 2 3.89448334 2 7 C0.35 7 -1.3 7 -3 7 C-3.33 6.34 -3.66 5.68 -4 5 C-3.01 4.67 -2.02 4.34 -1 4 C-0.26676204 1.98491642 -0.26676204 1.98491642 0 0 Z " fill="#134680" transform="translate(166,99)"/>
<path d="M0 0 C2.00720923 0.28674418 4.0085944 0.61866701 6 1 C6 1.66 6 2.32 6 3 C5.071875 2.95875 4.14375 2.9175 3.1875 2.875 C-0.15809719 2.72863661 -0.15809719 2.72863661 -3 5 C-1.125 1.125 -1.125 1.125 0 0 Z " fill="#F1F5F6" transform="translate(98,101)"/>
<path d="M0 0 C0.33 0.99 0.66 1.98 1 3 C-3.75 4.125 -3.75 4.125 -6 3 C-3.375 0 -3.375 0 0 0 Z " fill="#093B70" transform="translate(51,99)"/>
<path d="M0 0 C1.32 0 2.64 0 4 0 C4.33 0.99 4.66 1.98 5 3 C3.35 3.33 1.7 3.66 0 4 C0 2.68 0 1.36 0 0 Z " fill="#0A4079" transform="translate(47,90)"/>
<path d="M0 0 C0.66 0.33 1.32 0.66 2 1 C2 1.99 2 2.98 2 4 C0.1875 4.6875 0.1875 4.6875 -2 5 C-3.75 3.5625 -3.75 3.5625 -5 2 C-2.625 0.9375 -2.625 0.9375 0 0 Z " fill="#DDE6E9" transform="translate(56,82)"/>
<path d="M0 0 C0.66 0 1.32 0 2 0 C2.33 1.32 2.66 2.64 3 4 C1.35 4.66 -0.3 5.32 -2 6 C-1.34 4.02 -0.68 2.04 0 0 Z " fill="#0F4479" transform="translate(33,62)"/>
<path d="M0 0 C0 0.33 0 0.66 0 1 C-1.36125 1.4021875 -1.36125 1.4021875 -2.75 1.8125 C-5.71471963 2.89576294 -7.6169754 3.98359457 -10 6 C-9.6875 4.125 -9.6875 4.125 -9 2 C-5.5647952 -0.29013653 -4.014669 -0.17842973 0 0 Z " fill="#C4D6E2" transform="translate(253,62)"/>
<path d="M0 0 C0.66 0 1.32 0 2 0 C2 2.31 2 4.62 2 7 C1.01 7 0.02 7 -1 7 C-1.04254356 5.00045254 -1.04080783 2.99958364 -1 1 C-0.67 0.67 -0.34 0.34 0 0 Z " fill="#BCCAD7" transform="translate(191,114)"/>
<path d="M0 0 C0.66 0 1.32 0 2 0 C2 2.64 2 5.28 2 8 C1.67 7.01 1.34 6.02 1 5 C0.34 5 -0.32 5 -1 5 C-0.67 3.35 -0.34 1.7 0 0 Z " fill="#EBECF0" transform="translate(38,115)"/>
<path d="M0 0 C0.66 0.33 1.32 0.66 2 1 C2.625 3.5625 2.625 3.5625 3 6 C-0.875 5.125 -0.875 5.125 -2 4 C-2 3.01 -2 2.02 -2 1 C-1.34 0.67 -0.68 0.34 0 0 Z " fill="#FCFDFC" transform="translate(30,106)"/>
<path d="M0 0 C0.33 1.32 0.66 2.64 1 4 C0.01 4.495 0.01 4.495 -1 5 C-1.99 4.67 -2.98 4.34 -4 4 C-4 4.66 -4 5.32 -4 6 C-4.66 5.67 -5.32 5.34 -6 5 C-5.34 4.01 -4.68 3.02 -4 2 C-2.68 2 -1.36 2 0 2 C0 1.34 0 0.68 0 0 Z " fill="#1C4D84" transform="translate(31,97)"/>
<path d="M0 0 C2.69082872 0.17635452 5.32851446 0.61835921 8 1 C4.375 4 4.375 4 1 4 C1 3.34 1 2.68 1 2 C0.34 1.67 -0.32 1.34 -1 1 C-0.67 0.67 -0.34 0.34 0 0 Z " fill="#1E4F86" transform="translate(50,97)"/>
<path d="M0 0 C2 2 2 2 2.125 5.625 C2.08375 6.73875 2.0425 7.8525 2 9 C1.34 9 0.68 9 0 9 C-0.33 9.99 -0.66 10.98 -1 12 C-0.67 8.04 -0.34 4.08 0 0 Z " fill="#0F468F" transform="translate(181,76)"/>
<path d="M0 0 C0.66 0.33 1.32 0.66 2 1 C2.625 3.5625 2.625 3.5625 3 6 C2.01 6.33 1.02 6.66 0 7 C0 5.68 0 4.36 0 3 C-0.99 3 -1.98 3 -3 3 C-2.67 2.34 -2.34 1.68 -2 1 C-1.34 1.33 -0.68 1.66 0 2 C0 1.34 0 0.68 0 0 Z " fill="#215A8C" transform="translate(223,76)"/>
<path d="M0 0 C0.93065133 2.60582371 1.14917407 3.64198224 0.0625 6.25 C-0.4634375 7.11625 -0.4634375 7.11625 -1 8 C-1.33 8 -1.66 8 -2 8 C-2 5.69 -2 3.38 -2 1 C-1.34 0.67 -0.68 0.34 0 0 Z " fill="#416087" transform="translate(15,66)"/>
</svg>
