<?xml version="1.0" standalone="no"?>
<!DOCTYPE svg PUBLIC "-//W3C//DTD SVG 20010904//EN"
 "http://www.w3.org/TR/2001/REC-SVG-20010904/DTD/svg10.dtd">
<svg version="1.0" xmlns="http://www.w3.org/2000/svg"
 width="279.000000pt" height="181.000000pt" viewBox="0 0 279.000000 181.000000"
 preserveAspectRatio="xMidYMid meet">

<g transform="translate(0.000000,181.000000) scale(0.100000,-0.100000)"
fill="#000000" stroke="none">
<path d="M2433 1225 c-44 -19 -67 -58 -67 -116 0 -59 29 -94 116 -141 31 -16
66 -41 79 -54 32 -34 30 -81 -5 -111 -51 -43 -130 -20 -142 42 -5 30 -10 35
-35 35 -34 0 -38 -20 -15 -75 23 -54 68 -77 143 -72 107 8 159 72 133 166 -12
45 -38 70 -132 125 -71 41 -90 70 -78 116 6 27 42 50 78 50 28 0 72 -42 72
-70 0 -16 6 -20 30 -20 25 0 30 4 30 25 0 39 -27 83 -60 100 -36 19 -104 19
-147 0z"/>
<path d="M130 1210 c0 -11 3 -20 6 -20 3 0 17 9 31 20 l26 20 -32 0 c-24 0
-31 -4 -31 -20z"/>
<path d="M195 1182 c-43 -34 -61 -56 -63 -75 -4 -34 -1 -34 40 4 18 17 62 51
98 75 l65 44 -41 0 c-33 0 -50 -8 -99 -48z"/>
<path d="M382 1210 c-63 -29 -130 -76 -195 -139 -44 -43 -57 -62 -57 -85 l0
-30 48 49 c100 106 204 171 324 206 l63 18 -70 0 c-47 0 -84 -7 -113 -19z"/>
<path d="M710 986 l0 -246 88 0 c64 0 98 5 129 19 63 29 77 63 81 206 5 141
-6 190 -48 230 -30 29 -35 30 -141 33 l-109 4 0 -246z m207 170 c27 -24 28
-27 31 -142 5 -148 -6 -190 -53 -210 -19 -8 -55 -14 -80 -14 l-45 0 0 195 0
195 59 0 c49 0 65 -4 88 -24z"/>
<path d="M1080 985 l0 -245 30 0 30 0 0 115 0 115 85 0 c84 0 85 0 85 25 0 25
-1 25 -85 25 l-85 0 0 80 0 80 90 0 c89 0 90 0 90 25 l0 25 -120 0 -120 0 0
-245z"/>
<path d="M1390 985 l0 -245 30 0 30 0 0 115 0 115 49 0 c79 0 97 -21 104 -125
3 -47 9 -90 12 -95 3 -6 20 -10 37 -10 26 0 29 3 25 23 -3 12 -8 54 -12 92 -8
90 -21 124 -52 131 l-24 6 30 19 c38 23 51 48 51 99 0 51 -21 93 -55 108 -14
7 -70 12 -125 12 l-100 0 0 -245z m200 175 c13 -13 20 -33 20 -60 0 -60 -25
-80 -100 -80 l-60 0 0 80 0 80 60 0 c47 0 64 -4 80 -20z"/>
<path d="M1724 1213 c3 -10 26 -103 51 -208 70 -291 60 -265 103 -265 l37 0
19 83 c42 191 78 338 82 334 3 -3 94 -404 94 -414 0 -2 17 -3 38 -3 l38 0 62
238 c35 130 63 240 62 245 0 4 -13 7 -29 7 -29 0 -29 -1 -59 -127 -16 -71 -38
-165 -48 -210 -11 -46 -21 -83 -24 -83 -3 0 -18 64 -33 143 -16 78 -36 172
-44 210 l-15 67 -39 0 c-45 0 -36 20 -95 -240 -21 -91 -40 -168 -44 -173 -4
-4 -26 87 -51 203 l-44 210 -33 0 c-27 0 -32 -3 -28 -17z"/>
<path d="M550 1184 c-189 -40 -413 -223 -418 -339 -2 -44 -6 -47 50 39 87 134
237 231 421 270 18 4 27 13 27 26 0 11 -3 20 -7 19 -5 0 -37 -7 -73 -15z"/>
<path d="M550 1104 c-149 -39 -303 -161 -369 -291 -17 -34 -31 -65 -31 -68 0
-3 11 -5 25 -5 14 0 25 6 25 13 0 8 17 41 39 74 86 133 201 211 364 247 18 4
27 13 27 26 0 23 -6 24 -80 4z"/>
<path d="M536 1019 c-107 -37 -197 -107 -262 -204 -38 -56 -42 -75 -16 -75 11
0 33 23 57 61 58 89 163 163 269 190 34 8 46 16 46 30 0 24 -19 24 -94 -2z"/>
<path d="M539 936 c-31 -12 -69 -32 -86 -44 -35 -25 -106 -101 -122 -131 -10
-18 -9 -21 9 -21 13 0 41 22 72 55 55 61 109 96 176 116 30 9 42 18 42 31 0
24 -22 23 -91 -6z"/>
<path d="M545 855 c-28 -13 -70 -45 -95 -70 l-44 -45 28 0 c18 0 43 13 71 38
24 21 62 44 84 52 28 9 41 19 41 32 0 24 -24 23 -85 -7z"/>
<path d="M568 780 c-49 -27 -56 -40 -19 -40 42 0 81 20 81 42 0 23 -15 22 -62
-2z"/>
<path d="M140 631 c0 -43 3 -51 19 -51 27 0 43 24 39 62 -2 28 -7 34 -30 36
-27 3 -28 2 -28 -47z m40 -2 c0 -19 -5 -29 -15 -29 -15 0 -22 50 -9 63 12 12
24 -4 24 -34z"/>
<path d="M220 630 c0 -27 5 -50 10 -50 6 0 10 23 10 50 0 28 -4 50 -10 50 -5
0 -10 -22 -10 -50z"/>
<path d="M267 673 c-14 -14 -7 -81 9 -87 31 -12 44 -6 44 19 0 17 -5 25 -17
25 -14 0 -15 -2 -4 -9 7 -5 10 -14 7 -20 -12 -20 -26 -1 -26 35 0 36 8 42 28
22 9 -9 12 -8 12 5 0 17 -39 25 -53 10z"/>
<path d="M346 635 c2 -64 14 -70 14 -7 0 29 -3 52 -7 52 -5 0 -7 -20 -7 -45z"/>
<path d="M388 673 c7 -3 12 -23 12 -49 0 -24 5 -44 10 -44 6 0 10 20 10 44 0
26 5 46 13 49 6 3 -4 5 -23 5 -19 0 -29 -2 -22 -5z"/>
<path d="M456 653 c-3 -16 -8 -38 -12 -50 -4 -14 -2 -23 5 -23 6 0 11 7 11 15
0 21 27 19 39 -2 17 -31 19 -10 4 40 -15 52 -37 62 -47 20z m34 -25 c0 -5 -4
-8 -10 -8 -5 0 -10 10 -10 23 0 18 2 19 10 7 5 -8 10 -18 10 -22z"/>
<path d="M530 630 c0 -47 2 -50 25 -50 14 0 25 5 25 10 0 6 -7 10 -15 10 -11
0 -15 11 -15 40 0 22 -4 40 -10 40 -5 0 -10 -22 -10 -50z"/>
<path d="M620 630 c0 -27 5 -50 10 -50 6 0 10 11 10 24 0 15 7 26 18 29 16 4
16 5 0 6 -10 0 -18 7 -18 15 0 8 8 17 18 19 10 3 6 5 -10 6 -27 1 -28 -1 -28
-49z"/>
<path d="M688 645 c-5 -46 11 -70 41 -60 19 6 22 13 19 48 -3 37 -6 42 -29 45
-24 3 -27 -1 -31 -33z m40 -12 c-3 -42 -21 -51 -26 -15 -4 29 4 52 18 52 7 0
10 -15 8 -37z"/>
<path d="M770 631 c0 -28 5 -51 10 -51 6 0 10 12 10 26 0 14 4 23 10 19 6 -3
10 -15 10 -26 0 -10 4 -19 10 -19 5 0 8 21 7 48 -2 43 -4 47 -29 50 -27 3 -28
2 -28 -47z m40 24 c0 -8 -4 -15 -10 -15 -5 0 -10 7 -10 15 0 8 5 15 10 15 6 0
10 -7 10 -15z"/>
<path d="M850 630 c0 -47 2 -50 25 -50 14 0 25 5 25 10 0 6 -7 10 -15 10 -21
0 -19 28 3 33 16 4 16 5 0 6 -10 0 -18 7 -18 15 0 8 8 17 18 19 10 3 6 5 -10
6 -27 1 -28 -1 -28 -49z"/>
<path d="M921 628 c2 -53 2 -53 9 -13 l6 40 12 -28 c7 -16 12 -33 12 -38 0 -5
7 -9 15 -9 11 0 15 12 15 50 0 54 -19 71 -21 18 l-1 -33 -10 33 c-17 52 -38
41 -37 -20z"/>
<path d="M1013 663 c-4 -10 2 -23 15 -34 22 -18 29 -39 13 -39 -5 0 -11 6 -14
13 -2 6 -8 9 -12 5 -11 -11 4 -28 26 -28 30 0 34 28 9 55 -13 14 -20 28 -15
32 4 5 10 2 12 -5 3 -6 9 -10 14 -6 14 8 0 24 -22 24 -11 0 -22 -7 -26 -17z"/>
<path d="M1090 630 c0 -27 5 -50 10 -50 6 0 10 23 10 50 0 28 -4 50 -10 50 -5
0 -10 -22 -10 -50z"/>
<path d="M1134 666 c-3 -8 -4 -29 -2 -48 2 -25 8 -34 24 -36 12 -2 24 4 27 12
7 18 -8 22 -19 5 -9 -15 -24 9 -24 38 0 27 19 41 31 22 4 -7 11 -10 14 -7 11
11 -5 28 -26 28 -11 0 -22 -6 -25 -14z"/>
<path d="M1235 630 c0 -28 3 -50 7 -50 5 0 8 9 8 20 0 27 28 25 33 -2 2 -13 4
1 4 30 1 50 0 52 -25 52 -26 0 -27 -3 -27 -50z m37 25 c0 -5 -5 -11 -11 -13
-6 -2 -11 4 -11 13 0 9 5 15 11 13 6 -2 11 -8 11 -13z"/>
<path d="M1310 630 c0 -47 2 -50 25 -50 14 0 25 5 25 10 0 6 -7 10 -15 10 -21
0 -19 28 3 33 16 4 16 5 0 6 -10 0 -18 7 -18 15 0 8 8 17 18 19 10 3 6 5 -10
6 -27 1 -28 -1 -28 -49z"/>
<path d="M1383 663 c-4 -11 1 -22 15 -31 12 -8 22 -21 22 -29 0 -13 -3 -13
-15 -3 -18 15 -34 5 -18 -11 16 -16 47 -7 51 15 2 10 -5 24 -17 32 -27 19 -27
37 -1 29 11 -4 20 -2 20 4 0 18 -50 13 -57 -6z"/>
<path d="M1460 630 c0 -47 2 -50 25 -50 14 0 25 5 25 10 0 6 -7 10 -15 10 -21
0 -19 28 3 33 16 4 16 5 0 6 -10 0 -18 7 -18 15 0 8 8 17 18 19 10 3 6 5 -10
6 -27 1 -28 -1 -28 -49z"/>
<path d="M1537 633 c-16 -54 -14 -65 8 -37 15 19 15 19 30 0 8 -11 17 -17 20
-14 10 10 -19 98 -32 98 -7 0 -19 -21 -26 -47z m29 -10 c-11 -11 -19 6 -11 24
8 17 8 17 12 0 3 -10 2 -21 -1 -24z"/>
<path d="M1615 635 c2 -46 15 -77 15 -37 0 13 6 22 15 22 8 0 15 -9 15 -20 0
-11 5 -20 11 -20 5 0 7 5 3 11 -3 6 -6 28 -6 50 1 36 -1 39 -28 39 -27 0 -28
-2 -25 -45z m37 20 c0 -5 -5 -11 -11 -13 -6 -2 -11 4 -11 13 0 9 5 15 11 13 6
-2 11 -8 11 -13z"/>
<path d="M1694 666 c-17 -44 20 -106 48 -78 6 6 8 15 3 19 -4 5 -10 2 -12 -5
-3 -6 -9 -10 -14 -6 -12 7 -12 74 1 74 6 0 10 -4 10 -10 0 -5 5 -10 10 -10 6
0 10 7 10 15 0 19 -49 20 -56 1z"/>
<path d="M1770 630 c0 -27 5 -50 10 -50 6 0 10 12 10 26 0 32 22 27 31 -7 5
-16 7 -5 7 31 -1 30 -3 45 -5 33 -5 -28 -33 -30 -33 -3 0 11 -4 20 -10 20 -5
0 -10 -22 -10 -50z"/>
<path d="M1892 633 c2 -40 7 -49 24 -51 12 -2 24 4 27 12 7 18 -8 22 -19 5 -9
-15 -24 9 -24 38 0 24 22 43 28 25 2 -7 8 -12 13 -12 4 0 6 7 3 15 -4 8 -17
15 -31 15 -23 0 -24 -3 -21 -47z"/>
<path d="M1964 656 c-8 -33 -2 -57 18 -69 26 -17 50 9 46 52 -3 31 -7 36 -30
39 -22 3 -29 -2 -34 -22z m44 -23 c-3 -42 -21 -51 -26 -15 -4 29 4 52 18 52 7
0 10 -15 8 -37z"/>
<path d="M2050 629 c0 -33 4 -48 11 -44 6 4 7 19 4 37 -5 20 -4 28 3 24 6 -3
13 -20 17 -36 11 -51 35 -37 35 20 0 29 -5 50 -11 50 -7 0 -8 -11 -4 -30 4
-18 2 -30 -3 -30 -6 0 -13 14 -17 30 -11 51 -35 37 -35 -21z"/>
<path d="M2140 630 c0 -27 5 -50 10 -50 6 0 10 11 10 24 0 15 7 26 18 29 16 4
16 5 0 6 -10 0 -18 7 -18 15 0 8 8 17 18 19 10 3 6 5 -10 6 -27 1 -28 -1 -28
-49z"/>
<path d="M2200 630 c0 -49 1 -50 30 -50 17 0 30 5 30 10 0 6 -9 10 -20 10 -25
0 -27 27 -2 33 16 4 16 5 0 6 -26 2 -22 29 5 34 16 3 13 5 -10 6 l-33 1 0 -50z"/>
<path d="M2270 630 c0 -53 16 -69 22 -22 l3 27 17 -30 17 -30 -1 53 c0 51 -1
52 -29 52 -28 0 -29 -1 -29 -50z m40 25 c0 -8 -4 -15 -10 -15 -5 0 -10 7 -10
15 0 8 5 15 10 15 6 0 10 -7 10 -15z"/>
<path d="M2350 630 c0 -47 2 -50 25 -50 14 0 25 5 25 10 0 6 -7 10 -15 10 -21
0 -19 28 3 33 16 4 16 5 0 6 -10 0 -18 7 -18 15 0 8 8 17 18 19 10 3 6 5 -10
6 -27 1 -28 -1 -28 -49z"/>
<path d="M2420 630 c0 -57 20 -69 21 -12 l1 37 12 -34 c20 -56 36 -51 35 11
-2 48 -2 50 -9 18 l-7 -35 -12 33 c-20 50 -41 41 -41 -18z"/>
<path d="M2514 654 c-13 -51 38 -102 54 -54 4 12 3 13 -10 3 -19 -16 -28 -7
-28 27 0 33 9 43 27 29 10 -9 13 -8 13 5 0 10 -9 16 -25 16 -18 0 -26 -7 -31
-26z"/>
<path d="M2590 630 c0 -47 2 -50 25 -50 14 0 25 5 25 11 0 6 -7 9 -15 5 -10
-3 -15 1 -15 14 0 10 8 21 18 23 16 4 16 5 0 6 -10 0 -18 7 -18 15 0 8 8 17
18 19 10 3 6 5 -10 6 -27 1 -28 -1 -28 -49z"/>
</g>
</svg>
