<?xml version="1.0" encoding="UTF-8"?>
<svg version="1.1" xmlns="http://www.w3.org/2000/svg" width="2048" height="2048">
<path d="M0 0 C0.77602695 0.00026688 1.55205391 0.00053375 2.35159683 0.00080872 C25.5346246 0.0108112 48.66446558 0.13692773 71.78582764 2.00390625 C74.22288492 2.20043364 76.66048115 2.38927277 79.09814453 2.578125 C129.31961245 6.52809865 179.09127821 14.35690482 228.0625 26.1875 C229.28855957 26.48205078 230.51461914 26.77660156 231.77783203 27.08007812 C308.53246572 45.70798818 383.90626368 74.99222742 452.30029297 114.60351562 C455.1137664 116.21689866 457.9453801 117.79280129 460.78515625 119.359375 C473.72864175 126.51871648 486.14665958 134.27123946 498.45849609 142.46533203 C501.5169523 144.48805377 504.60253595 146.46519046 507.6940918 148.43676758 C523.65771407 158.63369481 539.00843035 169.69919147 554.0625 181.1875 C555.16784548 182.02490232 556.27330972 182.86214791 557.37890625 183.69921875 C565.4778495 189.85579774 573.37136258 196.25517683 581.2421875 202.69921875 C582.83511865 204.00159379 584.4327952 205.29816032 586.03125 206.59375 C596.76592416 215.30777961 607.21744713 224.31083337 617.359375 233.70703125 C620.36006437 236.46055401 623.4268747 239.12368118 626.5390625 241.75 C628.0625 243.1875 628.0625 243.1875 630.0625 246.1875 C596.00359592 280.36074063 561.93160709 314.52088642 527.84191288 348.66341377 C523.82127132 352.69030918 519.80073872 356.71731336 515.78027344 360.74438477 C514.97983792 361.54613183 514.1794024 362.3478789 513.35471126 363.17392134 C500.37858268 376.1718321 487.41130905 389.17854273 474.44726184 402.18850214 C461.15396839 415.52848201 447.85126042 428.85901841 434.53968596 442.18075651 C426.319867 450.40745086 418.1075625 458.64150399 409.90458772 466.88499462 C404.28590044 472.53002382 398.65813078 478.16588966 393.02300146 483.79450542 C389.76756342 487.04672725 386.51640918 490.30296004 383.27593231 493.57009506 C380.31332344 496.55689875 377.33957397 499.53210354 374.35626599 502.49822848 C373.27509808 503.57727033 372.19820861 504.66061835 371.12592581 505.7484901 C369.67517694 507.2191072 368.2100911 508.67370075 366.74014664 510.12509251 C365.52124438 511.34684267 365.52124438 511.34684267 364.27771783 512.59327465 C362.0625 514.1875 362.0625 514.1875 359.90051818 514.04418367 C357.38351847 512.87103284 355.70435945 511.28516552 353.6875 509.375 C352.80835938 508.56160156 351.92921875 507.74820312 351.0234375 506.91015625 C350.54745117 506.46945801 350.07146484 506.02875977 349.58105469 505.57470703 C286.13990678 447.62091243 206.89757516 408.24697524 18.9765625 375.984375 C17.04417725 375.97385353 17.04417725 375.97385353 15.07275391 375.96311951 C10.94433075 375.94375451 6.81596401 375.93868594 2.6875 375.9375 C1.98346794 375.93705814 1.27943588 375.93661629 0.55406952 375.93616104 C-20.75797083 375.92914988 -41.78432737 376.27234866 -62.9375 379.1875 C-64.29532971 379.36682115 -65.65324289 379.54551117 -67.01123047 379.72363281 C-86.17836475 382.26462338 -105.12648815 385.68789114 -123.9375 390.1875 C-125.67652588 390.60225586 -125.67652588 390.60225586 -127.45068359 391.02539062 C-167.67248285 400.79819033 -205.93360114 415.73815688 -242.9375 434.1875 C-243.83774902 434.63561035 -244.73799805 435.0837207 -245.66552734 435.54541016 C-283.82942444 454.68764362 -319.47215271 479.15433067 -351.8125 507 C-352.40272949 507.50716553 -352.99295898 508.01433105 -353.60107422 508.53686523 C-358.49055921 512.75960227 -363.27398544 517.08872759 -368.01171875 521.48046875 C-370.4542774 523.74040619 -372.91517171 525.97785929 -375.38354492 528.20947266 C-384.39494763 536.38449211 -393.26056601 544.82494906 -401.140625 554.109375 C-403.00734551 556.26827785 -404.93625642 558.36285822 -406.87817383 560.45410156 C-412.49044693 566.50293786 -417.78027462 572.74309936 -422.9375 579.1875 C-423.85990375 580.31833957 -424.78312196 581.44851515 -425.70703125 582.578125 C-445.66209604 607.08184386 -463.45574297 633.64797343 -478.9375 661.1875 C-479.49356934 662.17476074 -480.04963867 663.16202148 -480.62255859 664.17919922 C-521.55127612 737.35268829 -546.32575139 819.65433574 -531.9609375 1090.08984375 C-531.28949644 1092.45659318 -530.61509771 1094.82250586 -529.9375 1097.1875 C-529.62200195 1098.29496582 -529.30650391 1099.40243164 -528.98144531 1100.54345703 C-521.3948926 1126.891987 -511.37410595 1152.28692692 -499.9375 1177.1875 C-499.49438477 1178.15880859 -499.05126953 1179.13011719 -498.59472656 1180.13085938 C-492.2234784 1194.02753361 -485.12953296 1207.39104947 -477.43945312 1220.60107422 C-476.09583928 1222.91483316 -474.77080546 1225.23782118 -473.453125 1227.56640625 C-459.57378456 1251.89583489 -443.19376082 1274.92485914 -425.33886719 1296.48193359 C-423.43986308 1298.79316055 -421.59591531 1301.14627264 -419.75 1303.5 C-416.1967558 1307.96029599 -412.39791453 1312.16542105 -408.52734375 1316.3515625 C-406.51933609 1318.55037632 -404.55102403 1320.76900493 -402.59765625 1323.015625 C-392.25822092 1334.86518959 -381.30625531 1346.03068471 -369.671875 1356.60595703 C-368.01040625 1358.1210182 -366.3624196 1359.64926479 -364.71875 1361.18359375 C-359.28673635 1366.24194022 -353.74234183 1371.10638969 -347.95703125 1375.7578125 C-345.7308284 1377.54914261 -343.52261884 1379.35488303 -341.32421875 1381.1796875 C-270.29854564 1439.93152401 -182.83980171 1479.53705353 -70.9375 1499 C-70.22145599 1499.09927795 -69.50541199 1499.19855591 -68.76766968 1499.30084229 C-45.15791907 1502.53005567 -21.56343962 1503.57125551 2.25 1503.5 C3.55676697 1503.49784485 4.86353394 1503.4956897 6.2098999 1503.49346924 C94.76605477 1503.29621021 182.17083001 1484.89063256 335.38378906 1400.48535156 C337.97115082 1398.48500033 340.61498099 1396.56191007 343.25 1394.625 C352.4328944 1387.73471425 361.07181441 1380.18618632 369.55078125 1372.453125 C370.94992985 1371.1910625 372.35556663 1369.93576595 373.78491211 1368.70800781 C379.43025276 1363.85237856 384.73799585 1358.70398712 390 1353.4375 C390.8859082 1352.55151123 391.77181641 1351.66552246 392.68457031 1350.75268555 C397.86035537 1345.53142328 402.75811541 1340.28857897 407.26953125 1334.48046875 C409.08667331 1332.15658555 411.01041151 1329.98971176 413 1327.8125 C427.58505016 1311.53017576 439.75117501 1292.83229698 451.0625 1274.1875 C451.54686523 1273.38924805 452.03123047 1272.59099609 452.53027344 1271.76855469 C466.56686377 1248.41174338 477.90764916 1223.83490407 487.0625 1198.1875 C487.41505859 1197.21603027 487.76761719 1196.24456055 488.13085938 1195.24365234 C495.52582909 1174.72712052 500.78870844 1153.55645779 505.0625 1132.1875 C338.7425 1132.1875 172.4225 1132.1875 1.0625 1132.1875 C1.0625 1012.0675 1.0625 891.9475 1.0625 768.1875 C293.1125 768.1875 585.1625 768.1875 886.0625 768.1875 C893.07770516 811.44793179 893.07770516 811.44793179 894.75 825.4375 C894.8492276 826.24960937 894.9484552 827.06171875 895.0506897 827.8984375 C897.09288881 844.63019192 898.76303208 861.38202167 900.0625 878.1875 C900.16159668 879.46898926 900.26069336 880.75047852 900.36279297 882.07080078 C902.70249984 913.34711839 903.53210687 944.82870305 903.0625 976.1875 C903.03567139 978.03553223 903.03567139 978.03553223 903.00830078 979.92089844 C901.58782611 1064.38211504 890.94089701 1148.3205835 870.0625 1230.1875 C869.86825439 1230.94963806 869.67400879 1231.71177612 869.47387695 1232.49700928 C859.13167266 1272.87189174 846.02115433 1312.68593394 830.0625 1351.1875 C829.79520081 1351.8332196 829.52790161 1352.47893921 829.25250244 1353.14422607 C816.47246403 1383.93573238 802.219764 1414.02571794 786.0625 1443.1875 C785.50997559 1444.19312988 784.95745117 1445.19875977 784.38818359 1446.23486328 C759.85340237 1490.83351243 730.59245172 1533.05834283 698.0625 1572.1875 C697.57410645 1572.77499023 697.08571289 1573.36248047 696.58251953 1573.96777344 C691.21135218 1580.40884413 685.73151252 1586.73848535 680.08984375 1592.9453125 C678.32282801 1594.89958424 676.59336471 1596.87809737 674.875 1598.875 C664.79021866 1610.41681102 654.05211093 1621.36266558 643.20117188 1632.17919922 C641.16417579 1634.210762 639.13268049 1636.24771836 637.1015625 1638.28515625 C635.77896683 1639.60709207 634.45606151 1640.92871817 633.1328125 1642.25 C632.53993439 1642.84490234 631.94705627 1643.43980469 631.33621216 1644.05273438 C627.63580777 1647.73284784 623.81161619 1651.22156998 619.85881042 1654.62930298 C617.26422914 1656.87995452 614.76332618 1659.22141575 612.25 1661.5625 C607.60211458 1665.8562538 602.81833652 1669.9228184 597.88671875 1673.890625 C595.40009861 1675.91293847 592.95942001 1677.97940937 590.5300293 1680.06982422 C583.00439731 1686.53289189 575.17038495 1692.54425275 567.25634766 1698.52148438 C565.08119503 1700.17330293 562.91957033 1701.84128564 560.76171875 1703.515625 C552.11809905 1710.21304507 543.34081854 1716.61784271 534.26123047 1722.71142578 C531.87945781 1724.31038175 529.50439054 1725.91906242 527.12890625 1727.52734375 C450.16462092 1779.43971442 364.81928042 1818.5943326 255.0625 1848.1875 C253.78906738 1848.51443848 252.51563477 1848.84137695 251.20361328 1849.17822266 C195.17052712 1863.46058123 137.81360147 1871.70674182 80.1875 1875.9375 C79.38083893 1875.99675659 78.57417786 1876.05601318 77.74307251 1876.11706543 C72.18528469 1876.51799023 66.62556307 1876.86849628 61.0625 1877.1875 C59.82498489 1877.2600853 59.82498489 1877.2600853 58.56246948 1877.33413696 C40.00979677 1878.38579381 21.45063315 1878.38892162 2.875 1878.375 C2.07658062 1878.37473312 1.27816124 1878.37446625 0.45554733 1878.37419128 C-45.10880166 1878.35508264 -45.10880166 1878.35508264 -67.82409668 1876.37109375 C-70.10130288 1876.17327026 -72.37918324 1875.98480235 -74.65722656 1875.796875 C-147.83185836 1869.68295588 -219.97801109 1855.78321284 -289.79644775 1832.88879395 C-291.88029438 1832.2062375 -293.96602239 1831.52974304 -296.05224609 1830.85449219 C-356.44777613 1811.23707161 -415.55763181 1784.45865506 -470.08203125 1751.88720703 C-472.95210395 1750.17880705 -475.83333753 1748.49093759 -478.71875 1746.80859375 C-489.99263366 1740.22411252 -501.05232088 1733.3952169 -511.9375 1726.1875 C-513.19907558 1725.35915691 -514.46079217 1724.53102854 -515.72265625 1723.703125 C-541.49522753 1706.72748328 -566.2450682 1688.2204845 -590.1171875 1668.67578125 C-591.71011865 1667.37340621 -593.3077952 1666.07683968 -594.90625 1664.78125 C-605.56617011 1656.12790309 -615.9662897 1647.20252975 -626.0234375 1637.85546875 C-628.26818608 1635.80029009 -630.53265365 1633.78629458 -632.828125 1631.7890625 C-644.88717512 1621.27040199 -656.24008389 1609.98585295 -667.5625 1598.6875 C-668.12507507 1598.12751312 -668.68765015 1597.56752625 -669.26727295 1596.99057007 C-674.81080293 1591.46717887 -680.300005 1585.94009998 -685.38525391 1579.98486328 C-688.09067499 1576.85222565 -690.96562223 1573.87852798 -693.8125 1570.875 C-698.70599848 1565.67646569 -703.3486012 1560.36759647 -707.8046875 1554.78515625 C-710.04879275 1552.05195114 -712.40617753 1549.46613407 -714.8125 1546.875 C-718.99662338 1542.32339583 -722.84739634 1537.60494251 -726.62719727 1532.72021484 C-729.56921846 1528.91927284 -732.57023962 1525.17822773 -735.62792969 1521.46972656 C-743.4427576 1511.9799566 -750.74647075 1502.15547465 -757.9375 1492.1875 C-758.66090576 1491.19024902 -758.66090576 1491.19024902 -759.39892578 1490.17285156 C-784.6616941 1455.27303566 -807.27616953 1418.51076975 -827.65478516 1380.56933594 C-828.78509197 1378.47050205 -829.92646272 1376.37838428 -831.07421875 1374.2890625 C-837.16259652 1363.15037537 -842.59192708 1351.69730428 -847.9375 1340.1875 C-848.25801331 1339.49875793 -848.57852661 1338.81001587 -848.90875244 1338.10040283 C-886.63576672 1256.94243313 -913.84264672 1171.50321559 -935.74609375 1012.50592041 C-935.9244888 1010.34509903 -936.1099826 1008.18500212 -936.296875 1006.02490234 C-940.00061863 961.43116762 -939.97819714 914.89876779 -936.12109375 870.31842041 C-935.92367542 868.02704199 -935.73508623 865.73502329 -935.546875 863.44287109 C-928.12554497 774.26438881 -908.43165991 686.35828571 -810.62402344 468.02099609 C-808.9550029 465.2169063 -807.30648484 462.40176954 -805.6640625 459.58203125 C-795.20743586 441.66337651 -784.21464844 424.09741088 -772.28955078 407.11621094 C-770.90251393 405.1375921 -769.52698906 403.15130592 -768.15234375 401.1640625 C-760.65493488 390.37762389 -752.7436411 379.92752822 -744.73095703 369.52001953 C-743.19857308 367.52704427 -741.67296434 365.52929552 -740.15234375 363.52734375 C-727.75976584 347.26586347 -714.68076439 331.54658025 -700.94140625 316.40625 C-699.12438018 314.39441607 -697.33805608 312.36089566 -695.5625 310.3125 C-689.16051229 302.97254665 -682.61390851 295.74911412 -675.65258789 288.93505859 C-673.93883257 287.1888578 -672.35027175 285.37988899 -670.76171875 283.51953125 C-666.856784 279.03220043 -662.71625222 274.81848218 -658.5 270.625 C-657.78779297 269.90892578 -657.07558594 269.19285156 -656.34179688 268.45507812 C-652.24803447 264.36875217 -648.04857944 260.47565305 -643.66772461 256.69946289 C-641.66283353 254.94748173 -639.78655277 253.10259037 -637.9375 251.1875 C-634.80904036 248.01660002 -631.56894648 245.0618004 -628.19140625 242.16015625 C-625.97795963 240.22291094 -623.81563509 238.23665068 -621.65966797 236.23583984 C-616.52772799 231.47618186 -611.28498471 226.93965556 -605.828125 222.55078125 C-603.19051176 220.39435421 -600.61506696 218.18561096 -598.04736328 215.94750977 C-591.03227432 209.84163793 -583.77395271 204.13992569 -576.3515625 198.5390625 C-573.38155381 196.29608033 -570.4418485 194.02064766 -567.5234375 191.7109375 C-558.43386115 184.52304213 -549.16251247 177.77117307 -539.53515625 171.3203125 C-536.14721677 169.04138807 -532.84139164 166.67115857 -529.55078125 164.25390625 C-524.16892242 160.3175358 -518.65877886 156.62315988 -513.0625 153 C-512.06710205 152.35417969 -511.0717041 151.70835937 -510.04614258 151.04296875 C-442.79184866 107.56027812 -370.89730101 72.54671926 -294.9375 47.1875 C-294.24690491 46.95651611 -293.55630981 46.72553223 -292.8447876 46.48754883 C-223.28592257 23.28845746 -150.90276394 9.03284807 -77.875 2.9375 C-76.88032715 2.85432526 -75.8856543 2.77115051 -74.86083984 2.68545532 C-49.88962195 0.62497767 -25.04610102 -0.0192969 0 0 Z " fill="#34A853" transform="translate(1022.9375,84.8125)"/>
<path d="M0 0 C0.77602695 0.00026688 1.55205391 0.00053375 2.35159683 0.00080872 C25.5346246 0.0108112 48.66446558 0.13692773 71.78582764 2.00390625 C74.22288492 2.20043364 76.66048115 2.38927277 79.09814453 2.578125 C129.31961245 6.52809865 179.09127821 14.35690482 228.0625 26.1875 C229.28855957 26.48205078 230.51461914 26.77660156 231.77783203 27.08007812 C308.53246572 45.70798818 383.90626368 74.99222742 452.30029297 114.60351562 C455.1137664 116.21689866 457.9453801 117.79280129 460.78515625 119.359375 C473.72864175 126.51871648 486.14665958 134.27123946 498.45849609 142.46533203 C501.5169523 144.48805377 504.60253595 146.46519046 507.6940918 148.43676758 C523.65771407 158.63369481 539.00843035 169.69919147 554.0625 181.1875 C555.16784548 182.02490232 556.27330972 182.86214791 557.37890625 183.69921875 C565.4778495 189.85579774 573.37136258 196.25517683 581.2421875 202.69921875 C582.83511865 204.00159379 584.4327952 205.29816032 586.03125 206.59375 C596.76592416 215.30777961 607.21744713 224.31083337 617.359375 233.70703125 C620.36006437 236.46055401 623.4268747 239.12368118 626.5390625 241.75 C628.0625 243.1875 628.0625 243.1875 630.0625 246.1875 C596.00359592 280.36074063 561.93160709 314.52088642 527.84191288 348.66341377 C523.82127132 352.69030918 519.80073872 356.71731336 515.78027344 360.74438477 C514.97983792 361.54613183 514.1794024 362.3478789 513.35471126 363.17392134 C500.37858268 376.1718321 487.41130905 389.17854273 474.44726184 402.18850214 C461.15396839 415.52848201 447.85126042 428.85901841 434.53968596 442.18075651 C426.319867 450.40745086 418.1075625 458.64150399 409.90458772 466.88499462 C404.28590044 472.53002382 398.65813078 478.16588966 393.02300146 483.79450542 C389.76756342 487.04672725 386.51640918 490.30296004 383.27593231 493.57009506 C380.31332344 496.55689875 377.33957397 499.53210354 374.35626599 502.49822848 C373.27509808 503.57727033 372.19820861 504.66061835 371.12592581 505.7484901 C369.67517694 507.2191072 368.2100911 508.67370075 366.74014664 510.12509251 C365.52124438 511.34684267 365.52124438 511.34684267 364.27771783 512.59327465 C362.0625 514.1875 362.0625 514.1875 359.90051818 514.04418367 C357.38351847 512.87103284 355.70435945 511.28516552 353.6875 509.375 C352.80835938 508.56160156 351.92921875 507.74820312 351.0234375 506.91015625 C350.54745117 506.46945801 350.07146484 506.02875977 349.58105469 505.57470703 C286.13990678 447.62091243 206.89757516 408.24697524 18.9765625 375.984375 C17.04417725 375.97385353 17.04417725 375.97385353 15.07275391 375.96311951 C10.94433075 375.94375451 6.81596401 375.93868594 2.6875 375.9375 C1.98346794 375.93705814 1.27943588 375.93661629 0.55406952 375.93616104 C-20.75797083 375.92914988 -41.78432737 376.27234866 -62.9375 379.1875 C-64.29532971 379.36682115 -65.65324289 379.54551117 -67.01123047 379.72363281 C-86.17836475 382.26462338 -105.12648815 385.68789114 -123.9375 390.1875 C-125.67652588 390.60225586 -125.67652588 390.60225586 -127.45068359 391.02539062 C-167.67248285 400.79819033 -205.93360114 415.73815688 -242.9375 434.1875 C-243.83774902 434.63561035 -244.73799805 435.0837207 -245.66552734 435.54541016 C-283.82942444 454.68764362 -319.47215271 479.15433067 -351.8125 507 C-352.40272949 507.50716553 -352.99295898 508.01433105 -353.60107422 508.53686523 C-358.49055921 512.75960227 -363.27398544 517.08872759 -368.01171875 521.48046875 C-370.4542774 523.74040619 -372.91517171 525.97785929 -375.38354492 528.20947266 C-384.39494763 536.38449211 -393.26056601 544.82494906 -401.140625 554.109375 C-403.00734551 556.26827785 -404.93625642 558.36285822 -406.87817383 560.45410156 C-412.49044693 566.50293786 -417.78027462 572.74309936 -422.9375 579.1875 C-423.85990375 580.31833957 -424.78312196 581.44851515 -425.70703125 582.578125 C-445.66209604 607.08184386 -463.45574297 633.64797343 -478.9375 661.1875 C-479.49356934 662.17476074 -480.04963867 663.16202148 -480.62255859 664.17919922 C-521.55127612 737.35268829 -546.32575139 819.65433574 -531.87109375 1090.44921875 C-529.73749556 1097.98452031 -527.42340063 1105.45424928 -524.96875 1112.890625 C-523.9375 1116.1875 -523.9375 1116.1875 -523.9375 1118.1875 C-525.86414556 1119.68669043 -527.79572196 1121.06808951 -529.8125 1122.4375 C-535.59355035 1126.46160108 -541.20679974 1130.65437135 -546.75 1135 C-548.28122796 1136.19924689 -549.8124781 1137.39846546 -551.34375 1138.59765625 C-552.10429688 1139.19336426 -552.86484375 1139.78907227 -553.6484375 1140.40283203 C-557.32971031 1143.272937 -561.03867628 1146.10642345 -564.75 1148.9375 C-566.15755431 1150.01171583 -567.56510644 1151.08593452 -568.97265625 1152.16015625 C-569.64184082 1152.67078613 -570.31102539 1153.18141602 -571.00048828 1153.70751953 C-574.95749082 1156.73088094 -578.90217076 1159.77022853 -582.84765625 1162.80859375 C-584.89597742 1164.38561979 -586.94544455 1165.96115859 -588.99609375 1167.53515625 C-597.56136654 1174.11148929 -606.08669536 1180.73850784 -614.60693359 1187.37304688 C-618.38267268 1190.31263339 -622.16017744 1193.24994872 -625.9375 1196.1875 C-627.04629517 1197.05000366 -627.04629517 1197.05000366 -628.17749023 1197.92993164 C-631.97685898 1200.88536359 -635.77690318 1203.83992048 -639.578125 1206.79296875 C-646.37679385 1212.07571819 -653.17215398 1217.36211212 -659.9375 1222.6875 C-670.47204716 1230.97904918 -681.05045462 1239.21532282 -691.6875 1247.375 C-696.60724834 1251.15233487 -701.4926051 1254.9704314 -706.36523438 1258.80810547 C-711.12617493 1262.55572015 -715.90373114 1266.28157827 -720.6875 1270 C-721.44216553 1270.586604 -722.19683105 1271.17320801 -722.97436523 1271.77758789 C-726.07242824 1274.18515236 -729.17099 1276.59207452 -732.26953125 1278.99902344 C-739.83823138 1284.87907661 -747.40638886 1290.75933494 -754.9375 1296.6875 C-765.47204716 1304.97904918 -776.05045462 1313.21532282 -786.6875 1321.375 C-791.02146938 1324.70257949 -795.3321511 1328.05723202 -799.625 1331.4375 C-811.96357201 1341.15102948 -824.32087315 1350.83635304 -836.9375 1360.1875 C-839.49784437 1357.01412892 -841.26960595 1353.73111368 -843.0546875 1350.0703125 C-843.34788376 1349.47014816 -843.64108002 1348.86998383 -843.94316101 1348.25163269 C-844.90557518 1346.27474996 -845.85999525 1344.29417503 -846.8125 1342.3125 C-847.14385956 1341.62489594 -847.47521912 1340.93729187 -847.81661987 1340.22885132 C-884.9945858 1262.93257244 -911.19129854 1180.17121976 -935.74609375 1012.50592041 C-935.9244888 1010.34509903 -936.1099826 1008.18500212 -936.296875 1006.02490234 C-940.00061863 961.43116762 -939.97819714 914.89876779 -936.12109375 870.31842041 C-935.92367542 868.02704199 -935.73508623 865.73502329 -935.546875 863.44287109 C-928.12554497 774.26438881 -908.43165991 686.35828571 -810.62402344 468.02099609 C-808.9550029 465.2169063 -807.30648484 462.40176954 -805.6640625 459.58203125 C-795.20743586 441.66337651 -784.21464844 424.09741088 -772.28955078 407.11621094 C-770.90251393 405.1375921 -769.52698906 403.15130592 -768.15234375 401.1640625 C-760.65493488 390.37762389 -752.7436411 379.92752822 -744.73095703 369.52001953 C-743.19857308 367.52704427 -741.67296434 365.52929552 -740.15234375 363.52734375 C-727.75976584 347.26586347 -714.68076439 331.54658025 -700.94140625 316.40625 C-699.12438018 314.39441607 -697.33805608 312.36089566 -695.5625 310.3125 C-689.16051229 302.97254665 -682.61390851 295.74911412 -675.65258789 288.93505859 C-673.93883257 287.1888578 -672.35027175 285.37988899 -670.76171875 283.51953125 C-666.856784 279.03220043 -662.71625222 274.81848218 -658.5 270.625 C-657.78779297 269.90892578 -657.07558594 269.19285156 -656.34179688 268.45507812 C-652.24803447 264.36875217 -648.04857944 260.47565305 -643.66772461 256.69946289 C-641.66283353 254.94748173 -639.78655277 253.10259037 -637.9375 251.1875 C-634.80904036 248.01660002 -631.56894648 245.0618004 -628.19140625 242.16015625 C-625.97795963 240.22291094 -623.81563509 238.23665068 -621.65966797 236.23583984 C-616.52772799 231.47618186 -611.28498471 226.93965556 -605.828125 222.55078125 C-603.19051176 220.39435421 -600.61506696 218.18561096 -598.04736328 215.94750977 C-591.03227432 209.84163793 -583.77395271 204.13992569 -576.3515625 198.5390625 C-573.38155381 196.29608033 -570.4418485 194.02064766 -567.5234375 191.7109375 C-558.43386115 184.52304213 -549.16251247 177.77117307 -539.53515625 171.3203125 C-536.14721677 169.04138807 -532.84139164 166.67115857 -529.55078125 164.25390625 C-524.16892242 160.3175358 -518.65877886 156.62315988 -513.0625 153 C-512.06710205 152.35417969 -511.0717041 151.70835937 -510.04614258 151.04296875 C-442.79184866 107.56027812 -370.89730101 72.54671926 -294.9375 47.1875 C-294.24690491 46.95651611 -293.55630981 46.72553223 -292.8447876 46.48754883 C-223.28592257 23.28845746 -150.90276394 9.03284807 -77.875 2.9375 C-76.88032715 2.85432526 -75.8856543 2.77115051 -74.86083984 2.68545532 C-49.88962195 0.62497767 -25.04610102 -0.0192969 0 0 Z " fill="#EA4334" transform="translate(1022.9375,84.8125)"/>
<path d="M0 0 C292.05 0 584.1 0 885 0 C892.01520516 43.26043179 892.01520516 43.26043179 893.6875 57.25 C893.7867276 58.06210937 893.8859552 58.87421875 893.9881897 59.7109375 C896.03038881 76.44269192 897.70053208 93.19452167 899 110 C899.14864502 111.92223389 899.14864502 111.92223389 899.30029297 113.88330078 C901.63999984 145.15961839 902.46960687 176.64120305 902 208 C901.98211426 209.23202148 901.96422852 210.46404297 901.94580078 211.73339844 C900.52532611 296.19461504 889.87839701 380.1330835 869 462 C868.80575439 462.76213806 868.61150879 463.52427612 868.41137695 464.30950928 C858.06917266 504.68439174 844.95865433 544.49843394 829 583 C828.73270081 583.6457196 828.46540161 584.29143921 828.19000244 584.95672607 C815.40996403 615.74823238 801.157264 645.83821794 785 675 C784.44747559 676.00562988 783.89495117 677.01125977 783.32568359 678.04736328 C758.79090237 722.64601243 729.52995172 764.87084283 697 804 C696.51160645 804.58749023 696.02321289 805.17498047 695.52001953 805.78027344 C690.14885218 812.22134413 684.66901252 818.55098535 679.02734375 824.7578125 C677.26032801 826.71208424 675.53086471 828.69059737 673.8125 830.6875 C663.65299452 842.31547951 652.83411622 853.35250159 641.91894531 864.26635742 C639.83631697 866.35122461 637.7618955 868.44405401 635.6875 870.53710938 C634.3520494 871.87548601 633.0161302 873.21339528 631.6796875 874.55078125 C631.06616425 875.17149002 630.45264099 875.79219879 629.82052612 876.43171692 C629.24537262 877.00379379 628.67021912 877.57587067 628.07763672 878.1652832 C627.57803436 878.66631058 627.07843201 879.16733795 626.56369019 879.68354797 C624.82326344 881.14879239 623.06461364 882.06020048 621 883 C620.19820312 882.36835937 619.39640625 881.73671875 618.5703125 881.0859375 C605.56770753 870.85141587 592.51107309 860.68729828 579.38671875 850.609375 C573.01278359 845.70605374 566.67553266 840.7551514 560.33056641 835.81445312 C556.55482736 832.87486664 552.77736693 829.93749416 549 827 C544.44050616 823.45427972 539.8814516 819.90800104 535.32421875 816.359375 C528.72798614 811.22405297 522.13031163 806.0912807 515.5 801 C506.5147248 794.10039094 497.58557012 787.12848881 488.64746094 780.16796875 C477.59301287 771.55907251 477.59301287 771.55907251 466.5 763 C459.08386871 757.30530446 451.70801416 751.55912408 444.33056641 745.81445312 C440.55482736 742.87486664 436.77736693 739.93749416 433 737 C428.44050616 733.45427972 423.8814516 729.90800104 419.32421875 726.359375 C412.72798614 721.22405297 406.13031163 716.0912807 399.5 711 C394.4231713 707.10160707 389.36420054 703.18089658 384.3125 699.25 C383.17083374 698.36163452 383.17083374 698.36163452 382.00610352 697.45532227 C378.15127059 694.45487145 374.29779123 691.45269151 370.4453125 688.44921875 C362.37096569 682.15753128 354.27062467 675.90304426 346.13061523 669.6965332 C340.41839674 665.33490134 334.75955662 660.90847348 329.1171875 656.45703125 C325.09317905 653.28522509 321.04962616 650.13899594 317 647 C318.10630174 643.68109479 318.59340863 643.30958152 321.359375 641.43359375 C322.40496582 640.71320923 322.40496582 640.71320923 323.47167969 639.97827148 C324.59944824 639.2155896 324.59944824 639.2155896 325.75 638.4375 C327.31391584 637.3562116 328.87640302 636.27285413 330.4375 635.1875 C331.60152344 634.37925781 331.60152344 634.37925781 332.7890625 633.5546875 C345.38697857 624.69608221 357.11885758 614.63486598 368.48828125 604.265625 C369.88742985 603.0035625 371.29306663 601.74826595 372.72241211 600.52050781 C378.36775276 595.66487856 383.67549585 590.51648712 388.9375 585.25 C389.8234082 584.36401123 390.70931641 583.47802246 391.62207031 582.56518555 C396.79785537 577.34392328 401.69561541 572.10107897 406.20703125 566.29296875 C408.02417331 563.96908555 409.94791151 561.80221176 411.9375 559.625 C426.52255016 543.34267576 438.68867501 524.64479698 450 506 C450.48436523 505.20174805 450.96873047 504.40349609 451.46777344 503.58105469 C465.50436377 480.22424338 476.84514916 455.64740407 486 430 C486.35255859 429.02853027 486.70511719 428.05706055 487.06835938 427.05615234 C494.46332909 406.53962052 499.72620844 385.36895779 504 364 C337.68 364 171.36 364 0 364 C0 243.88 0 123.76 0 0 Z " fill="#4185F3" transform="translate(1024,853)"/>
<path d="M0 0 C3.15196718 1.83671115 6.1013275 3.74985722 8.96875 6.00390625 C9.69771484 6.57431641 10.42667969 7.14472656 11.17773438 7.73242188 C11.94408203 8.33634766 12.71042969 8.94027344 13.5 9.5625 C15.12477918 10.83491743 16.74978023 12.10705161 18.375 13.37890625 C19.56416016 14.31114014 19.56416016 14.31114014 20.77734375 15.26220703 C23.67195381 17.52536986 26.5839074 19.76457697 29.5 22 C38.4852752 28.89960906 47.41442988 35.87151119 56.35253906 42.83203125 C67.40698713 51.44092749 67.40698713 51.44092749 78.5 60 C85.91613129 65.69469554 93.29198584 71.44087592 100.66943359 77.18554688 C105.19367109 80.70787382 109.72015662 84.22731152 114.24658203 87.74682617 C118.01107646 90.67417613 121.77434918 93.60307017 125.53515625 96.53515625 C132.91489169 102.28616722 140.31011911 108.0144433 147.75 113.6875 C153.40852314 118.00275355 159.03205538 122.35780386 164.61987305 126.76416016 C175.55540966 135.38626058 186.56827809 143.90939296 197.61328125 152.390625 C203.98721641 157.29394626 210.32446734 162.2448486 216.66943359 167.18554688 C220.44517264 170.12513336 224.22263307 173.06250584 228 176 C232.55949384 179.54572028 237.1185484 183.09199896 241.67578125 186.640625 C248.27201386 191.77594703 254.86968837 196.9087193 261.5 202 C268.904522 207.68578101 276.26855045 213.42328309 283.63427734 219.15917969 C286.02165853 221.01685297 288.41093526 222.87206146 290.80078125 224.7265625 C291.58815674 225.33790039 292.37553223 225.94923828 293.18676758 226.57910156 C294.66925167 227.73004119 296.15212632 228.88047804 297.63549805 230.03027344 C303.13305557 234.30049625 308.57291594 238.64065404 314 243 C313.67837891 244.0837793 313.35675781 245.16755859 313.02539062 246.28417969 C296.20675562 303.15736364 284.78657508 360.06650634 284.75 419.625 C284.74932526 420.62389252 284.74865051 421.62278503 284.74795532 422.65194702 C284.80991289 481.04087611 294.66668968 539.25694649 312.96875 594.703125 C314 598 314 598 314 600 C312.07335444 601.49919043 310.14177804 602.88058951 308.125 604.25 C302.34394965 608.27410108 296.73070026 612.46687135 291.1875 616.8125 C289.65627204 618.01174689 288.1250219 619.21096546 286.59375 620.41015625 C285.83320313 621.00586426 285.07265625 621.60157227 284.2890625 622.21533203 C280.60778969 625.085437 276.89882372 627.91892345 273.1875 630.75 C271.77994569 631.82421583 270.37239356 632.89843452 268.96484375 633.97265625 C268.29565918 634.48328613 267.62647461 634.99391602 266.93701172 635.52001953 C262.98000918 638.54338094 259.03532924 641.58272853 255.08984375 644.62109375 C253.04152258 646.19811979 250.99205545 647.77365859 248.94140625 649.34765625 C240.37613346 655.92398929 231.85080464 662.55100784 223.33056641 669.18554688 C219.55482732 672.12513339 215.77732256 675.06244872 212 678 C210.89120483 678.86250366 210.89120483 678.86250366 209.76000977 679.74243164 C205.96064102 682.69786359 202.16059682 685.65242048 198.359375 688.60546875 C191.56070615 693.88821819 184.76534602 699.17461212 178 704.5 C167.46545284 712.79154918 156.88704538 721.02782282 146.25 729.1875 C141.33025166 732.96483487 136.4448949 736.7829314 131.57226562 740.62060547 C126.81132507 744.36822015 122.03376886 748.09407827 117.25 751.8125 C116.11800171 752.69240601 116.11800171 752.69240601 114.96313477 753.59008789 C111.86507176 755.99765236 108.76651 758.40457452 105.66796875 760.81152344 C98.09926862 766.69157661 90.53111114 772.57183494 83 778.5 C72.46545284 786.79154918 61.88704538 795.02782282 51.25 803.1875 C46.91603062 806.51507949 42.6053489 809.86973202 38.3125 813.25 C25.97392799 822.96352948 13.61662685 832.64885304 1 842 C-1.56034437 838.82662892 -3.33210595 835.54361368 -5.1171875 831.8828125 C-5.41038376 831.28264816 -5.70358002 830.68248383 -6.00566101 830.06413269 C-6.96807518 828.08724996 -7.92249525 826.10667503 -8.875 824.125 C-9.20635956 823.43739594 -9.53771912 822.74979187 -9.87911987 822.04135132 C-47.0570858 744.74507244 -73.25379854 661.98371976 -97.80859375 494.31842041 C-97.9869888 492.15759903 -98.1724826 489.99750212 -98.359375 487.83740234 C-102.06311863 443.24366762 -102.04069714 396.71126779 -98.18359375 352.13092041 C-97.98617542 349.83954199 -97.79758623 347.54752329 -97.609375 345.25537109 C-90.18804497 256.07688881 -70.49415991 168.17078571 0 0 Z " fill="#FABB05" transform="translate(185,603)"/>
</svg>
