<?xml version="1.0" encoding="UTF-8"?>
<svg version="1.1" xmlns="http://www.w3.org/2000/svg" width="900" height="900">
<path d="M0 0 C297 0 594 0 900 0 C900 297 900 594 900 900 C603 900 306 900 0 900 C0 603 0 306 0 0 Z " fill="#FEFEFE" transform="translate(0,0)"/>
<path d="M0 0 C10.75474274 8.7864219 17.0743894 21.8254913 19.60546875 35.28515625 C19.84547109 37.0223255 19.84547109 37.0223255 21 38 C22.34732007 52.29864737 21.23758739 65.64719727 16 79 C15.7009375 79.79019531 15.401875 80.58039063 15.09375 81.39453125 C8.99514077 95.25757352 -2.36191782 105.01838501 -16 111 C-25.32518975 113.79147579 -39.13666749 113.7045125 -47.84375 109.3203125 C-48.5553125 108.88460937 -49.266875 108.44890625 -50 108 C-50.8353125 107.50242187 -51.670625 107.00484375 -52.53125 106.4921875 C-67.0147371 97.11282085 -75.56620725 82.460204 -79.62207031 65.9453125 C-80.52235951 61.31126578 -80.39896722 56.68121535 -80 52 C-121.22172351 60.33199235 -121.22172351 60.33199235 -153.0625 85.875 C-154.69595092 91.31983641 -155.25082991 96.95271067 -153.05078125 102.3125 C-142.61959955 119.68683418 -121.40441154 127.10006067 -102.765625 131.81884766 C-99.22590226 132.66523781 -95.6794353 133.46777307 -92.125 134.25 C-90.47975342 134.61919556 -90.47975342 134.61919556 -88.80126953 134.99584961 C-71.7530773 138.58879395 -54.70529534 139.31475448 -37.33227539 139.20581055 C-34.27677216 139.18728336 -31.22156985 139.1853037 -28.16601562 139.18554688 C-26.19010158 139.1806386 -24.21418954 139.17481333 -22.23828125 139.16796875 C-21.34128006 139.16685593 -20.44427887 139.1657431 -19.52009583 139.16459656 C-14.61019345 139.12799064 -9.822304 138.8477994 -4.95098877 138.22238159 C-2.10854757 137.89838865 0.70458017 137.90465035 3.5625 137.9375 C4.59503906 137.94652344 5.62757813 137.95554687 6.69140625 137.96484375 C7.83416016 137.98224609 7.83416016 137.98224609 9 138 C19 156.5 19 156.5 19 166 C19.66 166 20.32 166 21 166 C25.10684229 185.97196519 26.05375014 203.87786542 15 222 C7.14048649 233.00331892 -3.87110764 238.69406557 -17 241 C-30.02548017 241.76375417 -43.51621151 242.19362102 -56 238 C-56.71542969 237.7834375 -57.43085938 237.566875 -58.16796875 237.34375 C-59.58840411 236.89603304 -60.9999574 236.41936641 -62.40234375 235.91796875 C-64.46306189 235.18974505 -66.54322998 234.51659857 -68.62890625 233.86328125 C-84.83529062 228.66723766 -99.59397148 220.46426677 -113 210 C-114.41925781 208.97519531 -114.41925781 208.97519531 -115.8671875 207.9296875 C-123.81264443 202.17181092 -130.94816335 195.79540622 -138 189 C-138.52658203 188.49533203 -139.05316406 187.99066406 -139.59570312 187.47070312 C-164.02523976 163.9493277 -164.02523976 163.9493277 -169 150 C-169.66 150 -170.32 150 -171 150 C-173.69135595 144.67876577 -176.35842677 139.34612757 -179 134 C-179.31404785 133.36610352 -179.6280957 132.73220703 -179.95166016 132.07910156 C-180.79180342 130.37085685 -181.61509133 128.65435313 -182.4375 126.9375 C-182.91058594 125.95652344 -183.38367188 124.97554687 -183.87109375 123.96484375 C-185.13626469 120.64212836 -185.61708696 117.52544074 -186 114 C-186.66 114 -187.32 114 -188 114 C-190.87826533 104.73130034 -191.3282271 95.7686633 -191.375 86.125 C-191.38853516 84.96057373 -191.40207031 83.79614746 -191.41601562 82.59643555 C-191.38174572 75.96568471 -190.77775885 71.02621191 -188 65 C-187.58621094 63.98035156 -187.17242187 62.96070313 -186.74609375 61.91015625 C-181.93035667 51.43053734 -174.65686992 44.37451772 -164 40 C-163.24106445 39.66411865 -162.48212891 39.3282373 -161.70019531 38.98217773 C-153.98439609 35.82123175 -146.97225209 35.30201363 -138.6875 35.375 C-137.36951416 35.384104 -136.05152832 35.39320801 -134.69360352 35.40258789 C-114.88633586 35.75972309 -97.75637624 42.77813324 -80 51 C-80.01885254 50.2980249 -80.03770508 49.5960498 -80.05712891 48.87280273 C-80.30980412 32.51416504 -75.08933604 17.06043871 -64.4609375 4.45703125 C-45.47145387 -14.50231034 -21.45777289 -16.32128052 0 0 Z " fill="#21B1E2" transform="translate(246,318)"/>
<path d="M0 0 C0.33 0.33 0.66 0.66 1 1 C2.59333113 0.74329665 4.1759354 0.41876018 5.75 0.0625 C9.4158064 -0.76614785 12.13916129 -1 16 -1 C16 11.54 16 24.08 16 37 C10.39 37 4.78 37 -1 37 C-2.485 37.495 -2.485 37.495 -4 38 C-12.2433742 38.68257239 -18.56821452 37.80379217 -25.25 32.625 C-28.70646827 29.32564393 -30.70655217 26.75613739 -31.50390625 21.984375 C-31.64767356 14.04841953 -30.53373196 8.86372515 -25 3 C-18.12623891 -2.91143454 -8.41488483 -1.61136092 0 0 Z " fill="#F2FCFD" transform="translate(403,526)"/>
<path d="M0 0 C1.0725 0.556875 2.145 1.11375 3.25 1.6875 C4.61125 2.3371875 4.61125 2.3371875 6 3 C7.69036558 2.04060332 9.35394174 1.03357147 11 0 C14.84943897 -0.70835401 18.39966518 -0.85242324 21.9140625 1.01953125 C23.5625 2.3125 23.5625 2.3125 26 5 C26 5.99 26 6.98 26 8 C26.66 8 27.32 8 28 8 C28 18.23 28 28.46 28 39 C23.71 39 19.42 39 15 39 C14.67 29.76 14.34 20.52 14 11 C12.35 11.33 10.7 11.66 9 12 C7.71394339 14.57211322 7.78956059 16.56906966 7.68359375 19.4453125 C7.62075195 21.05986328 7.62075195 21.05986328 7.55664062 22.70703125 C7.51732422 23.83496094 7.47800781 24.96289062 7.4375 26.125 C7.37272461 27.82849609 7.37272461 27.82849609 7.30664062 29.56640625 C7.20034055 32.37745261 7.09964603 35.1887099 7 38 C3.04 38 -0.92 38 -5 38 C-5.06058594 36.29070312 -5.12117188 34.58140625 -5.18359375 32.8203125 C-5.26798879 30.58853256 -5.35263731 28.3567622 -5.4375 26.125 C-5.47681641 24.99707031 -5.51613281 23.86914062 -5.55664062 22.70703125 C-5.59853516 21.63066406 -5.64042969 20.55429687 -5.68359375 19.4453125 C-5.72025146 18.45031738 -5.75690918 17.45532227 -5.79467773 16.43017578 C-5.84959532 13.99220499 -5.84959532 13.99220499 -7 12 C-8.66611905 11.957279 -10.33382885 11.95936168 -12 12 C-13.77490546 13.77490546 -13.23499973 16.37784902 -13.31640625 18.78515625 C-13.35830078 19.95498047 -13.40019531 21.12480469 -13.44335938 22.33007812 C-13.48267578 23.56177734 -13.52199219 24.79347656 -13.5625 26.0625 C-13.60568359 27.29806641 -13.64886719 28.53363281 -13.69335938 29.80664062 C-13.79984111 32.87094841 -13.90046065 35.93545885 -14 39 C-18.29 39 -22.58 39 -27 39 C-27 26.46 -27 13.92 -27 1 C-21.72 1 -16.44 1 -11 1 C-7.56350536 -0.71824732 -3.7654439 -0.40071447 0 0 Z " fill="#191814" transform="translate(409,387)"/>
<path d="M0 0 C2.5 1.5 2.5 1.5 4 3 C4 2.34 4 1.68 4 1 C8.29 1 12.58 1 17 1 C17.07449853 6.1411629 17.12876593 11.28200729 17.16479492 16.42358398 C17.17982429 18.1703845 17.20025354 19.91714765 17.22631836 21.66381836 C17.2629608 24.18352515 17.27978492 26.70273039 17.29296875 29.22265625 C17.30845261 29.99585709 17.32393646 30.76905792 17.33988953 31.56568909 C17.34178178 37.74733926 16.27289019 42.66217009 11.8125 47.25 C7.48805207 49.9407676 3.35042014 52 -1.8125 52 C-4.80813079 50.63056878 -5.63722096 48.94073371 -7 46 C-7 45.34 -7 44.68 -7 44 C-6.37351562 43.84144531 -5.74703125 43.68289063 -5.1015625 43.51953125 C0.15624686 42.2094023 0.15624686 42.2094023 3.5625 38.3125 C3.706875 37.549375 3.85125 36.78625 4 36 C2.7934375 36.7734375 2.7934375 36.7734375 1.5625 37.5625 C-2.96465712 39.38924761 -6.35397819 39.54295927 -11 38 C-15.58157934 33.8083423 -17.73717902 29.64035023 -18.18359375 23.45703125 C-18.35227891 16.26310537 -18.18213352 9.43444381 -13.5625 3.5625 C-9.59789487 -0.40210513 -5.41669164 -0.65392656 0 0 Z " fill="#161511" transform="translate(514,457)"/>
<path d="M0 0 C4.47111149 0.08012745 6.94658881 1.25969683 10.3125 4.3125 C12.93844529 9.35231899 13.80647202 13.5420782 13.6875 19.25 C13.67734863 19.9522168 13.66719727 20.65443359 13.65673828 21.37792969 C13.49571814 26.7527569 12.99906131 30.65579373 10.3125 35.3125 C7.05474464 38.3429701 4.56513865 39.54076351 0.1875 39.6875 C-3.6875 39.3125 -3.6875 39.3125 -7.6875 37.3125 C-7.6875 40.6125 -7.6875 43.9125 -7.6875 47.3125 C-9.47703185 48.15040789 -11.26919695 48.98269396 -13.0625 49.8125 C-14.06023437 50.2765625 -15.05796875 50.740625 -16.0859375 51.21875 C-18.6875 52.3125 -18.6875 52.3125 -20.6875 52.3125 C-20.6875 35.4825 -20.6875 18.6525 -20.6875 1.3125 C-15.35416667 1.3125 -10.02083333 1.3125 -4.6875 1.3125 C-3.6875 0.3125 -3.6875 0.3125 0 0 Z " fill="#171712" transform="translate(465.6875,386.6875)"/>
<path d="M0 0 C4.08289667 2.449738 6.58659535 6.16639153 8.4375 10.5 C8.4375 11.49 8.4375 12.48 8.4375 13.5 C7.0278653 14.20180531 5.60942359 14.88593958 4.1875 15.5625 C3.39859375 15.94535156 2.6096875 16.32820313 1.796875 16.72265625 C-0.86733145 17.60043288 -2.00427773 17.59794947 -4.5625 16.5 C-5.18125 15.654375 -5.8 14.80875 -6.4375 13.9375 C-8.37044071 11.19701078 -8.37044071 11.19701078 -11.625 11 C-14.78535617 11.53793297 -15.7069064 11.96076665 -17.5625 14.5 C-19.05602829 17.48705657 -18.82817862 20.5381251 -18.875 23.8125 C-18.91238281 25.12863281 -18.94976562 26.44476563 -18.98828125 27.80078125 C-18.50401065 32.00815976 -17.60737985 33.61422198 -14.5625 36.5 C-11.5625 37.25 -11.5625 37.25 -8.5625 36.5 C-6.25974444 34.6329009 -4.88426129 33.14352259 -3.5625 30.5 C1.1875 31.375 1.1875 31.375 3.4375 32.5 C3.4375 33.16 3.4375 33.82 3.4375 34.5 C5.0875 35.16 6.7375 35.82 8.4375 36.5 C7.04339257 41.76662809 3.74302078 44.47425185 -0.5625 47.5 C-6.53062425 50.55345892 -14.59062228 50.68899252 -20.9765625 48.77734375 C-25.24004795 46.80528213 -28.04989541 44.53811452 -30.5625 40.5 C-30.93375 39.91992188 -31.305 39.33984375 -31.6875 38.7421875 C-35.66634173 31.47527517 -35.59840833 23.51049722 -34.5625 15.5 C-32.08724362 8.10921682 -28.30535248 3.31670895 -21.5625 -0.5 C-15.04128557 -2.67373814 -6.36997367 -2.77008434 0 0 Z " fill="#171712" transform="translate(326.5625,376.5)"/>
<path d="M0 0 C3.78868528 2.19712692 6.75477248 4.82426556 8.14453125 9.10546875 C9.54297438 16.48977125 9.3759121 23.77522211 5.5625 30.3125 C2.6734781 33.99849346 0.12803555 35.33417095 -4.4375 36.3125 C-16.99389658 37.29562446 -16.99389658 37.29562446 -22.4375 33.3125 C-25.84358112 30.07393106 -28.10342983 27.10083909 -28.4375 22.3125 C-28.51291016 21.30703125 -28.51291016 21.30703125 -28.58984375 20.28125 C-28.89072461 13.25267319 -27.57835646 7.90406308 -23.0625 2.4375 C-16.51048885 -2.86650902 -7.63599344 -3.53200445 0 0 Z " fill="#29B0DD" transform="translate(359.4375,526.6875)"/>
<path d="M0 0 C4.84540524 2.18913393 7.71496597 4.98040607 10.75390625 9.30859375 C12.79456067 15.43055701 12.62942819 22.72810803 10.56640625 28.80859375 C7.19493714 33.45889597 4.23900341 36.48558196 -1.24609375 38.30859375 C-7.72788228 39.2290271 -13.22830756 38.86280942 -18.5859375 34.90234375 C-23.46143844 30.22186285 -24.49980943 25.45827041 -24.74609375 18.80859375 C-24.58240854 12.95002726 -23.34171693 9.24224319 -20.24609375 4.30859375 C-19.58609375 4.30859375 -18.92609375 4.30859375 -18.24609375 4.30859375 C-18.24609375 3.64859375 -18.24609375 2.98859375 -18.24609375 2.30859375 C-12.46104954 -1.34511838 -6.52706173 -2.00919987 0 0 Z " fill="#191814" transform="translate(679.24609375,387.69140625)"/>
<path d="M0 0 C4.97529646 2.30562519 8.16258937 5.31345999 10.64453125 10.27734375 C12.02841478 26.56863088 12.02841478 26.56863088 8.08203125 32.15234375 C3.45248872 36.95414833 -1.36483756 38.42181756 -7.91796875 38.71484375 C-12.8321447 38.56001355 -15.65885987 37.70346905 -19.35546875 34.27734375 C-24.40491815 27.72670669 -24.82811062 22.32469355 -24.35546875 14.27734375 C-23.29547024 8.49553371 -21.3762995 5.39390857 -17.35546875 1.27734375 C-12.21506031 -1.92720874 -5.67875621 -1.74223864 0 0 Z " fill="#171712" transform="translate(364.35546875,387.72265625)"/>
<path d="M0 0 C10.23 0 20.46 0 31 0 C31 2.64 31 5.28 31 8 C30 9 30 9 26.18359375 9.09765625 C24.60153318 9.09098089 23.01948841 9.07901875 21.4375 9.0625 C20.63119141 9.05798828 19.82488281 9.05347656 18.99414062 9.04882812 C16.99606244 9.03700518 14.99802217 9.01906914 13 9 C13 12.3 13 15.6 13 19 C18.61 19 24.22 19 30 19 C29.67 21.97 29.34 24.94 29 28 C23.72 28 18.44 28 13 28 C13 31.63 13 35.26 13 39 C19.27 39 25.54 39 32 39 C32 41.97 32 44.94 32 48 C31 49 31 49 28.04077148 49.11352539 C26.74727783 49.10828857 25.45378418 49.10305176 24.12109375 49.09765625 C22.86482178 49.09515869 21.6085498 49.09266113 20.31420898 49.09008789 C18.70489502 49.08098389 17.09558105 49.07187988 15.4375 49.0625 C10.343125 49.041875 5.24875 49.02125 0 49 C0 32.83 0 16.66 0 0 Z " fill="#28B3E1" transform="translate(355,310)"/>
<path d="M0 0 C10.23 0 20.46 0 31 0 C31 2.97 31 5.94 31 9 C25.06 9 19.12 9 13 9 C13 12.3 13 15.6 13 19 C18.28 19 23.56 19 29 19 C29 21.97 29 24.94 29 28 C23.72 28 18.44 28 13 28 C13 31.63 13 35.26 13 39 C19.27 39 25.54 39 32 39 C32 42.3 32 45.6 32 49 C21.44 49 10.88 49 0 49 C0 32.83 0 16.66 0 0 Z " fill="#32B3DE" transform="translate(317,310)"/>
<path d="M0 0 C3.43558856 2.2554972 4.82826577 4.26114168 6.8203125 7.8515625 C7.27441406 11.28662109 7.27441406 11.28662109 7.2109375 15 C7.20527771 15.65739166 7.19961792 16.31478333 7.19378662 16.99209595 C7.17157525 19.07102441 7.1214167 21.14816413 7.0703125 23.2265625 C7.05022739 24.64450618 7.03198015 26.06247715 7.015625 27.48046875 C6.97517754 30.9387264 6.89688214 34.393167 6.8203125 37.8515625 C2.5303125 37.8515625 -1.7596875 37.8515625 -6.1796875 37.8515625 C-6.1796875 37.1915625 -6.1796875 36.5315625 -6.1796875 35.8515625 C-7.03046875 36.33882813 -7.03046875 36.33882813 -7.8984375 36.8359375 C-10.36678924 37.93486122 -11.99571969 38.11994584 -14.6796875 38.1015625 C-15.4325 38.10671875 -16.1853125 38.111875 -16.9609375 38.1171875 C-20.92242128 37.64292536 -22.81329274 36.26884542 -25.4296875 33.2890625 C-27.64389929 28.93971792 -27.90550374 25.64017943 -27.1796875 20.8515625 C-25.416885 16.58372488 -23.26735138 14.87817114 -19.1796875 12.8515625 C-16.06640625 12.55859375 -16.06640625 12.55859375 -12.8671875 12.6640625 C-11.26423828 12.70466797 -11.26423828 12.70466797 -9.62890625 12.74609375 C-8.82066406 12.78089844 -8.01242187 12.81570313 -7.1796875 12.8515625 C-7.1796875 11.8615625 -7.1796875 10.8715625 -7.1796875 9.8515625 C-8.92960084 9.82440867 -10.67963695 9.80509699 -12.4296875 9.7890625 C-13.40421875 9.77746094 -14.37875 9.76585937 -15.3828125 9.75390625 C-18.4139498 9.76241589 -18.4139498 9.76241589 -22.1796875 10.8515625 C-23.1696875 7.8815625 -24.1596875 4.9115625 -25.1796875 1.8515625 C-17.37493512 -1.89471864 -8.26502538 -2.98515659 0 0 Z " fill="#14130E" transform="translate(766.1796875,388.1484375)"/>
<path d="M0 0 C2.71552675 2.10405849 3.68440335 2.94299527 5 6 C5.61209804 11.13858202 5.47103183 16.21703229 5.3125 21.375 C5.28739387 22.79292958 5.26458475 24.21090179 5.24414062 25.62890625 C5.18930824 29.08682988 5.10316611 32.54314188 5 36 C3.94039062 35.98839844 2.88078125 35.97679687 1.7890625 35.96484375 C0.40104342 35.95546524 -0.98697755 35.94636511 -2.375 35.9375 C-3.07367187 35.92912109 -3.77234375 35.92074219 -4.4921875 35.91210938 C-8.37295376 35.8164558 -8.37295376 35.8164558 -12 37 C-17.48908355 37.20329939 -21.71931904 36.95423287 -26.1875 33.625 C-29.09042016 29.22276943 -28.94718954 24.02681695 -28 19 C-26.1248989 15.33535375 -23.96558741 13.32186247 -20 12 C-18.52313889 11.90752619 -17.04224499 11.87000929 -15.5625 11.875 C-14.41974609 11.87113281 -14.41974609 11.87113281 -13.25390625 11.8671875 C-11.04684141 11.99723985 -9.12030724 12.39143801 -7 13 C-7.33 11.68 -7.66 10.36 -8 9 C-12.95 9 -17.9 9 -23 9 C-26 3 -26 3 -26 1 C-18.65250429 -3.19856898 -7.54287031 -4.29078032 0 0 Z " fill="#181713" transform="translate(588,389)"/>
<path d="M0 0 C9.9 0 19.8 0 30 0 C30 2.97 30 5.94 30 9 C24.06 9 18.12 9 12 9 C12.33 12.3 12.66 15.6 13 19 C18.28 19.33 23.56 19.66 29 20 C29 22.64 29 25.28 29 28 C23.39 28 17.78 28 12 28 C12 31.96 12 35.92 12 40 C18.27 40 24.54 40 31 40 C31 42.97 31 45.94 31 49 C20.77 49 10.54 49 0 49 C0 32.83 0 16.66 0 0 Z " fill="#2DB2DE" transform="translate(393,310)"/>
<path d="M0 0 C3.51320312 1.82979329 4.63464494 3.10066446 6.1171875 6.75 C7.73272724 12.80827404 7.20654691 19.22425296 7.125 25.4375 C7.11597656 26.74138672 7.10695313 28.04527344 7.09765625 29.38867188 C7.07418478 32.59252731 7.03831682 35.79628772 7 39 C2.71 39 -1.58 39 -6 39 C-6.495 26.13 -6.495 26.13 -7 13 C-8.98 12.34 -10.96 11.68 -13 11 C-13.33 19.91 -13.66 28.82 -14 38 C-18.29 38 -22.58 38 -27 38 C-27 25.79 -27 13.58 -27 1 C-22.05 1 -17.1 1 -12 1 C-8.28977078 -0.85511461 -4.04967665 -0.44642105 0 0 Z " fill="#181712" transform="translate(725,387)"/>
<path d="M0 0 C4.29 0 8.58 0 13 0 C13.06058594 1.79308594 13.12117188 3.58617187 13.18359375 5.43359375 C13.26797849 7.76823824 13.35262751 10.10287319 13.4375 12.4375 C13.47681641 13.62150391 13.51613281 14.80550781 13.55664062 16.02539062 C13.61948242 17.71245117 13.61948242 17.71245117 13.68359375 19.43359375 C13.72025146 20.47572021 13.75690918 21.51784668 13.79467773 22.59155273 C13.73515341 24.9499826 13.73515341 24.9499826 15 26 C17.5 26.16666667 17.5 26.16666667 20 26 C21.74506615 24.25493385 21.23282784 21.80960857 21.31640625 19.43359375 C21.35830078 18.30888672 21.40019531 17.18417969 21.44335938 16.02539062 C21.48267578 14.84138672 21.52199219 13.65738281 21.5625 12.4375 C21.60568359 11.24962891 21.64886719 10.06175781 21.69335938 8.83789062 C21.79983453 5.89207803 21.90045681 2.94605498 22 0 C26.29 0 30.58 0 35 0 C35 12.21 35 24.42 35 37 C29.72 37 24.44 37 19 37 C17.515 37.495 17.515 37.495 16 38 C11.87757688 38.26596278 9.0441611 38.39446086 5.1875 36.9375 C1.28465099 33.48069088 0.14096598 29.88439405 -0.23901367 24.80493164 C-0.2950335 21.05312379 -0.26135513 17.31396207 -0.1875 13.5625 C-0.17396484 12.25861328 -0.16042969 10.95472656 -0.14648438 9.61132812 C-0.11127608 6.40737346 -0.05747381 3.20363261 0 0 Z " fill="#151410" transform="translate(486,388)"/>
<path d="M0 0 C3.59061119 2.13908752 5.50992888 4.13026305 7 8 C7.22705078 11.20800781 7.22705078 11.20800781 7.1953125 14.953125 C7.1924826 15.61334656 7.18965271 16.27356812 7.18673706 16.95379639 C7.17558415 19.05271897 7.15048946 21.15120742 7.125 23.25 C7.11496384 24.67707715 7.1058391 26.10416102 7.09765625 27.53125 C7.07736623 31.02113323 7.03821077 34.51008338 7 38 C2.71 38 -1.58 38 -6 38 C-6.495 25.625 -6.495 25.625 -7 13 C-9.475 12.505 -9.475 12.505 -12 12 C-13.74506615 13.74506615 -13.23282784 16.19039143 -13.31640625 18.56640625 C-13.35830078 19.69111328 -13.40019531 20.81582031 -13.44335938 21.97460938 C-13.48267578 23.15861328 -13.52199219 24.34261719 -13.5625 25.5625 C-13.60568359 26.75037109 -13.64886719 27.93824219 -13.69335938 29.16210938 C-13.79983453 32.10792197 -13.90045681 35.05394502 -14 38 C-18.29 38 -22.58 38 -27 38 C-27 25.79 -27 13.58 -27 1 C-22 1 -17 1 -12 1 C-7.94328645 -0.35223785 -4.24165046 -0.54418363 0 0 Z " fill="#171612" transform="translate(606,457)"/>
<path d="M0 0 C3.3702945 1.68514725 5.40062484 2.84609483 7.15185547 6.2175293 C8.16659225 9.54653192 8.22596878 12.35254375 8.1953125 15.83203125 C8.18886719 17.12431641 8.18242187 18.41660156 8.17578125 19.74804688 C8.15907327 21.1028673 8.14214342 22.45768501 8.125 23.8125 C8.11496003 25.18684251 8.10583596 26.56119203 8.09765625 27.93554688 C8.07411314 31.2904399 8.03824296 34.64524234 8 38 C3.71 38 -0.58 38 -5 38 C-5.495 25.625 -5.495 25.625 -6 13 C-8.475 12.505 -8.475 12.505 -11 12 C-12.74506615 13.74506615 -12.23282784 16.19039143 -12.31640625 18.56640625 C-12.35830078 19.69111328 -12.40019531 20.81582031 -12.44335938 21.97460938 C-12.48267578 23.15861328 -12.52199219 24.34261719 -12.5625 25.5625 C-12.60568359 26.75037109 -12.64886719 27.93824219 -12.69335938 29.16210938 C-12.79983453 32.10792197 -12.90045681 35.05394502 -13 38 C-17.29 38 -21.58 38 -26 38 C-26 25.79 -26 13.58 -26 1 C-21 1 -16 1 -11 1 C-7.27097332 -0.24300889 -3.87289363 -0.52712352 0 0 Z " fill="#161510" transform="translate(345,457)"/>
<path d="M0 0 C0.71220703 -0.01224609 1.42441406 -0.02449219 2.15820312 -0.03710938 C6.2892489 -0.04857389 9.47517002 0.34227508 13.1875 2.1875 C13.3125 8.8125 13.3125 8.8125 12.1875 12.1875 C11.40375 11.8575 10.62 11.5275 9.8125 11.1875 C5.19388131 9.91339829 0.94500644 10.01826064 -3.8125 10.1875 C-4.1425 11.8375 -4.4725 13.4875 -4.8125 15.1875 C-1.27178188 17.28302705 1.95608742 19.09972281 5.8125 20.5625 C10.3601623 22.75211518 12.90367091 25.61984182 15.1875 30.1875 C15.77498316 35.83637653 15.52223828 40.40770846 12.1875 45.1875 C6.36939069 49.67229259 1.91466548 50.36898433 -5.25 50.375 C-6.01376953 50.38724609 -6.77753906 50.39949219 -7.56445312 50.41210938 C-8.30501953 50.41404297 -9.04558594 50.41597656 -9.80859375 50.41796875 C-10.81684204 50.42413208 -10.81684204 50.42413208 -11.84545898 50.43041992 C-13.8125 50.1875 -13.8125 50.1875 -17.8125 48.1875 C-17.8125 44.8875 -17.8125 41.5875 -17.8125 38.1875 C-12.0625 40.0625 -12.0625 40.0625 -9.8125 41.1875 C-4.2729157 41.67195696 -4.2729157 41.67195696 0.6875 39.6875 C1.1825 39.1925 1.6775 38.6975 2.1875 38.1875 C2.23260361 35.80852997 2.23260361 35.80852997 1.1875 33.1875 C-1.15594254 31.64082793 -3.3111004 30.40600357 -5.8125 29.1875 C-10.39718572 26.8427335 -14.17180943 24.75792599 -16.8125 20.1875 C-18.01309972 15.71630104 -18.18366496 12.2803746 -16.6875 7.875 C-12.04991247 1.2277912 -7.69704951 0.00685401 0 0 Z " fill="#26B1DE" transform="translate(311.8125,512.8125)"/>
<path d="M0 0 C0 0.66 0 1.32 0 2 C0.7425 2.185625 1.485 2.37125 2.25 2.5625 C6.66101171 4.86825612 7.81363365 8.6272673 10 13 C10 16.3 10 19.6 10 23 C2.74 23 -4.52 23 -12 23 C-11.01 24.65 -10.02 26.3 -9 28 C-4.42149218 28.4430814 -0.47203541 28.11800885 4 27 C6.50298434 29.93828597 7.46930939 32.17902761 8 36 C0.27505764 39.20442054 -7.25695125 40.49318201 -15.375 37.9375 C-19.62519262 34.80045306 -22.33231576 31.00305271 -24 26 C-24.61261411 18.0477976 -24.78585807 10.52361503 -19.4765625 4.1796875 C-13.64772381 -1.10807756 -7.50858126 -0.61808443 0 0 Z " fill="#191814" transform="translate(681,457)"/>
<path d="M0 0 C3.79033297 1.73868485 6.63476464 3.47621604 8.69140625 7.2265625 C10.32496946 12.12725213 9.74670319 17.08394726 9.69140625 22.2265625 C2.76140625 22.2265625 -4.16859375 22.2265625 -11.30859375 22.2265625 C-9.0667815 27.2973851 -9.0667815 27.2973851 -6.22265625 27.75 C-5.08957031 27.67652344 -5.08957031 27.67652344 -3.93359375 27.6015625 C-2.74830078 27.53582031 -2.74830078 27.53582031 -1.5390625 27.46875 C0.91650528 27.20212092 3.29814342 26.84417871 5.69140625 26.2265625 C7.98520374 29.66725874 8.69140625 30.94946551 8.69140625 35.2265625 C1.75454577 38.16947301 -4.79680812 39.16017014 -12.30859375 38.2265625 C-16.86316457 36.23911341 -19.87686364 33.16418735 -22.40625 28.9296875 C-24.39432369 22.97407282 -23.64679296 16.4193658 -23.30859375 10.2265625 C-22.64859375 10.2265625 -21.98859375 10.2265625 -21.30859375 10.2265625 C-21.30859375 9.5253125 -21.30859375 8.8240625 -21.30859375 8.1015625 C-18.13569752 -1.02051415 -8.31862123 -2.78694924 0 0 Z " fill="#181713" transform="translate(414.30859375,457.7734375)"/>
<path d="M0 0 C4.27830216 1.91894435 6.83811759 3.80534978 8.6875 8.265625 C10.15034156 13.05310647 9.6875 16.99098692 9.6875 22.265625 C2.7575 22.265625 -4.1725 22.265625 -11.3125 22.265625 C-10.9825 23.915625 -10.6525 25.565625 -10.3125 27.265625 C-5.18666389 27.36814172 -0.36252222 27.30152699 4.6875 26.265625 C8.6875 31.890625 8.6875 31.890625 8.6875 35.265625 C1.71306972 37.80728289 -4.87215397 39.30844515 -12.3125 38.265625 C-17.22196693 35.94478609 -19.66964805 32.96402847 -22.3125 28.265625 C-24.35620463 21.88926656 -24.49061501 13.97694072 -21.75 7.828125 C-16.76451547 -0.49259656 -9.21943065 -2.92779217 0 0 Z " fill="#171611" transform="translate(561.3125,457.734375)"/>
<path d="M0 0 C3.90545561 3.36806492 6.04103939 5.25400132 7.31640625 10.35546875 C7.31640625 13.65546875 7.31640625 16.95546875 7.31640625 20.35546875 C0.05640625 20.35546875 -7.20359375 20.35546875 -14.68359375 20.35546875 C-13.14316627 25.1585091 -13.14316627 25.1585091 -10.68359375 27.35546875 C-4.7963212 28.00961014 0.83635456 27.72522083 6.31640625 25.35546875 C6.31640625 28.65546875 6.31640625 31.95546875 6.31640625 35.35546875 C2.26886887 36.36735309 -1.42453548 36.57512704 -5.55859375 36.60546875 C-6.25339844 36.62609375 -6.94820313 36.64671875 -7.6640625 36.66796875 C-13.89645334 36.71491708 -17.72530187 35.0022142 -22.43359375 31.04296875 C-26.61755991 26.04545362 -27.09090454 21.13789802 -26.9296875 14.8125 C-26.3168804 8.6941561 -23.48423752 4.71131081 -19.28125 0.51953125 C-14.10807076 -3.24968003 -5.27439259 -3.23219692 0 0 Z " fill="#24B1DF" transform="translate(449.68359375,526.64453125)"/>
<path d="M0 0 C4.29 0 8.58 0 13 0 C15.92382423 6.12610791 17.47214176 12.40095271 19 19 C21.14364744 12.70588625 23.11409966 6.37613925 25 0 C28.63 0 32.26 0 36 0 C34.3640394 6.11154194 32.24655633 12.0024772 30.0625 17.9375 C29.71509766 18.88818359 29.36769531 19.83886719 29.00976562 20.81835938 C26.26603939 28.31581091 26.26603939 28.31581091 25.15454102 31.17431641 C23.32610766 35.87930753 21.98057442 40.59136041 20.8125 45.5 C20.63525391 46.22703125 20.45800781 46.9540625 20.27539062 47.703125 C19.84585968 49.46768458 19.42228473 51.23369229 19 53 C15.37 53 11.74 53 8 53 C8.44671937 49.426245 9.19614523 46.49666613 10.6875 43.25 C14.95519735 32.08671283 5.43431713 14.59024306 0.91796875 4.29296875 C0 2 0 2 0 0 Z " fill="#28B0DD" transform="translate(484,526)"/>
<path d="M0 0 C0 4.95 0 9.9 0 15 C2.64 15 5.28 15 8 15 C8 18.3 8 21.6 8 25 C5.36 25 2.72 25 0 25 C0 30.61 0 36.22 0 42 C2.64 41.34 5.28 40.68 8 40 C7.67 43.96 7.34 47.92 7 52 C2.05744884 53.01385665 -2.97453493 53.70700459 -8 53 C-11.03215675 50.80168636 -11.81654398 49.55036806 -13 46 C-13.08143855 44.37280518 -13.1075302 42.74248281 -13.09765625 41.11328125 C-13.09443359 40.17548828 -13.09121094 39.23769531 -13.08789062 38.27148438 C-13.07951172 37.29501953 -13.07113281 36.31855469 -13.0625 35.3125 C-13.05798828 34.32443359 -13.05347656 33.33636719 -13.04882812 32.31835938 C-13.03704303 29.87884526 -13.02059011 27.43945311 -13 25 C-14.98 25 -16.96 25 -19 25 C-19 21.7 -19 18.4 -19 15 C-17.02 15 -15.04 15 -13 15 C-13.03480469 14.38511719 -13.06960938 13.77023437 -13.10546875 13.13671875 C-13.13253906 12.32847656 -13.15960938 11.52023437 -13.1875 10.6875 C-13.22230469 9.88699219 -13.25710938 9.08648437 -13.29296875 8.26171875 C-13 6 -13 6 -11.7421875 4.3125 C-9.85038142 2.88728286 -8.16758613 2.10032482 -5.9375 1.3125 C-5.24527344 1.06113281 -4.55304688 0.80976563 -3.83984375 0.55078125 C-2 0 -2 0 0 0 Z " fill="#191814" transform="translate(378,443)"/>
<path d="M0 0 C0 4.95 0 9.9 0 15 C2.64 15 5.28 15 8 15 C8 18.3 8 21.6 8 25 C5.36 25 2.72 25 0 25 C0.495 32.92 0.495 32.92 1 41 C2.98 41 4.96 41 7 41 C7 44.3 7 47.6 7 51 C2.42819558 53.35964099 -1.9668834 53.60178568 -7 53 C-10 51.6875 -10 51.6875 -12 50 C-13.00005304 46.99984088 -13.11575585 45.02576244 -13.09765625 41.89453125 C-13.09443359 40.91162109 -13.09121094 39.92871094 -13.08789062 38.91601562 C-13.07951172 37.89185547 -13.07113281 36.86769531 -13.0625 35.8125 C-13.05798828 34.77673828 -13.05347656 33.74097656 -13.04882812 32.67382812 C-13.0370401 30.11582734 -13.02058515 27.55794267 -13 25 C-14.98 25 -16.96 25 -19 25 C-19 21.7 -19 18.4 -19 15 C-17.02 15 -15.04 15 -13 15 C-13 11.7 -13 8.4 -13 5 C-11.21046815 4.16209211 -9.41830305 3.32980604 -7.625 2.5 C-6.62726562 2.0359375 -5.62953125 1.571875 -4.6015625 1.09375 C-2 0 -2 0 0 0 Z " fill="#1A1915" transform="translate(546,373)"/>
<path d="M0 0 C0 4.62 0 9.24 0 14 C2.64 14 5.28 14 8 14 C8 17.3 8 20.6 8 24 C5.36 24 2.72 24 0 24 C0.495 31.92 0.495 31.92 1 40 C3.64 39.67 6.28 39.34 9 39 C8.88541307 40.43836751 8.75790884 41.87570966 8.625 43.3125 C8.55539062 44.11300781 8.48578125 44.91351563 8.4140625 45.73828125 C8 48 8 48 6 51 C2.2942736 52.56780732 -2.04619081 52.44804597 -6 52 C-9.58552881 50.36312815 -10.79315055 49.31027417 -13 46 C-13.22705078 43.63989258 -13.22705078 43.63989258 -13.1953125 40.89453125 C-13.18564453 39.42016602 -13.18564453 39.42016602 -13.17578125 37.91601562 C-13.15902344 36.89185547 -13.14226563 35.86769531 -13.125 34.8125 C-13.11597656 33.77673828 -13.10695313 32.74097656 -13.09765625 31.67382812 C-13.0740786 29.11565315 -13.0411703 26.55794252 -13 24 C-14.65 24 -16.3 24 -18 24 C-18 20.7 -18 17.4 -18 14 C-16.35 14 -14.7 14 -13 14 C-13 10.7 -13 7.4 -13 4 C-11.2097939 3.32942113 -9.41778511 2.6636531 -7.625 2 C-6.62726562 1.62875 -5.62953125 1.2575 -4.6015625 0.875 C-2 0 -2 0 0 0 Z " fill="#1A1915" transform="translate(618,374)"/>
<path d="M0 0 C6.13053527 -0.37296032 9.25703993 1.85612703 13.9296875 5.75 C15.0546875 7.1875 15.0546875 7.1875 15.0546875 10.1875 C13.5234375 11.57421875 13.5234375 11.57421875 11.5546875 12.875 C10.905 13.31199219 10.2553125 13.74898438 9.5859375 14.19921875 C8.82796875 14.68841797 8.82796875 14.68841797 8.0546875 15.1875 C4.1796875 13.3125 4.1796875 13.3125 3.0546875 12.1875 C1.38851635 12.14686168 -0.27919345 12.144779 -1.9453125 12.1875 C-3.24991164 14.79669828 -3.0779719 16.77692615 -3.0703125 19.6875 C-3.07289063 20.6671875 -3.07546875 21.646875 -3.078125 22.65625 C-3.11471303 25.18181054 -3.11471303 25.18181054 -1.9453125 27.1875 C2.31200318 27.59499675 2.31200318 27.59499675 5.9296875 25.6875 C6.3009375 25.1925 6.6721875 24.6975 7.0546875 24.1875 C10.00878451 25.55904504 12.49477126 27.17613724 15.0546875 29.1875 C14.79901871 32.63902861 13.79271676 33.43238569 11.1796875 35.875 C5.99004334 39.71533668 1.30655077 39.72393133 -4.9453125 39.1875 C-9.678987 37.52194786 -12.21437924 35.38143323 -14.9453125 31.1875 C-18.01383774 24.59017074 -17.76575844 17.28190865 -15.8203125 10.375 C-14.10627958 5.82838685 -12.05516541 3.76623124 -7.9453125 1.1875 C-5.23751768 0.42225364 -2.78035946 0.26798645 0 0 Z " fill="#171712" transform="translate(636.9453125,456.8125)"/>
<path d="M0 0 C4.95 0 9.9 0 15 0 C15 16.83 15 33.66 15 51 C10.05 51 5.1 51 0 51 C0 34.17 0 17.34 0 0 Z " fill="#21211C" transform="translate(294,445)"/>
<path d="M0 0 C0 17.49 0 34.98 0 53 C-4.62 53 -9.24 53 -14 53 C-14 37.16 -14 21.32 -14 5 C-2 0 -2 0 0 0 Z " fill="#24231E" transform="translate(467,443)"/>
<path d="M0 0 C0 2.97 0 5.94 0 9 C-1.32 8.67 -2.64 8.34 -4 8 C-5.53787431 7.86353334 -7.08139348 7.78097538 -8.625 7.75 C-9.40101563 7.72421875 -10.17703125 7.6984375 -10.9765625 7.671875 C-11.64429688 7.78015625 -12.31203125 7.8884375 -13 8 C-15.21477492 11.32216238 -15.29667707 12.55033323 -15.3125 16.4375 C-15.32925781 17.38496094 -15.34601563 18.33242188 -15.36328125 19.30859375 C-14.9314857 22.50759517 -14.41241187 23.84497936 -12 26 C-9.03164137 26.48407934 -9.03164137 26.48407934 -5.8125 26.25 C-4.72582031 26.21390625 -3.63914062 26.1778125 -2.51953125 26.140625 C-1.68808594 26.09421875 -0.85664063 26.0478125 0 26 C0.29296875 32.0546875 0.29296875 32.0546875 0 34 C-5.12465697 37.41643798 -11.03542682 36.75300259 -17 36 C-20.32576932 34.52752198 -22.54671381 32.65669937 -25 30 C-25.825 29.154375 -26.65 28.30875 -27.5 27.4375 C-29.87915492 21.98526998 -29.93513649 16.84111373 -29 11 C-26.7529612 5.9187929 -23.68337611 2.02095634 -19 -1 C-13.08053031 -3.06049951 -5.54135512 -2.9553894 0 0 Z " fill="#2FB2DE" transform="translate(401,527)"/>
<path d="M0 0 C0 3.96 0 7.92 0 12 C2.31 12 4.62 12 7 12 C7 14.64 7 17.28 7 20 C4.69 20 2.38 20 0 20 C0.33 26.93 0.66 33.86 1 41 C2.98 41 4.96 41 7 41 C7 43.64 7 46.28 7 49 C4.75165504 49.13526139 2.50097486 49.23210804 0.25 49.3125 C-1.00296875 49.37050781 -2.2559375 49.42851563 -3.546875 49.48828125 C-7 49 -7 49 -9.4375 47.25 C-11.88087852 42.16777268 -11.41880681 37.24189325 -11.25 31.6875 C-11.23195313 30.56537109 -11.21390625 29.44324219 -11.1953125 28.28710938 C-11.14827856 25.52386553 -11.08256317 22.76237302 -11 20 C-12.65 20 -14.3 20 -16 20 C-16 17.36 -16 14.72 -16 12 C-14.35 12 -12.7 12 -11 12 C-11 9.03 -11 6.06 -11 3 C-9.54293274 2.49632243 -8.08429904 1.99717444 -6.625 1.5 C-5.81289063 1.2215625 -5.00078125 0.943125 -4.1640625 0.65625 C-2 0 -2 0 0 0 Z " fill="#23B0DF" transform="translate(475,514)"/>
<path d="M0 0 C0 17.16 0 34.32 0 52 C-4.29 52 -8.58 52 -13 52 C-13 36.16 -13 20.32 -13 4 C-11.02 3.67 -9.04 3.34 -7 3 C-7 2.34 -7 1.68 -7 1 C-4 0 -4 0 0 0 Z " fill="#1D1D18" transform="translate(444,444)"/>
<path d="M0 0 C0 17.16 0 34.32 0 52 C-4.29 52 -8.58 52 -13 52 C-13 36.16 -13 20.32 -13 4 C-4 0 -4 0 0 0 Z " fill="#21211C" transform="translate(794,374)"/>
<path d="M0 0 C3.96 0 7.92 0 12 0 C12.33 16.17 12.66 32.34 13 49 C8.71 49 4.42 49 0 49 C0 32.83 0 16.66 0 0 Z " fill="#22B0DF" transform="translate(295,310)"/>
<path d="M0 0 C4.29 0 8.58 0 13 0 C13 12.54 13 25.08 13 38 C8.71 38 4.42 38 0 38 C0 25.46 0 12.92 0 0 Z " fill="#11100C" transform="translate(635,388)"/>
<path d="M0 0 C0.33 0 0.66 0 1 0 C1 9.9 1 19.8 1 30 C-3.29 30 -7.58 30 -12 30 C-12 29.34 -12 28.68 -12 28 C-12.85078125 28.48726563 -12.85078125 28.48726563 -13.71875 28.984375 C-16.18710174 30.08329872 -17.81603219 30.26838334 -20.5 30.25 C-21.2528125 30.25515625 -22.005625 30.2603125 -22.78125 30.265625 C-26.74273378 29.79136286 -28.63360524 28.41728292 -31.25 25.4375 C-33.46421179 21.08815542 -33.72581624 17.78861693 -33 13 C-31.2371975 8.73216238 -29.08766388 7.02660864 -25 5 C-21.88671875 4.70703125 -21.88671875 4.70703125 -18.6875 4.8125 C-17.08455078 4.85310547 -17.08455078 4.85310547 -15.44921875 4.89453125 C-14.64097656 4.92933594 -13.83273437 4.96414063 -13 5 C-13.66 5.66 -14.32 6.32 -15 7 C-14.6814823 9.10820797 -14.6814823 9.10820797 -14 11 C-12.68 11.33 -11.36 11.66 -10 12 C-9.83807076 16.85787726 -9.76943394 19.68757229 -12 24 C-11.67 25.65 -11.34 27.3 -11 29 C-7.37 29 -3.74 29 0 29 C0 19.43 0 9.86 0 0 Z " fill="#23221E" transform="translate(772,396)"/>
<path d="M0 0 C4.29 0 8.58 0 13 0 C13 12.21 13 24.42 13 37 C8.71 37 4.42 37 0 37 C0 24.79 0 12.58 0 0 Z " fill="#100F0A" transform="translate(476,458)"/>
<path d="M0 0 C0 11.88 0 23.76 0 36 C-3.96 36 -7.92 36 -12 36 C-12 24.45 -12 12.9 -12 1 C-9 0 -9 0 0 0 Z " fill="#27B0DE" transform="translate(418,526)"/>
<path d="M0 0 C0.79921875 0.00902344 1.5984375 0.01804687 2.421875 0.02734375 C3.02515625 0.03894531 3.6284375 0.05054688 4.25 0.0625 C3.26 1.5475 3.26 1.5475 2.25 3.0625 C1.92 2.7325 1.59 2.4025 1.25 2.0625 C0.92 2.7225 0.59 3.3825 0.25 4.0625 C-1.07 4.0625 -2.39 4.0625 -3.75 4.0625 C-3.894375 4.84625 -4.03875 5.63 -4.1875 6.4375 C-4.75 9.0625 -4.75 9.0625 -5.75 11.0625 C-6.20296092 17.41448686 -5.88431857 23.05972901 -3.75 29.0625 C-1.11 29.3925 1.53 29.7225 4.25 30.0625 C3.60546875 31.9921875 3.60546875 31.9921875 2.25 34.0625 C-2.38965277 35.5409933 -7.52061347 36.07968151 -12.02734375 34.0234375 C-16.22444167 30.70480194 -17.93558708 27.40142913 -18.75 22.0625 C-19.33130817 16.09870876 -19.08940741 10.22340236 -15.75 5.0625 C-11.08146695 1.16077915 -5.9385099 -0.08733103 0 0 Z M-7.75 2.0625 C-6.75 4.0625 -6.75 4.0625 -6.75 4.0625 Z " fill="#27B1DF" transform="translate(349.75,526.9375)"/>
<path d="M0 0 C3.90545561 3.36806492 6.04103939 5.25400132 7.31640625 10.35546875 C7.31640625 13.65546875 7.31640625 16.95546875 7.31640625 20.35546875 C0.38640625 20.35546875 -6.54359375 20.35546875 -13.68359375 20.35546875 C-13.35359375 19.69546875 -13.02359375 19.03546875 -12.68359375 18.35546875 C-10.03498948 17.76191261 -7.39162053 17.61337606 -4.68359375 17.35546875 C-4.68359375 16.69546875 -4.68359375 16.03546875 -4.68359375 15.35546875 C-7.98359375 15.02546875 -11.28359375 14.69546875 -14.68359375 14.35546875 C-14.68359375 11.38546875 -14.68359375 8.41546875 -14.68359375 5.35546875 C-13.69359375 5.35546875 -12.70359375 5.35546875 -11.68359375 5.35546875 C-12.34359375 4.03546875 -13.00359375 2.71546875 -13.68359375 1.35546875 C-14.79734375 2.03609375 -15.91109375 2.71671875 -17.05859375 3.41796875 C-18.95703125 4.578125 -18.95703125 4.578125 -20.68359375 5.35546875 C-21.34359375 5.02546875 -22.00359375 4.69546875 -22.68359375 4.35546875 C-16.8520847 -1.96199938 -7.9684387 -4.88313347 0 0 Z " fill="#2AB1DD" transform="translate(449.68359375,526.64453125)"/>
<path d="M0 0 C1.6328125 1.05078125 1.6328125 1.05078125 3 3 C3.3258438 5.74472033 3.46448502 8.19729377 3.4375 10.9375 C3.45748047 11.65357422 3.47746094 12.36964844 3.49804688 13.10742188 C3.49477658 16.63607413 3.28376124 18.62422413 1.1328125 21.47265625 C-1 23 -1 23 -3.5625 23.5 C-6 23 -6 23 -7.75 21.1875 C-10.68423488 16.05258897 -10.48842063 10.75999505 -10 5 C-7.63115826 -0.38373123 -5.66463472 -1.65794187 0 0 Z " fill="#F9FDFE" transform="translate(353,533)"/>
<path d="M0 0 C10.23 0 20.46 0 31 0 C31 2.64 31 5.28 31 8 C25.06 8 19.12 8 13 8 C13 7.67 13 7.34 13 7 C18.28 7 23.56 7 29 7 C29 5.35 29 3.7 29 2 C20.09 2 11.18 2 2 2 C2 16.85 2 31.7 2 47 C11.57 47 21.14 47 31 47 C31 47.66 31 48.32 31 49 C20.77 49 10.54 49 0 49 C0 32.83 0 16.66 0 0 Z " fill="#4BB4D7" transform="translate(355,310)"/>
<path d="M0 0 C0.33 0 0.66 0 1 0 C1 2.97 1 5.94 1 9 C2.14339844 8.98839844 3.28679687 8.97679687 4.46484375 8.96484375 C5.95572754 8.95546712 7.44661309 8.94636679 8.9375 8.9375 C10.06961914 8.92493164 10.06961914 8.92493164 11.22460938 8.91210938 C13.14994313 8.90347559 15.07535581 8.94775667 17 9 C18 10 18 10 18.09765625 12.28515625 C18.08605469 13.20167969 18.07445312 14.11820312 18.0625 15.0625 C18.05347656 15.98160156 18.04445313 16.90070313 18.03515625 17.84765625 C18.02355469 18.55792969 18.01195312 19.26820313 18 20 C14.45325997 21.18224668 12.02477005 20.89329634 8.3125 20.5625 C7.13300781 20.46066406 5.95351563 20.35882813 4.73828125 20.25390625 C3.83464844 20.17011719 2.93101562 20.08632813 2 20 C2 22.97 2 25.94 2 29 C7.94 29 13.88 29 20 29 C20 32.96 20 36.92 20 41 C9.44 41 -1.12 41 -12 41 C-12 40.67 -12 40.34 -12 40 C-1.77 40 8.46 40 19 40 C19 37.03 19 34.06 19 31 C12.73 31 6.46 31 0 31 C0 27.04 0 23.08 0 19 C5.61 19 11.22 19 17 19 C17 16.36 17 13.72 17 11 C15.85660156 11.01160156 14.71320313 11.02320313 13.53515625 11.03515625 C12.04427246 11.04453288 10.55338691 11.05363321 9.0625 11.0625 C7.93038086 11.07506836 7.93038086 11.07506836 6.77539062 11.08789062 C4.85005687 11.09652441 2.92464419 11.05224333 1 11 C0 10 0 10 -0.09765625 7.71484375 C-0.08605469 6.79832031 -0.07445312 5.88179688 -0.0625 4.9375 C-0.05347656 4.01839844 -0.04445313 3.09929687 -0.03515625 2.15234375 C-0.02355469 1.44207031 -0.01195312 0.73179687 0 0 Z " fill="#BEEEF8" transform="translate(405,319)"/>
<path d="M0 0 C0.7734375 -0.00773437 1.546875 -0.01546875 2.34375 -0.0234375 C5.00660611 0.468612 5.89376622 1.22325287 7.5 3.375 C8.14264062 8.51612496 8.14264062 8.51612496 6.2578125 11.03515625 C3.46844357 13.16127524 0.99345737 12.84803831 -2.40234375 12.7265625 C-4.5 12.375 -4.5 12.375 -6.5625 10.6875 C-7.66422775 7.96990489 -7.9466994 6.2785461 -7.5 3.375 C-5.25601107 0.43241074 -3.64421439 -0.03644214 0 0 Z " fill="#1C1C18" transform="translate(482.5,442.625)"/>
<path d="M0 0 C2.5625 1.625 2.5625 1.625 4 4 C3.85205998 7.6985004 3.64194427 9.35805573 1 12 C-1.05859375 12.30078125 -1.05859375 12.30078125 -3.4375 12.3125 C-4.61119141 12.33763672 -4.61119141 12.33763672 -5.80859375 12.36328125 C-8.51439111 11.91472661 -9.38000568 11.18213746 -11 9 C-11.38601984 5.91184125 -11.47901666 3.89815624 -10 1.125 C-6.77832708 -0.68719102 -3.54535963 -0.63360845 0 0 Z " fill="#161511" transform="translate(645,373)"/>
<path d="M0 0 C2.5625 0.375 2.5625 0.375 4.375 1.875 C6.04055896 5.38143992 6.10786841 8.60224596 5.5625 12.375 C4.375 15.375 4.375 15.375 2.5625 17.375 C0 17.8125 0 17.8125 -2.4375 17.375 C-4.4375 15.375 -4.4375 15.375 -4.703125 12.40625 C-4.69796875 11.2409375 -4.6928125 10.075625 -4.6875 8.875 C-4.69265625 7.7096875 -4.6978125 6.544375 -4.703125 5.34375 C-4.37057061 1.62696568 -3.74079981 0.57550766 0 0 Z " fill="#ECECEB" transform="translate(672.4375,397.625)"/>
<path d="M0 0 C2.4375 0.4375 2.4375 0.4375 4.4375 2.4375 C4.703125 5.40625 4.703125 5.40625 4.6875 8.9375 C4.69265625 10.1028125 4.6978125 11.268125 4.703125 12.46875 C4.4375 15.4375 4.4375 15.4375 2.4375 17.4375 C0 17.875 0 17.875 -2.5625 17.4375 C-5.04647396 14.61090894 -5.53652227 12.67995882 -5.9375 8.9375 C-5.45686886 4.45160937 -4.88940924 0.83477719 0 0 Z " fill="#EEEEED" transform="translate(357.5625,397.5625)"/>
<path d="M0 0 C0.33 0 0.66 0 1 0 C1.04241723 2.33294775 1.04092937 4.66702567 1 7 C0 8 0 8 -2.5625 8.0625 C-3.366875 8.041875 -4.17125 8.02125 -5 8 C-5 8.66 -5 9.32 -5 10 C-3.68 10.33 -2.36 10.66 -1 11 C-6.42650773 14.51989691 -11.7193516 14.89163651 -18 14 C-20.6875 12.25 -20.6875 12.25 -22 10 C-22 8.68 -22 7.36 -22 6 C-14.74 6 -7.48 6 0 6 C0 4.02 0 2.04 0 0 Z " fill="#DDF8FD" transform="translate(457,541)"/>
<path d="M0 0 C3.625 0.375 3.625 0.375 7 1 C7.02685095 3.47923801 7.04676547 5.9581884 7.0625 8.4375 C7.07087891 9.14455078 7.07925781 9.85160156 7.08789062 10.58007812 C7.09653588 12.38693559 7.05220011 14.19387603 7 16 C6 17 6 17 3.0625 17.1875 C0 17 0 17 -2 15 C-2.265625 12.03125 -2.265625 12.03125 -2.25 8.5 C-2.25515625 7.3346875 -2.2603125 6.169375 -2.265625 4.96875 C-2 2 -2 2 0 0 Z " fill="#E3E3E1" transform="translate(511,468)"/>
<path d="M0 0 C0.33 0 0.66 0 1 0 C1.09765625 6.15234375 1.09765625 6.15234375 1 8 C-0.90615733 9.90615733 -4.08408698 9.26168174 -6.625 9.3125 C-12.72239803 9.2938345 -16.17292288 8.67777305 -21 5 C-21 4.34 -21 3.68 -21 3 C-17.77208445 0.8480563 -16.71599191 0.79913557 -13 1 C-12.67 1.99 -12.34 2.98 -12 4 C-10.18641846 3.52494322 -8.37415821 3.04483958 -6.5625 2.5625 C-5.55316406 2.29566406 -4.54382813 2.02882813 -3.50390625 1.75390625 C-1.08247999 1.24021923 -1.08247999 1.24021923 0 0 Z " fill="#25AFDD" transform="translate(400,553)"/>
<path d="M0 0 C3 0.125 3 0.125 4 1.125 C4.09975032 3.63636104 4.13882183 6.11403415 4.125 8.625 C4.12886719 9.32753906 4.13273437 10.03007812 4.13671875 10.75390625 C4.12661378 15.99838622 4.12661378 15.99838622 3 17.125 C0 17.25 0 17.25 -3 17.125 C-4.75559942 15.36940058 -4.13221919 13.08917558 -4.13671875 10.75390625 C-4.13285156 10.05136719 -4.12898438 9.34882813 -4.125 8.625 C-4.12886719 7.92246094 -4.13273437 7.21992188 -4.13671875 6.49609375 C-4.12453332 0.17185555 -4.12453332 0.17185555 0 0 Z " fill="#EEEEEC" transform="translate(462,397.875)"/>
<path d="M0 0 C2.375 1.625 2.375 1.625 4 4 C3.9343548 7.21661485 3.53834164 9.19248753 1.75 11.875 C-0.71846913 13.46187301 -2.11780274 13.49208246 -5 13 C-7.375 11.4375 -7.375 11.4375 -9 9 C-8.9375 5.375 -8.9375 5.375 -8 2 C-4.75173326 -0.16551116 -3.76905843 -0.55156953 0 0 Z " fill="#85CADE" transform="translate(532,524)"/>
<path d="M0 0 C3.96 0 7.92 0 12 0 C12.33 16.17 12.66 32.34 13 49 C8.71 49 4.42 49 0 49 C0 32.83 0 16.66 0 0 Z M1 1 C1 16.18 1 31.36 1 47 C4.3 47 7.6 47 11 47 C11 31.82 11 16.64 11 1 C7.7 1 4.4 1 1 1 Z " fill="#3EA7CA" transform="translate(295,310)"/>
<path d="M0 0 C2.49977543 3.33303391 3 4.73303602 3 9 C-6.41002278 12.44419134 -6.41002278 12.44419134 -11 12 C-11.33 10.35 -11.66 8.7 -12 7 C-11.34 7 -10.68 7 -10 7 C-10 6.34 -10 5.68 -10 5 C-9.01 5 -8.02 5 -7 5 C-7 4.34 -7 3.68 -7 3 C-8.98 3 -10.96 3 -13 3 C-13 2.67 -13 2.34 -13 2 C-11.39658445 1.66307215 -9.79223445 1.33058907 -8.1875 1 C-7.29417969 0.814375 -6.40085937 0.62875 -5.48046875 0.4375 C-3 0 -3 0 0 0 Z " fill="#1C1B17" transform="translate(420,484)"/>
<path d="M0 0 C1.65 0 3.3 0 5 0 C5 12.54 5 25.08 5 38 C0.38 38 -4.24 38 -9 38 C-9.33 27.44 -9.66 16.88 -10 6 C-10.66 7.65 -11.32 9.3 -12 11 C-12.33 11 -12.66 11 -13 11 C-13.33 7.7 -13.66 4.4 -14 1 C-11.03 1.495 -11.03 1.495 -8 2 C-8 13.55 -8 25.1 -8 37 C-4.04 37 -0.08 37 4 37 C4 25.12 4 13.24 4 1 C2.68 0.67 1.36 0.34 0 0 Z " fill="#B7E8F4" transform="translate(414,525)"/>
<path d="M0 0 C0 3.3 0 6.6 0 10 C-3.63 10.33 -7.26 10.66 -11 11 C-11 7.7 -11 4.4 -11 1 C-7.26562152 0.12132271 -3.83225427 -0.08912219 0 0 Z " fill="#21AFDC" transform="translate(417,509)"/>
<path d="M0 0 C2.24234009 3.36351013 2.27098215 4.62310056 2.25 8.5625 C2.25515625 9.53316406 2.2603125 10.50382812 2.265625 11.50390625 C2 14 2 14 0 16 C-0.99 16 -1.98 16 -3 16 C-3.33 16.66 -3.66 17.32 -4 18 C-6.8359375 18.51953125 -6.8359375 18.51953125 -10.375 18.8125 C-11.53773438 18.92207031 -12.70046875 19.03164063 -13.8984375 19.14453125 C-17 19 -17 19 -18.9140625 17.69921875 C-20 16 -20 16 -20 13 C-13.07 13 -6.14 13 1 13 C0.505 6.565 0.505 6.565 0 0 Z " fill="#D2D1D1" transform="translate(570,467)"/>
<path d="M0 0 C4.29 0 8.58 0 13 0 C13 12.54 13 25.08 13 38 C8.71 38 4.42 38 0 38 C0 37.67 0 37.34 0 37 C5.445 36.505 5.445 36.505 11 36 C11 25.11 11 14.22 11 3 C7.37 2.67 3.74 2.34 0 2 C0 1.34 0 0.68 0 0 Z " fill="#444340" transform="translate(635,388)"/>
<path d="M0 0 C1.33514648 -0.00580078 1.33514648 -0.00580078 2.69726562 -0.01171875 C11.54269391 0.00120372 19.42014617 0.49002061 27.5625 4.125 C28.0575 5.115 28.0575 5.115 28.5625 6.125 C24.99891799 5.68864302 21.68269254 5.1618857 18.24511719 4.10693359 C12.77325673 2.64791591 7.45761477 2.7530178 1.82128906 2.75439453 C-0.16878756 2.75004094 -2.15870538 2.7130642 -4.1484375 2.67578125 C-11.53445758 2.65357878 -17.46884189 3.3127238 -24.27441406 6.26318359 C-26.4375 7.125 -26.4375 7.125 -29.4375 7.125 C-29.4375 6.465 -29.4375 5.805 -29.4375 5.125 C-28.1175 5.125 -26.7975 5.125 -25.4375 5.125 C-25.4375 4.465 -25.4375 3.805 -25.4375 3.125 C-16.95676216 0.47476942 -8.83983607 -0.0382401 0 0 Z " fill="#E9FDFE" transform="translate(108.4375,351.875)"/>
<path d="M0 0 C0.99 0 1.98 0 3 0 C3.125 6.625 3.125 6.625 2 10 C1.21625 9.67 0.4325 9.34 -0.375 9 C-4.99361869 7.72589829 -9.24249356 7.83076064 -14 8 C-14.33 9.65 -14.66 11.3 -15 13 C-11.06171464 15.31663844 -7.30764815 17.43358249 -3 19 C-3 19.33 -3 19.66 -3 20 C-4.43725871 20.16873478 -5.87481838 20.33490737 -7.3125 20.5 C-8.11300781 20.5928125 -8.91351563 20.685625 -9.73828125 20.78125 C-12 21 -12 21 -15 21 C-16.97094808 16.07262981 -17.1799928 12.21979128 -17 7 C-14.14804778 5.57402389 -11.67538825 5.8679748 -8.5 5.875 C-7.3346875 5.87242187 -6.169375 5.86984375 -4.96875 5.8671875 C-2 6 -2 6 0 7 C0 4.69 0 2.38 0 0 Z " fill="#33B1DA" transform="translate(322,515)"/>
<path d="M0 0 C3.96 0 7.92 0 12 0 C12 12.21 12 24.42 12 37 C7.71 37 3.42 37 -1 37 C-0.84660156 36.10152344 -0.69320313 35.20304687 -0.53515625 34.27734375 C0.25649335 28.73579656 0.36021341 23.15025261 0.5625 17.5625 C0.60568359 16.44939453 0.64886719 15.33628906 0.69335938 14.18945312 C0.79879888 11.45974156 0.90092029 8.72994857 1 6 C1.33 6 1.66 6 2 6 C2 15.24 2 24.48 2 34 C4.97 34.66 7.94 35.32 11 36 C11 24.45 11 12.9 11 1 C7.37 1 3.74 1 0 1 C0 0.67 0 0.34 0 0 Z " fill="#1D1C17" transform="translate(477,458)"/>
<path d="M0 0 C7.26 0 14.52 0 22 0 C21.67 0.99 21.34 1.98 21 3 C19.68 3 18.36 3 17 3 C16.67 3.66 16.34 4.32 16 5 C11.68770157 6.3067571 7.45435932 6.35922253 3 6 C1 4.125 1 4.125 0 2 C0 1.34 0 0.68 0 0 Z " fill="#DEDEDE" transform="translate(669,480)"/>
<path d="M0 0 C2.31 0 4.62 0 7 0 C7 0.33 7 0.66 7 1 C5.35 1 3.7 1 2 1 C2 6.61 2 12.22 2 18 C2.99 18 3.98 18 5 18 C5 18.66 5 19.32 5 20 C5.99 20 6.98 20 8 20 C8 23.3 8 26.6 8 30 C5.23547967 31.38226016 2.9538637 31.09525387 -0.125 31.0625 C-1.22070312 31.05347656 -2.31640625 31.04445313 -3.4453125 31.03515625 C-4.70988281 31.01775391 -4.70988281 31.01775391 -6 31 C-6.33 30.34 -6.66 29.68 -7 29 C-2.38 29 2.24 29 7 29 C7 26.36 7 23.72 7 21 C5.02 21 3.04 21 1 21 C-0.17426264 18.65147472 -0.11508173 17.26225935 -0.09765625 14.6484375 C-0.09443359 13.79765625 -0.09121094 12.946875 -0.08789062 12.0703125 C-0.07532227 10.73613281 -0.07532227 10.73613281 -0.0625 9.375 C-0.05798828 8.4778125 -0.05347656 7.580625 -0.04882812 6.65625 C-0.03702591 4.43743352 -0.02056155 2.21874982 0 0 Z " fill="#CFF5FB" transform="translate(475,534)"/>
<path d="M0 0 C2.375 -0.125 2.375 -0.125 5 0 C7 2 7 2 7.22705078 4.52197266 C7.21134033 6.07730713 7.21134033 6.07730713 7.1953125 7.6640625 C7.18564453 9.34628906 7.18564453 9.34628906 7.17578125 11.0625 C7.15902344 12.238125 7.14226563 13.41375 7.125 14.625 C7.11597656 15.80835938 7.10695313 16.99171875 7.09765625 18.2109375 C7.07402812 21.14082523 7.04108514 24.0703134 7 27 C6.01 27 5.02 27 4 27 C4 19.08 4 11.16 4 3 C3.34 2.67 2.68 2.34 2 2 C0.28556781 3.71443219 0.76947033 6.00445241 0.68359375 8.34765625 C0.64169922 9.42724609 0.59980469 10.50683594 0.55664062 11.61914062 C0.51732422 12.75544922 0.47800781 13.89175781 0.4375 15.0625 C0.39431641 16.20267578 0.35113281 17.34285156 0.30664062 18.51757812 C0.20017161 21.34492195 0.09815793 24.17235738 0 27 C-0.33 27 -0.66 27 -1 27 C-1.02892385 22.87501462 -1.04677267 18.75005515 -1.0625 14.625 C-1.07087891 13.449375 -1.07925781 12.27375 -1.08789062 11.0625 C-1.09111328 9.94101562 -1.09433594 8.81953125 -1.09765625 7.6640625 C-1.10289307 6.62717285 -1.10812988 5.5902832 -1.11352539 4.52197266 C-1 2 -1 2 0 0 Z " fill="#EAEAE8" transform="translate(712,398)"/>
<path d="M0 0 C0.66 0 1.32 0 2 0 C3.91734564 6.43409663 4.27561354 12.24550839 4.1875 18.9375 C4.18685547 19.89462891 4.18621094 20.85175781 4.18554688 21.83789062 C4.14069754 28.85930246 4.14069754 28.85930246 3 30 C2.814375 31.8253125 2.814375 31.8253125 2.625 33.6875 C2.1786994 37.62627988 1.0838822 40.58243319 -1 44 C-1.99 44.495 -1.99 44.495 -3 45 C-2.71342606 43.45737855 -2.42046123 41.91594394 -2.125 40.375 C-1.96257812 39.51648438 -1.80015625 38.65796875 -1.6328125 37.7734375 C-1 35 -1 35 0.05859375 32.41796875 C1.47492073 27.27570276 1.24812587 22.24385881 1.1875 16.9375 C1.18685547 15.86177734 1.18621094 14.78605469 1.18554688 13.67773438 C1.15925015 8.96477754 1.04776109 4.61171651 0 0 Z " fill="#D3F7FD" transform="translate(265,351)"/>
<path d="M0 0 C1.6484375 1.03515625 1.6484375 1.03515625 3 3 C3.21714241 5.81127043 3.28284276 8.3883345 3.1875 11.1875 C3.17396484 11.93708984 3.16042969 12.68667969 3.14648438 13.45898438 C3.11118539 15.30629767 3.05737917 17.15324066 3 19 C2.67 19 2.34 19 2 19 C1.92652344 17.64455078 1.92652344 17.64455078 1.8515625 16.26171875 C1.77679688 15.08222656 1.70203125 13.90273438 1.625 12.6875 C1.55539062 11.51574219 1.48578125 10.34398437 1.4140625 9.13671875 C1.21386253 5.84300113 1.21386253 5.84300113 -1 3 C-3.16874252 3.50603992 -4.99967627 3.99983813 -7 5 C-7.46954261 8.04581269 -7.46954261 8.04581269 -7.625 11.5625 C-7.69976562 12.76003906 -7.77453125 13.95757813 -7.8515625 15.19140625 C-7.90054687 16.11824219 -7.94953125 17.04507813 -8 18 C-7.34 18.33 -6.68 18.66 -6 19 C-6.66 19.66 -7.32 20.32 -8 21 C-10.43649923 15.64164313 -10.58422725 10.80739328 -10 5 C-7.63115826 -0.38373123 -5.66463472 -1.65794187 0 0 Z " fill="#C2F0FA" transform="translate(353,533)"/>
<path d="M0 0 C2.97855356 2.97855356 2.35625184 6.29024823 2.4140625 10.2890625 C2.43342865 11.10748627 2.4527948 11.92591003 2.4727478 12.76913452 C2.53261082 15.38764976 2.57895532 18.00620881 2.625 20.625 C2.66317364 22.39845686 2.70222501 24.17189505 2.7421875 25.9453125 C2.83831771 30.29672375 2.92232351 34.64822179 3 39 C1.515 39.495 1.515 39.495 0 40 C0 26.8 0 13.6 0 0 Z " fill="#11100C" transform="translate(432,453)"/>
<path d="M0 0 C0 0.33 0 0.66 0 1 C-6.435 1.495 -6.435 1.495 -13 2 C-12.01 2.66 -11.02 3.32 -10 4 C-10.639375 4.598125 -11.27875 5.19625 -11.9375 5.8125 C-14.20310389 7.90810337 -14.20310389 7.90810337 -15 11 C-16.32 11.33 -17.64 11.66 -19 12 C-19.99 9.03 -20.98 6.06 -22 3 C-14.69065285 -0.50848663 -8.00945568 -0.30372936 0 0 Z " fill="#302F2D" transform="translate(763,387)"/>
<path d="M0 0 C0.33 0 0.66 0 1 0 C1.33 6.93 1.66 13.86 2 21 C3.98 21 5.96 21 8 21 C8 23.64 8 26.28 8 29 C5.73020335 29.10794277 3.45894804 29.18556176 1.1875 29.25 C-0.07707031 29.29640625 -1.34164063 29.3428125 -2.64453125 29.390625 C-6 29 -6 29 -7.94921875 26.984375 C-8.29597656 26.32953125 -8.64273437 25.6746875 -9 25 C-7.68 25 -6.36 25 -5 25 C-5 25.66 -5 26.32 -5 27 C-1.04 27 2.92 27 7 27 C7 25.68 7 24.36 7 23 C5.824375 23.0928125 5.824375 23.0928125 4.625 23.1875 C3.75875 23.125625 2.8925 23.06375 2 23 C-0.13604308 19.79593538 -0.24208908 19.00399253 -0.1953125 15.33203125 C-0.18564453 13.99301758 -0.18564453 13.99301758 -0.17578125 12.62695312 C-0.15902344 11.69818359 -0.14226562 10.76941406 -0.125 9.8125 C-0.11597656 8.87212891 -0.10695313 7.93175781 -0.09765625 6.96289062 C-0.07409056 4.64167032 -0.04119116 2.32096356 0 0 Z " fill="#49B2D5" transform="translate(474,534)"/>
<path d="M0 0 C0 3.96 0 7.92 0 12 C2.31 12 4.62 12 7 12 C7 14.64 7 17.28 7 20 C4.69 20 2.38 20 0 20 C1.32 19.67 2.64 19.34 4 19 C3.67 17.68 3.34 16.36 3 15 C1.68 14.67 0.36 14.34 -1 14 C-1.33 10.37 -1.66 6.74 -2 3 C-4.64 3.33 -7.28 3.66 -10 4 C-10 6.64 -10 9.28 -10 12 C-10.33 12 -10.66 12 -11 12 C-11 9.03 -11 6.06 -11 3 C-9.54293274 2.49632243 -8.08429904 1.99717444 -6.625 1.5 C-5.81289063 1.2215625 -5.00078125 0.943125 -4.1640625 0.65625 C-2 0 -2 0 0 0 Z " fill="#3BB3DB" transform="translate(475,514)"/>
<path d="M0 0 C6.93 0 13.86 0 21 0 C21 0.33 21 0.66 21 1 C18.69 1.33 16.38 1.66 14 2 C14.99 2.66 15.98 3.32 17 4 C12.50744588 6.31873761 7.95895174 6.80260491 3 6 C0.9375 4.125 0.9375 4.125 0 2 C0 1.34 0 0.68 0 0 Z " fill="#D4D4D3" transform="translate(403,480)"/>
<path d="M0 0 C0.33 0 0.66 0 1 0 C1.03738281 0.67546875 1.07476563 1.3509375 1.11328125 2.046875 C1.17902344 2.93890625 1.24476563 3.8309375 1.3125 4.75 C1.37050781 5.63171875 1.42851563 6.5134375 1.48828125 7.421875 C2.0706868 10.35613198 3.21349179 11.65255649 5 14 C6.06603632 19.74823507 4.8049966 23.95100611 2 29 C1.29241674 32.2366963 1.29241674 32.2366963 1 35 C0.67 35 0.34 35 0 35 C0 23.45 0 11.9 0 0 Z " fill="#F8F8F6" transform="translate(531,458)"/>
<path d="M0 0 C2 3 2 3 2 5 C3.32 4.67 4.64 4.34 6 4 C6.33 8.29 6.66 12.58 7 17 C6.01 17 5.02 17 4 17 C1.81222534 18.9375006 1.81222534 18.9375006 0 21 C0.165 20.360625 0.33 19.72125 0.5 19.0625 C1.60749418 12.27909815 1.71109315 7.03052638 -2 1 C-1.34 0.67 -0.68 0.34 0 0 Z " fill="#E3FBFE" transform="translate(325,536)"/>
<path d="M0 0 C3 0.1875 3 0.1875 5 1.1875 C5 3.1675 5 5.1475 5 7.1875 C1.37 7.1875 -2.26 7.1875 -6 7.1875 C-4.62025316 0.28876582 -4.62025316 0.28876582 0 0 Z " fill="#D3F5FC" transform="translate(441,532.8125)"/>
<path d="M0 0 C3.5 0.125 3.5 0.125 4.5 1.125 C4.54080783 3.12458364 4.54254356 5.12545254 4.5 7.125 C0.045 7.62 0.045 7.62 -4.5 8.125 C-4.54241723 5.79205225 -4.54092937 3.45797433 -4.5 1.125 C-3.5 0.125 -3.5 0.125 0 0 Z " fill="#DFDEDC" transform="translate(576.5,408.875)"/>
<path d="M0 0 C1.63001953 0.01353516 1.63001953 0.01353516 3.29296875 0.02734375 C4.12441406 0.03894531 4.95585938 0.05054688 5.8125 0.0625 C6.1425 1.7125 6.4725 3.3625 6.8125 5.0625 C1.8625 5.0625 -3.0875 5.0625 -8.1875 5.0625 C-8.5175 3.7425 -8.8475 2.4225 -9.1875 1.0625 C-5.90230525 -0.03256492 -3.45086585 -0.03710608 0 0 Z " fill="#E7E6E5" transform="translate(574.1875,396.9375)"/>
<path d="M0 0 C1.134375 0.020625 2.26875 0.04125 3.4375 0.0625 C3.4375 2.3725 3.4375 4.6825 3.4375 7.0625 C0.0625 7.6875 0.0625 7.6875 -3.5625 8.0625 C-4.2225 7.4025 -4.8825 6.7425 -5.5625 6.0625 C-4.83351201 0.08479846 -4.83351201 0.08479846 0 0 Z " fill="#E3E2E0" transform="translate(756.5625,408.9375)"/>
<path d="M0 0 C0.33 0 0.66 0 1 0 C1 3.63 1 7.26 1 11 C7.27 11 13.54 11 20 11 C20 13.97 20 16.94 20 20 C19.34 19.67 18.68 19.34 18 19 C18 17.02 18 15.04 18 13 C12.06 13 6.12 13 0 13 C0 8.71 0 4.42 0 0 Z " fill="#67C2E0" transform="translate(367,338)"/>
<path d="M0 0 C4.50802601 1.25805377 7.4912812 2.90407165 11 6 C10.68762196 8.88949684 10.35661121 10.58633099 8.4375 12.8125 C4.9681268 14.50270746 1.74672902 14.55985606 -2 14 C-5.5 12.5 -5.5 12.5 -8 11 C-8 10.67 -8 10.34 -8 10 C-6.33388095 9.957279 -4.66617115 9.95936168 -3 10 C-2.67 10.33 -2.34 10.66 -2 11 C-0.48530552 11.23192865 1.03754562 11.41215238 2.5625 11.5625 C3.38878906 11.64628906 4.21507812 11.73007812 5.06640625 11.81640625 C5.70449219 11.87699219 6.34257812 11.93757812 7 12 C7 11.34 7 10.68 7 10 C7.66 10 8.32 10 9 10 C8.34 9.01 7.68 8.02 7 7 C7 6.01 7 5.02 7 4 C5.68 4 4.36 4 3 4 C3 3.34 3 2.68 3 2 C2.01 2 1.02 2 0 2 C0 1.34 0 0.68 0 0 Z " fill="#C0EFFB" transform="translate(304,541)"/>
<path d="M0 0 C1.65 0 3.3 0 5 0 C5 7.92 5 15.84 5 24 C1.625 19.5 1.625 19.5 1.70703125 15.453125 C1.71669922 14.60878906 1.72636719 13.76445313 1.73632812 12.89453125 C1.76146484 12.02183594 1.78660156 11.14914062 1.8125 10.25 C1.82603516 9.36183594 1.83957031 8.47367188 1.85351562 7.55859375 C1.88878691 5.37177422 1.93807248 3.18620034 2 1 C1.34 0.67 0.68 0.34 0 0 Z " fill="#CAEFF7" transform="translate(459,534)"/>
<path d="M0 0 C1.60294922 0.01353516 1.60294922 0.01353516 3.23828125 0.02734375 C4.04652344 0.03894531 4.85476563 0.05054688 5.6875 0.0625 C4.96626953 0.96742188 4.96626953 0.96742188 4.23046875 1.890625 C2.50955451 4.31297518 2.0922532 6.14827697 1.6875 9.0625 C0.6975 9.0625 -0.2925 9.0625 -1.3125 9.0625 C-1.6425 10.7125 -1.9725 12.3625 -2.3125 14.0625 C-3.3025 13.7325 -4.2925 13.4025 -5.3125 13.0625 C-4.83519162 11.6035574 -4.35558958 10.14536504 -3.875 8.6875 C-3.60816406 7.87539063 -3.34132813 7.06328125 -3.06640625 6.2265625 C-2.3125 4.0625 -2.3125 4.0625 -1.3125 2.0625 C-4.6125 2.0625 -7.9125 2.0625 -11.3125 2.0625 C-11.3125 1.7325 -11.3125 1.4025 -11.3125 1.0625 C-7.47525828 0.15836327 -3.93747726 -0.04326898 0 0 Z " fill="#D9F6FC" transform="translate(521.3125,523.9375)"/>
<path d="M0 0 C0.99 0.33 1.98 0.66 3 1 C3.6875 3.0625 3.6875 3.0625 4 5 C5.32 5 6.64 5 8 5 C7.67 8.63 7.34 12.26 7 16 C6.34 14.68 5.68 13.36 5 12 C4.67 15.63 4.34 19.26 4 23 C3.34 23 2.68 23 2 23 C2.02320313 21.92621094 2.04640625 20.85242188 2.0703125 19.74609375 C2.08908624 18.30990285 2.1072847 16.87370435 2.125 15.4375 C2.14175781 14.73302734 2.15851563 14.02855469 2.17578125 13.30273438 C2.22022044 8.48108178 1.52768004 4.57702562 0 0 Z " fill="#E0FAFE" transform="translate(365,531)"/>
<path d="M0 0 C1.50433594 0.01353516 1.50433594 0.01353516 3.0390625 0.02734375 C3.80992187 0.03894531 4.58078125 0.05054688 5.375 0.0625 C5.705 1.7125 6.035 3.3625 6.375 5.0625 C1.425 5.0625 -3.525 5.0625 -8.625 5.0625 C-8.295 3.7425 -7.965 2.4225 -7.625 1.0625 C-4.98041621 -0.25979189 -2.94738699 -0.03427194 0 0 Z " fill="#ECEBEA" transform="translate(753.625,396.9375)"/>
<path d="M0 0 C-1.2452213 3.73566391 -2.82629578 4.10771678 -6.15625 5.90234375 C-10.70254086 8.60892793 -13.48652237 12.45180238 -16 17 C-16.66 17.99 -17.32 18.98 -18 20 C-18.66 20 -19.32 20 -20 20 C-20 20.66 -20 21.32 -20 22 C-20.99 22.33 -21.98 22.66 -23 23 C-20.08061604 14.82282006 -9.67023803 0 0 0 Z " fill="#43B4D8" transform="translate(197,312)"/>
<path d="M0 0 C0 3.3 0 6.6 0 10 C-1.32 10 -2.64 10 -4 10 C-4 8.02 -4 6.04 -4 4 C-5.36125 4.309375 -5.36125 4.309375 -6.75 4.625 C-10.21546863 5.02486177 -11.09470856 4.65475295 -14 3 C-13.30132812 2.86722656 -12.60265625 2.73445312 -11.8828125 2.59765625 C-10.51769531 2.33275391 -10.51769531 2.33275391 -9.125 2.0625 C-8.22007812 1.88847656 -7.31515625 1.71445312 -6.3828125 1.53515625 C-4.0328149 1.0073699 -2.39804152 0 0 0 Z " fill="#35AFD7" transform="translate(456,552)"/>
<path d="M0 0 C0 1.65 0 3.3 0 5 C-0.66 4.34 -1.32 3.68 -2 3 C-3.98821313 2.60235737 -5.98944339 2.26224651 -8 2 C-8 4.31 -8 6.62 -8 9 C-5.36 8.67 -2.72 8.34 0 8 C0.33 8.66 0.66 9.32 1 10 C-2.63 10.33 -6.26 10.66 -10 11 C-10 7.7 -10 4.4 -10 1 C-6.59437148 0.22157062 -3.49234244 -0.09978121 0 0 Z " fill="#39AFD6" transform="translate(416,509)"/>
<path d="M0 0 C0.33 0 0.66 0 1 0 C1.79746733 4.90505698 2.13522696 9.57685479 2.125 14.5625 C2.12757813 15.82191406 2.13015625 17.08132813 2.1328125 18.37890625 C2.0116308 21.68288966 1.62922955 24.75896843 1 28 C0.34 28 -0.32 28 -1 28 C-1.1820896 18.63250185 -0.61326035 9.3412692 0 0 Z " fill="#4CB8D9" transform="translate(268,494)"/>
<path d="M0 0 C10.55808656 -0.3690205 10.55808656 -0.3690205 15 2 C15 4.97 15 7.94 15 11 C11.37 10.34 7.74 9.68 4 9 C4 8.67 4 8.34 4 8 C10.625 6.875 10.625 6.875 14 8 C14 6.35 14 4.7 14 3 C7.07 2.505 7.07 2.505 0 2 C0 1.34 0 0.68 0 0 Z " fill="#47B1D4" transform="translate(386,525)"/>
<path d="M0 0 C0.99 0.33 1.98 0.66 3 1 C3.05786668 4.79160297 3.09355054 8.58309311 3.125 12.375 C3.14175781 13.45523437 3.15851563 14.53546875 3.17578125 15.6484375 C3.18222656 16.6796875 3.18867188 17.7109375 3.1953125 18.7734375 C3.20578613 19.72653809 3.21625977 20.67963867 3.22705078 21.66162109 C3 24 3 24 1 26 C0 25 0 25 -0.11352539 22.59155273 C-0.10828857 21.54942627 -0.10305176 20.5072998 -0.09765625 19.43359375 C-0.09443359 18.30888672 -0.09121094 17.18417969 -0.08789062 16.02539062 C-0.07951172 14.84138672 -0.07113281 13.65738281 -0.0625 12.4375 C-0.05798828 11.24962891 -0.05347656 10.06175781 -0.04882812 8.83789062 C-0.03699675 5.89187774 -0.02051287 2.94596319 0 0 Z " fill="#C9C8C6" transform="translate(499,388)"/>
<path d="M0 0 C3.98347226 -0.07480519 7.96666594 -0.12890718 11.95068359 -0.16479492 C13.96336248 -0.18709408 15.97584584 -0.22523653 17.98828125 -0.26367188 C25.00966725 -0.3165969 30.69675678 -0.25404931 37 3 C37.495 3.99 37.495 3.99 38 5 C34.54193974 4.57656405 31.33984554 4.11447429 28.03125 3 C22.66926351 1.42795167 17.10972457 1.53302183 11.5625 1.375 C9.8928418 1.31699219 9.8928418 1.31699219 8.18945312 1.2578125 C5.45979524 1.16409034 2.73013437 1.07837706 0 1 C0 0.67 0 0.34 0 0 Z " fill="#BDEAF6" transform="translate(99,353)"/>
<path d="M0 0 C0 0.66 0 1.32 0 2 C-1.41539062 2.07347656 -1.41539062 2.07347656 -2.859375 2.1484375 C-11.02686518 2.6240544 -18.95027687 3.45601214 -27 5 C-26 3 -26 3 -24.27734375 2.1484375 C-16.18855902 -0.52531772 -8.40946242 -0.28170656 0 0 Z " fill="#53B8D9" transform="translate(224,307)"/>
<path d="M0 0 C2.38493864 3.57740796 2.74774115 5.72045073 3 10 C2.00390625 13.74609375 2.00390625 13.74609375 0.5625 17.4375 C0.31951172 18.07365234 0.07652344 18.70980469 -0.17382812 19.36523438 C-0.76835762 20.91567403 -1.38219258 22.45868807 -2 24 C1.3 24 4.6 24 8 24 C8 24.33 8 24.66 8 25 C4.37 25 0.74 25 -3 25 C-3 22.03 -3 19.06 -3 16 C-2.34 15.67 -1.68 15.34 -1 15 C0.09506492 11.71480525 0.09960608 9.26336585 0.0625 5.8125 C0.04896484 4.18248047 0.04896484 4.18248047 0.03515625 2.51953125 C0.02355469 1.68808594 0.01195312 0.85664062 0 0 Z " fill="#B6EBF8" transform="translate(494,555)"/>
<path d="M0 0 C0.5625 1.9375 0.5625 1.9375 1 4 C0.67 4.33 0.34 4.66 0 5 C-0.23427778 7.01594582 -0.41336124 9.038474 -0.5625 11.0625 C-0.68818359 12.71958984 -0.68818359 12.71958984 -0.81640625 14.41015625 C-0.87699219 15.26480469 -0.93757813 16.11945312 -1 17 C-0.34 17 0.32 17 1 17 C1.33 19.64 1.66 22.28 2 25 C-1.7603149 22.4931234 -1.98845125 21.35744075 -3 17 C-3.61910884 10.52070573 -3.01205897 5.77311303 0 0 Z " fill="#53B8D9" transform="translate(426,532)"/>
<path d="M0 0 C0.66 0 1.32 0 2 0 C3.32 4.29 4.64 8.58 6 13 C6.33 13 6.66 13 7 13 C7.66 11.02 8.32 9.04 9 7 C10.21065165 10.63195496 9.62784815 12.06531629 8.5625 15.6875 C8.13130859 17.17830078 8.13130859 17.17830078 7.69140625 18.69921875 C7.46324219 19.45847656 7.23507812 20.21773437 7 21 C4.49942296 18.49942296 4.29094262 16.73848516 3.5 13.3125 C2.43839067 8.83434086 1.30382387 4.41294232 0 0 Z " fill="#D3F7FD" transform="translate(497,526)"/>
<path d="M0 0 C2.6875 2 2.6875 2 4 4 C3.17435547 3.76216797 3.17435547 3.76216797 2.33203125 3.51953125 C-3.54484232 2.21027801 -9.80365462 1.8585816 -15.0625 5.0625 C-16.031875 5.701875 -17.00125 6.34125 -18 7 C-18.66 6.67 -19.32 6.34 -20 6 C-14.07033547 -0.42380324 -8.58699941 -1.00333681 0 0 Z " fill="#4AB4D6" transform="translate(447,525)"/>
<path d="M0 0 C0.66 0.33 1.32 0.66 2 1 C0.7260411 3.03833424 -0.61061923 5.03852126 -2 7 C-2.66 7 -3.32 7 -4 7 C-3.84653748 14.05927607 -3.1246795 18.00672254 2 23 C-1 23 -1 23 -3.125 21.0625 C-5.57346732 17.06333672 -6.22231832 13.66868466 -6 9 C-4.61760462 5.26753247 -3.02616077 2.59385209 0 0 Z " fill="#3EB0D6" transform="translate(300,515)"/>
<path d="M0 0 C0.66 0.33 1.32 0.66 2 1 C1.59007812 1.96679688 1.18015625 2.93359375 0.7578125 3.9296875 C-2.27151461 11.20362768 -4.92666778 18.13506563 -6 26 C-6.33 26 -6.66 26 -7 26 C-8.51708428 16.58997722 -8.51708428 16.58997722 -6 12 C-5.34 12 -4.68 12 -4 12 C-3.87625 11.113125 -3.7525 10.22625 -3.625 9.3125 C-2.30232558 2.30232558 -2.30232558 2.30232558 0 0 Z " fill="#D2F6FD" transform="translate(173,332)"/>
<path d="M0 0 C0.66 0.66 1.32 1.32 2 2 C1.54545455 7.45454545 1.54545455 7.45454545 -1 10 C-3.1640625 10.1953125 -3.1640625 10.1953125 -5.625 10.125 C-6.44226563 10.10695313 -7.25953125 10.08890625 -8.1015625 10.0703125 C-8.72804688 10.04710937 -9.35453125 10.02390625 -10 10 C-10 9.67 -10 9.34 -10 9 C-7.36 9 -4.72 9 -2 9 C-2 8.34 -2 7.68 -2 7 C-2.66 7 -3.32 7 -4 7 C-3.6875 4.625 -3.6875 4.625 -3 2 C-2.01 1.34 -1.02 0.68 0 0 Z " fill="#292924" transform="translate(647,375)"/>
<path d="M0 0 C-0.33 3.96 -0.66 7.92 -1 12 C-2.65 12 -4.3 12 -6 12 C-6 11.34 -6 10.68 -6 10 C-5.34 10 -4.68 10 -4 10 C-4 7.69 -4 5.38 -4 3 C-4.99 2.67 -5.98 2.34 -7 2 C-2.25 0 -2.25 0 0 0 Z " fill="#363532" transform="translate(386,483)"/>
<path d="M0 0 C3.0625 0.1875 3.0625 0.1875 5.0625 2.1875 C5.0625 3.1775 5.0625 4.1675 5.0625 5.1875 C1.7625 5.1875 -1.5375 5.1875 -4.9375 5.1875 C-3.69966216 0.23614865 -3.69966216 0.23614865 0 0 Z " fill="#D0CFCD" transform="translate(673.9375,466.8125)"/>
<path d="M0 0 C3.0625 0.1875 3.0625 0.1875 5.0625 2.1875 C5.0625 3.1775 5.0625 4.1675 5.0625 5.1875 C1.7625 5.1875 -1.5375 5.1875 -4.9375 5.1875 C-3.69966216 0.23614865 -3.69966216 0.23614865 0 0 Z " fill="#E7E5E4" transform="translate(407.9375,466.8125)"/>
<path d="M0 0 C1.4540625 0.0309375 1.4540625 0.0309375 2.9375 0.0625 C3.5975 1.7125 4.2575 3.3625 4.9375 5.0625 C1.6375 5.0625 -1.6625 5.0625 -5.0625 5.0625 C-3.81634615 0.07788462 -3.81634615 0.07788462 0 0 Z " fill="#EAE9E7" transform="translate(555.0625,466.9375)"/>
<path d="M0 0 C0.65355469 0.15339844 1.30710937 0.30679688 1.98046875 0.46484375 C5.75492159 1.13379594 9.48905996 1.35407297 13.3125 1.5625 C14.05306641 1.60568359 14.79363281 1.64886719 15.55664062 1.69335938 C17.37091464 1.79870432 19.1854355 1.89978316 21 2 C20.67 2.66 20.34 3.32 20 4 C17.60385874 4.05425226 15.20896147 4.09379027 12.8125 4.125 C11.80219727 4.15013672 11.80219727 4.15013672 10.77148438 4.17578125 C6.71192193 4.21538674 3.65001185 3.80020002 0 2 C0 1.34 0 0.68 0 0 Z " fill="#D1F6FD" transform="translate(431,561)"/>
<path d="M0 0 C1.60407328 -0.02708567 3.2082785 -0.04643483 4.8125 -0.0625 C5.70582031 -0.07410156 6.59914063 -0.08570313 7.51953125 -0.09765625 C10 0 10 0 13 1 C13 2.65 13 4.3 13 6 C8.545 5.01 8.545 5.01 4 4 C4.33 3.34 4.66 2.68 5 2 C3.35 1.67 1.7 1.34 0 1 C0 0.67 0 0.34 0 0 Z " fill="#20B1E2" transform="translate(387,527)"/>
<path d="M0 0 C-0.57105469 0.20753906 -1.14210938 0.41507812 -1.73046875 0.62890625 C-9.18225547 3.46034826 -16.0521831 7.12316173 -23 11 C-22.8125 9.125 -22.8125 9.125 -22 7 C-19.84765625 5.94921875 -19.84765625 5.94921875 -17 5 C-13.67953928 3.39463649 -10.3657723 1.77709222 -7.05859375 0.14453125 C-4.01311282 -0.99509316 -2.93108892 -1.23980045 0 0 Z " fill="#40B0D6" transform="translate(128,380)"/>
<path d="M0 0 C0.33 0 0.66 0 1 0 C1 2.64 1 5.28 1 8 C4.3 8 7.6 8 11 8 C11 6.35 11 4.7 11 3 C12.4606285 5.64738916 13 6.89448334 13 10 C8.71 10 4.42 10 0 10 C0 6.7 0 3.4 0 0 Z " fill="#4DAFD0" transform="translate(295,349)"/>
<path d="M0 0 C0.66 0.33 1.32 0.66 2 1 C-0.67031284 3.67733998 -2.03721441 4.00280229 -5.890625 4.29296875 C-7.34404009 4.27314945 -8.79731167 4.23754845 -10.25 4.1875 C-10.99507813 4.17396484 -11.74015625 4.16042969 -12.5078125 4.14648438 C-14.33885416 4.11127204 -16.16952169 4.05746851 -18 4 C-18 3.34 -18 2.68 -18 2 C-16.95199219 1.93941406 -15.90398437 1.87882813 -14.82421875 1.81640625 C-13.44529952 1.73198262 -12.06639395 1.64733553 -10.6875 1.5625 C-9.99720703 1.52318359 -9.30691406 1.48386719 -8.59570312 1.44335938 C-5.52838465 1.25072585 -2.93031848 0.97677283 0 0 Z " fill="#C1F0FB" transform="translate(318,561)"/>
<path d="M0 0 C1.9375 0.6875 1.9375 0.6875 4 2 C4.9375 4.4375 4.9375 4.4375 5 7 C3.18682851 9.53844009 2.01532925 9.99489025 -1 11 C-2.72795352 11.06802967 -4.45835365 11.08495645 -6.1875 11.0625 C-7.53908203 11.04896484 -7.53908203 11.04896484 -8.91796875 11.03515625 C-9.60503906 11.02355469 -10.29210937 11.01195312 -11 11 C-11 10.67 -11 10.34 -11 10 C-9.95199219 9.81824219 -9.95199219 9.81824219 -8.8828125 9.6328125 C-7.51769531 9.38144531 -7.51769531 9.38144531 -6.125 9.125 C-4.76761719 8.88136719 -4.76761719 8.88136719 -3.3828125 8.6328125 C-0.83494012 8.16955297 -0.83494012 8.16955297 1 6 C0.67801034 2.90073181 0.67801034 2.90073181 0 0 Z " fill="#38B0D7" transform="translate(313,545)"/>
<path d="M0 0 C0.99 0 1.98 0 3 0 C2.25 7.75 2.25 7.75 0 10 C-0.46006346 12.20250992 -0.46006346 12.20250992 -0.625 14.625 C-0.69976562 15.44226563 -0.77453125 16.25953125 -0.8515625 17.1015625 C-0.92503906 18.04128906 -0.92503906 18.04128906 -1 19 C-1.33 19 -1.66 19 -2 19 C-2.22262303 12.2718373 -1.95021536 6.46008837 0 0 Z " fill="#3C3B39" transform="translate(498,464)"/>
<path d="M0 0 C3.55780196 0.60990891 6.6828589 1.5783681 10 3 C7.21247638 5.78752362 4.86817284 5.69513914 1 6.25 C-0.258125 6.44078125 -1.51625 6.6315625 -2.8125 6.828125 C-3.864375 6.88484375 -4.91625 6.9415625 -6 7 C-6.66 6.34 -7.32 5.68 -8 5 C-4.7 4.34 -1.4 3.68 2 3 C1.34 2.01 0.68 1.02 0 0 Z " fill="#38AED5" transform="translate(156,366)"/>
<path d="M0 0 C0.33 0 0.66 0 1 0 C0.58411954 6.19518473 -0.60251894 11.26689311 -3 17 C-3.66 17 -4.32 17 -5 17 C-4.54971412 14.72755724 -4.08949383 12.45708123 -3.625 10.1875 C-3.36976563 8.92292969 -3.11453125 7.65835938 -2.8515625 6.35546875 C-2 3 -2 3 0 0 Z " fill="#CBF3FB" transform="translate(510,553)"/>
<path d="M0 0 C3.96 0 7.92 0 12 0 C12 0.66 12 1.32 12 2 C13.65 2.33 15.3 2.66 17 3 C17 3.66 17 4.32 17 5 C16.05125 4.690625 15.1025 4.38125 14.125 4.0625 C9.49061575 2.72071729 4.79447959 2.36657993 0 2 C0 1.34 0 0.68 0 0 Z " fill="#DCF9FD" transform="translate(345,523)"/>
<path d="M0 0 C0.99 0 1.98 0 3 0 C3.125 6.625 3.125 6.625 2 10 C1.175 9.690625 0.35 9.38125 -0.5 9.0625 C-4.39126155 7.88122417 -7.96166953 7.41775832 -12 7 C-12 6.67 -12 6.34 -12 6 C-10.37509046 5.97301811 -8.75005367 5.95361243 -7.125 5.9375 C-6.22007812 5.92589844 -5.31515625 5.91429687 -4.3828125 5.90234375 C-2 6 -2 6 0 7 C0 4.69 0 2.38 0 0 Z " fill="#5CBBDB" transform="translate(322,515)"/>
<path d="M0 0 C4.74315172 5.69178206 8.89344934 11.840174 13 18 C7 15 7 15 5.5625 12.0625 C4.20367158 8.78256825 4.20367158 8.78256825 1 7 C0.3125 3.375 0.3125 3.375 0 0 Z " fill="#D2F7FD" transform="translate(172,400)"/>
<path d="M0 0 C0 3.96 0 7.92 0 12 C-0.33 12 -0.66 12 -1 12 C-1.33 9.03 -1.66 6.06 -2 3 C-4.64 3.33 -7.28 3.66 -10 4 C-10 6.64 -10 9.28 -10 12 C-10.33 12 -10.66 12 -11 12 C-11 9.03 -11 6.06 -11 3 C-9.54293274 2.49632243 -8.08429904 1.99717444 -6.625 1.5 C-5.81289063 1.2215625 -5.00078125 0.943125 -4.1640625 0.65625 C-2 0 -2 0 0 0 Z " fill="#44B1D4" transform="translate(475,514)"/>
<path d="M0 0 C0.66 0.33 1.32 0.66 2 1 C-2.96152808 5.04756238 -4.71783251 6.17595221 -11.125 5.5625 C-12.22070312 5.46066406 -13.31640625 5.35882812 -14.4453125 5.25390625 C-15.28835938 5.17011719 -16.13140625 5.08632813 -17 5 C-17 4.67 -17 4.34 -17 4 C-16.10796875 3.87882813 -15.2159375 3.75765625 -14.296875 3.6328125 C-12.54117187 3.38144531 -12.54117187 3.38144531 -10.75 3.125 C-9.58984375 2.96257813 -8.4296875 2.80015625 -7.234375 2.6328125 C-4.39144286 2.07658665 -2.53340767 1.28994611 0 0 Z " fill="#C2F0FA" transform="translate(362,559)"/>
<path d="M0 0 C6.44097165 -0.24204069 12.87168982 -0.2614721 19 2 C19.33 2.66 19.66 3.32 20 4 C13.15182898 3.51358785 6.66957927 2.64006048 0 1 C0 0.67 0 0.34 0 0 Z " fill="#D1F6FC" transform="translate(140,449)"/>
<path d="M0 0 C4.35515272 -0.3732988 6.35708332 0.72317708 10 3 C12.69254991 3.70670728 12.69254991 3.70670728 15 4 C15 4.66 15 5.32 15 6 C15.99 6.33 16.98 6.66 18 7 C17.01 7.495 17.01 7.495 16 8 C13.23325418 6.92664301 10.56805742 5.79739939 7.875 4.5625 C7.12089844 4.22412109 6.36679688 3.88574219 5.58984375 3.53710938 C3.72340669 2.69839399 1.8612857 1.85008607 0 1 C0 0.67 0 0.34 0 0 Z " fill="#C2EFF9" transform="translate(114,439)"/>
<path d="M0 0 C0.90492188 0.02320313 1.80984375 0.04640625 2.7421875 0.0703125 C4.10730469 0.09738281 4.10730469 0.09738281 5.5 0.125 C6.19867188 0.14820313 6.89734375 0.17140625 7.6171875 0.1953125 C7.6171875 0.5253125 7.6171875 0.8553125 7.6171875 1.1953125 C4.6471875 1.1953125 1.6771875 1.1953125 -1.3828125 1.1953125 C-0.3928125 3.8353125 0.5971875 6.4753125 1.6171875 9.1953125 C-0.8203125 8.5078125 -0.8203125 8.5078125 -3.3828125 7.1953125 C-4.3203125 4.6953125 -4.3203125 4.6953125 -4.3828125 2.1953125 C-2.3828125 0.1953125 -2.3828125 0.1953125 0 0 Z " fill="#D3F7FD" transform="translate(310.3828125,521.8046875)"/>
<path d="M0 0 C0 2.31 0 4.62 0 7 C-0.33 7 -0.66 7 -1 7 C-1 5.35 -1 3.7 -1 2 C-2.45903258 2.30921884 -3.91720722 2.62248799 -5.375 2.9375 C-6.18710938 3.11152344 -6.99921875 3.28554688 -7.8359375 3.46484375 C-10.029463 3.92330693 -10.029463 3.92330693 -12 5 C-14.00800456 4.71887936 -16.01014051 4.38932033 -18 4 C-14.68926459 2.09672699 -11.63400513 1.45686075 -7.875 0.875 C-6.29332031 0.62363281 -6.29332031 0.62363281 -4.6796875 0.3671875 C-2 0 -2 0 0 0 Z " fill="#AAE6F5" transform="translate(166,370)"/>
<path d="M0 0 C0.33 0 0.66 0 1 0 C1.33 3.63 1.66 7.26 2 11 C1.01 10.67 0.02 10.34 -1 10 C-0.67 6.7 -0.34 3.4 0 0 Z M-3 2 C-2.67 2 -2.34 2 -2 2 C-1.72251758 3.41154099 -1.47906484 4.82979799 -1.25 6.25 C-1.11078125 7.03890625 -0.9715625 7.8278125 -0.828125 8.640625 C-1 11 -1 11 -5 15 C-4.34 10.71 -3.68 6.42 -3 2 Z " fill="#C9F5FE" transform="translate(330,542)"/>
<path d="M0 0 C1.46373047 0.02707031 1.46373047 0.02707031 2.95703125 0.0546875 C3.69308594 0.07789063 4.42914063 0.10109375 5.1875 0.125 C5.1875 0.455 5.1875 0.785 5.1875 1.125 C4.26517578 1.19847656 4.26517578 1.19847656 3.32421875 1.2734375 C2.51597656 1.34820313 1.70773437 1.42296875 0.875 1.5 C-0.32576172 1.60441406 -0.32576172 1.60441406 -1.55078125 1.7109375 C-4.08474441 2.02064426 -4.08474441 2.02064426 -6.8125 4.125 C-9.45267635 4.94279841 -12.11520591 5.5059489 -14.8125 6.125 C-10.3861559 1.20683989 -6.56983598 -0.1583093 0 0 Z " fill="#52BAD9" transform="translate(349.8125,524.875)"/>
<path d="M0 0 C0.33 0 0.66 0 1 0 C0.81255605 12.59282511 0.81255605 12.59282511 -1.1796875 16.04296875 C-2.5625 17.375 -2.5625 17.375 -5 19 C-4.80664062 18.38253906 -4.61328125 17.76507812 -4.4140625 17.12890625 C-2.67003849 11.45651132 -1.21782106 5.80806965 0 0 Z " fill="#C7F2FB" transform="translate(269,516)"/>
<path d="M0 0 C2.4375 0.8125 2.4375 0.8125 5 2 C5.33 2.99 5.66 3.98 6 5 C6.99 5 7.98 5 9 5 C10.60546875 6.75 10.60546875 6.75 12.1875 9 C12.71730469 9.7425 13.24710938 10.485 13.79296875 11.25 C14.19128906 11.8275 14.58960937 12.405 15 13 C11.12207603 11.38419835 8.28921212 8.75734641 5.25 5.9375 C4.74339844 5.47794922 4.23679687 5.01839844 3.71484375 4.54492188 C2.45382769 3.38757425 1.22393107 2.19649813 0 1 C0 0.67 0 0.34 0 0 Z " fill="#43B2D6" transform="translate(110,508)"/>
<path d="M0 0 C2.09375 -0.3984375 2.09375 -0.3984375 4.5 -0.375 C5.2940625 -0.38273437 6.088125 -0.39046875 6.90625 -0.3984375 C7.5971875 -0.26695312 8.288125 -0.13546875 9 0 C9.66 0.99 10.32 1.98 11 3 C6.71 3 2.42 3 -2 3 C-1.34 2.01 -0.68 1.02 0 0 Z " fill="#D7D7D3" transform="translate(637,385)"/>
<path d="M0 0 C0.33 0 0.66 0 1 0 C2.32 5.61 3.64 11.22 5 17 C3.68 16.34 2.36 15.68 1 15 C-0.19402958 10.02487676 -0.08921917 5.08549246 0 0 Z " fill="#D2F5FC" transform="translate(165,377)"/>
<path d="M0 0 C0.87840996 3.09720845 0.99435406 4.90645403 0 8 C-0.66 8 -1.32 8 -2 8 C-1.67 9.98 -1.34 11.96 -1 14 C-1.99 14.33 -2.98 14.66 -4 15 C-4.33 15.66 -4.66 16.32 -5 17 C-4.46246904 10.81839396 -2.45417612 5.673142 0 0 Z " fill="#3EB1D7" transform="translate(173,335)"/>
<path d="M0 0 C1.485 0.99 1.485 0.99 3 2 C5.74518321 2.24187651 5.74518321 2.24187651 8.6875 2.125 C9.68136719 2.10695313 10.67523438 2.08890625 11.69921875 2.0703125 C12.45847656 2.04710937 13.21773438 2.02390625 14 2 C12.30820672 4.04219706 11.36272334 4.91793306 8.73828125 5.51171875 C7.93777344 5.56972656 7.13726562 5.62773438 6.3125 5.6875 C5.50425781 5.75324219 4.69601562 5.81898438 3.86328125 5.88671875 C2.94095703 5.94279297 2.94095703 5.94279297 2 6 C1.34 4.02 0.68 2.04 0 0 Z " fill="#4FBCDE" transform="translate(386,551)"/>
<path d="M0 0 C4.50802601 1.25805377 7.4912812 2.90407165 11 6 C10.67 7.65 10.34 9.3 10 11 C7 7.375 7 7.375 7 4 C5.68 4 4.36 4 3 4 C3 3.34 3 2.68 3 2 C2.01 2 1.02 2 0 2 C0 1.34 0 0.68 0 0 Z " fill="#D6FAFE" transform="translate(304,541)"/>
<path d="M0 0 C-3 2 -3 2 -5 2 C-5 2.99 -5 3.98 -5 5 C-4.34 5.33 -3.68 5.66 -3 6 C-3.99 6.33 -4.98 6.66 -6 7 C-9 2.25 -9 2.25 -9 0 C-5.67465243 -1.10844919 -3.37817425 -0.84454356 0 0 Z " fill="#22211F" transform="translate(516,501)"/>
<path d="M0 0 C0.66 0.33 1.32 0.66 2 1 C0 4 0 4 -2.5 5.4375 C-5.15726223 7.09828889 -5.90985696 8.12598653 -7 11 C-8.32 10.67 -9.64 10.34 -11 10 C-9.73232923 8.70522938 -8.46073776 7.41429661 -7.1875 6.125 C-6.47980469 5.40570313 -5.77210937 4.68640625 -5.04296875 3.9453125 C-3 2 -3 2 0 0 Z " fill="#D8F8FD" transform="translate(107,389)"/>
<path d="M0 0 C0 0.66 0 1.32 0 2 C-1.03125 2.433125 -2.0625 2.86625 -3.125 3.3125 C-5.57180865 4.35264133 -7.88325196 5.45861159 -10.25 6.6875 C-13 8 -13 8 -16 8 C-6.08805031 0 -6.08805031 0 0 0 Z " fill="#3DB0D5" transform="translate(87,357)"/>
<path d="M0 0 C1.98 0.66 3.96 1.32 6 2 C6 2.66 6 3.32 6 4 C6.556875 4.103125 7.11375 4.20625 7.6875 4.3125 C10.4769101 5.14178408 12.6139064 6.34299056 15 8 C15 8.66 15 9.32 15 10 C11.13518578 8.61423779 8.03192572 6.81080359 4.6875 4.4375 C3.80449219 3.81746094 2.92148438 3.19742188 2.01171875 2.55859375 C1.34785156 2.04425781 0.68398437 1.52992188 0 1 C0 0.67 0 0.34 0 0 Z " fill="#47B4D9" transform="translate(133,527)"/>
<path d="M0 0 C0.93423645 3.01031744 1.04449911 3.86650268 0 7 C-0.66 7 -1.32 7 -2 7 C-2.33 10.63 -2.66 14.26 -3 18 C-3.33 18 -3.66 18 -4 18 C-4.474377 10.71304215 -4.28670939 6.02818509 0 0 Z " fill="#C4F4FC" transform="translate(95,400)"/>
<path d="M0 0 C1 3 1 3 0.1875 5.125 C-1 7 -1 7 -3 8 C-3.72693904 9.97888961 -4.39816251 11.97954558 -5 14 C-5.66 14 -6.32 14 -7 14 C-5.70677932 8.2392897 -3.62011357 4.66804118 0 0 Z " fill="#3DB0D5" transform="translate(66,369)"/>
<path d="M0 0 C5.60461531 0.42089996 10.72086547 0.91613111 16 3 C16 3.99 16 4.98 16 6 C15.43152344 5.80664062 14.86304688 5.61328125 14.27734375 5.4140625 C9.54635062 3.81863577 4.81205575 2.33099414 0 1 C0 0.67 0 0.34 0 0 Z " fill="#C7F1FA" transform="translate(138,358)"/>
<path d="M0 0 C0.99 0 1.98 0 3 0 C1.68 5.28 0.36 10.56 -1 16 C-2 12 -2 12 -2 8 C-1.34 8 -0.68 8 0 8 C0 5.36 0 2.72 0 0 Z " fill="#3AB0D5" transform="translate(505,558)"/>
<path d="M0 0 C0.99 0 1.98 0 3 0 C2.7834375 0.8353125 2.7834375 0.8353125 2.5625 1.6875 C1.97230872 4.11384195 1.476571 6.54906345 1 9 C0.34 9 -0.32 9 -1 9 C-1.33 10.32 -1.66 11.64 -2 13 C-3.45047396 10.09905209 -2.45356803 8.44027404 -1.5625 5.375 C-1.27503906 4.37210938 -0.98757813 3.36921875 -0.69140625 2.3359375 C-0.46324219 1.56507813 -0.23507812 0.79421875 0 0 Z " fill="#41B6DB" transform="translate(506,536)"/>
<path d="M0 0 C0.66 0 1.32 0 2 0 C2.99 2.97 3.98 5.94 5 9 C3.35 8.67 1.7 8.34 0 8 C0 5.36 0 2.72 0 0 Z " fill="#CFF5FB" transform="translate(482,526)"/>
<path d="M0 0 C1.78016355 2.67024533 2.97163019 5.05030861 4.1875 8 C4.55230469 8.86625 4.91710937 9.7325 5.29296875 10.625 C6 13 6 13 5 16 C2.70311431 13.70311431 2.28148697 12.21071829 1.375 9.125 C1.11460937 8.26132812 0.85421875 7.39765625 0.5859375 6.5078125 C0 4 0 4 0 0 Z " fill="#48B4D8" transform="translate(258,463)"/>
<path d="M0 0 C1.72880982 -0.05449838 3.45812712 -0.09301688 5.1875 -0.125 C6.15042969 -0.14820313 7.11335937 -0.17140625 8.10546875 -0.1953125 C11.12812778 0.0086456 13.26769985 0.73125368 16 2 C16 2.33 16 2.66 16 3 C10.21101581 3.20674944 5.57067277 2.59162079 0 1 C0 0.67 0 0.34 0 0 Z " fill="#C0EFF9" transform="translate(160,453)"/>
<path d="M0 0 C0.66 0 1.32 0 2 0 C2.77734375 2.23046875 2.77734375 2.23046875 3 5 C1.12890625 7.23828125 1.12890625 7.23828125 -1.4375 9.3125 C-2.28183594 10.00988281 -3.12617188 10.70726562 -3.99609375 11.42578125 C-4.65738281 11.94527344 -5.31867188 12.46476562 -6 13 C-6.66 12.34 -7.32 11.68 -8 11 C-7.50628906 10.62488281 -7.01257813 10.24976563 -6.50390625 9.86328125 C-2.37086245 6.6715022 -2.37086245 6.6715022 -0.0625 2.125 C-0.041875 1.42375 -0.02125 0.7225 0 0 Z " fill="#D3D2D0" transform="translate(334,412)"/>
<path d="M0 0 C0.33 0 0.66 0 1 0 C1 2.64 1 5.28 1 8 C0.34 8 -0.32 8 -1 8 C-1.33 8.99 -1.66 9.98 -2 11 C-2.28875 10.236875 -2.5775 9.47375 -2.875 8.6875 C-3.96269013 5.84970692 -3.96269013 5.84970692 -6 3 C-3.525 3.495 -3.525 3.495 -1 4 C-0.67 2.68 -0.34 1.36 0 0 Z " fill="#D5F8FC" transform="translate(458,526)"/>
<path d="M0 0 C0.66 0 1.32 0 2 0 C2 2.97 2 5.94 2 9 C0.68 8.67 -0.64 8.34 -2 8 C-1.125 1.125 -1.125 1.125 0 0 Z " fill="#CCF0FA" transform="translate(462,517)"/>
<path d="M0 0 C3.375 -0.1875 3.375 -0.1875 7 0 C7.66 0.99 8.32 1.98 9 3 C4.71 3 0.42 3 -4 3 C-2.68 2.67 -1.36 2.34 0 2 C0 1.34 0 0.68 0 0 Z " fill="#CBCBC7" transform="translate(480,455)"/>
<path d="M0 0 C-2.43414237 1.62276158 -4.31319446 2.61744792 -7 3.625 C-8.0209375 4.01558594 -8.0209375 4.01558594 -9.0625 4.4140625 C-11 5 -11 5 -14 5 C-14 4.34 -14 3.68 -14 3 C-12.68 3 -11.36 3 -10 3 C-10 2.34 -10 1.68 -10 1 C-6.61981469 -0.04005702 -3.5219721 -0.08004482 0 0 Z " fill="#CBF4FB" transform="translate(93,354)"/>
<path d="M0 0 C3.63 0 7.26 0 11 0 C10.67 1.98 10.34 3.96 10 6 C9.34 6 8.68 6 8 6 C8 4.35 8 2.7 8 1 C5.69 1 3.38 1 1 1 C0.67 1.99 0.34 2.98 0 4 C0 2.68 0 1.36 0 0 Z " fill="#52B8D9" transform="translate(509,526)"/>
<path d="M0 0 C2.475 0.495 2.475 0.495 5 1 C4.67 2.65 4.34 4.3 4 6 C2.68 6 1.36 6 0 6 C0 4.02 0 2.04 0 0 Z " fill="#55B4D3" transform="translate(527,527)"/>
<path d="M0 0 C2.00993705 3.01490557 2.72623341 5.2149927 3.625 8.6875 C3.88539062 9.68136719 4.14578125 10.67523438 4.4140625 11.69921875 C4.60742188 12.45847656 4.80078125 13.21773438 5 14 C1.87310723 11.91540482 1.17013226 11.4203866 0 8 C-0.15983268 5.30862396 -0.09003359 2.70100765 0 0 Z " fill="#CAF4FC" transform="translate(59,432)"/>
<path d="M0 0 C1.85546875 0.23046875 1.85546875 0.23046875 4 1 C5.30078125 2.92578125 5.30078125 2.92578125 6.3125 5.3125 C6.65925781 6.09238281 7.00601562 6.87226563 7.36328125 7.67578125 C8.06437764 10.23499813 7.87573233 11.53099982 7 14 C4.66666667 9.33333333 2.33333333 4.66666667 0 0 Z " fill="#D5F8FE" transform="translate(255,329)"/>
<path d="M0 0 C1.98 0.66 3.96 1.32 6 2 C5.67 2.66 5.34 3.32 5 4 C4.01 4.33 3.02 4.66 2 5 C1.67 6.65 1.34 8.3 1 10 C0.67 10 0.34 10 0 10 C0 6.7 0 3.4 0 0 Z " fill="#46B5D9" transform="translate(294,551)"/>
<path d="M0 0 C0 3 0 3 -2.1875 5.6875 C-5 8 -5 8 -7.8125 8.3125 C-8.534375 8.209375 -9.25625 8.10625 -10 8 C-6.66666667 5.33333333 -3.33333333 2.66666667 0 0 Z " fill="#D8F8FD" transform="translate(256,545)"/>
<path d="M0 0 C3.74153757 1.24717919 5.18355624 2.69368998 7.25 6 C8 8 8 8 7 11 C5.82750647 9.54634731 4.66216184 8.08692581 3.5 6.625 C2.52546875 5.40683594 2.52546875 5.40683594 1.53125 4.1640625 C0 2 0 2 0 0 Z " fill="#3BB0D5" transform="translate(83,477)"/>
<path d="M0 0 C2.97 0.495 2.97 0.495 6 1 C4.68 1.33 3.36 1.66 2 2 C2 4.64 2 7.28 2 10 C1.34 10 0.68 10 0 10 C0 6.7 0 3.4 0 0 Z " fill="#383736" transform="translate(527,388)"/>
<path d="M0 0 C2.64 0 5.28 0 8 0 C8 0.66 8 1.32 8 2 C9.65 2 11.3 2 13 2 C13 2.99 13 3.98 13 5 C11.58208592 4.54554036 10.16571954 4.08625056 8.75 3.625 C7.96109375 3.36976563 7.1721875 3.11453125 6.359375 2.8515625 C4.13372042 2.04826333 2.09068328 1.10288338 0 0 Z " fill="#D3F5FB" transform="translate(224,307)"/>
<path d="M0 0 C3.33727786 1.17255709 5.77437487 2.18868404 8 5 C8 5.66 8 6.32 8 7 C8.66 7 9.32 7 10 7 C9.67 7.66 9.34 8.32 9 9 C7.68103535 8.07161713 6.37001311 7.13194268 5.0625 6.1875 C4.33160156 5.66542969 3.60070312 5.14335937 2.84765625 4.60546875 C1 3 1 3 0 0 Z " fill="#D2F7FD" transform="translate(97,426)"/>
<path d="M0 0 C1.32 0.33 2.64 0.66 4 1 C4 2.32 4 3.64 4 5 C0.37 4.67 -3.26 4.34 -7 4 C-7 3.67 -7 3.34 -7 3 C-4.36 2.67 -1.72 2.34 1 2 C0.67 1.34 0.34 0.68 0 0 Z " fill="#CECDC9" transform="translate(577,397)"/>
<path d="M0 0 C4.875 1.875 4.875 1.875 6 3 C6.04063832 4.66617115 6.042721 6.33388095 6 8 C5.01 8.495 5.01 8.495 4 9 C3.9175 8.05125 3.835 7.1025 3.75 6.125 C3.34925077 2.89538209 3.34925077 2.89538209 0.9375 1.625 C0.298125 1.41875 -0.34125 1.2125 -1 1 C-0.67 0.67 -0.34 0.34 0 0 Z " fill="#B2F0FD" transform="translate(528,525)"/>
<path d="M0 0 C-1.58482581 4.75447744 -6.19181981 6.07272811 -10.4375 8.25 C-10.953125 8.4975 -11.46875 8.745 -12 9 C-9.14880426 5.05219051 -5.28603137 0 0 0 Z " fill="#3DAFD2" transform="translate(197,312)"/>
<path d="M0 0 C4.24223102 -0.3636198 6.58168085 0.4606772 10 3 C10 3.66 10 4.32 10 5 C6.7 4.01 3.4 3.02 0 2 C0 1.34 0 0.68 0 0 Z " fill="#46B5D9" transform="translate(166,546)"/>
<path d="M0 0 C0.33 0 0.66 0 1 0 C1 1.65 1 3.3 1 5 C-2.63 4.34 -6.26 3.68 -10 3 C-10 2.67 -10 2.34 -10 2 C-3.375 0.875 -3.375 0.875 0 2 C0 1.34 0 0.68 0 0 Z " fill="#62C1DF" transform="translate(400,531)"/>
<path d="M0 0 C5.875 4.625 5.875 4.625 7 8 C4.625 7.375 4.625 7.375 2 6 C0.6875 2.875 0.6875 2.875 0 0 Z " fill="#CFF4FB" transform="translate(90,488)"/>
<path d="M0 0 C0.66 0 1.32 0 2 0 C2.66 1.98 3.32 3.96 4 6 C3.34 6.66 2.68 7.32 2 8 C0.4375 5.6875 0.4375 5.6875 -1 3 C-0.67 2.01 -0.34 1.02 0 0 Z " fill="#1C1D18" transform="translate(540,483)"/>
<path d="M0 0 C3.125 -0.1875 3.125 -0.1875 6 0 C6 0.99 6 1.98 6 3 C3.36 3 0.72 3 -2 3 C-1.34 2.01 -0.68 1.02 0 0 Z " fill="#FAF9F9" transform="translate(672,468)"/>
<path d="M0 0 C0.66 0.33 1.32 0.66 2 1 C1.34 2.98 0.68 4.96 0 7 C-1.32 7 -2.64 7 -4 7 C-2.92598892 4.08482708 -2.22189824 2.22189824 0 0 Z " fill="#282823" transform="translate(300,379)"/>
<path d="M0 0 C0.99 0.33 1.98 0.66 3 1 C0.03 4.96 0.03 4.96 -3 9 C-3.33 7.68 -3.66 6.36 -4 5 C-3.34 4.01 -2.68 3.02 -2 2 C-1.34 2 -0.68 2 0 2 C0 1.34 0 0.68 0 0 Z " fill="#D5F8FD" transform="translate(179,323)"/>
<path d="M0 0 C4.23429756 1.31061591 8.07407404 2.94356259 12 5 C12 5.66 12 6.32 12 7 C7.69235185 5.43358249 3.93828536 3.31663844 0 1 C0 0.67 0 0.34 0 0 Z " fill="#4FB6D9" transform="translate(148,537)"/>
<path d="M0 0 C0.33 0.66 0.66 1.32 1 2 C-0.11375 2.309375 -1.2275 2.61875 -2.375 2.9375 C-5.7945155 3.82326483 -5.7945155 3.82326483 -8 5 C-8 3.68 -8 2.36 -8 1 C-5.07175348 0.02391783 -3.04386724 -0.08226668 0 0 Z " fill="#43B5D9" transform="translate(443,531)"/>
<path d="M0 0 C-0.33 0.99 -0.66 1.98 -1 3 C-3.97 3 -6.94 3 -10 3 C-6.26223701 0.50815801 -4.5227786 0 0 0 Z " fill="#CFF2FA" transform="translate(148,374)"/>
<path d="M0 0 C0.33 0 0.66 0 1 0 C2.47075246 4.41225737 3.36884358 7.48281619 2 12 C-0.13586678 8.79619983 -0.23132175 7.98060033 -0.125 4.3125 C-0.10695313 3.50425781 -0.08890625 2.69601562 -0.0703125 1.86328125 C-0.04710937 1.24839844 -0.02390625 0.63351562 0 0 Z " fill="#0C0B07" transform="translate(658,473)"/>
<path d="M0 0 C2 3 2 3 1.75 4.9375 C0.97936717 7.05674028 0.0643413 9.01322958 -1 11 C-2.60080151 6.99799622 -1.29279692 3.95443764 0 0 Z " fill="#252420" transform="translate(622,465)"/>
<path d="M0 0 C2.01136276 2.55991624 3.62845496 5.04590299 5 8 C3.35 8 1.7 8 0 8 C0 5.36 0 2.72 0 0 Z " fill="#36B0D8" transform="translate(91,418)"/>
<path d="M0 0 C0 3.3 0 6.6 0 10 C-1.32 9.67 -2.64 9.34 -4 9 C-3.01 9 -2.02 9 -1 9 C-1.44703986 4.52116304 -1.44703986 4.52116304 -4 1 C-2 0 -2 0 0 0 Z " fill="#7BCBE7" transform="translate(456,552)"/>
<path d="M0 0 C2.95409701 1.37154504 5.44008376 2.98863724 8 5 C4.23312136 5 3.08809695 4.76462683 0 3 C0 2.01 0 1.02 0 0 Z " fill="#D9F7FC" transform="translate(140,533)"/>
<path d="M0 0 C0.66 0 1.32 0 2 0 C1.01 3.3 0.02 6.6 -1 10 C-1.33 10 -1.66 10 -2 10 C-2.1953125 3.9453125 -2.1953125 3.9453125 -2 2 C-1.34 1.34 -0.68 0.68 0 0 Z " fill="#D7FAFD" transform="translate(333,530)"/>
<path d="M0 0 C0.33 0.66 0.66 1.32 1 2 C1.66 2.33 2.32 2.66 3 3 C3.99 4.485 3.99 4.485 5 6 C2.64828869 5.40138258 0.3140622 4.73075648 -2 4 C-2.33 3.34 -2.66 2.68 -3 2 C-2.01 1.34 -1.02 0.68 0 0 Z " fill="#302F2C" transform="translate(629,490)"/>
<path d="M0 0 C2.15377564 2.62198774 3.40072174 4.64404172 4 8 C2.68 7.67 1.36 7.34 0 7 C0 4.69 0 2.38 0 0 Z " fill="#CBF2FA" transform="translate(66,450)"/>
<path d="M0 0 C-0.33 0.99 -0.66 1.98 -1 3 C-2.65 3 -4.3 3 -6 3 C-6.33 2.34 -6.66 1.68 -7 1 C-4.53721199 -0.231394 -2.7204945 -0.07159196 0 0 Z " fill="#D0F5FD" transform="translate(353,553)"/>
<path d="M0 0 C3.45925163 1.2491742 6.14693203 2.67527795 9 5 C5.97580475 4.41196203 2.98241547 3.77321882 0 3 C0 2.01 0 1.02 0 0 Z " fill="#DEFAFE" transform="translate(155,542)"/>
<path d="M0 0 C0.33 1.32 0.66 2.64 1 4 C-0.9375 6.25 -0.9375 6.25 -3 8 C-3.66 7.67 -4.32 7.34 -5 7 C-3.35 4.69 -1.7 2.38 0 0 Z " fill="#D6F8FD" transform="translate(262,537)"/>
<path d="M0 0 C2.97 0 5.94 0 9 0 C8.67 1.32 8.34 2.64 8 4 C7.34 3.34 6.68 2.68 6 2 C2.91652174 1.83318891 2.91652174 1.83318891 0 2 C0 1.34 0 0.68 0 0 Z " fill="#36AFD5" transform="translate(346,531)"/>
<path d="M0 0 C1.32 0.33 2.64 0.66 4 1 C1.525 4.465 1.525 4.465 -1 8 C-1.33 6.68 -1.66 5.36 -2 4 C-1.34 4 -0.68 4 0 4 C0 2.68 0 1.36 0 0 Z " fill="#DAF9FD" transform="translate(375,528)"/>
<path d="M0 0 C1.32 0 2.64 0 4 0 C4.66 2.31 5.32 4.62 6 7 C1.125 3.375 1.125 3.375 0 0 Z " fill="#38ADD6" transform="translate(95,492)"/>
<path d="M0 0 C0 0.33 0 0.66 0 1 C-3.82320557 2.42258812 -6.91281305 3.24042276 -11 3 C-8.21756596 -1.17365106 -4.53441502 -0.22300402 0 0 Z " fill="#41423E" transform="translate(470,387)"/>
</svg>
