<?xml version="1.0" standalone="no"?>
<!DOCTYPE svg PUBLIC "-//W3C//DTD SVG 20010904//EN"
 "http://www.w3.org/TR/2001/REC-SVG-20010904/DTD/svg10.dtd">
<svg version="1.0" xmlns="http://www.w3.org/2000/svg"
 width="225.000000pt" height="225.000000pt" viewBox="0 0 225.000000 225.000000"
 preserveAspectRatio="xMidYMid meet">
<metadata>
Created by potrace 1.16, written by Peter Selinger 2001-2019
</metadata>
<g transform="translate(0.000000,225.000000) scale(0.100000,-0.100000)"
fill="#000000" stroke="none">
<path d="M985 2239 c-268 -36 -487 -148 -675 -345 -146 -154 -238 -328 -287
-547 -23 -103 -22 -336 1 -447 48 -228 159 -425 332 -590 215 -204 466 -304
769 -304 325 0 590 114 815 350 146 154 237 327 287 547 22 98 22 346 0 444
-74 326 -260 585 -542 751 -196 115 -476 172 -700 141z m203 -599 c39 -24 55
-62 49 -114 -8 -62 -43 -89 -119 -94 -50 -2 -70 1 -95 17 -66 42 -66 151 1
192 42 26 121 25 164 -1z m-354 -94 c55 -23 58 -42 54 -352 -3 -267 -4 -281
-26 -329 -61 -133 -205 -194 -387 -165 -157 25 -230 118 -179 227 10 19 27 41
39 49 20 13 26 12 75 -21 44 -30 60 -35 109 -35 49 0 61 4 82 26 24 25 24 27
29 289 5 245 6 264 25 285 11 12 29 26 40 31 32 12 103 10 139 -5z m954 -199
c140 -50 220 -181 210 -341 -12 -174 -125 -288 -308 -311 -76 -9 -189 16 -251
56 -94 60 -139 152 -139 286 0 156 78 265 227 314 69 23 192 21 261 -4z m-591
-11 l28 -24 0 -277 0 -277 -28 -24 c-23 -20 -39 -24 -92 -24 -53 0 -69 4 -92
24 l-28 24 -3 258 c-4 330 1 344 125 344 51 0 67 -4 90 -24z"/>
<path d="M1591 1163 c-70 -37 -99 -121 -68 -196 41 -96 188 -105 242 -14 23
38 25 112 5 151 -33 65 -116 92 -179 59z"/>
</g>
</svg>
