<svg xmlns="http://www.w3.org/2000/svg" width="225" height="225" viewBox="0 0 225 225">
<g>
<path d="M 113.90,0.03 L 115.86,0.09 L 116.81,0.14 L 117.65,0.21 L 117.27,0.31 L 116.88,0.43 L 116.82,0.49 L 116.79,0.60 L 116.90,0.64 L 117.21,0.73 L 117.47,0.75 L 118.09,0.80 L 118.50,0.81 L 119.57,0.78 L 120.10,0.73 L 120.26,0.68 L 120.51,0.59 L 120.51,0.57 L 120.52,0.57 L 121.57,0.97 L 121.70,1.10 L 122.47,1.37 L 122.93,1.50 L 124.23,1.73 L 124.93,1.85 L 126.58,2.03 L 129.27,2.22 L 130.19,2.26 L 131.88,2.39 L 132.69,2.46 L 134.02,2.64 L 134.63,2.73 L 135.47,2.94 L 136.00,3.25 L 136.00,3.35 L 136.30,3.54 L 136.49,3.63 L 137.12,3.78 L 139.80,4.00 L 140.84,4.00 L 142.76,4.26 L 143.19,4.34 L 143.88,4.54 L 144.55,4.89 L 144.68,5.01 L 145.66,5.53 L 146.26,5.82 L 147.99,6.61 L 148.93,7.03 L 151.20,7.99 L 154.94,9.51 L 158.07,10.75 L 164.05,13.56 L 166.99,15.02 L 172.57,18.27 L 175.32,19.95 L 180.51,23.64 L 183.06,25.54 L 187.88,29.67 L 190.23,31.79 L 194.66,36.36 L 196.83,38.71 L 200.89,43.74 L 202.87,46.31 L 206.55,51.79 L 211.65,60.52 L 213.07,63.19 L 215.49,68.42 L 216.63,71.05 L 218.56,76.41 L 219.47,79.13 L 221.02,84.92 L 223.03,94.42 L 223.58,97.50 L 224.33,103.06 L 224.64,105.78 L 224.90,110.90 L 224.97,113.44 L 224.76,118.53 L 223.93,126.57 L 223.51,129.53 L 222.35,135.36 L 221.71,138.25 L 220.11,143.92 L 219.26,146.73 L 217.24,152.22 L 216.18,154.94 L 213.76,160.22 L 212.50,162.84 L 209.71,167.90 L 208.26,170.41 L 205.10,175.23 L 203.48,177.61 L 199.98,182.18 L 198.19,184.42 L 194.36,188.71 L 192.41,190.81 L 188.28,194.79 L 186.17,196.74 L 181.75,200.41 L 179.51,202.19 L 174.82,205.51 L 172.45,207.13 L 167.51,210.09 L 165.01,211.52 L 159.85,214.10 L 157.23,215.34 L 151.85,217.52 L 149.14,218.55 L 143.56,220.31 L 135.01,222.44 L 134.05,222.64 L 131.61,223.03 L 130.31,223.23 L 127.38,223.59 L 124.37,223.95 L 117.98,224.52 L 116.44,224.64 L 113.56,224.83 L 112.19,224.90 L 109.84,224.98 L 108.76,225.01 L 107.19,224.96 L 106.86,224.94 L 106.39,224.88 L 106.19,224.84 L 106.00,224.74 L 105.93,224.67 L 105.29,224.49 L 104.90,224.40 L 103.74,224.19 L 103.10,224.08 L 101.56,223.87 L 99.00,223.57 L 95.81,223.25 L 89.55,222.17 L 86.45,221.56 L 80.39,219.91 L 77.38,219.02 L 71.50,216.80 L 68.58,215.63 L 62.89,212.85 L 60.06,211.39 L 54.56,208.04 L 51.83,206.30 L 46.51,202.39 L 43.88,200.37 L 38.75,195.90 L 31.28,188.55 L 28.83,185.96 L 24.49,180.73 L 22.40,178.09 L 18.69,172.66 L 16.91,169.90 L 13.74,164.10 L 9.48,154.80 L 9.02,153.68 L 8.11,151.18 L 7.66,149.90 L 6.77,147.19 L 5.91,144.44 L 4.39,138.78 L 4.04,137.39 L 3.43,134.72 L 3.15,133.42 L 2.69,131.00 L 2.48,129.83 L 2.20,127.78 L 2.02,125.25 L 2.02,124.36 L 1.71,122.95 L 1.62,122.66 L 1.39,122.26 L 1.00,122.00 L 0.84,122.00 L 0.58,121.29 L 0.54,121.12 L 0.63,120.99 L 0.69,120.75 L 0.88,119.00 L 0.82,117.73 L 0.69,117.25 L 0.51,116.85 L 0.41,116.88 L 0.37,117.04 L 0.29,117.45 L 0.27,117.78 L 0.23,118.52 L 0.23,118.96 L 0.20,118.62 L 0.09,116.70 L 0.04,115.70 L 0.01,113.52 L 0.00,111.32 L 0.20,107.35 L 0.22,107.57 L 0.27,108.10 L 0.32,108.26 L 0.41,108.51 L 0.47,108.51 L 0.59,108.44 L 0.66,108.27 L 0.87,106.88 L 0.82,105.76 L 0.69,105.27 L 0.51,104.82 L 0.48,104.81 L 0.50,104.73 L 0.90,103.24 L 1.02,103.00 L 1.34,101.93 L 1.51,101.32 L 1.88,99.66 L 2.07,98.78 L 2.45,96.74 L 2.98,93.50 L 3.33,91.12 L 4.30,86.41 L 4.82,84.06 L 6.12,79.43 L 6.82,77.13 L 8.45,72.60 L 9.30,70.35 L 11.24,65.94 L 12.25,63.75 L 14.48,59.46 L 15.64,57.34 L 18.16,53.21 L 19.45,51.16 L 22.24,47.19 L 23.67,45.23 L 26.72,41.44 L 28.27,39.57 L 31.56,35.98 L 33.24,34.21 L 36.76,30.84 L 38.55,29.18 L 42.28,26.03 L 44.18,24.49 L 48.12,21.59 L 50.11,20.17 L 54.24,17.53 L 56.33,16.25 L 60.63,13.89 L 62.80,12.75 L 67.27,10.68 L 74.13,7.94 L 75.28,7.52 L 77.50,6.72 L 78.58,6.33 L 80.48,5.62 L 81.38,5.29 L 82.76,4.77 L 84.00,4.28 L 84.41,4.11 L 85.65,3.80 L 87.50,3.53 L 89.11,3.45 L 92.83,3.08 L 94.69,2.87 L 98.29,2.35 L 99.14,2.22 L 100.68,1.95 L 101.41,1.81 L 102.63,1.55 L 103.19,1.42 L 103.98,1.18 L 104.58,0.87 L 104.67,0.72 L 105.47,0.48 L 105.48,0.48 L 105.46,0.53 L 105.49,0.65 L 105.60,0.69 L 106.31,0.84 L 107.00,0.84 L 108.40,0.69 L 108.56,0.59 L 108.54,0.53 L 108.42,0.41 L 108.25,0.34 L 107.46,0.21 L 108.14,0.14 L 109.96,0.06 L 110.90,0.03 L 112.90,0.02 M 165.41,88.17 L 160.80,88.43 L 158.45,88.86 L 154.00,89.86 L 151.26,90.67 L 149.99,91.15 L 147.52,92.16 L 146.39,92.74 L 144.19,93.96 L 143.18,94.66 L 141.23,96.10 L 140.34,96.91 L 138.61,98.58 L 137.83,99.51 L 136.33,101.43 L 135.65,102.48 L 134.34,104.66 L 133.76,105.84 L 132.76,107.92 L 132.21,109.14 L 131.99,109.69 L 131.23,111.82 L 131.01,112.91 L 130.66,115.18 L 130.59,116.63 L 130.53,118.15 L 130.52,119.03 L 130.50,120.89 L 130.50,121.98 L 130.52,124.79 L 130.56,126.41 L 130.59,127.13 L 130.78,129.74 L 130.97,130.82 L 131.42,132.87 L 131.77,133.88 L 132.58,135.93 L 133.15,137.15 L 136.32,142.68 L 138.76,145.79 L 140.18,147.08 L 143.15,149.51 L 144.88,150.50 L 148.49,152.35 L 150.57,153.08 L 154.85,154.41 L 157.01,154.84 L 161.31,155.53 L 163.44,155.63 L 167.68,155.70 L 169.75,155.50 L 173.82,154.96 L 175.77,154.47 L 179.59,153.35 L 181.38,152.58 L 184.85,150.91 L 186.43,149.87 L 189.46,147.67 L 190.78,146.37 L 193.28,143.66 L 194.30,142.12 L 195.52,140.05 L 196.32,138.46 L 196.71,137.59 L 198.23,133.94 L 198.86,132.04 L 200.03,128.23 L 200.40,126.52 L 200.73,124.84 L 200.83,124.10 L 200.98,122.67 L 200.97,122.08 L 200.82,120.17 L 200.58,118.52 L 200.41,117.59 L 199.62,113.65 L 199.11,111.81 L 196.83,105.90 L 194.77,102.32 L 193.49,100.72 L 190.78,97.65 L 189.21,96.32 L 185.94,93.82 L 184.13,92.80 L 180.39,90.91 L 178.38,90.21 L 174.27,88.99 L 172.10,88.65 L 167.69,88.14 M 75.12,69.33 L 72.17,69.70 L 70.79,70.14 L 68.35,71.04 L 67.01,71.75 L 66.48,72.22 L 65.48,73.26 L 65.10,73.98 L 64.40,75.57 L 64.14,76.65 L 63.69,79.00 L 63.53,80.54 L 63.39,82.13 L 63.33,83.04 L 63.23,84.91 L 63.19,85.96 L 63.12,88.13 L 63.09,89.34 L 63.05,91.85 L 63.04,93.23 L 63.01,96.09 L 63.01,97.66 L 63.00,100.90 L 63.00,102.67 L 63.00,126.85 L 60.41,129.92 L 58.86,131.56 L 57.90,132.28 L 57.34,132.49 L 56.15,132.83 L 55.34,132.91 L 53.57,133.00 L 52.35,133.00 L 48.43,132.79 L 46.30,132.41 L 45.36,132.05 L 43.54,131.22 L 42.64,130.59 L 40.80,129.17 L 39.77,128.21 L 38.26,126.92 L 37.45,126.41 L 37.08,126.31 L 36.35,126.21 L 35.94,126.29 L 35.09,126.55 L 34.56,126.79 L 33.46,127.51 L 32.71,128.20 L 32.33,128.63 L 30.85,130.56 L 30.21,131.71 L 29.02,134.08 L 28.62,135.25 L 28.00,137.55 L 28.00,138.49 L 28.23,141.00 L 28.62,142.61 L 28.93,143.38 L 29.62,144.89 L 30.07,145.61 L 31.05,147.02 L 31.64,147.68 L 32.91,148.98 L 33.64,149.58 L 35.17,150.75 L 36.04,151.28 L 37.83,152.32 L 38.83,152.78 L 40.88,153.67 L 42.00,154.06 L 43.61,154.53 L 44.62,154.73 L 46.74,155.08 L 47.93,155.22 L 53.03,155.63 L 55.72,155.66 L 61.10,155.58 L 63.46,155.36 L 65.73,155.10 L 66.71,154.93 L 68.54,154.55 L 69.24,154.31 L 75.28,151.42 L 79.01,148.85 L 80.61,147.35 L 82.16,145.82 L 82.86,145.02 L 84.18,143.40 L 84.74,142.56 L 85.79,140.88 L 86.21,140.04 L 86.95,138.34 L 87.19,137.50 L 88.17,134.09 L 88.47,133.03 L 88.60,132.59 L 88.83,131.78 L 88.91,131.50 L 89.03,130.54 L 89.10,129.38 L 89.14,128.57 L 89.20,126.79 L 89.23,125.70 L 89.29,123.39 L 89.32,122.06 L 89.37,119.29 L 89.39,117.76 L 89.43,114.62 L 89.45,112.94 L 89.49,105.92 L 89.49,102.16 L 89.50,74.83 L 86.77,72.48 L 83.54,70.56 L 80.94,69.71 L 79.51,69.50 L 76.59,69.23 M 108.14,89.14 L 106.71,89.38 L 105.32,89.65 L 104.70,89.83 L 103.53,90.23 L 103.06,90.47 L 101.54,91.43 L 100.71,92.22 L 100.36,92.74 L 99.73,93.88 L 99.47,94.64 L 99.01,96.30 L 98.84,97.38 L 98.52,99.72 L 98.41,101.20 L 98.22,104.39 L 98.16,106.36 L 98.10,108.40 L 98.08,109.52 L 98.04,111.84 L 98.03,113.11 L 98.01,115.72 L 98.01,117.15 L 98.00,120.09 L 98.00,121.68 L 98.01,126.37 L 98.02,129.23 L 98.04,130.54 L 98.07,133.08 L 98.09,134.23 L 98.14,136.46 L 98.18,137.47 L 98.34,141.22 L 98.48,142.73 L 98.78,145.50 L 98.99,146.59 L 99.46,148.57 L 99.77,149.33 L 100.44,150.69 L 100.86,151.21 L 101.77,152.14 L 102.32,152.51 L 103.51,153.19 L 104.21,153.49 L 107.52,154.66 L 109.13,154.86 L 112.31,154.99 L 113.79,154.68 L 115.24,154.31 L 115.93,154.03 L 117.28,153.41 L 117.91,153.02 L 119.13,152.16 L 119.68,151.65 L 120.75,150.56 L 121.21,149.93 L 122.25,147.85 L 122.50,146.86 L 122.59,146.20 L 122.77,144.76 L 122.83,143.81 L 122.95,141.74 L 122.99,140.42 L 123.07,137.57 L 123.09,135.80 L 123.11,133.96 L 123.12,132.94 L 123.13,130.83 L 123.14,129.67 L 123.15,127.28 L 123.15,125.97 L 123.16,123.27 L 123.16,121.80 L 123.16,117.09 L 123.16,114.23 L 123.16,112.93 L 123.14,110.41 L 123.13,109.28 L 123.10,107.08 L 123.08,106.09 L 123.04,104.19 L 123.00,103.34 L 122.94,101.71 L 122.89,100.98 L 122.70,98.32 L 122.55,97.29 L 122.23,95.42 L 122.01,94.71 L 121.54,93.42 L 121.23,92.93 L 120.57,92.02 L 120.16,91.65 L 119.29,90.92 L 118.77,90.55 L 117.44,89.90 L 116.30,89.55 L 115.65,89.43 L 112.82,89.04 L 111.27,89.03 M 168.25,108.10 L 169.83,108.31 L 170.47,108.54 L 171.69,109.09 L 172.31,109.53 L 173.56,110.55 L 174.34,111.29 L 176.43,113.68 L 177.51,115.39 L 177.90,116.29 L 178.58,118.11 L 178.76,119.04 L 179.04,120.93 L 179.02,121.87 L 178.88,123.76 L 178.66,124.70 L 178.12,126.55 L 177.70,127.44 L 176.76,129.21 L 176.14,130.04 L 174.79,131.67 L 173.97,132.41 L 172.41,133.78 L 171.75,134.26 L 170.48,135.09 L 169.86,135.35 L 168.58,135.77 L 167.84,135.87 L 166.26,135.99 L 165.25,135.99 L 162.04,135.69 L 160.09,135.19 L 159.21,134.80 L 157.53,133.93 L 156.80,133.37 L 155.41,132.16 L 154.83,131.43 L 153.75,129.90 L 153.34,129.03 L 152.59,127.20 L 152.35,126.19 L 151.95,124.10 L 151.89,122.96 L 151.86,120.62 L 151.99,119.37 L 152.40,116.68 L 152.79,115.25 L 153.08,114.63 L 153.73,113.46 L 154.19,112.89 L 155.20,111.75 L 155.87,111.12 L 157.82,109.47 L 158.99,108.75 L 159.63,108.53 L 160.98,108.18 L 161.85,108.10 L 163.75,108.00 L 165.03,108.00 M 108.98,59.24 L 106.92,59.49 L 105.95,59.73 L 104.07,60.25 L 103.23,60.61 L 101.63,61.39 L 100.98,61.88 L 99.80,62.91 L 99.40,63.51 L 98.24,65.96 L 97.79,67.73 L 97.71,68.64 L 97.67,70.48 L 97.79,71.40 L 98.13,73.23 L 98.42,74.11 L 99.10,75.84 L 99.56,76.63 L 100.55,78.16 L 101.16,78.82 L 102.43,80.06 L 103.17,80.54 L 104.70,81.40 L 105.54,81.65 L 107.71,82.30 L 108.49,82.49 L 109.90,82.80 L 110.51,82.82 L 111.73,82.80 L 112.47,82.68 L 114.06,82.36 L 115.19,82.10 L 118.50,80.80 L 120.39,79.53 L 121.15,78.73 L 122.57,77.05 L 123.09,76.10 L 124.01,74.14 L 124.27,73.11 L 124.65,71.01 L 124.63,69.95 L 124.45,67.85 L 124.13,66.85 L 123.34,64.88 L 122.71,63.99 L 121.28,62.29 L 120.32,61.59 L 117.97,60.32 L 116.15,59.71 L 115.17,59.52 L 113.15,59.21 L 112.11,59.16 L 110.01,59.14 Z" fill="rgba(9,39,132,1)"/>
<path d="M 0.69,117.25 L 0.82,117.73 L 0.88,119.00 L 0.77,120.02 L 0.68,119.81 L 0.28,119.38 L 0.24,119.48 L 0.23,119.00 L 0.23,118.52 L 0.27,117.78 L 0.29,117.45 L 0.37,117.04 L 0.41,116.88 L 0.51,116.85 M 0.51,104.82 L 0.69,105.27 L 0.82,105.76 L 0.87,106.88 L 0.66,108.27 L 0.59,108.44 L 0.47,108.51 L 0.41,108.51 L 0.32,108.26 L 0.27,108.10 L 0.22,107.57 L 0.20,107.27 L 0.19,106.50 L 0.20,106.09 L 0.25,105.47 L 0.27,105.21 L 0.36,104.90 L 0.40,104.79 M 108.25,0.34 L 108.42,0.41 L 108.54,0.53 L 108.56,0.59 L 108.40,0.69 L 107.00,0.84 L 106.31,0.84 L 105.60,0.69 L 105.49,0.65 L 105.46,0.53 L 105.48,0.47 L 105.75,0.34 L 106.09,0.20 L 107.00,0.13 M 119.17,0.17 L 118.81,0.32 L 118.27,0.62 L 118.38,0.72 L 118.59,0.80 L 118.50,0.81 L 118.09,0.80 L 117.47,0.75 L 117.21,0.73 L 116.90,0.64 L 116.79,0.60 L 116.82,0.49 L 116.88,0.43 L 117.27,0.31 L 117.76,0.18 L 118.88,0.13 Z" fill="rgba(39,62,143,1)"/>
<path d="M 0.68,119.81 L 0.83,120.17 L 0.88,120.92 L 0.60,121.73 L 0.44,121.90 L 0.20,121.59 L 0.11,121.35 L 0.08,120.42 L 0.10,119.83 L 0.28,119.38 M 120.73,0.40 L 120.90,0.56 L 120.59,0.80 L 119.42,0.92 L 118.83,0.90 L 118.38,0.72 L 118.27,0.62 L 118.81,0.32 L 119.17,0.17 L 119.92,0.12 Z" fill="rgba(87,101,162,1)"/>
<path d="M 42.00,154.06 L 40.88,153.67 L 38.83,152.78 L 37.83,152.32 L 36.04,151.28 L 35.17,150.75 L 33.64,149.58 L 32.91,148.98 L 31.64,147.68 L 31.05,147.02 L 30.07,145.61 L 29.62,144.89 L 28.93,143.38 L 28.62,142.61 L 28.23,141.00 L 28.00,138.49 L 28.00,137.55 L 28.62,135.25 L 29.02,134.08 L 30.21,131.71 L 30.85,130.56 L 32.33,128.63 L 32.71,128.20 L 33.46,127.51 L 34.56,126.79 L 35.09,126.55 L 35.94,126.29 L 36.35,126.21 L 37.08,126.31 L 37.45,126.41 L 38.26,126.92 L 39.77,128.21 L 40.80,129.17 L 42.64,130.59 L 43.54,131.22 L 45.36,132.05 L 46.30,132.41 L 48.43,132.79 L 52.35,133.00 L 53.57,133.00 L 55.34,132.91 L 56.15,132.83 L 57.34,132.49 L 57.90,132.28 L 58.86,131.56 L 60.41,129.92 L 63.00,126.85 L 63.00,102.67 L 63.00,100.90 L 63.01,97.66 L 63.01,96.09 L 63.04,93.23 L 63.05,91.85 L 63.09,89.34 L 63.12,88.13 L 63.19,85.96 L 63.23,84.91 L 63.33,83.04 L 63.39,82.13 L 63.53,80.54 L 63.69,79.00 L 64.14,76.65 L 64.40,75.57 L 65.10,73.98 L 65.48,73.26 L 66.48,72.22 L 67.01,71.75 L 68.35,71.04 L 70.79,70.14 L 72.17,69.70 L 75.12,69.33 L 76.59,69.23 L 79.51,69.50 L 80.94,69.71 L 83.54,70.56 L 86.77,72.48 L 89.50,74.83 L 89.49,102.16 L 89.49,105.92 L 89.45,112.94 L 89.43,114.62 L 89.39,117.76 L 89.37,119.29 L 89.32,122.06 L 89.29,123.39 L 89.23,125.70 L 89.20,126.79 L 89.14,128.57 L 89.10,129.38 L 89.03,130.54 L 88.91,131.50 L 88.83,131.78 L 88.60,132.59 L 88.47,133.03 L 88.17,134.09 L 87.19,137.50 L 86.95,138.34 L 86.21,140.04 L 85.79,140.88 L 84.74,142.56 L 84.18,143.40 L 82.86,145.02 L 82.16,145.82 L 80.61,147.35 L 79.01,148.85 L 75.28,151.42 L 69.24,154.31 L 68.54,154.55 L 66.71,154.93 L 65.73,155.10 L 63.46,155.36 L 61.10,155.58 L 55.72,155.66 L 53.03,155.63 L 47.93,155.22 L 46.74,155.08 L 44.62,154.73 L 43.61,154.53 M 150.57,153.08 L 148.49,152.35 L 144.88,150.50 L 143.15,149.51 L 140.18,147.08 L 138.76,145.79 L 136.32,142.68 L 133.15,137.15 L 132.58,135.93 L 131.77,133.88 L 131.42,132.87 L 130.97,130.82 L 130.78,129.74 L 130.59,127.13 L 130.56,126.41 L 130.52,124.79 L 130.50,121.98 L 130.50,120.89 L 130.52,119.03 L 130.53,118.15 L 130.59,116.63 L 130.66,115.18 L 131.01,112.91 L 131.23,111.82 L 131.99,109.69 L 132.21,109.14 L 132.76,107.92 L 133.76,105.84 L 134.34,104.66 L 135.65,102.48 L 136.33,101.43 L 137.83,99.51 L 138.61,98.58 L 140.34,96.91 L 141.23,96.10 L 143.18,94.66 L 144.19,93.96 L 146.39,92.74 L 147.52,92.16 L 149.99,91.15 L 151.26,90.67 L 154.00,89.86 L 158.45,88.86 L 160.80,88.43 L 165.41,88.17 L 167.69,88.14 L 172.10,88.65 L 174.27,88.99 L 178.38,90.21 L 180.39,90.91 L 184.13,92.80 L 185.94,93.82 L 189.21,96.32 L 190.78,97.65 L 193.49,100.72 L 194.77,102.32 L 196.83,105.90 L 199.11,111.81 L 199.62,113.65 L 200.41,117.59 L 200.58,118.52 L 200.82,120.17 L 200.97,122.08 L 200.98,122.67 L 200.83,124.10 L 200.73,124.84 L 200.40,126.52 L 200.03,128.23 L 198.86,132.04 L 198.23,133.94 L 196.71,137.59 L 196.32,138.46 L 195.52,140.05 L 194.30,142.12 L 193.28,143.66 L 190.78,146.37 L 189.46,147.67 L 186.43,149.87 L 184.85,150.91 L 181.38,152.58 L 179.59,153.35 L 175.77,154.47 L 173.82,154.96 L 169.75,155.50 L 167.68,155.70 L 163.44,155.63 L 161.31,155.53 L 157.01,154.84 L 154.85,154.41 M 173.97,132.41 L 174.79,131.67 L 176.14,130.04 L 176.76,129.21 L 177.70,127.44 L 178.12,126.55 L 178.66,124.70 L 178.88,123.76 L 179.02,121.87 L 179.04,120.93 L 178.76,119.04 L 178.58,118.11 L 177.90,116.29 L 177.51,115.39 L 176.43,113.68 L 174.34,111.29 L 173.56,110.55 L 172.31,109.53 L 171.69,109.09 L 170.47,108.54 L 169.83,108.31 L 168.25,108.10 L 165.03,108.00 L 163.75,108.00 L 161.85,108.10 L 160.98,108.18 L 159.63,108.53 L 158.99,108.75 L 157.82,109.47 L 155.87,111.12 L 155.20,111.75 L 154.19,112.89 L 153.73,113.46 L 153.08,114.63 L 152.79,115.25 L 152.40,116.68 L 151.99,119.37 L 151.86,120.62 L 151.89,122.96 L 151.95,124.10 L 152.35,126.19 L 152.59,127.20 L 153.34,129.03 L 153.75,129.90 L 154.83,131.43 L 155.41,132.16 L 156.80,133.37 L 157.53,133.93 L 159.21,134.80 L 160.09,135.19 L 162.04,135.69 L 165.25,135.99 L 166.26,135.99 L 167.84,135.87 L 168.58,135.77 L 169.86,135.35 L 170.48,135.09 L 171.75,134.26 L 172.41,133.78 M 104.21,153.49 L 103.51,153.19 L 102.32,152.51 L 101.77,152.14 L 100.86,151.21 L 100.44,150.69 L 99.77,149.33 L 99.46,148.57 L 98.99,146.59 L 98.78,145.50 L 98.48,142.73 L 98.34,141.22 L 98.18,137.47 L 98.14,136.46 L 98.09,134.23 L 98.07,133.08 L 98.04,130.54 L 98.02,129.23 L 98.01,126.37 L 98.00,121.68 L 98.00,120.09 L 98.01,117.15 L 98.01,115.72 L 98.03,113.11 L 98.04,111.84 L 98.08,109.52 L 98.10,108.40 L 98.16,106.36 L 98.22,104.39 L 98.41,101.20 L 98.52,99.72 L 98.84,97.38 L 99.01,96.30 L 99.47,94.64 L 99.73,93.88 L 100.36,92.74 L 100.71,92.22 L 101.54,91.43 L 103.06,90.47 L 103.53,90.23 L 104.70,89.83 L 105.32,89.65 L 106.71,89.38 L 108.14,89.14 L 111.27,89.03 L 112.82,89.04 L 115.65,89.43 L 116.30,89.55 L 117.44,89.90 L 118.77,90.55 L 119.29,90.92 L 120.16,91.65 L 120.57,92.02 L 121.23,92.93 L 121.54,93.42 L 122.01,94.71 L 122.23,95.42 L 122.55,97.29 L 122.70,98.32 L 122.89,100.98 L 122.94,101.71 L 123.00,103.34 L 123.04,104.19 L 123.08,106.09 L 123.10,107.08 L 123.13,109.28 L 123.14,110.41 L 123.16,112.93 L 123.16,114.23 L 123.16,117.09 L 123.16,121.80 L 123.16,123.27 L 123.15,125.97 L 123.15,127.28 L 123.14,129.67 L 123.13,130.83 L 123.12,132.94 L 123.11,133.96 L 123.09,135.80 L 123.07,137.57 L 122.99,140.42 L 122.95,141.74 L 122.83,143.81 L 122.77,144.76 L 122.59,146.20 L 122.50,146.86 L 122.25,147.85 L 121.21,149.93 L 120.75,150.56 L 119.68,151.65 L 119.13,152.16 L 117.91,153.02 L 117.28,153.41 L 115.93,154.03 L 115.24,154.31 L 113.79,154.68 L 112.31,154.99 L 109.13,154.86 L 107.52,154.66 M 105.54,81.65 L 104.70,81.40 L 103.17,80.54 L 102.43,80.06 L 101.16,78.82 L 100.55,78.16 L 99.56,76.63 L 99.10,75.84 L 98.42,74.11 L 98.13,73.23 L 97.79,71.40 L 97.67,70.48 L 97.71,68.64 L 97.79,67.73 L 98.24,65.96 L 99.40,63.51 L 99.80,62.91 L 100.98,61.88 L 101.63,61.39 L 103.23,60.61 L 104.07,60.25 L 105.95,59.73 L 106.92,59.49 L 108.98,59.24 L 110.01,59.14 L 112.11,59.16 L 113.15,59.21 L 115.17,59.52 L 116.15,59.71 L 117.97,60.32 L 120.32,61.59 L 121.28,62.29 L 122.71,63.99 L 123.34,64.88 L 124.13,66.85 L 124.45,67.85 L 124.63,69.95 L 124.65,71.01 L 124.27,73.11 L 124.01,74.14 L 123.09,76.10 L 122.57,77.05 L 121.15,78.73 L 120.39,79.53 L 118.50,80.80 L 115.19,82.10 L 114.06,82.36 L 112.47,82.68 L 111.73,82.80 L 110.51,82.82 L 109.90,82.80 L 108.49,82.49 L 107.71,82.30 Z" fill="rgba(254,254,254,1)"/>
</g>
</svg>