<?xml version="1.0" encoding="UTF-8"?>
<svg version="1.1" xmlns="http://www.w3.org/2000/svg" width="200" height="200">
<path d="M0 0 C66 0 132 0 200 0 C200 66 200 132 200 200 C134 200 68 200 0 200 C0 134 0 68 0 0 Z " fill="#FEFEFE" transform="translate(0,0)"/>
<path d="M0 0 C1 1 1 1 1.125 4.375 C1 8 1 8 0 11 C0.60499329 10.87249863 1.20998657 10.74499725 1.83331299 10.6136322 C8.12515171 9.2894289 14.41945324 7.97746417 20.71533203 6.67260742 C23.0652718 6.18388877 25.41456353 5.69204335 27.76318359 5.19702148 C31.13734479 4.48640917 34.51366958 3.78703979 37.890625 3.08984375 C39.46738007 2.75399513 39.46738007 2.75399513 41.07598877 2.41136169 C42.05670349 2.21107864 43.03741821 2.01079559 44.04785156 1.80444336 C44.90944885 1.62457382 45.77104614 1.44470428 46.65875244 1.25938416 C49.07615242 0.99156316 50.70351935 1.25246433 53 2 C48.41606548 3.6161766 43.79738792 4.80621698 39.0625 5.875 C32.34638315 7.42242229 25.68513715 9.1053585 19.04296875 10.94921875 C16.0018061 11.77092565 12.94804481 12.44394146 9.86328125 13.08203125 C-3.08065853 15.76576495 -3.08065853 15.76576495 -12 25 C-17.58975004 30.81559852 -23.98542127 35.06220256 -30.88671875 39.140625 C-38.67637143 43.52953191 -38.67637143 43.52953191 -43 51 C-43.32599725 54.36346367 -43.46434146 57.64709282 -43 61 C-40.4194286 63.5805714 -39.23772493 63.448543 -35.625 63.625 C-19.71000665 63.31088829 5.90066486 52.09933514 17 41 C18.485 41.495 18.485 41.495 20 42 C14.07102056 46.2313107 8.08085162 50.32259598 1.8984375 54.17578125 C-0.09685044 55.43157568 -2.07000257 56.72301208 -4.0234375 58.04296875 C-14.92037363 65.21342178 -28.60287251 71.46195298 -42 69 C-45.58773136 67.2617786 -48.05774489 65.51756951 -50 62 C-50.29296875 59.203125 -50.29296875 59.203125 -50.1875 56.25 C-50.14689453 54.77273437 -50.14689453 54.77273437 -50.10546875 53.265625 C-50.07066406 52.51796875 -50.03585938 51.7703125 -50 51 C-54.31849253 52.65069792 -58.46049671 54.62628953 -62.625 56.625 C-69.02469507 59.66387102 -75.474377 62.5543004 -82 65.3125 C-82.76393066 65.63750488 -83.52786133 65.96250977 -84.31494141 66.29736328 C-89.46724271 68.45432279 -94.67871939 70.30407768 -100 72 C-99.97084607 68.65458652 -99.54967377 65.98775075 -98 63 C-95.63476562 61.60546875 -95.63476562 61.60546875 -92.65625 60.5 C-91.57311523 60.08532471 -90.48998047 59.67064941 -89.37402344 59.2434082 C-88.2605957 58.8330835 -87.14716797 58.42275879 -86 58 C-83.97243026 57.20571262 -81.94635255 56.40760474 -79.921875 55.60546875 C-78.40980469 55.01499756 -78.40980469 55.01499756 -76.8671875 54.41259766 C-71.55728424 52.32573248 -66.27508693 50.17316286 -61 48 C-60.15630859 47.65565918 -59.31261719 47.31131836 -58.44335938 46.95654297 C-47.87565176 42.54884982 -42.18364291 37.59530797 -36 28 C-34.26953125 26.14453125 -34.26953125 26.14453125 -33 25 C-40.53116567 25.70693044 -47.72819011 27.50550293 -55.0625 29.3125 C-56.36501231 29.62988214 -57.66758421 29.94701985 -58.97021484 30.26391602 C-66.82774754 32.18690462 -74.65787838 34.18145051 -82.4453125 36.37109375 C-85 37 -85 37 -88 37 C-86.125 31.25 -86.125 31.25 -85 29 C-83.24107361 28.4067688 -83.24107361 28.4067688 -80.91772461 27.91845703 C-80.04848862 27.73131134 -79.17925262 27.54416565 -78.28367615 27.35134888 C-77.33283646 27.15548187 -76.38199677 26.95961487 -75.40234375 26.7578125 C-74.42068741 26.54816864 -73.43903107 26.33852478 -72.42762756 26.12252808 C-69.26589138 25.44866598 -66.10188512 24.78630094 -62.9375 24.125 C-46.30890144 20.64373425 -46.30890144 20.64373425 -29.7421875 16.8828125 C-28.51741699 16.5955127 -27.29264648 16.30821289 -26.03076172 16.01220703 C-22.21001252 14.73616175 -20.22334836 13.00996331 -17.70703125 9.94921875 C-15.50654922 7.43654018 -13.04712917 5.56217282 -10.375 3.5625 C-9.47523437 2.88316406 -8.57546875 2.20382813 -7.6484375 1.50390625 C-4.77246448 -0.12920527 -3.24835246 -0.41601707 0 0 Z " fill="#72C61C" transform="translate(132,60)"/>
<path d="M0 0 C1 3 1 3 0.0390625 5.26171875 C-1.2663647 8.7019611 -0.99297054 11.16959164 -0.625 14.8125 C-0.51414063 15.97394531 -0.40328125 17.13539062 -0.2890625 18.33203125 C-0.19367188 19.21246094 -0.09828125 20.09289062 0 21 C-0.99 21 -1.98 21 -3 21 C-4.98109499 16.04726253 -5.08658837 12.23859642 -5 7 C-5.59723877 7.29132813 -6.19447754 7.58265625 -6.80981445 7.8828125 C-17.24267724 12.9580975 -27.68076912 17.99487722 -38.375 22.5 C-39.11532471 22.81324219 -39.85564941 23.12648438 -40.6184082 23.44921875 C-45.66987596 25.54603283 -50.79186447 27.33266374 -56 29 C-55.97084831 25.65484326 -55.54867082 22.98792296 -54 20 C-51.64575195 18.61206055 -51.64575195 18.61206055 -48.67578125 17.51171875 C-47.59345215 17.09752686 -46.51112305 16.68333496 -45.39599609 16.2565918 C-44.27531738 15.8419165 -43.15463867 15.42724121 -42 15 C-39.91344281 14.17149027 -37.82877124 13.33821462 -35.74609375 12.5 C-32.58781172 11.24686888 -29.42850235 9.99645194 -26.26757812 8.75 C-20.2392052 6.35511566 -14.36031531 3.81648004 -8.55493164 0.91796875 C-5.57444873 -0.15289754 -3.14357645 -0.16028433 0 0 Z " fill="#6DC813" transform="translate(88,103)"/>
<path d="M0 0 C-4.23871768 6.35807652 -14.30554255 6.77910493 -21.4375 8.30834961 C-27.84102387 9.69746356 -34.16822835 11.31605176 -40.5 13 C-49.60304781 15.41492453 -58.73082809 17.59007908 -67.94042969 19.55664062 C-71.63134253 20.35117568 -75.31536612 21.17691671 -79 22 C-77.125 16.25 -77.125 16.25 -76 14 C-74.26126099 13.4067688 -74.26126099 13.4067688 -71.96533203 12.91845703 C-71.10577911 12.73131134 -70.2462262 12.54416565 -69.36062622 12.35134888 C-67.94848343 12.05754837 -67.94848343 12.05754837 -66.5078125 11.7578125 C-65.53327118 11.54816864 -64.55872986 11.33852478 -63.55465698 11.12252808 C-60.41308058 10.44871451 -57.26913799 9.78674648 -54.125 9.125 C-52.07405403 8.68696845 -50.02327067 8.24817478 -47.97265625 7.80859375 C-42.94517313 6.73294947 -37.91525369 5.66924828 -32.88439941 4.60949707 C-30.08827643 4.01865353 -27.29347857 3.42191876 -24.49902344 2.82324219 C-22.80924781 2.46287647 -21.11946933 2.10252414 -19.4296875 1.7421875 C-18.67519318 1.579534 -17.92069885 1.41688049 -17.14334106 1.2492981 C-4.17679229 -1.50364522 -4.17679229 -1.50364522 0 0 Z " fill="#4B1F6C" transform="translate(123,75)"/>
<path d="M0 0 C1 1 1 1 1.125 4.375 C1 8 1 8 0 11 C0.60499329 10.87249863 1.20998657 10.74499725 1.83331299 10.6136322 C8.12515171 9.2894289 14.41945324 7.97746417 20.71533203 6.67260742 C23.0652718 6.18388877 25.41456353 5.69204335 27.76318359 5.19702148 C31.13734479 4.48640917 34.51366958 3.78703979 37.890625 3.08984375 C38.94179504 2.86594467 39.99296509 2.64204559 41.07598877 2.41136169 C42.54706085 2.11093712 42.54706085 2.11093712 44.04785156 1.80444336 C44.90944885 1.62457382 45.77104614 1.44470428 46.65875244 1.25938416 C49.07615242 0.99156316 50.70351935 1.25246433 53 2 C48.41606548 3.6161766 43.79738792 4.80621698 39.0625 5.875 C32.34957306 7.42168732 25.69231476 9.10802912 19.05078125 10.94140625 C15.98200366 11.76943973 12.89840905 12.47509047 9.79296875 13.15234375 C8.89553955 13.35545166 7.99811035 13.55855957 7.07348633 13.76782227 C5.3157126 14.16333328 3.55381391 14.54106604 1.7878418 14.89819336 C-4.1021969 16.25003436 -6.60624246 17.97169802 -10 23 C-10.33 22.01 -10.66 21.02 -11 20 C-11.99 19.67 -12.98 19.34 -14 19 C-13.01 18.67 -12.02 18.34 -11 18 C-10.67 17.01 -10.34 16.02 -10 15 C-16.435 15.495 -16.435 15.495 -23 16 C-19.44379367 11.35717508 -15.56842912 7.6279747 -10.9375 4.0625 C-9.93589844 3.29035156 -8.93429688 2.51820312 -7.90234375 1.72265625 C-4.87538171 -0.07396591 -3.44167549 -0.49692641 0 0 Z " fill="#70C71F" transform="translate(132,60)"/>
<path d="M0 0 C-0.62830953 5.57745534 -3.24336842 7.50211842 -7.3671875 10.99609375 C-11.36665303 14.04019733 -15.60271456 16.57644394 -20 19 C-20 18.01 -20 17.02 -20 16 C-21.65 16.33 -23.3 16.66 -25 17 C-23.34231648 13.03305794 -20.65294946 10.03447152 -17.8125 6.875 C-17.35552734 6.33746094 -16.89855469 5.79992187 -16.42773438 5.24609375 C-11.90685354 0.21731923 -6.76077514 -2.04871974 0 0 Z " fill="#76C828" transform="translate(121,80)"/>
<path d="M0 0 C-0.43570313 0.4125 -0.87140625 0.825 -1.3203125 1.25 C-5.72116319 5.51749158 -9.45604196 10.00211045 -13 15 C-11.35 14.67 -9.7 14.34 -8 14 C-8.21484375 15.828125 -8.21484375 15.828125 -9 18 C-11.06640625 19.484375 -11.06640625 19.484375 -13.5625 20.75 C-14.38878906 21.17796875 -15.21507813 21.6059375 -16.06640625 22.046875 C-16.70449219 22.36140625 -17.34257813 22.6759375 -18 23 C-20.18778795 19.71831807 -20.52998196 18.80572151 -20 15 C-18.3203125 12.39453125 -18.3203125 12.39453125 -16.125 9.8125 C-15.40570313 8.95269531 -14.68640625 8.09289062 -13.9453125 7.20703125 C-12.67409447 5.76478589 -11.35942395 4.35942395 -10 3 C-10.66 2.34 -11.32 1.68 -12 1 C-10.56496445 0.63597631 -9.12683494 0.28413409 -7.6875 -0.0625 C-6.88699219 -0.25972656 -6.08648437 -0.45695312 -5.26171875 -0.66015625 C-3 -1 -3 -1 0 0 Z " fill="#73C919" transform="translate(109,82)"/>
<path d="M0 0 C-4.58394237 1.61617937 -9.20262101 2.80614913 -13.9375 3.875 C-23.40403778 6.05753439 -32.78602023 8.50919777 -42.12890625 11.17578125 C-42.80808105 11.36591797 -43.48725586 11.55605469 -44.18701172 11.75195312 C-46.07850242 12.28195833 -47.96708603 12.82230686 -49.85546875 13.36328125 C-52.79291448 13.9580684 -54.25096369 14.05732166 -57 13 C-53.31157912 7.8462128 -47.86989655 7.51793812 -42.03125 6.38671875 C-40.95879028 6.16804642 -39.88633057 5.94937408 -38.78137207 5.72407532 C-36.51668057 5.265714 -34.25046873 4.81480998 -31.98291016 4.37084961 C-28.50940353 3.68934498 -25.0418193 2.98236462 -21.57421875 2.27148438 C-19.37269998 1.82921248 -17.17088595 1.38840728 -14.96875 0.94921875 C-13.93012817 0.73786789 -12.89150635 0.52651703 -11.82141113 0.3087616 C-10.85360718 0.12138931 -9.88580322 -0.06598297 -8.88867188 -0.2590332 C-8.0391394 -0.42683792 -7.18960693 -0.59464264 -6.31433105 -0.76753235 C-3.92109053 -1.00792622 -2.27416163 -0.73321275 0 0 Z " fill="#694D7D" transform="translate(185,62)"/>
<path d="M0 0 C-3.88601821 5.82902731 -12.26556984 6.35446853 -18.8125 7.6875 C-22.68927908 8.45811358 -26.04052877 9 -30 9 C-29.9375 7.1875 -29.9375 7.1875 -29 5 C-23.7354869 2.30572693 -18.62431524 1.16034204 -12.8125 0.25 C-12.01908203 0.11207031 -11.22566406 -0.02585937 -10.40820312 -0.16796875 C-6.56614083 -0.79379586 -3.78055212 -1.14469215 0 0 Z " fill="#532D6E" transform="translate(123,75)"/>
<path d="M0 0 C0.99 0.33 1.98 0.66 3 1 C-2.92125058 5.22579488 -8.90270952 9.31360508 -15.078125 13.16015625 C-17.15259535 14.46640696 -19.20258894 15.81189278 -21.234375 17.18359375 C-27.84316854 21.53515851 -32.96926524 24.29004911 -41 24 C-41 23.34 -41 22.68 -41 22 C-37.35206816 20.72746564 -33.8063457 19.67170806 -30 19 C-29.67 18.01 -29.34 17.02 -29 16 C-27.19335938 14.83666992 -27.19335938 14.83666992 -24.84375 13.73046875 C-23.98523438 13.31603516 -23.12671875 12.90160156 -22.2421875 12.47460938 C-21.33726563 12.04986328 -20.43234375 11.62511719 -19.5 11.1875 C-13.23557355 8.22621877 -7.47752984 5.16061709 -1.89257812 1.0324707 C-1.26802734 0.69175537 -0.64347656 0.35104004 0 0 Z " fill="#76C72A" transform="translate(149,101)"/>
<path d="M0 0 C1.32 0 2.64 0 4 0 C4.18743455 9.74659686 4.18743455 9.74659686 0.75 13.375 C-0.1575 14.24125 -1.065 15.1075 -2 16 C-3.7140168 17.96484852 -5.35363611 19.97732437 -7 22 C-7.33 21.01 -7.66 20.02 -8 19 C-8.99 18.67 -9.98 18.34 -11 18 C-10.01 17.67 -9.02 17.34 -8 17 C-8 15.68 -8 14.36 -8 13 C-7.4225 12.79375 -6.845 12.5875 -6.25 12.375 C-2.33149206 9.98035626 -0.42416226 6.27248678 1 2 C0.34 1.67 -0.32 1.34 -1 1 C-0.67 0.67 -0.34 0.34 0 0 Z " fill="#70B72B" transform="translate(129,61)"/>
<path d="M0 0 C-2.0383122 1.75403721 -4.08045769 3.50324973 -6.125 5.25 C-6.97964844 5.98669922 -6.97964844 5.98669922 -7.8515625 6.73828125 C-17.5453125 15 -17.5453125 15 -21 15 C-18.17478959 8.77897018 -13.27409743 2.88269341 -7 0 C-3.91108646 -1.09020478 -3.236172 -1.078724 0 0 Z " fill="#E1F2CC" transform="translate(119,80)"/>
<path d="M0 0 C1.65 0 3.3 0 5 0 C6 3 6 3 5.0390625 5.26171875 C3.7336353 8.7019611 4.00702946 11.16959164 4.375 14.8125 C4.48585938 15.97394531 4.59671875 17.13539062 4.7109375 18.33203125 C4.80632812 19.21246094 4.90171875 20.09289062 5 21 C4.01 21 3.02 21 2 21 C0.61014139 17.52535349 -0.12514114 14.5917077 -0.0625 10.875 C-0.01261066 7.78186063 -0.2519792 5.88522308 -1 3 C-0.67 2.01 -0.34 1.02 0 0 Z " fill="#67C906" transform="translate(83,103)"/>
<path d="M0 0 C0.33 0 0.66 0 1 0 C1.33 3.3 1.66 6.6 2 10 C9.07225664 10.1914295 15.28070834 10.28741844 22 8 C23.32 8 24.64 8 26 8 C26 7.34 26 6.68 26 6 C27.98 6 29.96 6 32 6 C23.42115858 11.71922762 13.29674297 14.80117953 3 13 C1.14453125 11.79296875 1.14453125 11.79296875 0 10 C-0.29296875 7.51953125 -0.29296875 7.51953125 -0.1875 4.8125 C-0.16042969 3.91144531 -0.13335937 3.01039062 -0.10546875 2.08203125 C-0.07066406 1.39496094 -0.03585938 0.70789063 0 0 Z " fill="#E3FACA" transform="translate(88,111)"/>
<path d="M0 0 C-3.66666667 3.66666667 -7.33333333 7.33333333 -11 11 C-11.33 10.34 -11.66 9.68 -12 9 C-12.66 9 -13.32 9 -14 9 C-14 9.66 -14 10.32 -14 11 C-14.66 10.67 -15.32 10.34 -16 10 C-14.02 7.69 -12.04 5.38 -10 3 C-10.66 2.34 -11.32 1.68 -12 1 C-10.56496445 0.63597631 -9.12683494 0.28413409 -7.6875 -0.0625 C-6.88699219 -0.25972656 -6.08648437 -0.45695312 -5.26171875 -0.66015625 C-3 -1 -3 -1 0 0 Z " fill="#6FC61B" transform="translate(109,82)"/>
<path d="M0 0 C0.99 0.33 1.98 0.66 3 1 C-0.31251822 3.36403144 -3.65067936 5.68843429 -7 8 C-8.4540625 9.01900391 -8.4540625 9.01900391 -9.9375 10.05859375 C-10.88625 10.69925781 -11.835 11.33992188 -12.8125 12 C-13.68519531 12.598125 -14.55789062 13.19625 -15.45703125 13.8125 C-18.47758645 15.2230204 -19.87410215 14.98771638 -23 14 C-18.50885187 10.26538217 -13.18782253 7.8836272 -8.0234375 5.22851562 C-7.2809375 4.84244141 -6.5384375 4.45636719 -5.7734375 4.05859375 C-5.09716309 3.71111084 -4.42088867 3.36362793 -3.72412109 3.00561523 C-1.82802429 1.99772055 -1.82802429 1.99772055 0 0 Z " fill="#87C646" transform="translate(149,101)"/>
<path d="M0 0 C0 0.66 0 1.32 0 2 C-2.413762 2.69951063 -4.83010234 3.38483919 -7.25 4.0625 C-7.93191406 4.26166016 -8.61382812 4.46082031 -9.31640625 4.66601562 C-15.58342161 6.40009269 -15.58342161 6.40009269 -19 5 C-13.65116616 -1.14125367 -7.61091122 -0.13300622 0 0 Z " fill="#4E2E64" transform="translate(147,70)"/>
<path d="M0 0 C0 4.29 0 8.58 0 13 C-0.66 13 -1.32 13 -2 13 C-2.99 10.03 -3.98 7.06 -5 4 C-5.99 4.66 -6.98 5.32 -8 6 C-11.1875 6.125 -11.1875 6.125 -14 6 C-11.86197902 3.67490219 -9.81401863 2.17832764 -7 0.75 C-6.319375 0.39421875 -5.63875 0.0384375 -4.9375 -0.328125 C-3 -1 -3 -1 0 0 Z " fill="#E1F8C9" transform="translate(83,111)"/>
<path d="M0 0 C-1.07429598 0.84495189 -2.15989202 1.67554858 -3.25 2.5 C-4.15492187 3.19609375 -4.15492187 3.19609375 -5.078125 3.90625 C-7 5 -7 5 -11 5 C-11 6.32 -11 7.64 -11 9 C-9.68 9 -8.36 9 -7 9 C-7 8.34 -7 7.68 -7 7 C-5.35 7 -3.7 7 -2 7 C-5.64116773 10.33773709 -9.28607242 10.97864902 -14 12 C-13.84620319 8.72832245 -13.43587146 5.96339429 -12 3 C-8.56299246 0.71257178 -3.95406175 -1.97703087 0 0 Z " fill="#7FC835" transform="translate(46,120)"/>
<path d="M0 0 C0 0.66 0 1.32 0 2 C-0.66 2 -1.32 2 -2 2 C-2 2.66 -2 3.32 -2 4 C-0.02 4 1.96 4 4 4 C3.01 4.66 2.02 5.32 1 6 C0.175 6.556875 -0.65 7.11375 -1.5 7.6875 C-2.325 8.120625 -3.15 8.55375 -4 9 C-4.99 8.67 -5.98 8.34 -7 8 C-7.33 7.01 -7.66 6.02 -8 5 C-10.01508358 4.26676204 -10.01508358 4.26676204 -12 4 C-10.3767313 3.3291288 -8.75132422 2.66342971 -7.125 2 C-6.22007813 1.62875 -5.31515625 1.2575 -4.3828125 0.875 C-2 0 -2 0 0 0 Z " fill="#78C928" transform="translate(71,109)"/>
<path d="M0 0 C0 0.66 0 1.32 0 2 C-3.85756507 4.15305957 -6.55129785 5.39253254 -11 5 C-11 5.66 -11 6.32 -11 7 C-9.02 6.67 -7.04 6.34 -5 6 C-7.5654594 8.5654594 -9.47686668 8.54046087 -13 9 C-13 8.34 -13 7.68 -13 7 C-17.29 7 -21.58 7 -26 7 C-26 6.67 -26 6.34 -26 6 C-25.35675781 5.98582031 -24.71351562 5.97164063 -24.05078125 5.95703125 C-16.94723454 5.58209369 -11.19878768 3.80638769 -4.65234375 1.05859375 C-2 0 -2 0 0 0 Z " fill="#7EC834" transform="translate(119,118)"/>
<path d="M0 0 C-0.61277612 2.96175123 -1.25372522 4.38058783 -3 7 C-6.125 7.6875 -6.125 7.6875 -9 8 C-9.185625 7.071875 -9.185625 7.071875 -9.375 6.125 C-9.87197356 3.80879168 -9.87197356 3.80879168 -12 2 C-10.7625 1.67 -9.525 1.34 -8.25 1 C-7.55390625 0.814375 -6.8578125 0.62875 -6.140625 0.4375 C-4 0 -4 0 0 0 Z " fill="#593276" transform="translate(78,83)"/>
<path d="M0 0 C1.21236328 0.01353516 1.21236328 0.01353516 2.44921875 0.02734375 C3.37154297 0.04474609 3.37154297 0.04474609 4.3125 0.0625 C4.3125 1.0525 4.3125 2.0425 4.3125 3.0625 C2.89711283 3.40122513 1.48012037 3.73324624 0.0625 4.0625 C-0.72640625 4.248125 -1.5153125 4.43375 -2.328125 4.625 C-4.6875 5.0625 -4.6875 5.0625 -8.6875 5.0625 C-8.375 3.125 -8.375 3.125 -7.6875 1.0625 C-4.80538698 0.10179566 -2.98899956 -0.04331883 0 0 Z " fill="#451C5F" transform="translate(101.6875,78.9375)"/>
<path d="M0 0 C-0.60474412 3.38656708 -1.4636535 5.62728876 -4 8 C-6.70123795 8.64594821 -9.20906388 8.8169878 -12 9 C-3.25 0 -3.25 0 0 0 Z " fill="#E1F5C5" transform="translate(129,65)"/>
<path d="M0 0 C1.11375 0.1546875 1.11375 0.1546875 2.25 0.3125 C0.76697598 4.76157205 -2.83285501 7.05829392 -6.75 9.3125 C-7.41 9.3125 -8.07 9.3125 -8.75 9.3125 C-4.85638298 0.5518617 -4.85638298 0.5518617 0 0 Z " fill="#E3FAC5" transform="translate(106.75,85.6875)"/>
<path d="M0 0 C-0.99 0 -1.98 0 -3 0 C-3 1.65 -3 3.3 -3 5 C-4.98 5.33 -6.96 5.66 -9 6 C-9.103125 5.360625 -9.20625 4.72125 -9.3125 4.0625 C-9.539375 3.381875 -9.76625 2.70125 -10 2 C-10.99 1.67 -11.98 1.34 -13 1 C-11.58622218 0.63447197 -10.16879424 0.28304505 -8.75 -0.0625 C-7.96109375 -0.25972656 -7.1721875 -0.45695312 -6.359375 -0.66015625 C-3.89605178 -1.01497267 -2.34395868 -0.76877544 0 0 Z " fill="#573176" transform="translate(97,80)"/>
<path d="M0 0 C0.57975586 0.16298584 1.15951172 0.32597168 1.75683594 0.49389648 C5.22673123 1.27677556 8.712623 1.10312359 12.25 1.0625 C13.36761719 1.05573242 13.36761719 1.05573242 14.5078125 1.04882812 C16.3385764 1.03709246 18.16929873 1.0191585 20 1 C20 1.66 20 2.32 20 3 C17.0586446 4.4706777 14.39772595 4.17048999 11.125 4.1875 C9.27261719 4.20876953 9.27261719 4.20876953 7.3828125 4.23046875 C4.25913288 4.01765455 2.59938404 3.65237226 0 2 C0 1.34 0 0.68 0 0 Z " fill="#E6FBCD" transform="translate(86,127)"/>
<path d="M0 0 C1.5625 1.6875 1.5625 1.6875 3 4 C2.65625 6.25 2.65625 6.25 2 9 C1.63851898 11.10292246 1.28453644 13.20714561 0.9375 15.3125 C0.67259766 16.91544922 0.67259766 16.91544922 0.40234375 18.55078125 C0.26957031 19.35902344 0.13679688 20.16726562 0 21 C-0.33 21 -0.66 21 -1 21 C-1.85330338 15.16524985 -2.48351814 10.55139349 0 5 C-1.65 4.67 -3.3 4.34 -5 4 C-3.35 2.68 -1.7 1.36 0 0 Z " fill="#78CA26" transform="translate(88,99)"/>
<path d="M0 0 C0.625 1.8125 0.625 1.8125 1 4 C0.01 5.485 0.01 5.485 -1 7 C0.65 6.67 2.3 6.34 4 6 C4 6.99 4 7.98 4 9 C1.69 9 -0.62 9 -3 9 C-3.33 7.02 -3.66 5.04 -4 3 C-3.34 3 -2.68 3 -2 3 C-2 2.34 -2 1.68 -2 1 C-1.34 0.67 -0.68 0.34 0 0 Z " fill="#68C70D" transform="translate(97,90)"/>
<path d="M0 0 C-2 3 -2 3 -3.83984375 3.546875 C-4.53207031 3.61390625 -5.22429687 3.6809375 -5.9375 3.75 C-6.97197266 3.86601563 -6.97197266 3.86601563 -8.02734375 3.984375 C-10.67368766 4.00533614 -12.65643578 3.17178211 -15 2 C-10.44160484 -0.7350371 -5.08761101 -1.83153997 0 0 Z " fill="#3F2550" transform="translate(123,75)"/>
<path d="M0 0 C0.99 0.33 1.98 0.66 3 1 C3 2.32 3 3.64 3 5 C1.35 5 -0.3 5 -2 5 C-2 5.66 -2 6.32 -2 7 C-3.32 7 -4.64 7 -6 7 C-6 5.68 -6 4.36 -6 3 C-5.195625 2.690625 -4.39125 2.38125 -3.5625 2.0625 C-1.10919595 1.23664655 -1.10919595 1.23664655 0 0 Z " fill="#66CA04" transform="translate(41,122)"/>
<path d="M0 0 C0.99 0 1.98 0 3 0 C3 0.66 3 1.32 3 2 C6.3 2 9.6 2 13 2 C13 2.33 13 2.66 13 3 C11.0636296 3.50435694 9.12585854 4.00333874 7.1875 4.5 C6.10855469 4.7784375 5.02960937 5.056875 3.91796875 5.34375 C1 6 1 6 -2 6 C-1.34 4.02 -0.68 2.04 0 0 Z " fill="#65437F" transform="translate(46,91)"/>
<path d="M0 0 C-0.99 0.66 -1.98 1.32 -3 2 C-2.67 3.32 -2.34 4.64 -2 6 C-2.598125 6.144375 -3.19625 6.28875 -3.8125 6.4375 C-5.56150404 6.8872439 -7.28677023 7.42892341 -9 8 C-9.25 5.6875 -9.25 5.6875 -9 3 C-6.19926731 -0.00819437 -4.01012625 -0.33417719 0 0 Z " fill="#7EC82F" transform="translate(132,60)"/>
<path d="M0 0 C1.32 0 2.64 0 4 0 C4.125 6.75 4.125 6.75 3 9 C2.01 9 1.02 9 0 9 C0.33 6.69 0.66 4.38 1 2 C0.34 1.67 -0.32 1.34 -1 1 C-0.67 0.67 -0.34 0.34 0 0 Z " fill="#6DC416" transform="translate(129,61)"/>
<path d="M0 0 C-0.95336021 1.31611677 -1.91285774 2.62778961 -2.875 3.9375 C-3.40867187 4.66839844 -3.94234375 5.39929688 -4.4921875 6.15234375 C-6 8 -6 8 -8 9 C-7.49396008 6.83125748 -7.00016187 5.00032373 -6 3 C-6.99 2.34 -7.98 1.68 -9 1 C-5.8035914 -0.06546953 -3.34252724 -0.07427838 0 0 Z " fill="#E7E9DF" transform="translate(100,84)"/>
<path d="M0 0 C0.33 1.32 0.66 2.64 1 4 C-1.01822917 3.70703125 -3.03645833 3.4140625 -5.0546875 3.12109375 C-7.08140667 2.8315703 -7.08140667 2.8315703 -9 4 C-9 3.01 -9 2.02 -9 1 C-6.04335481 -0.4783226 -3.25770263 -0.06032783 0 0 Z " fill="#461B6B" transform="translate(87,82)"/>
<path d="M0 0 C-1.32 1.65 -2.64 3.3 -4 5 C-4.66 4.67 -5.32 4.34 -6 4 C-6 3.67 -6 3.34 -6 3 C-8.31 3 -10.62 3 -13 3 C-12.67 2.34 -12.34 1.68 -12 1 C-4.35711773 -1.38056989 -4.35711773 -1.38056989 0 0 Z " fill="#E5E3E5" transform="translate(139,75)"/>
<path d="M0 0 C0 0.99 0 1.98 0 3 C-0.33 3.33 -0.66 3.66 -1 4 C0.32 4.99 1.64 5.98 3 7 C-0.3 7.33 -3.6 7.66 -7 8 C-1.125 1.125 -1.125 1.125 0 0 Z " fill="#81B44A" transform="translate(116,68)"/>
<path d="M0 0 C0.99 0 1.98 0 3 0 C2.67 1.65 2.34 3.3 2 5 C0.35 5.33 -1.3 5.66 -3 6 C-1.125 1.125 -1.125 1.125 0 0 Z " fill="#6EC619" transform="translate(118,80)"/>
<path d="M0 0 C0 0.66 0 1.32 0 2 C-7.28571429 6.42857143 -7.28571429 6.42857143 -12 7 C-9.20232475 3.70861735 -4.40323273 0 0 0 Z " fill="#DFF9C4" transform="translate(135,114)"/>
<path d="M0 0 C-0.93972656 0.22042969 -0.93972656 0.22042969 -1.8984375 0.4453125 C-4.40717493 1.13383034 -6.6700166 1.83713809 -9 3 C-10.68036511 6.02884844 -10.68036511 6.02884844 -11 9 C-11.95178554 6.43017905 -12.00609339 5.02911288 -11.4375 2.3125 C-10 0 -10 0 -7.125 -0.875 C-4.36896013 -0.98524159 -2.60066093 -0.73178771 0 0 Z " fill="#E6FBCF" transform="translate(44,120)"/>
<path d="M0 0 C0.66 0.33 1.32 0.66 2 1 C-0.475 5.455 -0.475 5.455 -3 10 C-3.66 8.68 -4.32 7.36 -5 6 C-3.35 4.02 -1.7 2.04 0 0 Z " fill="#DCF6C4" transform="translate(94,102)"/>
<path d="M0 0 C-0.33 0.99 -0.66 1.98 -1 3 C-2.70703125 3.765625 -2.70703125 3.765625 -4.8125 4.25 C-5.49957031 4.42015625 -6.18664063 4.5903125 -6.89453125 4.765625 C-9.19499821 5.02170666 -10.80629727 4.69015367 -13 4 C-11.2097939 3.32942113 -9.41778511 2.6636531 -7.625 2 C-6.62726562 1.62875 -5.62953125 1.2575 -4.6015625 0.875 C-2 0 -2 0 0 0 Z " fill="#86CF3F" transform="translate(59,114)"/>
<path d="M0 0 C2.31 0.33 4.62 0.66 7 1 C6.01 1.33 5.02 1.66 4 2 C4 2.66 4 3.32 4 4 C2.02 4 0.04 4 -2 4 C-2 3.34 -2 2.68 -2 2 C-1.34 2 -0.68 2 0 2 C0 1.34 0 0.68 0 0 Z " fill="#65C905" transform="translate(71,109)"/>
<path d="M0 0 C-0.33 0.66 -0.66 1.32 -1 2 C-8.3625 3.425 -8.3625 3.425 -12 1 C-7.9472484 0.01751476 -4.16138263 -0.08159574 0 0 Z " fill="#6C5384" transform="translate(173,64)"/>
<path d="M0 0 C-1.5 1.5625 -1.5 1.5625 -4 3 C-6.77437543 2.96823234 -9.25286467 2.50364148 -12 2 C-12 1.67 -12 1.34 -12 1 C-10.56496445 0.63597631 -9.12683494 0.28413409 -7.6875 -0.0625 C-6.88699219 -0.25972656 -6.08648437 -0.45695312 -5.26171875 -0.66015625 C-3 -1 -3 -1 0 0 Z " fill="#7EA154" transform="translate(109,82)"/>
<path d="M0 0 C1.8871875 0.061875 1.8871875 0.061875 3.8125 0.125 C3.8125 0.455 3.8125 0.785 3.8125 1.125 C2.74 1.41375 1.6675 1.7025 0.5625 2 C-2.28150364 2.85320109 -4.62258983 3.6886503 -7.1875 5.125 C-7.1875 4.135 -7.1875 3.145 -7.1875 2.125 C-4.09861478 0.06574319 -3.47814073 -0.1140374 0 0 Z " fill="#E6FCD0" transform="translate(128.1875,58.875)"/>
<path d="M0 0 C-1 2 -1 2 -2.625 2.6875 C-5.87425079 3.115033 -8.78773804 2.55596842 -12 2 C-8.09971775 -0.60018816 -4.52565431 -0.15085514 0 0 Z " fill="#562F71" transform="translate(64,87)"/>
<path d="M0 0 C-0.99 1.32 -1.98 2.64 -3 4 C-3 3.34 -3 2.68 -3 2 C-5.31 2 -7.62 2 -10 2 C-7.20652751 -0.79347249 -3.65536205 -1.82768103 0 0 Z " fill="#633F7A" transform="translate(109,77)"/>
<path d="M0 0 C0.66 0 1.32 0 2 0 C1.34 4.62 0.68 9.24 0 14 C-0.33 14 -0.66 14 -1 14 C-1.22331199 12.41870971 -1.42804644 10.83478911 -1.625 9.25 C-1.74101563 8.36828125 -1.85703125 7.4865625 -1.9765625 6.578125 C-2.00207817 3.77140122 -1.44843844 2.36615134 0 0 Z " fill="#89CF3D" transform="translate(88,106)"/>
<path d="M0 0 C-4.455 2.97 -4.455 2.97 -9 6 C-9.66 5.34 -10.32 4.68 -11 4 C-9.73760288 3.13341385 -8.46472499 2.28207941 -7.1875 1.4375 C-6.47980469 0.96183594 -5.77210938 0.48617187 -5.04296875 -0.00390625 C-3 -1 -3 -1 0 0 Z " fill="#ADCE80" transform="translate(152,102)"/>
<path d="M0 0 C0.33 0.66 0.66 1.32 1 2 C1.99 2 2.98 2 4 2 C4 2.66 4 3.32 4 4 C2 5.625 2 5.625 0 7 C0 6.01 0 5.02 0 4 C-0.66 4 -1.32 4 -2 4 C-1.34 2.68 -0.68 1.36 0 0 Z " fill="#7BC036" transform="translate(128,68)"/>
<path d="M0 0 C0 0.66 0 1.32 0 2 C-2.95664519 3.4783226 -5.74229737 3.06032783 -9 3 C-8 1 -8 1 -6.1875 0.375 C-4 0 -4 0 0 0 Z " fill="#DEF5CB" transform="translate(40,130)"/>
<path d="M0 0 C-3.03525486 2.02350324 -4.19426202 2.32124018 -7.6875 2.625 C-8.49574219 2.69976562 -9.30398437 2.77453125 -10.13671875 2.8515625 C-10.75160156 2.90054688 -11.36648437 2.94953125 -12 3 C-4.82142857 -1.78571429 -4.82142857 -1.78571429 0 0 Z " fill="#D4F4B2" transform="translate(118,125)"/>
<path d="M0 0 C-0.33 0.99 -0.66 1.98 -1 3 C-3.64 3.33 -6.28 3.66 -9 4 C-9 3.34 -9 2.68 -9 2 C-3.375 0 -3.375 0 0 0 Z " fill="#6AC60C" transform="translate(117,121)"/>
<path d="M0 0 C0.33 0.99 0.66 1.98 1 3 C1.66 3 2.32 3 3 3 C3.33 4.65 3.66 6.3 4 8 C3.01 8 2.02 8 1 8 C-0.35439668 5.29120665 -0.06501451 2.99066732 0 0 Z " fill="#63CB01" transform="translate(84,116)"/>
<path d="M0 0 C-0.33 0.99 -0.66 1.98 -1 3 C-4 4 -4 4 -6.1875 3.0625 C-6.785625 2.711875 -7.38375 2.36125 -8 2 C-4.91190305 0.23537317 -3.76687864 0 0 0 Z " fill="#80C939" transform="translate(134,112)"/>
<path d="M0 0 C0 0.66 0 1.32 0 2 C-0.66 2 -1.32 2 -2 2 C-2.66 3.32 -3.32 4.64 -4 6 C-4.99 5.67 -5.98 5.34 -7 5 C-2.25 0 -2.25 0 0 0 Z " fill="#EEFBDF" transform="translate(151,103)"/>
<path d="M0 0 C1.65 0 3.3 0 5 0 C5 0.66 5 1.32 5 2 C5.99 2.33 6.98 2.66 8 3 C6.02 3.99 6.02 3.99 4 5 C4 4.01 4 3.02 4 2 C2.35 2.33 0.7 2.66 -1 3 C-0.67 2.01 -0.34 1.02 0 0 Z " fill="#81CE37" transform="translate(97,94)"/>
<path d="M0 0 C0.99 0.99 1.98 1.98 3 3 C2.67 3.99 2.34 4.98 2 6 C0.68 5.34 -0.64 4.68 -2 4 C-2 4.66 -2 5.32 -2 6 C-2.66 5.67 -3.32 5.34 -4 5 C-2.68 3.35 -1.36 1.7 0 0 Z " fill="#87CD3B" transform="translate(97,87)"/>
<path d="M0 0 C1.65 0 3.3 0 5 0 C4.67 0.66 4.34 1.32 4 2 C3.34 2 2.68 2 2 2 C2 2.66 2 3.32 2 4 C0.68 4 -0.64 4 -2 4 C-1.34 2.68 -0.68 1.36 0 0 Z " fill="#F5F8EF" transform="translate(109,81)"/>
</svg>
